<svg version="1.1" class="highcharts-root" style="font-family:&quot;Lucida Grande&quot;, &quot;Lucida Sans Unicode&quot;, Arial, Helvetica, sans-serif;font-size:12px;" xmlns="http://www.w3.org/2000/svg" width="696" height="640" viewBox="0 0 696 640">
   <desc>Created with Highcharts 7.1.0</desc>
   <defs>
      <clipPath id="highcharts-016ezi4-1-">
         <rect x="0" y="0" width="676" height="615" fill="none"></rect>
      </clipPath>
   </defs>
   <rect fill="#fff" class="highcharts-background" x="0" y="0" width="696" height="640" rx="0" ry="0"></rect>
   <rect fill="none" class="highcharts-plot-background" x="10" y="10" width="676" height="615"></rect>
   <rect fill="none" class="highcharts-plot-border" data-z-index="1" x="10" y="10" width="676" height="615"></rect>
   <g class="highcharts-series-group" data-z-index="3" style="pointer-events: auto;">
      <g data-z-index="0.1" class="highcharts-series highcharts-series-0 highcharts-map-series  highcharts-tracker highcharts-series-hover" transform="translate(10,10) scale(1 1)" stroke-width="0.3" style="cursor:pointer;" clip-path="url(#highcharts-016ezi4-1-)">
         <g transform="translate(0,0) scale(1 1)">
            <path fill="#FF9650" d="M 502.5239972037 45.62001215860733 L 504.0460479673417 54.19527681219703 498.8822795260479 63.602140298402006 498.6041484294673 70.75441622565502 508.6770557525541 75.05421588585693 505.120470502574 90.84533051838196 496.14557043130367 91.41757844390474 484.7264626909423 84.55495262364411 469.09004960436357 85.23029934046998 453.4454508421089 98.68537255011195 457.35771803909824 104.35770960013538 453.31594778484873 111.60529618588977 466.8539387467458 124.60938016023644 467.15849947609024 140.95250242180302 458.2992336391774 136.58195097583953 441.443647348034 140.67995493014803 441.15148450594563 132.37869119442217 419.74975631388975 129.4942836177623 414.77326237442855 138.8221871759007 405.45288626125136 142.43636285466937 390.76746466419917 131.97087909821718 381.95597808619823 129.77883452285099 376.78076033977754 124.00841333840674 370.2910904848652 125.91211720291568 360.74483451755 122.51655655160761 365.56543843520876 105.1447944439332 363.0957877333888 94.67751341204753 368.0174083738481 93.57475152482367 374.09533214780356 83.7442400012539 378.69230945713696 82.65959292012565 378.7618119893429 72.40404751707584 369.754039837415 69.84041809303712 368.69770601464575 58.73502905801907 362.82976348913473 54.46309762378373 364.940275969853 42.34218493675898 354.8070439212935 30.80789448144414 368.2419329409053 25.606313000436696 370.702486342013 19.05165945553647 385.6262758642325 13.50943850453609 399.8411614164845 22.289617849668403 416.78675722403887 20.595085478288556 422.84849968610126 17.563860321233637 435.9167956983448 0 445.84228359486883 1.7030483390144462 454.05381547574154 7.379234671419648 454.32547817891543 13.066378969425283 461.0210804614894 23.294465030216802 468.3391450232127 25.068440229342986 475.46664202623015 33.721196292847004 474.03359137835173 40.75202803966742 479.89544601529724 48.833482119767645 495.5282274984711 52.37109512850563 502.5239972037 45.62001215860733 Z" stroke="#000" stroke-width="inherit" opacity="1" class="highcharts-point" data-constituency="CG_1" data-const-name="Surguja" data-const-id="CG_1" data-won-alliance="NDA"></path>
            <path fill="#FF9650" d="M 505.120470502574 90.84533051838196 L 522.9767625384421 109.46404211628347 537.935255492656 109.58890261744294 538.4615586951521 119.46490470391525 533.0367658005036 121.82707695453963 529.8558290374089 129.47386207879813 524.4490661075313 137.49329401336752 516.4267248407646 142.77306531224488 509.6474543165599 142.5713971495124 502.3039896691877 149.09903833845584 502.0542054721416 153.84033191683778 505.85998924378066 159.363186055972 501.92429059070764 168.56063703914248 488.2599409485472 171.0919052429352 477.0147130335499 181.08677509602782 467.27526873314423 182.7145810938647 458.6498608912094 194.85297842129083 456.49494640856403 208.14215708820484 462.8610532625787 213.26256397840845 460.23372098672587 221.16732709813937 452.22214508002116 223.21904137786734 447.3369338108463 238.73974498321405 441.4371256039749 242.30029721474966 437.6701684147089 254.70680382089074 442.7116886500402 263.06363888196165 440.8646887144904 268.8551405650009 430.648343456005 265.4500033008826 403.61671435985727 257.71561366595495 397.23439936183104 254.12265412762088 396.8332830578162 248.02572547323567 402.1025677591614 239.75501965249904 398.86055660718 231.95083336375743 429.9385303812762 232.87638916378046 421.5695055474341 219.9217330838781 423.3204367915532 212.86688509023952 412.7394685083624 207.49471435151307 404.3845978273333 208.3845088440996 405.0728065470611 197.62506733715426 397.84935436357307 192.92107208347528 406.5884584545421 188.34750052977395 407.299424556403 180.5205322988062 414.43050590186556 169.26709258052085 412.29736333689493 158.6320145025241 414.77326237442855 138.8221871759007 419.74975631388975 129.4942836177623 441.15148450594563 132.37869119442217 441.443647348034 140.67995493014803 458.2992336391774 136.58195097583953 467.15849947609024 140.95250242180302 466.8539387467458 124.60938016023644 453.31594778484873 111.60529618588977 457.35771803909824 104.35770960013538 453.4454508421089 98.68537255011195 469.09004960436357 85.23029934046998 484.7264626909423 84.55495262364411 496.14557043130367 91.41757844390474 505.120470502574 90.84533051838196 Z" stroke="#000" stroke-width="inherit" opacity="1" class="highcharts-point" data-constituency="CG_2" data-const-name="Raigarh" data-const-id="CG_2" data-won-alliance="NDA"></path>
            <path fill="#FF9650" d="M 330.2484759204072 228.78795585100326 L 334.4890245500461 229.1233696022408 344.1872628469654 233.00363275136067 340.7562366270351 219.26533920000364 337.1638887075677 216.51435241377806 338.94768889907573 194.80970895892247 347.80600507521103 191.4028716257085 351.1826690559178 184.0254941885482 356.8595511306903 180.21678665961397 368.9218512443804 181.6448629067225 368.1765405346341 192.76191125941133 371.73774341239465 196.90762359828236 391.0941471148394 188.10109385679314 397.84935436357307 192.92107208347528 405.0728065470611 197.62506733715426 404.3845978273333 208.3845088440996 412.7394685083624 207.49471435151307 423.3204367915532 212.86688509023952 421.5695055474341 219.9217330838781 429.9385303812762 232.87638916378046 398.86055660718 231.95083336375743 402.1025677591614 239.75501965249904 396.8332830578162 248.02572547323567 397.23439936183104 254.12265412762088 391.5167791908301 248.66152343815793 373.3862708729232 255.4064916867425 374.278642739574 270.1612924790907 351.5020150586698 270.85378594993983 344.5545249400058 276.44898969822486 331.52815864660386 272.20702033344793 324.77645293651483 265.57120412884643 305.78308622515067 257.1800201909674 305.0267705393322 248.28864378949643 313.11623772521716 249.84759044380124 324.66322730286095 246.17301851158777 332.3190893187125 235.7952842515509 330.45995813427 232.44085289094136 331.13385924416957 230.403774139457 330.3284153469216 229.45345781532194 330.24150307026355 229.19626563718137 330.24587195071865 228.9404337991354 330.247328281887 228.855156497407 330.2484759204072 228.78795585100326 Z" stroke="#000" stroke-width="inherit" opacity="1" class="highcharts-point" data-constituency="CG_3" data-const-name="Janjgir-Champa" data-const-id="CG_3" data-won-alliance="NDA"></path>
            <path fill="#1EB4FF" d="M 283.7656018276235 132.22856156477403 L 283.8069507322414 132.04474483148516 284.33978254584304 119.70224912756912 293.2838924703066 117.7036650887115 301.0030879392564 111.5474499942677 300.7962919130889 99.79346783962714 318.1331240899407 97.24628852620285 325.12451710626306 75.96991678328153 316.4451362354637 68.6285989700414 309.1069467949626 69.99189743001935 303.97027527983914 66.09103969308997 298.6879548949735 55.556592886089284 289.99194810876764 57.591284471303645 280.44220195861175 52.35762900167374 276.91609111793383 56.428345016468754 264.9880569517045 49.856474709574854 276.3576069484119 37.1444363079478 267.6991328509663 24.26393295649756 277.86471697664854 23.308230709182567 288.4969192089337 28.549589365487645 306.9305164967591 23.309428821209867 311.2837739207372 27.448860713544338 326.2884362145294 26.332884079382236 335.8755415864233 28.63784899141326 352.0539746152015 28.36186622228012 354.8070439212935 30.80789448144414 364.940275969853 42.34218493675898 362.82976348913473 54.46309762378373 368.69770601464575 58.73502905801907 369.754039837415 69.84041809303712 378.7618119893429 72.40404751707584 378.69230945713696 82.65959292012565 374.09533214780356 83.7442400012539 368.0174083738481 93.57475152482367 363.0957877333888 94.67751341204753 365.56543843520876 105.1447944439332 360.74483451755 122.51655655160761 370.2910904848652 125.91211720291568 376.78076033977754 124.00841333840674 381.95597808619823 129.77883452285099 390.76746466419917 131.97087909821718 405.45288626125136 142.43636285466937 414.77326237442855 138.8221871759007 412.29736333689493 158.6320145025241 414.43050590186556 169.26709258052085 407.299424556403 180.5205322988062 406.5884584545421 188.34750052977395 397.84935436357307 192.92107208347528 391.0941471148394 188.10109385679314 371.73774341239465 196.90762359828236 368.1765405346341 192.76191125941133 368.9218512443804 181.6448629067225 356.8595511306903 180.21678665961397 351.1826690559178 184.0254941885482 340.83639110592406 173.1877071571058 334.0185629074161 176.82265429530682 320.0761735513243 172.66155221490519 323.9295248420955 165.12784242808823 320.34814682038245 160.7965802256523 322.37654977867044 150.85974737596098 319.22087817803515 144.24054320085938 307.18717775460846 147.1246328368755 302.8860594173884 133.59817333908703 295.6565108593032 131.45031879015485 289.4668964353435 131.3035877710946 287.69529089057437 132.27489856520134 285.708304175731 132.25133863287166 284.485539416924 132.23697269426347 284.10342487152536 132.23250403891709 283.8741560544752 132.2298275776871 283.7977330617996 132.228936212154 283.7656018276235 132.22856156477403 Z" stroke="#000" stroke-width="inherit" opacity="1" class="highcharts-point" data-constituency="CG_4" data-const-name="Korba" data-const-id="CG_4" data-won-alliance="UPA"></path>
            <path fill="#FF9650" d="M 351.1826690559178 184.0254941885482 L 347.80600507521103 191.4028716257085 338.94768889907573 194.80970895892247 337.1638887075677 216.51435241377806 340.7562366270351 219.26533920000364 344.1872628469654 233.00363275136067 334.4890245500461 229.1233696022408 327.3378341032513 228.55845077955112 324.58575220025295 220.81430413640373 318.36030403660135 221.05631375544098 309.85043825105384 216.16349191746568 300.517684214817 222.859961424561 287.2869358540716 210.49226809601194 279.7798567425761 210.36463812539898 257.7602086266374 203.53826775676333 258.8305660532704 191.22585611747533 262.3399348997653 178.49768679784881 262.02775843347786 170.8055783923941 256.5986600639265 164.7806922931213 256.09206105971157 156.75063187773122 259.5617291529551 152.51766772292547 268.6853468894982 152.53934677732315 271.84960339751296 145.6128330394842 279.80446891653094 138.9181989156301 283.69181696776167 132.55658508923182 283.7656018276235 132.22856156477403 283.7977330617996 132.228936212154 283.8741560544752 132.2298275776871 284.10342487152536 132.23250403891709 284.485539416924 132.23697269426347 285.708304175731 132.25133863287166 287.69529089057437 132.27489856520134 289.4668964353435 131.3035877710946 295.6565108593032 131.45031879015485 302.8860594173884 133.59817333908703 307.18717775460846 147.1246328368755 319.22087817803515 144.24054320085938 322.37654977867044 150.85974737596098 320.34814682038245 160.7965802256523 323.9295248420955 165.12784242808823 320.0761735513243 172.66155221490519 334.0185629074161 176.82265429530682 340.83639110592406 173.1877071571058 351.1826690559178 184.0254941885482 Z" stroke="#000" stroke-width="inherit" opacity="1" class="highcharts-point" data-constituency="CG_5" data-const-name="Bilaspur" data-const-id="CG_5" data-won-alliance="NDA"></path>
            <path fill="#FF9650" d="M 256.09206105971157 156.75063187773122 L 256.5986600639265 164.7806922931213 262.02775843347786 170.8055783923941 262.3399348997653 178.49768679784881 258.8305660532704 191.22585611747533 257.7602086266374 203.53826775676333 253.3524448777869 213.00907150907642 241.5115060076916 220.56023841650753 241.5833706975274 227.74207815476998 225.66086867182878 234.4561544945018 227.68985618365434 252.18352035398266 227.39841661044724 264.2530316110713 224.5546836663048 279.2491266945224 229.67271908063373 285.61256202546076 223.29569264691838 294.6493276164633 222.8544798546642 294.8475868896217 220.29469645636652 301.6265420591525 204.51183150230867 303.29125824755215 205.23583685084398 310.831469910226 202.50085224073624 323.7269180015016 191.65426152431291 325.33808676988644 190.4419295461951 332.01442970270824 197.11244648671754 335.7658650623293 204.52362816027386 334.7315426473827 209.38681582870637 342.86443847358544 205.49697377461496 347.26477712527856 207.87298590394644 355.54735571816366 195.56693779584594 362.2941625237886 192.16073515632195 369.7693075171544 182.30936579256078 373.82140938721864 168.13684251036577 382.7621071199032 164.45250121986098 388.90137423999 155.76473985307848 385.49971648562274 149.0910804769771 376.0789780795343 161.56785028921013 373.3507825308681 171.8944385165301 367.8734505113451 170.60061859258528 357.4081307121413 171.51659337390618 342.0913123297245 164.73164324857885 322.50904504836257 163.94115509945317 308.925797811835 156.50886898126242 309.24304144602837 153.06145785269868 301.31684537656264 156.33267338231173 285.419743283864 174.03391241205046 277.42259863555455 175.77105348455092 270.02310138210305 182.96158620265743 256.2598269309781 180.73073726067662 236.83483918149608 183.9199830789748 228.5641436968478 190.86028738762786 229.43352836569844 193.02624665993537 210.0408785169104 201.2000075740861 193.06620063249676 209.20062630023136 198.84125865350742 213.22892202334714 181.40126458046865 220.38888048586506 176.15455336962134 220.0168897744037 161.86717216743224 225.93489230841283 157.2963777602781 231.09414239473455 160.83538129542052 240.78865361938432 153.74404199709082 256.09206105971157 156.75063187773122 Z" stroke="#000" stroke-width="inherit" opacity="1" class="highcharts-point" data-constituency="CG_6" data-const-name="Rajnandgaon" data-const-id="CG_6" data-won-alliance="NDA"></path>
            <path fill="#FF9650" d="M 223.20668748112624 294.6893205776048 L 223.29569264691838 294.6493276164633 229.67271908063373 285.61256202546076 224.5546836663048 279.2491266945224 227.39841661044724 264.2530316110713 227.68985618365434 252.18352035398266 225.66086867182878 234.4561544945018 241.5833706975274 227.74207815476998 241.5115060076916 220.56023841650753 253.3524448777869 213.00907150907642 257.7602086266374 203.53826775676333 279.7798567425761 210.36463812539898 287.2869358540716 210.49226809601194 300.517684214817 222.859961424561 279.3499963221774 233.0442313240639 276.7937017721764 242.13967740506237 270.22134400177856 252.97107692660464 270.94569006443254 262.91932400108175 260.8282599146723 273.2849962165053 267.4006869910546 282.2333277764264 265.5273785044042 295.3183983125029 268.4529395842642 299.8239744679731 266.28249618959535 308.0092566881269 256.0236586935843 314.89927914759204 255.0207419028269 314.9431895528426 248.2833600626696 315.6022717153796 250.08688991043226 301.9581545831055 238.45262099313317 296.89707948408574 229.5313773685978 299.37053616831264 226.555655863618 294.8870613917667 224.21274792530795 295.43508335626626 223.91356857399282 295.1496155345455 223.68793902657256 295.0770882992461 223.46354078830973 294.862994346011 223.31332167858312 294.7910519536821 223.31393779154183 294.72026672715805 223.23851939367137 294.71968865620124 223.20668748112624 294.6893205776048 Z" stroke="#000" stroke-width="inherit" opacity="1" class="highcharts-point" data-constituency="CG_7" data-const-name="Durg" data-const-id="CG_7" data-won-alliance="NDA"></path>
            <path fill="#FF9650" d="M 324.77645293651483 265.57120412884643 L 322.30817824827693 270.3859771812639 308.02099323435385 280.96118441296494 305.26142042621905 294.1021282807612 292.5096707452536 307.5458715415598 281.90573341300285 301.34122103402643 268.4529395842642 299.8239744679731 265.5273785044042 295.3183983125029 267.4006869910546 282.2333277764264 260.8282599146723 273.2849962165053 270.94569006443254 262.91932400108175 270.22134400177856 252.97107692660464 276.7937017721764 242.13967740506237 279.3499963221774 233.0442313240639 300.517684214817 222.859961424561 309.85043825105384 216.16349191746568 318.36030403660135 221.05631375544098 324.58575220025295 220.81430413640373 327.3378341032513 228.55845077955112 330.2484759204072 228.78795585100326 330.247328281887 228.855156497407 330.24587195071865 228.9404337991354 330.24150307026355 229.19626563718137 330.3284153469216 229.45345781532194 331.13385924416957 230.403774139457 330.45995813427 232.44085289094136 332.3190893187125 235.7952842515509 324.66322730286095 246.17301851158777 313.11623772521716 249.84759044380124 305.0267705393322 248.28864378949643 305.78308622515067 257.1800201909674 324.77645293651483 265.57120412884643 Z" stroke="#000" stroke-width="inherit" opacity="1" class="highcharts-point" data-constituency="CG_8" data-const-name="Raipur" data-const-id="CG_8" data-won-alliance="NDA"></path>
            <path fill="#1EB4FF" d="M 295.33110603803595 410.48522170353255 L 296.9002469313303 411.2605210393216 304.91153622343614 419.30444866684485 311.93627801412066 419.7277151685554 310.512370471747 428.23907686649915 311.35565874612223 444.3264066731429 324.4429665599689 464.39985418724314 321.66482258609136 470.89891258549903 323.27007895062707 483.70734764107897 327.21456834248687 489.0861831466079 330.244464829911 505.43888542414567 323.5374277769255 507.2828472867361 321.07643420312786 518.8004862833561 302.51600347638635 527.8799430430529 301.7246098994365 539.666463214126 283.70768588123144 554.0770475968927 282.0365157626306 560.4983386204276 273.56864591214674 561.1000382751375 260.8803392972703 568.9229319848749 260.3644061790458 578.833816021206 255.89569901625515 596.6852433549533 248.0181505657174 605.098765813502 246.9624384131153 612.9805114904921 234.1899231982244 612.4599818705959 224.96925128489562 608.5310082855893 216.58755141562813 615 209.82667591901082 609.9427846256746 204.44328083509885 582.2281530602737 183.4834073939444 577.5343808069752 188.33080723758644 570.5626105834372 181.3702280868946 554.7601262281881 173.52189698858126 543.7601662671401 159.43676371614941 533.278301438436 144.6342525016639 536.8228712251214 137.88041289415676 524.4253399228893 145.55512451235978 515.3519802750877 137.53844130484785 502.76154096155545 137.88620580169868 498.2054371953072 148.94363881371945 479.3645798048057 149.65572089993896 473.27211755287664 166.32608195853328 458.2366560973143 170.6823991519446 466.58098492481093 184.85991912984593 469.00040984820373 193.6220999034085 462.32936746960326 188.62868265367246 455.37120639018906 198.78782678974613 451.564507818688 197.5149403319102 446.3734370326253 182.0912028078634 437.6927725786683 176.5818726739407 429.6830129271167 181.58514642618616 428.57488659769353 181.4520365013078 416.36368640226743 192.44983134230063 409.12757447406506 199.93655259432012 409.4580590206916 203.8191970817905 419.4960796074391 209.05113595750868 418.6859601810991 215.977771588622 429.10897593277116 223.7455589331184 429.2878554842414 222.16510017401401 420.4693761243198 242.70996186876027 417.98700123252024 243.03726390493966 423.4188482327203 251.29168875595246 426.02962677160093 255.1618116118661 433.18471126571245 266.5273447813348 430.40701903904977 274.3861255625052 433.38845654300917 278.7241757463996 412.92890110570147 292.3626601371365 413.45473580671415 294.8176397788134 411.19307957843665 294.9485797507228 410.953416095377 295.07781648575667 410.8343922461747 295.33110603803595 410.48522170353255 Z" stroke="#000" stroke-width="inherit" opacity="1" class="highcharts-point" data-constituency="CG_10" data-const-name="Bastar" data-const-id="CG_10" data-won-alliance="UPA"></path>
            <path fill="rgb(255,150,80)" d="M 397.23439936183104 254.12265412762088 L 403.61671435985727 257.71561366595495 430.648343456005 265.4500033008826 423.11764566095894 288.39086360577323 416.00946214124747 292.133521072416 402.36747488688354 286.6579198612729 388.7254864768736 286.09657909514766 368.8297070777221 287.4717608294495 368.4322380471269 293.55487153402095 360.7385727592954 307.7242928533037 339.39594881400274 317.56756675026463 342.6660557375958 338.10410077064955 338.42356228718035 345.47646693008926 343.9317056174704 349.7554679059025 346.80282556044426 360.1842131534072 345.2316124533616 366.7239724630591 347.1677359270791 379.6909042240314 343.78787956198045 385.3050649955504 345.4330512519799 394.61084004413567 363.63148171727255 400.3393511114521 376.165454053289 400.9751457739325 374.9528629198295 416.1988169112061 363.8989690696043 421.64257458302575 365.09714427965645 412.9385871648679 353.23130790052574 409.05241016992653 344.7595660253965 410.8888040239262 339.94834213150943 415.93615607573696 332.3619239753858 402.16368956753354 324.80311000078757 401.2386985234525 312.48553675588244 394.5643881284957 307.8096552375769 395.0632942933093 315.28607616424193 389.914075976186 323.1390587232809 374.5816643459102 316.6636030508116 371.63849412799567 314.202357040459 359.62294175785905 308.1930822505043 348.27798450065853 307.37208101456065 334.0201392742107 299.0014769107403 326.8467337123033 298.68687607604943 320.0088612208067 292.23084808859227 318.5502645801895 287.3944929573667 325.3244698093704 274.08761071197847 331.42739817200874 267.749173621224 337.2555282600359 273.3882952388891 344.50885177067664 272.17949554598954 349.6012613313598 260.8608985920767 351.4940856055821 249.82228492440873 348.9399485866178 256.4644727787331 342.0291011866937 259.88792639883286 329.909234445879 259.37875039039716 320.985212147931 258.7915118925159 318.82137645471374 257.87512688329195 318.6682817554992 257.5072910252812 317.3698396760699 256.74462149325143 317.14642490659435 256.3742007501494 316.0637659019859 255.92073922795606 315.55574181853945 255.69520325650774 315.19384776821613 255.46804619094956 314.9758051627966 255.46863027624912 314.9235712871061 256.0236586935843 314.89927914759204 266.28249618959535 308.0092566881269 268.4529395842642 299.8239744679731 281.90573341300285 301.34122103402643 292.5096707452536 307.5458715415598 305.26142042621905 294.1021282807612 308.02099323435385 280.96118441296494 322.30817824827693 270.3859771812639 324.77645293651483 265.57120412884643 331.52815864660386 272.20702033344793 344.5545249400058 276.44898969822486 351.5020150586698 270.85378594993983 374.278642739574 270.1612924790907 373.3862708729232 255.4064916867425 391.5167791908301 248.66152343815793 397.23439936183104 254.12265412762088 Z" stroke="#000" stroke-width="inherit" opacity="1" class="highcharts-point " data-constituency="CG_9" data-const-name="Mahasamund" data-const-id="CG_9" data-won-alliance="NDA" data-z-index="0"></path>
            <path fill="rgb(255,201,131)" d="M 222.8544798546642 294.8475868896217 L 223.20668748112624 294.6893205776048 223.23851939367137 294.71968865620124 223.31393779154183 294.72026672715805 223.31332167858312 294.7910519536821 223.46354078830973 294.862994346011 223.68793902657256 295.0770882992461 223.91356857399282 295.1496155345455 224.21274792530795 295.43508335626626 226.555655863618 294.8870613917667 229.5313773685978 299.37053616831264 238.45262099313317 296.89707948408574 250.08688991043226 301.9581545831055 248.2833600626696 315.6022717153796 255.0207419028269 314.9431895528426 255.46863027624912 314.9235712871061 255.46804619094956 314.9758051627966 255.69520325650774 315.19384776821613 255.92073922795606 315.55574181853945 256.3742007501494 316.0637659019859 256.74462149325143 317.14642490659435 257.5072910252812 317.3698396760699 257.87512688329195 318.6682817554992 258.7915118925159 318.82137645471374 259.37875039039716 320.985212147931 259.88792639883286 329.909234445879 256.4644727787331 342.0291011866937 249.82228492440873 348.9399485866178 260.8608985920767 351.4940856055821 272.17949554598954 349.6012613313598 273.3882952388891 344.50885177067664 267.749173621224 337.2555282600359 274.08761071197847 331.42739817200874 287.3944929573667 325.3244698093704 292.23084808859227 318.5502645801895 298.68687607604943 320.0088612208067 299.0014769107403 326.8467337123033 307.37208101456065 334.0201392742107 308.1930822505043 348.27798450065853 314.202357040459 359.62294175785905 316.6636030508116 371.63849412799567 323.1390587232809 374.5816643459102 315.28607616424193 389.914075976186 307.8096552375769 395.0632942933093 300.3938325542991 389.76615361369727 293.20289367312034 397.16699208911206 290.9740566667964 404.3023307019949 294.0910272546537 409.8726896783404 295.33110603803595 410.48522170353255 295.07781648575667 410.8343922461747 294.9485797507228 410.953416095377 294.8176397788134 411.19307957843665 292.3626601371365 413.45473580671415 278.7241757463996 412.92890110570147 274.3861255625052 433.38845654300917 266.5273447813348 430.40701903904977 255.1618116118661 433.18471126571245 251.29168875595246 426.02962677160093 243.03726390493966 423.4188482327203 242.70996186876027 417.98700123252024 222.16510017401401 420.4693761243198 223.7455589331184 429.2878554842414 215.977771588622 429.10897593277116 209.05113595750868 418.6859601810991 203.8191970817905 419.4960796074391 199.93655259432012 409.4580590206916 192.44983134230063 409.12757447406506 181.4520365013078 416.36368640226743 181.58514642618616 428.57488659769353 176.5818726739407 429.6830129271167 164.39408295443312 421.53564277323636 159.5265540399759 409.9503211539274 164.82377195976244 401.3926230528151 164.45250121986098 388.90137423999 168.13684251036577 382.7621071199032 182.30936579256078 373.82140938721864 192.16073515632195 369.7693075171544 195.56693779584594 362.2941625237886 207.87298590394644 355.54735571816366 205.49697377461496 347.26477712527856 209.38681582870637 342.86443847358544 204.52362816027386 334.7315426473827 197.11244648671754 335.7658650623293 190.4419295461951 332.01442970270824 191.65426152431291 325.33808676988644 202.50085224073624 323.7269180015016 205.23583685084398 310.831469910226 204.51183150230867 303.29125824755215 220.29469645636652 301.6265420591525 222.8544798546642 294.8475868896217 Z" stroke="#000" stroke-width="inherit" opacity="1" class="highcharts-point highcharts-point-hover" data-constituency="CG_11" data-const-name="Kanker" data-const-id="CG_11" data-won-alliance="NDA" data-z-index="1"></path>
         </g>
      </g>
      <g data-z-index="0.1" class="highcharts-markers highcharts-series-0 highcharts-map-series  highcharts-tracker highcharts-series-hover" transform="translate(10,10) scale(1 1)" style="cursor:pointer;" clip-path="none"></g>
      <g data-z-index="0.1" class="highcharts-series highcharts-series-1 highcharts-mapline-series  highcharts-tracker highcharts-series-inactive" transform="translate(10,10) scale(1 1)" stroke-width="1" style="cursor:pointer;" clip-path="url(#highcharts-016ezi4-1-)" opacity="0.2">
         <g transform="translate(0,0) scale(1 1)">
            <path fill="none" d="M 330.2484759204072 228.78795585100326 L 334.4890245500461 229.1233696022408 344.1872628469654 233.00363275136067 340.7562366270351 219.26533920000364 337.1638887075677 216.51435241377806 338.94768889907573 194.80970895892247 347.80600507521103 191.4028716257085 351.1826690559178 184.0254941885482 356.8595511306903 180.21678665961397 368.9218512443804 181.6448629067225 368.1765405346341 192.76191125941133 371.73774341239465 196.90762359828236 391.0941471148394 188.10109385679314 397.84935436357307 192.92107208347528 405.0728065470611 197.62506733715426 404.3845978273333 208.3845088440996 412.7394685083624 207.49471435151307 423.3204367915532 212.86688509023952 421.5695055474341 219.9217330838781 429.9385303812762 232.87638916378046 398.86055660718 231.95083336375743 402.1025677591614 239.75501965249904 396.8332830578162 248.02572547323567 397.23439936183104 254.12265412762088 391.5167791908301 248.66152343815793 373.3862708729232 255.4064916867425 374.278642739574 270.1612924790907 351.5020150586698 270.85378594993983 344.5545249400058 276.44898969822486 331.52815864660386 272.20702033344793 324.77645293651483 265.57120412884643 305.78308622515067 257.1800201909674 305.0267705393322 248.28864378949643 313.11623772521716 249.84759044380124 324.66322730286095 246.17301851158777 332.3190893187125 235.7952842515509 330.45995813427 232.44085289094136 331.13385924416957 230.403774139457 330.3284153469216 229.45345781532194 330.24150307026355 229.19626563718137 330.24587195071865 228.9404337991354 330.247328281887 228.855156497407 330.2484759204072 228.78795585100326 Z" stroke="#eee" stroke-width="inherit" opacity="1" class="highcharts-point" data-state="CG" data-key="CG_3"></path>
            <path fill="none" d="M 324.77645293651483 265.57120412884643 L 322.30817824827693 270.3859771812639 308.02099323435385 280.96118441296494 305.26142042621905 294.1021282807612 292.5096707452536 307.5458715415598 281.90573341300285 301.34122103402643 268.4529395842642 299.8239744679731 265.5273785044042 295.3183983125029 267.4006869910546 282.2333277764264 260.8282599146723 273.2849962165053 270.94569006443254 262.91932400108175 270.22134400177856 252.97107692660464 276.7937017721764 242.13967740506237 279.3499963221774 233.0442313240639 300.517684214817 222.859961424561 309.85043825105384 216.16349191746568 318.36030403660135 221.05631375544098 324.58575220025295 220.81430413640373 327.3378341032513 228.55845077955112 330.2484759204072 228.78795585100326 330.247328281887 228.855156497407 330.24587195071865 228.9404337991354 330.24150307026355 229.19626563718137 330.3284153469216 229.45345781532194 331.13385924416957 230.403774139457 330.45995813427 232.44085289094136 332.3190893187125 235.7952842515509 324.66322730286095 246.17301851158777 313.11623772521716 249.84759044380124 305.0267705393322 248.28864378949643 305.78308622515067 257.1800201909674 324.77645293651483 265.57120412884643 Z" stroke="#eee" stroke-width="inherit" opacity="1" class="highcharts-point" data-state="CG" data-key="CG_8"></path>
            <path fill="none" d="M 502.5239972037 45.62001215860733 L 504.0460479673417 54.19527681219703 498.8822795260479 63.602140298402006 498.6041484294673 70.75441622565502 508.6770557525541 75.05421588585693 505.120470502574 90.84533051838196 496.14557043130367 91.41757844390474 484.7264626909423 84.55495262364411 469.09004960436357 85.23029934046998 453.4454508421089 98.68537255011195 457.35771803909824 104.35770960013538 453.31594778484873 111.60529618588977 466.8539387467458 124.60938016023644 467.15849947609024 140.95250242180302 458.2992336391774 136.58195097583953 441.443647348034 140.67995493014803 441.15148450594563 132.37869119442217 419.74975631388975 129.4942836177623 414.77326237442855 138.8221871759007 405.45288626125136 142.43636285466937 390.76746466419917 131.97087909821718 381.95597808619823 129.77883452285099 376.78076033977754 124.00841333840674 370.2910904848652 125.91211720291568 360.74483451755 122.51655655160761 365.56543843520876 105.1447944439332 363.0957877333888 94.67751341204753 368.0174083738481 93.57475152482367 374.09533214780356 83.7442400012539 378.69230945713696 82.65959292012565 378.7618119893429 72.40404751707584 369.754039837415 69.84041809303712 368.69770601464575 58.73502905801907 362.82976348913473 54.46309762378373 364.940275969853 42.34218493675898 354.8070439212935 30.80789448144414 368.2419329409053 25.606313000436696 370.702486342013 19.05165945553647 385.6262758642325 13.50943850453609 399.8411614164845 22.289617849668403 416.78675722403887 20.595085478288556 422.84849968610126 17.563860321233637 435.9167956983448 0 445.84228359486883 1.7030483390144462 454.05381547574154 7.379234671419648 454.32547817891543 13.066378969425283 461.0210804614894 23.294465030216802 468.3391450232127 25.068440229342986 475.46664202623015 33.721196292847004 474.03359137835173 40.75202803966742 479.89544601529724 48.833482119767645 495.5282274984711 52.37109512850563 502.5239972037 45.62001215860733 Z" stroke="#eee" stroke-width="inherit" opacity="1" class="highcharts-point" data-state="CG" data-key="CG_1"></path>
            <path fill="none" d="M 351.1826690559178 184.0254941885482 L 347.80600507521103 191.4028716257085 338.94768889907573 194.80970895892247 337.1638887075677 216.51435241377806 340.7562366270351 219.26533920000364 344.1872628469654 233.00363275136067 334.4890245500461 229.1233696022408 327.3378341032513 228.55845077955112 324.58575220025295 220.81430413640373 318.36030403660135 221.05631375544098 309.85043825105384 216.16349191746568 300.517684214817 222.859961424561 287.2869358540716 210.49226809601194 279.7798567425761 210.36463812539898 257.7602086266374 203.53826775676333 258.8305660532704 191.22585611747533 262.3399348997653 178.49768679784881 262.02775843347786 170.8055783923941 256.5986600639265 164.7806922931213 256.09206105971157 156.75063187773122 259.5617291529551 152.51766772292547 268.6853468894982 152.53934677732315 271.84960339751296 145.6128330394842 279.80446891653094 138.9181989156301 283.69181696776167 132.55658508923182 283.7656018276235 132.22856156477403 283.7977330617996 132.228936212154 283.8741560544752 132.2298275776871 284.10342487152536 132.23250403891709 284.485539416924 132.23697269426347 285.708304175731 132.25133863287166 287.69529089057437 132.27489856520134 289.4668964353435 131.3035877710946 295.6565108593032 131.45031879015485 302.8860594173884 133.59817333908703 307.18717775460846 147.1246328368755 319.22087817803515 144.24054320085938 322.37654977867044 150.85974737596098 320.34814682038245 160.7965802256523 323.9295248420955 165.12784242808823 320.0761735513243 172.66155221490519 334.0185629074161 176.82265429530682 340.83639110592406 173.1877071571058 351.1826690559178 184.0254941885482 Z" stroke="#eee" stroke-width="inherit" opacity="1" class="highcharts-point" data-state="CG" data-key="CG_5"></path>
            <path fill="none" d="M 256.09206105971157 156.75063187773122 L 256.5986600639265 164.7806922931213 262.02775843347786 170.8055783923941 262.3399348997653 178.49768679784881 258.8305660532704 191.22585611747533 257.7602086266374 203.53826775676333 253.3524448777869 213.00907150907642 241.5115060076916 220.56023841650753 241.5833706975274 227.74207815476998 225.66086867182878 234.4561544945018 227.68985618365434 252.18352035398266 227.39841661044724 264.2530316110713 224.5546836663048 279.2491266945224 229.67271908063373 285.61256202546076 223.29569264691838 294.6493276164633 222.8544798546642 294.8475868896217 220.29469645636652 301.6265420591525 204.51183150230867 303.29125824755215 205.23583685084398 310.831469910226 202.50085224073624 323.7269180015016 191.65426152431291 325.33808676988644 190.4419295461951 332.01442970270824 197.11244648671754 335.7658650623293 204.52362816027386 334.7315426473827 209.38681582870637 342.86443847358544 205.49697377461496 347.26477712527856 207.87298590394644 355.54735571816366 195.56693779584594 362.2941625237886 192.16073515632195 369.7693075171544 182.30936579256078 373.82140938721864 168.13684251036577 382.7621071199032 164.45250121986098 388.90137423999 155.76473985307848 385.49971648562274 149.0910804769771 376.0789780795343 161.56785028921013 373.3507825308681 171.8944385165301 367.8734505113451 170.60061859258528 357.4081307121413 171.51659337390618 342.0913123297245 164.73164324857885 322.50904504836257 163.94115509945317 308.925797811835 156.50886898126242 309.24304144602837 153.06145785269868 301.31684537656264 156.33267338231173 285.419743283864 174.03391241205046 277.42259863555455 175.77105348455092 270.02310138210305 182.96158620265743 256.2598269309781 180.73073726067662 236.83483918149608 183.9199830789748 228.5641436968478 190.86028738762786 229.43352836569844 193.02624665993537 210.0408785169104 201.2000075740861 193.06620063249676 209.20062630023136 198.84125865350742 213.22892202334714 181.40126458046865 220.38888048586506 176.15455336962134 220.0168897744037 161.86717216743224 225.93489230841283 157.2963777602781 231.09414239473455 160.83538129542052 240.78865361938432 153.74404199709082 256.09206105971157 156.75063187773122 Z" stroke="#eee" stroke-width="inherit" opacity="1" class="highcharts-point" data-state="CG" data-key="CG_6"></path>
            <path fill="none" d="M 223.20668748112624 294.6893205776048 L 223.29569264691838 294.6493276164633 229.67271908063373 285.61256202546076 224.5546836663048 279.2491266945224 227.39841661044724 264.2530316110713 227.68985618365434 252.18352035398266 225.66086867182878 234.4561544945018 241.5833706975274 227.74207815476998 241.5115060076916 220.56023841650753 253.3524448777869 213.00907150907642 257.7602086266374 203.53826775676333 279.7798567425761 210.36463812539898 287.2869358540716 210.49226809601194 300.517684214817 222.859961424561 279.3499963221774 233.0442313240639 276.7937017721764 242.13967740506237 270.22134400177856 252.97107692660464 270.94569006443254 262.91932400108175 260.8282599146723 273.2849962165053 267.4006869910546 282.2333277764264 265.5273785044042 295.3183983125029 268.4529395842642 299.8239744679731 266.28249618959535 308.0092566881269 256.0236586935843 314.89927914759204 255.0207419028269 314.9431895528426 248.2833600626696 315.6022717153796 250.08688991043226 301.9581545831055 238.45262099313317 296.89707948408574 229.5313773685978 299.37053616831264 226.555655863618 294.8870613917667 224.21274792530795 295.43508335626626 223.91356857399282 295.1496155345455 223.68793902657256 295.0770882992461 223.46354078830973 294.862994346011 223.31332167858312 294.7910519536821 223.31393779154183 294.72026672715805 223.23851939367137 294.71968865620124 223.20668748112624 294.6893205776048 Z" stroke="#eee" stroke-width="inherit" opacity="1" class="highcharts-point" data-state="CG" data-key="CG_7"></path>
            <path fill="none" d="M 397.23439936183104 254.12265412762088 L 403.61671435985727 257.71561366595495 430.648343456005 265.4500033008826 423.11764566095894 288.39086360577323 416.00946214124747 292.133521072416 402.36747488688354 286.6579198612729 388.7254864768736 286.09657909514766 368.8297070777221 287.4717608294495 368.4322380471269 293.55487153402095 360.7385727592954 307.7242928533037 339.39594881400274 317.56756675026463 342.6660557375958 338.10410077064955 338.42356228718035 345.47646693008926 343.9317056174704 349.7554679059025 346.80282556044426 360.1842131534072 345.2316124533616 366.7239724630591 347.1677359270791 379.6909042240314 343.78787956198045 385.3050649955504 345.4330512519799 394.61084004413567 363.63148171727255 400.3393511114521 376.165454053289 400.9751457739325 374.9528629198295 416.1988169112061 363.8989690696043 421.64257458302575 365.09714427965645 412.9385871648679 353.23130790052574 409.05241016992653 344.7595660253965 410.8888040239262 339.94834213150943 415.93615607573696 332.3619239753858 402.16368956753354 324.80311000078757 401.2386985234525 312.48553675588244 394.5643881284957 307.8096552375769 395.0632942933093 315.28607616424193 389.914075976186 323.1390587232809 374.5816643459102 316.6636030508116 371.63849412799567 314.202357040459 359.62294175785905 308.1930822505043 348.27798450065853 307.37208101456065 334.0201392742107 299.0014769107403 326.8467337123033 298.68687607604943 320.0088612208067 292.23084808859227 318.5502645801895 287.3944929573667 325.3244698093704 274.08761071197847 331.42739817200874 267.749173621224 337.2555282600359 273.3882952388891 344.50885177067664 272.17949554598954 349.6012613313598 260.8608985920767 351.4940856055821 249.82228492440873 348.9399485866178 256.4644727787331 342.0291011866937 259.88792639883286 329.909234445879 259.37875039039716 320.985212147931 258.7915118925159 318.82137645471374 257.87512688329195 318.6682817554992 257.5072910252812 317.3698396760699 256.74462149325143 317.14642490659435 256.3742007501494 316.0637659019859 255.92073922795606 315.55574181853945 255.69520325650774 315.19384776821613 255.46804619094956 314.9758051627966 255.46863027624912 314.9235712871061 256.0236586935843 314.89927914759204 266.28249618959535 308.0092566881269 268.4529395842642 299.8239744679731 281.90573341300285 301.34122103402643 292.5096707452536 307.5458715415598 305.26142042621905 294.1021282807612 308.02099323435385 280.96118441296494 322.30817824827693 270.3859771812639 324.77645293651483 265.57120412884643 331.52815864660386 272.20702033344793 344.5545249400058 276.44898969822486 351.5020150586698 270.85378594993983 374.278642739574 270.1612924790907 373.3862708729232 255.4064916867425 391.5167791908301 248.66152343815793 397.23439936183104 254.12265412762088 Z" stroke="#eee" stroke-width="inherit" opacity="1" class="highcharts-point" data-state="CG" data-key="CG_9"></path>
            <path fill="none" d="M 505.120470502574 90.84533051838196 L 522.9767625384421 109.46404211628347 537.935255492656 109.58890261744294 538.4615586951521 119.46490470391525 533.0367658005036 121.82707695453963 529.8558290374089 129.47386207879813 524.4490661075313 137.49329401336752 516.4267248407646 142.77306531224488 509.6474543165599 142.5713971495124 502.3039896691877 149.09903833845584 502.0542054721416 153.84033191683778 505.85998924378066 159.363186055972 501.92429059070764 168.56063703914248 488.2599409485472 171.0919052429352 477.0147130335499 181.08677509602782 467.27526873314423 182.7145810938647 458.6498608912094 194.85297842129083 456.49494640856403 208.14215708820484 462.8610532625787 213.26256397840845 460.23372098672587 221.16732709813937 452.22214508002116 223.21904137786734 447.3369338108463 238.73974498321405 441.4371256039749 242.30029721474966 437.6701684147089 254.70680382089074 442.7116886500402 263.06363888196165 440.8646887144904 268.8551405650009 430.648343456005 265.4500033008826 403.61671435985727 257.71561366595495 397.23439936183104 254.12265412762088 396.8332830578162 248.02572547323567 402.1025677591614 239.75501965249904 398.86055660718 231.95083336375743 429.9385303812762 232.87638916378046 421.5695055474341 219.9217330838781 423.3204367915532 212.86688509023952 412.7394685083624 207.49471435151307 404.3845978273333 208.3845088440996 405.0728065470611 197.62506733715426 397.84935436357307 192.92107208347528 406.5884584545421 188.34750052977395 407.299424556403 180.5205322988062 414.43050590186556 169.26709258052085 412.29736333689493 158.6320145025241 414.77326237442855 138.8221871759007 419.74975631388975 129.4942836177623 441.15148450594563 132.37869119442217 441.443647348034 140.67995493014803 458.2992336391774 136.58195097583953 467.15849947609024 140.95250242180302 466.8539387467458 124.60938016023644 453.31594778484873 111.60529618588977 457.35771803909824 104.35770960013538 453.4454508421089 98.68537255011195 469.09004960436357 85.23029934046998 484.7264626909423 84.55495262364411 496.14557043130367 91.41757844390474 505.120470502574 90.84533051838196 Z" stroke="#eee" stroke-width="inherit" opacity="1" class="highcharts-point" data-state="CG" data-key="CG_2"></path>
            <path fill="none" d="M 222.8544798546642 294.8475868896217 L 223.20668748112624 294.6893205776048 223.23851939367137 294.71968865620124 223.31393779154183 294.72026672715805 223.31332167858312 294.7910519536821 223.46354078830973 294.862994346011 223.68793902657256 295.0770882992461 223.91356857399282 295.1496155345455 224.21274792530795 295.43508335626626 226.555655863618 294.8870613917667 229.5313773685978 299.37053616831264 238.45262099313317 296.89707948408574 250.08688991043226 301.9581545831055 248.2833600626696 315.6022717153796 255.0207419028269 314.9431895528426 255.46863027624912 314.9235712871061 255.46804619094956 314.9758051627966 255.69520325650774 315.19384776821613 255.92073922795606 315.55574181853945 256.3742007501494 316.0637659019859 256.74462149325143 317.14642490659435 257.5072910252812 317.3698396760699 257.87512688329195 318.6682817554992 258.7915118925159 318.82137645471374 259.37875039039716 320.985212147931 259.88792639883286 329.909234445879 256.4644727787331 342.0291011866937 249.82228492440873 348.9399485866178 260.8608985920767 351.4940856055821 272.17949554598954 349.6012613313598 273.3882952388891 344.50885177067664 267.749173621224 337.2555282600359 274.08761071197847 331.42739817200874 287.3944929573667 325.3244698093704 292.23084808859227 318.5502645801895 298.68687607604943 320.0088612208067 299.0014769107403 326.8467337123033 307.37208101456065 334.0201392742107 308.1930822505043 348.27798450065853 314.202357040459 359.62294175785905 316.6636030508116 371.63849412799567 323.1390587232809 374.5816643459102 315.28607616424193 389.914075976186 307.8096552375769 395.0632942933093 300.3938325542991 389.76615361369727 293.20289367312034 397.16699208911206 290.9740566667964 404.3023307019949 294.0910272546537 409.8726896783404 295.33110603803595 410.48522170353255 295.07781648575667 410.8343922461747 294.9485797507228 410.953416095377 294.8176397788134 411.19307957843665 292.3626601371365 413.45473580671415 278.7241757463996 412.92890110570147 274.3861255625052 433.38845654300917 266.5273447813348 430.40701903904977 255.1618116118661 433.18471126571245 251.29168875595246 426.02962677160093 243.03726390493966 423.4188482327203 242.70996186876027 417.98700123252024 222.16510017401401 420.4693761243198 223.7455589331184 429.2878554842414 215.977771588622 429.10897593277116 209.05113595750868 418.6859601810991 203.8191970817905 419.4960796074391 199.93655259432012 409.4580590206916 192.44983134230063 409.12757447406506 181.4520365013078 416.36368640226743 181.58514642618616 428.57488659769353 176.5818726739407 429.6830129271167 164.39408295443312 421.53564277323636 159.5265540399759 409.9503211539274 164.82377195976244 401.3926230528151 164.45250121986098 388.90137423999 168.13684251036577 382.7621071199032 182.30936579256078 373.82140938721864 192.16073515632195 369.7693075171544 195.56693779584594 362.2941625237886 207.87298590394644 355.54735571816366 205.49697377461496 347.26477712527856 209.38681582870637 342.86443847358544 204.52362816027386 334.7315426473827 197.11244648671754 335.7658650623293 190.4419295461951 332.01442970270824 191.65426152431291 325.33808676988644 202.50085224073624 323.7269180015016 205.23583685084398 310.831469910226 204.51183150230867 303.29125824755215 220.29469645636652 301.6265420591525 222.8544798546642 294.8475868896217 Z" stroke="#eee" stroke-width="inherit" opacity="1" class="highcharts-point" data-state="CG" data-key="CG_11"></path>
            <path fill="none" d="M 295.33110603803595 410.48522170353255 L 296.9002469313303 411.2605210393216 304.91153622343614 419.30444866684485 311.93627801412066 419.7277151685554 310.512370471747 428.23907686649915 311.35565874612223 444.3264066731429 324.4429665599689 464.39985418724314 321.66482258609136 470.89891258549903 323.27007895062707 483.70734764107897 327.21456834248687 489.0861831466079 330.244464829911 505.43888542414567 323.5374277769255 507.2828472867361 321.07643420312786 518.8004862833561 302.51600347638635 527.8799430430529 301.7246098994365 539.666463214126 283.70768588123144 554.0770475968927 282.0365157626306 560.4983386204276 273.56864591214674 561.1000382751375 260.8803392972703 568.9229319848749 260.3644061790458 578.833816021206 255.89569901625515 596.6852433549533 248.0181505657174 605.098765813502 246.9624384131153 612.9805114904921 234.1899231982244 612.4599818705959 224.96925128489562 608.5310082855893 216.58755141562813 615 209.82667591901082 609.9427846256746 204.44328083509885 582.2281530602737 183.4834073939444 577.5343808069752 188.33080723758644 570.5626105834372 181.3702280868946 554.7601262281881 173.52189698858126 543.7601662671401 159.43676371614941 533.278301438436 144.6342525016639 536.8228712251214 137.88041289415676 524.4253399228893 145.55512451235978 515.3519802750877 137.53844130484785 502.76154096155545 137.88620580169868 498.2054371953072 148.94363881371945 479.3645798048057 149.65572089993896 473.27211755287664 166.32608195853328 458.2366560973143 170.6823991519446 466.58098492481093 184.85991912984593 469.00040984820373 193.6220999034085 462.32936746960326 188.62868265367246 455.37120639018906 198.78782678974613 451.564507818688 197.5149403319102 446.3734370326253 182.0912028078634 437.6927725786683 176.5818726739407 429.6830129271167 181.58514642618616 428.57488659769353 181.4520365013078 416.36368640226743 192.44983134230063 409.12757447406506 199.93655259432012 409.4580590206916 203.8191970817905 419.4960796074391 209.05113595750868 418.6859601810991 215.977771588622 429.10897593277116 223.7455589331184 429.2878554842414 222.16510017401401 420.4693761243198 242.70996186876027 417.98700123252024 243.03726390493966 423.4188482327203 251.29168875595246 426.02962677160093 255.1618116118661 433.18471126571245 266.5273447813348 430.40701903904977 274.3861255625052 433.38845654300917 278.7241757463996 412.92890110570147 292.3626601371365 413.45473580671415 294.8176397788134 411.19307957843665 294.9485797507228 410.953416095377 295.07781648575667 410.8343922461747 295.33110603803595 410.48522170353255 Z" stroke="#eee" stroke-width="inherit" opacity="1" class="highcharts-point" data-state="CG" data-key="CG_10"></path>
            <path fill="none" d="M 283.7656018276235 132.22856156477403 L 283.8069507322414 132.04474483148516 284.33978254584304 119.70224912756912 293.2838924703066 117.7036650887115 301.0030879392564 111.5474499942677 300.7962919130889 99.79346783962714 318.1331240899407 97.24628852620285 325.12451710626306 75.96991678328153 316.4451362354637 68.6285989700414 309.1069467949626 69.99189743001935 303.97027527983914 66.09103969308997 298.6879548949735 55.556592886089284 289.99194810876764 57.591284471303645 280.44220195861175 52.35762900167374 276.91609111793383 56.428345016468754 264.9880569517045 49.856474709574854 276.3576069484119 37.1444363079478 267.6991328509663 24.26393295649756 277.86471697664854 23.308230709182567 288.4969192089337 28.549589365487645 306.9305164967591 23.309428821209867 311.2837739207372 27.448860713544338 326.2884362145294 26.332884079382236 335.8755415864233 28.63784899141326 352.0539746152015 28.36186622228012 354.8070439212935 30.80789448144414 364.940275969853 42.34218493675898 362.82976348913473 54.46309762378373 368.69770601464575 58.73502905801907 369.754039837415 69.84041809303712 378.7618119893429 72.40404751707584 378.69230945713696 82.65959292012565 374.09533214780356 83.7442400012539 368.0174083738481 93.57475152482367 363.0957877333888 94.67751341204753 365.56543843520876 105.1447944439332 360.74483451755 122.51655655160761 370.2910904848652 125.91211720291568 376.78076033977754 124.00841333840674 381.95597808619823 129.77883452285099 390.76746466419917 131.97087909821718 405.45288626125136 142.43636285466937 414.77326237442855 138.8221871759007 412.29736333689493 158.6320145025241 414.43050590186556 169.26709258052085 407.299424556403 180.5205322988062 406.5884584545421 188.34750052977395 397.84935436357307 192.92107208347528 391.0941471148394 188.10109385679314 371.73774341239465 196.90762359828236 368.1765405346341 192.76191125941133 368.9218512443804 181.6448629067225 356.8595511306903 180.21678665961397 351.1826690559178 184.0254941885482 340.83639110592406 173.1877071571058 334.0185629074161 176.82265429530682 320.0761735513243 172.66155221490519 323.9295248420955 165.12784242808823 320.34814682038245 160.7965802256523 322.37654977867044 150.85974737596098 319.22087817803515 144.24054320085938 307.18717775460846 147.1246328368755 302.8860594173884 133.59817333908703 295.6565108593032 131.45031879015485 289.4668964353435 131.3035877710946 287.69529089057437 132.27489856520134 285.708304175731 132.25133863287166 284.485539416924 132.23697269426347 284.10342487152536 132.23250403891709 283.8741560544752 132.2298275776871 283.7977330617996 132.228936212154 283.7656018276235 132.22856156477403 Z" stroke="#eee" stroke-width="inherit" opacity="1" class="highcharts-point" data-state="CG" data-key="CG_4"></path>
         </g>
      </g>
      <g data-z-index="0.1" class="highcharts-markers highcharts-series-1 highcharts-mapline-series  highcharts-tracker highcharts-series-inactive" transform="translate(10,10) scale(1 1)" style="cursor:pointer;" clip-path="none" opacity="0.2"></g>
   </g>
   <text x="348" text-anchor="middle" class="highcharts-title" data-z-index="4" style="color:#333333;font-size:18px;fill:#333333;" y="24"></text>
   <text x="348" text-anchor="middle" class="highcharts-subtitle" data-z-index="4" style="color:#666666;fill:#666666;" y="24"></text>
   <g class="highcharts-button highcharts-map-navigation highcharts-zoom-in" style="[object Object]" data-z-index="5" transform="translate(658,10)">
      <path fill="#f7f7f7" class="highcharts-button-box" d="M 1.5 -0.5 L 25.5 -0.5 C 26.5 -0.5 27.5 0.5 27.5 1.5 L 27.5 27.5 C 27.5 27.5 27.5 27.5 27.5 27.5 L -0.5 27.5 C -0.5 27.5 -0.5 27.5 -0.5 27.5 L -0.5 1.5 C -0.5 0.5 0.5 -0.5 1.5 -0.5 Z" stroke="#cccccc" stroke-width="1"></path>
      <title>Zoom in</title>
      <text x="7.59375" data-z-index="1" style="font-size:15px;font-weight:bold;color:#333333;cursor:pointer;fill:#333333;" y="19">+</text>
   </g>
   <g class="highcharts-button highcharts-map-navigation highcharts-zoom-out" style="[object Object]" data-z-index="5" transform="translate(658,38)">
      <path fill="#f7f7f7" class="highcharts-button-box" d="M -0.5 -0.5 L 27.5 -0.5 C 27.5 -0.5 27.5 -0.5 27.5 -0.5 L 27.5 25.5 C 27.5 26.5 26.5 27.5 25.5 27.5 L 1.5 27.5 C 0.5 27.5 -0.5 26.5 -0.5 25.5 L -0.5 -0.5 C -0.5 -0.5 -0.5 -0.5 -0.5 -0.5 Z" stroke="#cccccc" stroke-width="1"></path>
      <title>Zoom out</title>
      <text x="10.5" data-z-index="1" style="font-size:15px;font-weight:bold;color:#333333;cursor:pointer;fill:#333333;" y="19">-</text>
   </g>
   <g data-z-index="6" class="highcharts-data-labels highcharts-series-0 highcharts-map-series  highcharts-tracker highcharts-series-hover" transform="translate(10,10) scale(1 1)" clip-path="url(#highcharts-016ezi4-1-)" style="cursor:pointer;"></g>
   <g data-z-index="6" class="highcharts-data-labels highcharts-series-1 highcharts-mapline-series  highcharts-tracker highcharts-series-inactive" transform="translate(10,10) scale(1 1)" clip-path="url(#highcharts-016ezi4-1-)" style="cursor:pointer;" opacity="0.2"></g>
   <g class="highcharts-label highcharts-tooltip highcharts-color-undefined" style="pointer-events:auto;white-space:nowrap;" data-z-index="8" transform="translate(111,131)" opacity="1" visibility="visible">
      <path fill="rgba(247,247,247,0.85)" class="highcharts-label-box highcharts-tooltip-box" d="M 0 0 L 280 0 C 280 0 280 0 280 0 L 280 227 C 280 227 280 227 280 227 L 146 227 140 233 134 227 0 227 C 0 227 0 227 0 227 L 0 0 C 0 0 0 0 0 0"></path>
   </g>
</svg>