<svg version="1.1" class="highcharts-root" style="font-family:&quot;Lucida Grande&quot;, &quot;Lucida Sans Unicode&quot;, Arial, Helvetica, sans-serif;font-size:12px;" xmlns="http://www.w3.org/2000/svg" width="696" height="640" viewBox="0 0 696 640">
   <desc>Created with Highcharts 7.1.0</desc>
   <defs>
      <clipPath id="highcharts-7z4n68m-1-">
         <rect x="0" y="0" width="676" height="615" fill="none"></rect>
      </clipPath>
   </defs>
   <rect fill="#fff" class="highcharts-background" x="0" y="0" width="696" height="640" rx="0" ry="0"></rect>
   <rect fill="none" class="highcharts-plot-background" x="10" y="10" width="676" height="615"></rect>
   <rect fill="none" class="highcharts-plot-border" data-z-index="1" x="10" y="10" width="676" height="615"></rect>
   <g class="highcharts-series-group" data-z-index="3" style="pointer-events: auto;">
      <g data-z-index="0.1" class="highcharts-series highcharts-series-0 highcharts-map-series  highcharts-tracker  highcharts-series-hover" transform="translate(10,10) scale(1 1)" stroke-width="0.3" style="cursor:pointer;" clip-path="url(#highcharts-7z4n68m-1-)">
         <g transform="translate(0,0) scale(1 1)">
            <path fill="rgb(30,180,255)" d="M 504.1420643767855 209.46663913527712 L 562.5553091567226 343.16081176072976 518.0910509774917 355.75266672470593 549.1131738176045 417.21464088639317 521.2046074019503 473.16205605808403 535.7679035528586 515.3105785333875 494.3131375837332 578.8586680630002 456.61631248843366 574.1660800185722 394.0490799882876 615 365.2399165713201 552.9953350350621 323.2722177757647 526.6495269395534 260.3803461628072 313.99892963378954 291.3676056297294 248.98460437002007 375.75681609285215 266.40196259235825 460.8127803861657 241.33795227395518 504.1420643767855 209.46663913527712 Z" stroke="#000" stroke-width="inherit" opacity="1" class="highcharts-point " data-constituency="GA_2" data-const-name="South Goa" data-const-id="GA_2" data-won-alliance="UPA" data-z-index="0"></path>
            <path fill="rgb(255,201,131)" d="M 414.97519378497947 100.13867717911724 L 503.3658707757886 97.44803828677198 504.1420643767855 209.46663913527712 460.8127803861657 241.33795227395518 375.75681609285215 266.40196259235825 291.3676056297294 248.98460437002007 201.01253563948143 234.21762591356097 174.14210533194748 204.0337865513473 113.44469084327733 48.74563135907272 182.69339430531056 50.53744113487797 236.72438938498405 0 291.3748293709298 38.09817602833878 330.40653273737223 128.19990469703941 414.97519378497947 100.13867717911724 Z" stroke="#000" stroke-width="inherit" opacity="1" class="highcharts-point  highcharts-point-hover" data-constituency="GA_1" data-const-name="North Goa" data-const-id="GA_1" data-won-alliance="NDA" data-z-index="1"></path>
         </g>
      </g>
      <g data-z-index="0.1" class="highcharts-markers highcharts-series-0 highcharts-map-series  highcharts-tracker  highcharts-series-hover" transform="translate(10,10) scale(1 1)" style="cursor:pointer;" clip-path="none"></g>
      <g data-z-index="0.1" class="highcharts-series highcharts-series-1 highcharts-mapline-series  highcharts-tracker  highcharts-series-inactive" transform="translate(10,10) scale(1 1)" stroke-width="1" style="cursor:pointer;" clip-path="url(#highcharts-7z4n68m-1-)" opacity="0.2">
         <g transform="translate(0,0) scale(1 1)">
            <path fill="none" d="M 504.1420643767855 209.46663913527712 L 562.5553091567226 343.16081176072976 518.0910509774917 355.75266672470593 549.1131738176045 417.21464088639317 521.2046074019503 473.16205605808403 535.7679035528586 515.3105785333875 494.3131375837332 578.8586680630002 456.61631248843366 574.1660800185722 394.0490799882876 615 365.2399165713201 552.9953350350621 323.2722177757647 526.6495269395534 260.3803461628072 313.99892963378954 291.3676056297294 248.98460437002007 375.75681609285215 266.40196259235825 460.8127803861657 241.33795227395518 504.1420643767855 209.46663913527712 Z" stroke="#eee" stroke-width="inherit" opacity="1" class="highcharts-point" data-state="GA" data-key="GA_2"></path>
            <path fill="none" d="M 414.97519378497947 100.13867717911724 L 503.3658707757886 97.44803828677198 504.1420643767855 209.46663913527712 460.8127803861657 241.33795227395518 375.75681609285215 266.40196259235825 291.3676056297294 248.98460437002007 201.01253563948143 234.21762591356097 174.14210533194748 204.0337865513473 113.44469084327733 48.74563135907272 182.69339430531056 50.53744113487797 236.72438938498405 0 291.3748293709298 38.09817602833878 330.40653273737223 128.19990469703941 414.97519378497947 100.13867717911724 Z" stroke="#eee" stroke-width="inherit" opacity="1" class="highcharts-point" data-state="GA" data-key="GA_1"></path>
         </g>
      </g>
      <g data-z-index="0.1" class="highcharts-markers highcharts-series-1 highcharts-mapline-series  highcharts-tracker  highcharts-series-inactive" transform="translate(10,10) scale(1 1)" style="cursor:pointer;" clip-path="none" opacity="0.2"></g>
   </g>
   <text x="348" text-anchor="middle" class="highcharts-title" data-z-index="4" style="color:#333333;font-size:18px;fill:#333333;" y="24"></text>
   <text x="348" text-anchor="middle" class="highcharts-subtitle" data-z-index="4" style="color:#666666;fill:#666666;" y="24"></text>
   <g class="highcharts-button highcharts-map-navigation highcharts-zoom-in" style="[object Object]" data-z-index="5" transform="translate(658,10)">
      <path fill="#f7f7f7" class="highcharts-button-box" d="M 1.5 -0.5 L 25.5 -0.5 C 26.5 -0.5 27.5 0.5 27.5 1.5 L 27.5 27.5 C 27.5 27.5 27.5 27.5 27.5 27.5 L -0.5 27.5 C -0.5 27.5 -0.5 27.5 -0.5 27.5 L -0.5 1.5 C -0.5 0.5 0.5 -0.5 1.5 -0.5 Z" stroke="#cccccc" stroke-width="1"></path>
      <title>Zoom in</title>
      <text x="7.59375" data-z-index="1" style="font-size:15px;font-weight:bold;color:#333333;cursor:pointer;fill:#333333;" y="19">+</text>
   </g>
   <g class="highcharts-button highcharts-map-navigation highcharts-zoom-out" style="[object Object]" data-z-index="5" transform="translate(658,38)">
      <path fill="#f7f7f7" class="highcharts-button-box" d="M -0.5 -0.5 L 27.5 -0.5 C 27.5 -0.5 27.5 -0.5 27.5 -0.5 L 27.5 25.5 C 27.5 26.5 26.5 27.5 25.5 27.5 L 1.5 27.5 C 0.5 27.5 -0.5 26.5 -0.5 25.5 L -0.5 -0.5 C -0.5 -0.5 -0.5 -0.5 -0.5 -0.5 Z" stroke="#cccccc" stroke-width="1"></path>
      <title>Zoom out</title>
      <text x="10.5" data-z-index="1" style="font-size:15px;font-weight:bold;color:#333333;cursor:pointer;fill:#333333;" y="19">-</text>
   </g>
   <g data-z-index="6" class="highcharts-data-labels highcharts-series-0 highcharts-map-series  highcharts-tracker  highcharts-series-hover" transform="translate(10,10) scale(1 1)" clip-path="url(#highcharts-7z4n68m-1-)" style="cursor:pointer;"></g>
   <g data-z-index="6" class="highcharts-data-labels highcharts-series-1 highcharts-mapline-series  highcharts-tracker  highcharts-series-inactive" transform="translate(10,10) scale(1 1)" clip-path="url(#highcharts-7z4n68m-1-)" style="cursor:pointer;" opacity="0.2"></g>
   <g class="highcharts-label highcharts-tooltip highcharts-color-undefined" style="pointer-events:auto;white-space:nowrap;" data-z-index="8" transform="translate(179,159)" opacity="1" visibility="visible">
      <path fill="rgba(247,247,247,0.85)" class="highcharts-label-box highcharts-tooltip-box" d="M 0 0 L 134 0 140 -6 146 0 280 0 C 280 0 280 0 280 0 L 280 227 C 280 227 280 227 280 227 L 0 227 C 0 227 0 227 0 227 L 0 0 C 0 0 0 0 0 0"></path>
   </g>
</svg>