<svg version="1.1" class="highcharts-root" style="font-family:&quot;Lucida Grande&quot;, &quot;Lucida Sans Unicode&quot;, Arial, Helvetica, sans-serif;font-size:12px;" xmlns="http://www.w3.org/2000/svg" width="696" height="640" viewBox="0 0 696 640">
   <desc>Created with Highcharts 7.1.0</desc>
   <defs>
      <clipPath id="highcharts-jwydqyn-1-">
         <rect x="0" y="0" width="676" height="615" fill="none"></rect>
      </clipPath>
   </defs>
   <rect fill="#fff" class="highcharts-background" x="0" y="0" width="696" height="640" rx="0" ry="0"></rect>
   <rect fill="none" class="highcharts-plot-background" x="10" y="10" width="676" height="615"></rect>
   <rect fill="none" class="highcharts-plot-border" data-z-index="1" x="10" y="10" width="676" height="615"></rect>
   <g class="highcharts-series-group" data-z-index="3" style="pointer-events: auto;">
      <g data-z-index="0.1" class="highcharts-series highcharts-series-0 highcharts-map-series  highcharts-tracker  " transform="translate(10,10) scale(1 1)" stroke-width="0.3" style="cursor:pointer;" clip-path="url(#highcharts-jwydqyn-1-)">
         <g transform="translate(0,0) scale(1 1)">
            <path fill="#FF9650" d="M 631.8584610620808 98.9622811562952 L 630.9752252551857 112.83569827060165 609.2825271982608 137.47495028139804 590.5131748941405 155.78326033710687 589.6365473237727 156.54352324111298 576.9608380027028 137.64636579044088 559.7866254664953 141.68798029852096 539.9870430513306 128.9758565595934 532.9422882105621 147.6224649738551 513.1022671767428 134.50548429204585 484.2341401670311 130.67817058829706 452.4614895596132 142.20134325767927 445.4309558459379 123.44937866828798 473.52305313400996 103.50519229329417 475.50567568226916 90.82727638285411 497.4353280080922 94.2332817248233 506.71716478019243 58.10072284908388 489.02246256121447 41.77122714648531 490.6344177290042 27.013267323386597 490.57650154258374 13.991763413072691 479.64305048559874 0 504.68521422981763 1.7669025102243197 525.6314759898881 31.141734427530498 552.1952014623398 41.29986789644507 552.9171663262928 58.181587675305295 561.4177712257272 80.75898046989562 588.5691985278759 84.2771656383935 605.3765256743536 95.31297862666969 631.8584610620808 98.9622811562952 Z" stroke="#000" stroke-width="inherit" opacity="1" class="highcharts-point" data-constituency="HR_1" data-const-name="Ambala" data-const-id="HR_1" data-won-alliance="NDA"></path>
            <path fill="#FF9650" d="M 589.6365473237727 156.54352324111298 L 588.8880511605366 157.19272746163006 574.1116991757224 162.5462237846372 562.8525379696403 182.91027267665174 542.6316854089371 175.00253386587698 521.0334341826253 177.46841214693282 498.62343738034934 194.37751854137 462.779115761206 191.07550575019815 463.9949100648823 233.2275891651445 438.450451243125 240.92000903981457 426.20011175147175 260.32226151648314 425.07567491286846 261.99874176742566 402.91336506716726 261.7860283031696 392.0556989643945 249.54640805391887 377.0200246469828 247.68680778359303 377.0155360033118 247.5398064371124 363.85680539951187 230.3452173722804 373.4967781091276 201.13569570251175 371.15531392726626 164.27359628681907 381.1724955733188 148.93976709137303 395.79157067308586 150.7561304396877 414.29620103560296 143.5797163281286 428.4845711986807 157.02711096262593 438.66493877953843 152.8505107110693 451.63570100856174 143.28123706582616 452.4614895596132 142.20134325767927 484.2341401670311 130.67817058829706 513.1022671767428 134.50548429204585 532.9422882105621 147.6224649738551 539.9870430513306 128.9758565595934 559.7866254664953 141.68798029852096 576.9608380027028 137.64636579044088 589.6365473237727 156.54352324111298 Z" stroke="#000" stroke-width="inherit" opacity="1" class="highcharts-point" data-constituency="HR_2" data-const-name="Krukshetra" data-const-id="HR_2" data-won-alliance="NDA"></path>
            <path fill="#FF9650" d="M 377.0173314675789 247.5986069496857 L 376.6791397188295 247.5476542693072 371.465026465723 247.66977023996932 367.6192658950426 248.49595177706126 365.73726522649054 247.51072997064705 356.26564872486557 251.41441858922542 330.71541534363774 247.18376323361832 299.1488993295666 263.0554314138665 290.40077528126454 260.7318007763386 275.4498289128727 279.3719298205206 261.9866077379777 280.5336220349416 255.51627418038555 295.2480984714349 238.81920274843344 283.8430636733918 221.1500463256433 281.7493130317995 217.52444974736775 299.4827912979191 200.0320503864666 299.3410290492781 196.36773190928673 308.70815349451715 158.73653878776366 316.39984292552646 148.4876720964836 305.1941382964049 135.0858545099502 306.9816174660983 130.20005323127856 291.3141624232877 115.51135936112152 284.0608398093004 101.55742190417138 292.1040778729749 77.74707313444009 289.73636044529826 67.43020164530074 298.0554168763171 68.24237635620845 293.1319988675515 62.581497180223494 283.3052236425105 70.46828527434647 259.5902377875339 62.961566787720194 255.01517290728444 69.4070520010817 217.670335026876 44.141538937919165 219.28468319014448 47.89882888724489 203.67571387880255 59.63406540615772 196.29462430262055 53.12897728720029 181.56218581206147 65.75571670047881 187.0070811329965 106.57201511016329 172.3687819292707 129.83362946754153 182.086056646371 142.26595006607062 198.22241475867514 156.5847497469463 193.9747748390189 163.5269650130116 208.47224665065855 178.69821884524674 201.65750199035733 187.87768378154627 218.07777220998733 176.9202615662486 241.15534468347087 185.98029760944556 245.62718834880425 228.18803221728584 211.6973002539169 270.29485342960066 214.3255812344077 281.6343644472943 206.99553788214936 299.4276510926176 206.29460854271048 307.70170452265637 218.24458235088017 341.3481518922483 218.96938667706002 350.6611824159893 207.23677113269486 373.4967781091276 201.13569570251175 363.85680539951187 230.3452173722804 377.0155360033118 247.5398064371124 377.0173314675789 247.5986069496857 Z" stroke="#000" stroke-width="inherit" opacity="1" class="highcharts-point" data-constituency="HR_3" data-const-name="Sirsa" data-const-id="HR_3" data-won-alliance="NDA"></path>
            <path fill="#FF9650" d="M 377.0173314675789 247.5986069496857 L 377.0200246469828 247.68680778359303 392.0556989643945 249.54640805391887 402.91336506716726 261.7860283031696 425.07567491286846 261.99874176742566 424.6778942876453 262.5918876104501 427.7829269913915 268.1701140344222 428.8484095600802 268.2144172016375 428.8499992402316 268.27063459351433 428.85201371999943 268.34187501782407 428.8560426524047 268.4843563626471 428.86410036952213 268.7693196514918 428.47714500564194 269.4905462865772 428.34051281021607 270.42021598483393 421.79264508765203 272.2023813712978 416.3840492802474 276.74115816903145 406.6957973978539 282.44608875238896 399.29656873347255 280.04603581313603 366.90644496954985 293.7397877252626 375.04481686877915 318.26949270415815 386.64052641579184 320.4888071918254 388.4884094959977 343.53146072205857 376.88566883803963 349.3084628172982 372.83904045245276 367.71389198435713 388.23951110775226 378.0050476853324 387.20108313754037 396.07040154451613 402.19080582541574 400.64643555654135 403.1168530288666 400.90372890397236 402.811579490526 401.04695620119037 401.31439660347127 401.080915772854 396.3343152351263 403.6692221908907 378.72982509516646 403.5820755315669 362.53274026501003 388.4578401830362 339.82658260481895 393.30023708606285 319.59429644278265 374.55078021600997 307.2843408860904 381.8757600720178 270.9860260217589 376.4210514861148 256.0770291193055 361.3210034024997 241.68065381013676 365.2115140308542 215.98197611171187 347.1986280446391 219.80889044038713 324.75733707956124 215.83867155421467 310.5449737090013 196.36773190928673 308.70815349451715 200.0320503864666 299.3410290492781 217.52444974736775 299.4827912979191 221.1500463256433 281.7493130317995 238.81920274843344 283.8430636733918 255.51627418038555 295.2480984714349 261.9866077379777 280.5336220349416 275.4498289128727 279.3719298205206 290.40077528126454 260.7318007763386 299.1488993295666 263.0554314138665 330.71541534363774 247.18376323361832 356.26564872486557 251.41441858922542 365.73726522649054 247.51072997064705 367.6192658950426 248.49595177706126 371.465026465723 247.66977023996932 376.6791397188295 247.5476542693072 377.0173314675789 247.5986069496857 Z" stroke="#000" stroke-width="inherit" opacity="1" class="highcharts-point" data-constituency="HR_4" data-const-name="Hisar" data-const-id="HR_4" data-won-alliance="NDA"></path>
            <path fill="#FF9650" d="M 562.8525379696403 182.91027267665174 L 549.358486995756 225.18896355535878 538.9886806581322 247.2227517661888 538.8287454475802 259.9441518161908 550.4211865440739 295.63466457239355 549.6264869343806 303.8769427015563 547.7131697336539 328.4234129716457 504.7177455525018 318.4831239238522 465.99174898931113 312.45891513877086 452.94116445933315 304.18554090387937 454.41016781697436 290.18531585088465 470.2322038987864 285.6865934413028 474.46807964473413 271.4919444158085 455.95045565089185 266.6790476889065 430.0027925386166 268.26245901451546 427.7829269913915 268.1701140344222 424.6778942876453 262.5918876104501 426.20011175147175 260.32226151648314 438.450451243125 240.92000903981457 463.9949100648823 233.2275891651445 462.779115761206 191.07550575019815 498.62343738034934 194.37751854137 521.0334341826253 177.46841214693282 542.6316854089371 175.00253386587698 562.8525379696403 182.91027267665174 Z" stroke="#000" stroke-width="inherit" opacity="1" class="highcharts-point" data-constituency="HR_5" data-const-name="Karnal" data-const-id="HR_5" data-won-alliance="NDA"></path>
            <path fill="#FF9650" d="M 428.8484095600802 268.2144172016375 L 430.0027925386166 268.26245901451546 455.95045565089185 266.6790476889065 474.46807964473413 271.4919444158085 470.2322038987864 285.6865934413028 454.41016781697436 290.18531585088465 452.94116445933315 304.18554090387937 465.99174898931113 312.45891513877086 504.7177455525018 318.4831239238522 547.7131697336539 328.4234129716457 546.1716810491296 341.7289858967492 563.1467460585011 359.82142823256527 557.9303351032336 386.1468075358989 531.9725577341972 384.9201353404164 511.6134140488758 394.8383416360658 474.78713701455905 366.8362760378623 458.4928735074226 362.9464545876734 452.3462846281417 348.86685535335204 422.08569026681533 341.72421618281345 388.4884094959977 343.53146072205857 386.64052641579184 320.4888071918254 375.04481686877915 318.26949270415815 366.90644496954985 293.7397877252626 399.29656873347255 280.04603581313603 406.6957973978539 282.44608875238896 416.3840492802474 276.74115816903145 421.79264508765203 272.2023813712978 428.34051281021607 270.42021598483393 428.47714500564194 269.4905462865772 428.86410036952213 268.7693196514918 428.8560426524047 268.4843563626471 428.85201371999943 268.34187501782407 428.8499992402316 268.27063459351433 428.8484095600802 268.2144172016375 Z" stroke="#000" stroke-width="inherit" opacity="1" class="highcharts-point" data-constituency="HR_6" data-const-name="Sonipat" data-const-id="HR_6" data-won-alliance="NDA"></path>
            <path fill="#FF9650" d="M 511.6134140488758 394.8383416360658 L 512.2612817168532 420.80224657528703 512.5085141663644 421.9976244384959 490.8314466954079 439.8902512217822 499.604588565779 453.7975395925597 472.2501025703624 461.156738876306 458.45358464962743 477.6072539429444 452.9043227036511 497.2101606068466 440.5443532993705 496.2975331247649 433.3819015317221 511.74148552416494 422.9762783703467 512.6418903122669 404.397671349964 506.33758463785176 400.5229784118191 503.56959238020534 399.8233528411424 505.60179351631433 398.87544194437163 505.62349396152166 398.506090920993 505.9679952822063 397.9373538023535 505.9810368955031 397.56310894202295 506.1576439578597 397.3735316600612 506.16199591162314 397.2203459403127 506.1655133309628 398.02527859404 503.38921385875574 398.6850344178733 479.25130583224393 388.3007925710812 476.73406543788593 398.2857636057936 433.4563336006007 419.3775619606116 433.4644304739109 403.43725910366044 414.9824750665436 403.677805073815 401.0596008176471 402.19080582541574 400.64643555654135 387.20108313754037 396.07040154451613 388.23951110775226 378.0050476853324 372.83904045245276 367.71389198435713 376.88566883803963 349.3084628172982 388.4884094959977 343.53146072205857 422.08569026681533 341.72421618281345 452.3462846281417 348.86685535335204 458.4928735074226 362.9464545876734 474.78713701455905 366.8362760378623 511.6134140488758 394.8383416360658 Z" stroke="#000" stroke-width="inherit" opacity="1" class="highcharts-point" data-constituency="HR_7" data-const-name="Rohtak" data-const-id="HR_7" data-won-alliance="NDA"></path>
            <path fill="#FF9650" d="M 403.1168530288666 400.90372890397236 L 403.677805073815 401.0596008176471 403.43725910366044 414.9824750665436 419.3775619606116 433.4644304739109 398.2857636057936 433.4563336006007 388.3007925710812 476.73406543788593 398.6850344178733 479.25130583224393 398.02527859404 503.38921385875574 397.1599573566926 506.37382972875247 391.4501069390442 515.3203292549135 400.3138271020205 525.7199785297945 396.7218766693479 544.4080253763676 380.50751092341494 536.5829628879023 366.53602067561576 538.7733594712515 365.0507190236483 567.0643448492386 375.1684622667328 580.0967602897628 365.624353300883 586.4200238841878 348.0547143938555 578.1479837318647 328.2387974220091 575.5589994945643 318.4436312081826 562.5912077589493 328.6126937524518 534.0123928293955 343.0379247247697 507.52828900167384 318.34507737133225 480.1133796937867 295.6759318913473 471.50839809055117 269.4492142399214 451.2884577114847 259.13559819740885 435.1809568688892 248.9853267735808 433.51516414332116 236.24052019119603 387.1113997483793 241.68065381013676 365.2115140308542 256.0770291193055 361.3210034024997 270.9860260217589 376.4210514861148 307.2843408860904 381.8757600720178 319.59429644278265 374.55078021600997 339.82658260481895 393.30023708606285 362.53274026501003 388.4578401830362 378.72982509516646 403.5820755315669 396.3343152351263 403.6692221908907 401.31439660347127 401.080915772854 402.811579490526 401.04695620119037 403.1168530288666 400.90372890397236 Z" stroke="#000" stroke-width="inherit" opacity="1" class="highcharts-point" data-constituency="HR_8" data-const-name="Bhiwani - Mahendragarh" data-const-id="HR_8" data-won-alliance="NDA"></path>
            <path fill="rgb(255,150,80)" d="M 538.72433922447 453.4894127515181 L 539.5450979400731 454.51341806797717 553.8003713365586 472.87643224436204 549.773571395333 489.2299917322701 563.2520479955731 494.3175993067803 554.74415955994 509.1956500780281 542.8362654915287 544.4435934677645 557.4582566458873 560.362377569445 584.601153239553 578.1813967992603 574.4644679901471 586.7709170890145 529.4970738007867 584.1904438414199 516.6198444967382 615 501.11872598162324 603.1802919448239 502.09920149641084 591.8851744930562 508.3633544955587 581.4918092577186 506.8937699765999 550.5773215788604 515.0997303208276 522.8837330631835 490.8234683012319 507.5685863554415 482.8624623891589 520.3534249165098 455.64705950696595 532.6341409901172 457.93927089786166 546.4790671996062 434.9262789800982 542.660666057926 422.42517028640975 521.740278488763 401.1198144480555 522.8952976209379 391.4501069390442 515.3203292549135 397.1599573566926 506.37382972875247 397.2203459403127 506.1655133309628 397.3735316600612 506.16199591162314 397.56310894202295 506.1576439578597 397.9373538023535 505.9810368955031 398.506090920993 505.9679952822063 398.87544194437163 505.62349396152166 399.8233528411424 505.60179351631433 400.5229784118191 503.56959238020534 404.397671349964 506.33758463785176 422.9762783703467 512.6418903122669 433.3819015317221 511.74148552416494 440.5443532993705 496.2975331247649 452.9043227036511 497.2101606068466 458.45358464962743 477.6072539429444 472.2501025703624 461.156738876306 499.604588565779 453.7975395925597 525.4169591977495 449.22656405734773 538.72433922447 453.4894127515181 Z" stroke="#000" stroke-width="inherit" opacity="1" class="highcharts-point " data-constituency="HR_9" data-const-name="Gurgaon" data-const-id="HR_9" data-won-alliance="NDA" data-z-index="0"></path>
            <path fill="rgb(255,161,91)" d="M 611.3161851181058 534.3542514797095 L 623.6363713946673 551.4652614808466 620.5866687576959 563.0883458610429 611.0328395673234 562.8877928853548 584.601153239553 578.1813967992603 557.4582566458873 560.362377569445 542.8362654915287 544.4435934677645 554.74415955994 509.1956500780281 563.2520479955731 494.3175993067803 549.773571395333 489.2299917322701 553.8003713365586 472.87643224436204 565.5300730000349 461.28831197898853 586.3898021783377 453.8828549110158 604.9704833372284 468.53196349837765 624.205618808068 514.0885872371452 611.3161851181058 534.3542514797095 Z" stroke="#000" stroke-width="inherit" opacity="1" class="highcharts-point " data-constituency="HR_10" data-const-name="Faridabad" data-const-id="HR_10" data-won-alliance="NDA" data-z-index="0"></path>
         </g>
      </g>
      <g data-z-index="0.1" class="highcharts-markers highcharts-series-0 highcharts-map-series  highcharts-tracker  " transform="translate(10,10) scale(1 1)" style="cursor:pointer;" clip-path="none"></g>
      <g data-z-index="0.1" class="highcharts-series highcharts-series-1 highcharts-mapline-series  highcharts-tracker  " transform="translate(10,10) scale(1 1)" stroke-width="1" style="cursor:pointer;" clip-path="url(#highcharts-jwydqyn-1-)" opacity="0.8185577386937077">
         <g transform="translate(0,0) scale(1 1)">
            <path fill="none" d="M 631.8584610620808 98.9622811562952 L 630.9752252551857 112.83569827060165 609.2825271982608 137.47495028139804 590.5131748941405 155.78326033710687 589.6365473237727 156.54352324111298 576.9608380027028 137.64636579044088 559.7866254664953 141.68798029852096 539.9870430513306 128.9758565595934 532.9422882105621 147.6224649738551 513.1022671767428 134.50548429204585 484.2341401670311 130.67817058829706 452.4614895596132 142.20134325767927 445.4309558459379 123.44937866828798 473.52305313400996 103.50519229329417 475.50567568226916 90.82727638285411 497.4353280080922 94.2332817248233 506.71716478019243 58.10072284908388 489.02246256121447 41.77122714648531 490.6344177290042 27.013267323386597 490.57650154258374 13.991763413072691 479.64305048559874 0 504.68521422981763 1.7669025102243197 525.6314759898881 31.141734427530498 552.1952014623398 41.29986789644507 552.9171663262928 58.181587675305295 561.4177712257272 80.75898046989562 588.5691985278759 84.2771656383935 605.3765256743536 95.31297862666969 631.8584610620808 98.9622811562952 Z" stroke="#eee" stroke-width="inherit" opacity="1" class="highcharts-point" data-state="HR" data-key="HR_1"></path>
            <path fill="none" d="M 589.6365473237727 156.54352324111298 L 588.8880511605366 157.19272746163006 574.1116991757224 162.5462237846372 562.8525379696403 182.91027267665174 542.6316854089371 175.00253386587698 521.0334341826253 177.46841214693282 498.62343738034934 194.37751854137 462.779115761206 191.07550575019815 463.9949100648823 233.2275891651445 438.450451243125 240.92000903981457 426.20011175147175 260.32226151648314 425.07567491286846 261.99874176742566 402.91336506716726 261.7860283031696 392.0556989643945 249.54640805391887 377.0200246469828 247.68680778359303 377.0155360033118 247.5398064371124 363.85680539951187 230.3452173722804 373.4967781091276 201.13569570251175 371.15531392726626 164.27359628681907 381.1724955733188 148.93976709137303 395.79157067308586 150.7561304396877 414.29620103560296 143.5797163281286 428.4845711986807 157.02711096262593 438.66493877953843 152.8505107110693 451.63570100856174 143.28123706582616 452.4614895596132 142.20134325767927 484.2341401670311 130.67817058829706 513.1022671767428 134.50548429204585 532.9422882105621 147.6224649738551 539.9870430513306 128.9758565595934 559.7866254664953 141.68798029852096 576.9608380027028 137.64636579044088 589.6365473237727 156.54352324111298 Z" stroke="#eee" stroke-width="inherit" opacity="1" class="highcharts-point" data-state="HR" data-key="HR_2"></path>
            <path fill="none" d="M 377.0173314675789 247.5986069496857 L 376.6791397188295 247.5476542693072 371.465026465723 247.66977023996932 367.6192658950426 248.49595177706126 365.73726522649054 247.51072997064705 356.26564872486557 251.41441858922542 330.71541534363774 247.18376323361832 299.1488993295666 263.0554314138665 290.40077528126454 260.7318007763386 275.4498289128727 279.3719298205206 261.9866077379777 280.5336220349416 255.51627418038555 295.2480984714349 238.81920274843344 283.8430636733918 221.1500463256433 281.7493130317995 217.52444974736775 299.4827912979191 200.0320503864666 299.3410290492781 196.36773190928673 308.70815349451715 158.73653878776366 316.39984292552646 148.4876720964836 305.1941382964049 135.0858545099502 306.9816174660983 130.20005323127856 291.3141624232877 115.51135936112152 284.0608398093004 101.55742190417138 292.1040778729749 77.74707313444009 289.73636044529826 67.43020164530074 298.0554168763171 68.24237635620845 293.1319988675515 62.581497180223494 283.3052236425105 70.46828527434647 259.5902377875339 62.961566787720194 255.01517290728444 69.4070520010817 217.670335026876 44.141538937919165 219.28468319014448 47.89882888724489 203.67571387880255 59.63406540615772 196.29462430262055 53.12897728720029 181.56218581206147 65.75571670047881 187.0070811329965 106.57201511016329 172.3687819292707 129.83362946754153 182.086056646371 142.26595006607062 198.22241475867514 156.5847497469463 193.9747748390189 163.5269650130116 208.47224665065855 178.69821884524674 201.65750199035733 187.87768378154627 218.07777220998733 176.9202615662486 241.15534468347087 185.98029760944556 245.62718834880425 228.18803221728584 211.6973002539169 270.29485342960066 214.3255812344077 281.6343644472943 206.99553788214936 299.4276510926176 206.29460854271048 307.70170452265637 218.24458235088017 341.3481518922483 218.96938667706002 350.6611824159893 207.23677113269486 373.4967781091276 201.13569570251175 363.85680539951187 230.3452173722804 377.0155360033118 247.5398064371124 377.0173314675789 247.5986069496857 Z" stroke="#eee" stroke-width="inherit" opacity="1" class="highcharts-point" data-state="HR" data-key="HR_3"></path>
            <path fill="none" d="M 562.8525379696403 182.91027267665174 L 549.358486995756 225.18896355535878 538.9886806581322 247.2227517661888 538.8287454475802 259.9441518161908 550.4211865440739 295.63466457239355 549.6264869343806 303.8769427015563 547.7131697336539 328.4234129716457 504.7177455525018 318.4831239238522 465.99174898931113 312.45891513877086 452.94116445933315 304.18554090387937 454.41016781697436 290.18531585088465 470.2322038987864 285.6865934413028 474.46807964473413 271.4919444158085 455.95045565089185 266.6790476889065 430.0027925386166 268.26245901451546 427.7829269913915 268.1701140344222 424.6778942876453 262.5918876104501 426.20011175147175 260.32226151648314 438.450451243125 240.92000903981457 463.9949100648823 233.2275891651445 462.779115761206 191.07550575019815 498.62343738034934 194.37751854137 521.0334341826253 177.46841214693282 542.6316854089371 175.00253386587698 562.8525379696403 182.91027267665174 Z" stroke="#eee" stroke-width="inherit" opacity="1" class="highcharts-point" data-state="HR" data-key="HR_5"></path>
            <path fill="none" d="M 428.8484095600802 268.2144172016375 L 430.0027925386166 268.26245901451546 455.95045565089185 266.6790476889065 474.46807964473413 271.4919444158085 470.2322038987864 285.6865934413028 454.41016781697436 290.18531585088465 452.94116445933315 304.18554090387937 465.99174898931113 312.45891513877086 504.7177455525018 318.4831239238522 547.7131697336539 328.4234129716457 546.1716810491296 341.7289858967492 563.1467460585011 359.82142823256527 557.9303351032336 386.1468075358989 531.9725577341972 384.9201353404164 511.6134140488758 394.8383416360658 474.78713701455905 366.8362760378623 458.4928735074226 362.9464545876734 452.3462846281417 348.86685535335204 422.08569026681533 341.72421618281345 388.4884094959977 343.53146072205857 386.64052641579184 320.4888071918254 375.04481686877915 318.26949270415815 366.90644496954985 293.7397877252626 399.29656873347255 280.04603581313603 406.6957973978539 282.44608875238896 416.3840492802474 276.74115816903145 421.79264508765203 272.2023813712978 428.34051281021607 270.42021598483393 428.47714500564194 269.4905462865772 428.86410036952213 268.7693196514918 428.8560426524047 268.4843563626471 428.85201371999943 268.34187501782407 428.8499992402316 268.27063459351433 428.8484095600802 268.2144172016375 Z" stroke="#eee" stroke-width="inherit" opacity="1" class="highcharts-point" data-state="HR" data-key="HR_6"></path>
            <path fill="none" d="M 377.0173314675789 247.5986069496857 L 377.0200246469828 247.68680778359303 392.0556989643945 249.54640805391887 402.91336506716726 261.7860283031696 425.07567491286846 261.99874176742566 424.6778942876453 262.5918876104501 427.7829269913915 268.1701140344222 428.8484095600802 268.2144172016375 428.8499992402316 268.27063459351433 428.85201371999943 268.34187501782407 428.8560426524047 268.4843563626471 428.86410036952213 268.7693196514918 428.47714500564194 269.4905462865772 428.34051281021607 270.42021598483393 421.79264508765203 272.2023813712978 416.3840492802474 276.74115816903145 406.6957973978539 282.44608875238896 399.29656873347255 280.04603581313603 366.90644496954985 293.7397877252626 375.04481686877915 318.26949270415815 386.64052641579184 320.4888071918254 388.4884094959977 343.53146072205857 376.88566883803963 349.3084628172982 372.83904045245276 367.71389198435713 388.23951110775226 378.0050476853324 387.20108313754037 396.07040154451613 402.19080582541574 400.64643555654135 403.1168530288666 400.90372890397236 402.811579490526 401.04695620119037 401.31439660347127 401.080915772854 396.3343152351263 403.6692221908907 378.72982509516646 403.5820755315669 362.53274026501003 388.4578401830362 339.82658260481895 393.30023708606285 319.59429644278265 374.55078021600997 307.2843408860904 381.8757600720178 270.9860260217589 376.4210514861148 256.0770291193055 361.3210034024997 241.68065381013676 365.2115140308542 215.98197611171187 347.1986280446391 219.80889044038713 324.75733707956124 215.83867155421467 310.5449737090013 196.36773190928673 308.70815349451715 200.0320503864666 299.3410290492781 217.52444974736775 299.4827912979191 221.1500463256433 281.7493130317995 238.81920274843344 283.8430636733918 255.51627418038555 295.2480984714349 261.9866077379777 280.5336220349416 275.4498289128727 279.3719298205206 290.40077528126454 260.7318007763386 299.1488993295666 263.0554314138665 330.71541534363774 247.18376323361832 356.26564872486557 251.41441858922542 365.73726522649054 247.51072997064705 367.6192658950426 248.49595177706126 371.465026465723 247.66977023996932 376.6791397188295 247.5476542693072 377.0173314675789 247.5986069496857 Z" stroke="#eee" stroke-width="inherit" opacity="1" class="highcharts-point" data-state="HR" data-key="HR_4"></path>
            <path fill="none" d="M 511.6134140488758 394.8383416360658 L 512.2612817168532 420.80224657528703 512.5085141663644 421.9976244384959 490.8314466954079 439.8902512217822 499.604588565779 453.7975395925597 472.2501025703624 461.156738876306 458.45358464962743 477.6072539429444 452.9043227036511 497.2101606068466 440.5443532993705 496.2975331247649 433.3819015317221 511.74148552416494 422.9762783703467 512.6418903122669 404.397671349964 506.33758463785176 400.5229784118191 503.56959238020534 399.8233528411424 505.60179351631433 398.87544194437163 505.62349396152166 398.506090920993 505.9679952822063 397.9373538023535 505.9810368955031 397.56310894202295 506.1576439578597 397.3735316600612 506.16199591162314 397.2203459403127 506.1655133309628 398.02527859404 503.38921385875574 398.6850344178733 479.25130583224393 388.3007925710812 476.73406543788593 398.2857636057936 433.4563336006007 419.3775619606116 433.4644304739109 403.43725910366044 414.9824750665436 403.677805073815 401.0596008176471 402.19080582541574 400.64643555654135 387.20108313754037 396.07040154451613 388.23951110775226 378.0050476853324 372.83904045245276 367.71389198435713 376.88566883803963 349.3084628172982 388.4884094959977 343.53146072205857 422.08569026681533 341.72421618281345 452.3462846281417 348.86685535335204 458.4928735074226 362.9464545876734 474.78713701455905 366.8362760378623 511.6134140488758 394.8383416360658 Z" stroke="#eee" stroke-width="inherit" opacity="1" class="highcharts-point" data-state="HR" data-key="HR_7"></path>
            <path fill="none" d="M 403.1168530288666 400.90372890397236 L 403.677805073815 401.0596008176471 403.43725910366044 414.9824750665436 419.3775619606116 433.4644304739109 398.2857636057936 433.4563336006007 388.3007925710812 476.73406543788593 398.6850344178733 479.25130583224393 398.02527859404 503.38921385875574 397.1599573566926 506.37382972875247 391.4501069390442 515.3203292549135 400.3138271020205 525.7199785297945 396.7218766693479 544.4080253763676 380.50751092341494 536.5829628879023 366.53602067561576 538.7733594712515 365.0507190236483 567.0643448492386 375.1684622667328 580.0967602897628 365.624353300883 586.4200238841878 348.0547143938555 578.1479837318647 328.2387974220091 575.5589994945643 318.4436312081826 562.5912077589493 328.6126937524518 534.0123928293955 343.0379247247697 507.52828900167384 318.34507737133225 480.1133796937867 295.6759318913473 471.50839809055117 269.4492142399214 451.2884577114847 259.13559819740885 435.1809568688892 248.9853267735808 433.51516414332116 236.24052019119603 387.1113997483793 241.68065381013676 365.2115140308542 256.0770291193055 361.3210034024997 270.9860260217589 376.4210514861148 307.2843408860904 381.8757600720178 319.59429644278265 374.55078021600997 339.82658260481895 393.30023708606285 362.53274026501003 388.4578401830362 378.72982509516646 403.5820755315669 396.3343152351263 403.6692221908907 401.31439660347127 401.080915772854 402.811579490526 401.04695620119037 403.1168530288666 400.90372890397236 Z" stroke="#eee" stroke-width="inherit" opacity="1" class="highcharts-point" data-state="HR" data-key="HR_8"></path>
            <path fill="none" d="M 538.72433922447 453.4894127515181 L 539.5450979400731 454.51341806797717 553.8003713365586 472.87643224436204 549.773571395333 489.2299917322701 563.2520479955731 494.3175993067803 554.74415955994 509.1956500780281 542.8362654915287 544.4435934677645 557.4582566458873 560.362377569445 584.601153239553 578.1813967992603 574.4644679901471 586.7709170890145 529.4970738007867 584.1904438414199 516.6198444967382 615 501.11872598162324 603.1802919448239 502.09920149641084 591.8851744930562 508.3633544955587 581.4918092577186 506.8937699765999 550.5773215788604 515.0997303208276 522.8837330631835 490.8234683012319 507.5685863554415 482.8624623891589 520.3534249165098 455.64705950696595 532.6341409901172 457.93927089786166 546.4790671996062 434.9262789800982 542.660666057926 422.42517028640975 521.740278488763 401.1198144480555 522.8952976209379 391.4501069390442 515.3203292549135 397.1599573566926 506.37382972875247 397.2203459403127 506.1655133309628 397.3735316600612 506.16199591162314 397.56310894202295 506.1576439578597 397.9373538023535 505.9810368955031 398.506090920993 505.9679952822063 398.87544194437163 505.62349396152166 399.8233528411424 505.60179351631433 400.5229784118191 503.56959238020534 404.397671349964 506.33758463785176 422.9762783703467 512.6418903122669 433.3819015317221 511.74148552416494 440.5443532993705 496.2975331247649 452.9043227036511 497.2101606068466 458.45358464962743 477.6072539429444 472.2501025703624 461.156738876306 499.604588565779 453.7975395925597 525.4169591977495 449.22656405734773 538.72433922447 453.4894127515181 Z" stroke="#eee" stroke-width="inherit" opacity="1" class="highcharts-point" data-state="HR" data-key="HR_9"></path>
            <path fill="none" d="M 611.3161851181058 534.3542514797095 L 623.6363713946673 551.4652614808466 620.5866687576959 563.0883458610429 611.0328395673234 562.8877928853548 584.601153239553 578.1813967992603 557.4582566458873 560.362377569445 542.8362654915287 544.4435934677645 554.74415955994 509.1956500780281 563.2520479955731 494.3175993067803 549.773571395333 489.2299917322701 553.8003713365586 472.87643224436204 565.5300730000349 461.28831197898853 586.3898021783377 453.8828549110158 604.9704833372284 468.53196349837765 624.205618808068 514.0885872371452 611.3161851181058 534.3542514797095 Z" stroke="#eee" stroke-width="inherit" opacity="1" class="highcharts-point" data-state="HR" data-key="HR_10"></path>
         </g>
      </g>
      <g data-z-index="0.1" class="highcharts-markers highcharts-series-1 highcharts-mapline-series  highcharts-tracker  " transform="translate(10,10) scale(1 1)" style="cursor:pointer;" clip-path="none" opacity="0.8185577386937077"></g>
   </g>
   <text x="348" text-anchor="middle" class="highcharts-title" data-z-index="4" style="color:#333333;font-size:18px;fill:#333333;" y="24"></text>
   <text x="348" text-anchor="middle" class="highcharts-subtitle" data-z-index="4" style="color:#666666;fill:#666666;" y="24"></text>
   <g class="highcharts-button highcharts-map-navigation highcharts-zoom-in" style="[object Object]" data-z-index="5" transform="translate(658,10)">
      <path fill="#f7f7f7" class="highcharts-button-box" d="M 1.5 -0.5 L 25.5 -0.5 C 26.5 -0.5 27.5 0.5 27.5 1.5 L 27.5 27.5 C 27.5 27.5 27.5 27.5 27.5 27.5 L -0.5 27.5 C -0.5 27.5 -0.5 27.5 -0.5 27.5 L -0.5 1.5 C -0.5 0.5 0.5 -0.5 1.5 -0.5 Z" stroke="#cccccc" stroke-width="1"></path>
      <title>Zoom in</title>
      <text x="7.59375" data-z-index="1" style="font-size:15px;font-weight:bold;color:#333333;cursor:pointer;fill:#333333;" y="19">+</text>
   </g>
   <g class="highcharts-button highcharts-map-navigation highcharts-zoom-out" style="[object Object]" data-z-index="5" transform="translate(658,38)">
      <path fill="#f7f7f7" class="highcharts-button-box" d="M -0.5 -0.5 L 27.5 -0.5 C 27.5 -0.5 27.5 -0.5 27.5 -0.5 L 27.5 25.5 C 27.5 26.5 26.5 27.5 25.5 27.5 L 1.5 27.5 C 0.5 27.5 -0.5 26.5 -0.5 25.5 L -0.5 -0.5 C -0.5 -0.5 -0.5 -0.5 -0.5 -0.5 Z" stroke="#cccccc" stroke-width="1"></path>
      <title>Zoom out</title>
      <text x="10.5" data-z-index="1" style="font-size:15px;font-weight:bold;color:#333333;cursor:pointer;fill:#333333;" y="19">-</text>
   </g>
   <g data-z-index="6" class="highcharts-data-labels highcharts-series-0 highcharts-map-series  highcharts-tracker  " transform="translate(10,10) scale(1 1)" clip-path="url(#highcharts-jwydqyn-1-)" style="cursor:pointer;"></g>
   <g data-z-index="6" class="highcharts-data-labels highcharts-series-1 highcharts-mapline-series  highcharts-tracker  " transform="translate(10,10) scale(1 1)" clip-path="url(#highcharts-jwydqyn-1-)" style="cursor:pointer;" opacity="0.8185577386937077"></g>
   <g class="highcharts-label highcharts-tooltip highcharts-color-undefined" style="pointer-events:auto;white-space:nowrap;" data-z-index="8" transform="translate(414,-9999)" opacity="0" visibility="visible">
      <path fill="rgba(247,247,247,0.85)" class="highcharts-label-box highcharts-tooltip-box" d="M 0 0 L 280 0 C 280 0 280 0 280 0 L 280 227 C 280 227 280 227 280 227 L 186 227 180 233 174 227 0 227 C 0 227 0 227 0 227 L 0 0 C 0 0 0 0 0 0"></path>
   </g>
</svg>