<svg version="1.1" class="highcharts-root" style="font-family:&quot;Lucida Grande&quot;, &quot;Lucida Sans Unicode&quot;, Arial, Helvetica, sans-serif;font-size:12px;" xmlns="http://www.w3.org/2000/svg" width="696" height="640" viewBox="0 0 696 640">
   <desc>Created with Highcharts 7.1.0</desc>
   <defs>
      <clipPath id="highcharts-1atpj8h-1-">
         <rect x="0" y="0" width="676" height="615" fill="none"></rect>
      </clipPath>
   </defs>
   <rect fill="#fff" class="highcharts-background" x="0" y="0" width="696" height="640" rx="0" ry="0"></rect>
   <rect fill="none" class="highcharts-plot-background" x="10" y="10" width="676" height="615"></rect>
   <rect fill="none" class="highcharts-plot-border" data-z-index="1" x="10" y="10" width="676" height="615"></rect>
   <g class="highcharts-series-group" data-z-index="3" style="pointer-events: auto;">
      <g data-z-index="0.1" class="highcharts-series highcharts-series-0 highcharts-map-series  highcharts-tracker " transform="translate(10,10) scale(1 1)" stroke-width="0.3" style="cursor:pointer;" clip-path="url(#highcharts-1atpj8h-1-)">
         <g transform="translate(0,0) scale(1 1)">
            <path fill="#1EB4FF" d="M 230.7454625262872 311.1461056554365 L 243.12743695828433 318.14633241479834 244.35024727376418 335.5466782044496 227.21767945245162 337.9722554205275 213.44814749195083 329.85263945371776 204.85810625359747 330.0874751727206 204.13619649950815 335.4707237623187 185.0355190967987 342.162214998972 183.34493778595893 348.1929861705113 188.21271368814803 355.8575251554669 180.0125132737376 359.36635803828017 169.11242930913596 368.0039665781667 163.51434055382532 375.82826403454317 153.0918145061336 368.0164017808679 149.448028615461 372.3703721885063 140.74129188209855 364.75620876088226 131.1952046346637 365.7896968772661 126.26538614220091 358.53687870697263 136.95773817514066 347.5404381545071 131.85066734261085 334.5692290385166 122.75753019443756 332.3929405632117 117.62309092813193 327.9904838039975 121.23689595836906 322.1344573052421 128.22238703496043 322.47282920602646 124.38256336213102 309.6813991253007 125.07552979746512 303.144208160353 149.79843533673898 302.5831673718458 170.40106584512517 296.6824160483036 177.52216869915333 296.80329204837955 197.73363832487416 309.44646443525585 213.07902651969923 310.45677206378423 219.45489560654818 314.39145170741403 230.7454625262872 311.1461056554365 Z" stroke="#000" stroke-width="inherit" opacity="1" class="highcharts-point" data-constituency="JK_1" data-const-name="Baramula" data-const-id="JK_1" data-won-alliance="UPA"></path>
            <path fill="#1EB4FF" d="M 256.46749673704386 348.3195732648448 L 247.48081812610224 350.2141069819028 236.40089441820163 346.3332605354813 226.30006574383455 350.8856083261659 226.24257554197942 359.37291754664614 219.61390596024137 358.4970262012155 203.28498362622645 369.1932509950278 195.38869073006197 383.0572226451403 186.4464448359116 384.9400600860665 174.7315382245778 395.5116763275273 167.27135582817374 389.4499132805789 163.51434055382532 375.82826403454317 169.11242930913596 368.0039665781667 180.0125132737376 359.36635803828017 188.21271368814803 355.8575251554669 183.34493778595893 348.1929861705113 185.0355190967987 342.162214998972 204.13619649950815 335.4707237623187 204.85810625359747 330.0874751727206 213.44814749195083 329.85263945371776 227.21767945245162 337.9722554205275 244.35024727376418 335.5466782044496 248.80941254985012 343.1720938744573 256.46749673704386 348.3195732648448 Z" stroke="#000" stroke-width="inherit" opacity="1" class="highcharts-point" data-constituency="JK_2" data-const-name="Srinagar" data-const-id="JK_2" data-won-alliance="UPA"></path>
            <path fill="#1EB4FF" d="M 181.76088339902304 411.3156666466368 L 173.9645947922474 407.9511142650996 174.7315382245778 395.5116763275273 186.4464448359116 384.9400600860665 195.38869073006197 383.0572226451403 203.28498362622645 369.1932509950278 219.61390596024137 358.4970262012155 226.24257554197942 359.37291754664614 226.30006574383455 350.8856083261659 236.40089441820163 346.3332605354813 247.48081812610224 350.2141069819028 256.46749673704386 348.3195732648448 265.19495801796006 350.0711552386133 259.5706570217299 363.0329204513723 252.8395567612935 365.0215346292822 248.44856086638103 375.22254414962924 258.2760744719257 391.7078307326775 260.37922003783495 402.5494870019239 255.2324870158037 411.4136828946338 255.64041441923044 419.3397726798024 244.97313294781358 421.38429619036094 231.93625651828734 410.68019832800564 220.8281622540589 407.26958523500275 215.35458367526243 412.94107657927407 206.8590805627289 411.1080573672813 197.7854452684636 413.90028838546436 187.81540850786442 408.909710946018 181.76088339902304 411.3156666466368 Z" stroke="#000" stroke-width="inherit" opacity="1" class="highcharts-point" data-constituency="JK_3" data-const-name="Anantnag" data-const-id="JK_3" data-won-alliance="UPA"></path>
            <path fill="#FF9650" d="M 367.9476766545013 433.68697900278164 L 368.04424750982605 435.4170651666267 367.811301370441 435.71060450599316 365.53309522454083 439.2143897408944 356.60584649053305 440.6703631602876 349.71547040347747 436.57407609503343 335.5761545123336 438.8618127721696 326.05721629978785 445.6946729447799 322.77239067229254 451.8883289760205 310.3082251916151 454.2745633715791 303.65673133460507 461.8325051492686 296.4153681305041 464.71193969548517 290.6387513680879 460.7135895916981 283.71682242945354 463.9023047657827 294.5426277524478 475.7533517227498 295.49032020108007 485.60298168163024 291.0471269842403 491.45569487367356 285.1158301383789 499.1824435785187 277.050496872706 505.147808805934 255.88216260323813 513.8360778262065 243.44760148056184 511.7134776072663 236.45000399285144 509.7716243220358 223.60823100189043 501.4092732482742 229.34037645437564 494.27228748551533 241.81391208211375 488.08531618529366 227.51666904171313 483.1470632940707 227.20724335737415 475.08811408498366 209.94261795063144 460.8371296266911 203.709970216485 458.83284252018575 193.20968858083452 450.49183412591856 186.2899618029994 449.9257366170601 179.97920955040942 441.91745862821745 186.49859169166575 433.1368994810015 183.92810881424666 424.36568171169836 185.42699565264382 418.27578560012876 181.76088339902304 411.3156666466368 187.81540850786442 408.909710946018 197.7854452684636 413.90028838546436 206.8590805627289 411.1080573672813 215.35458367526243 412.94107657927407 220.8281622540589 407.26958523500275 231.93625651828734 410.68019832800564 244.97313294781358 421.38429619036094 255.64041441923044 419.3397726798024 255.2324870158037 411.4136828946338 260.37922003783495 402.5494870019239 258.2760744719257 391.7078307326775 248.44856086638103 375.22254414962924 252.8395567612935 365.0215346292822 259.5706570217299 363.0329204513723 265.19495801796006 350.0711552386133 273.0295313337013 354.8973412453837 278.5909071903329 363.6464806751518 292.4792615307123 370.6380019149973 303.96924497247664 371.53799854662054 311.84412520299963 378.2666361709528 318.6793663575408 388.483484852973 323.83458869366046 391.32574253641405 327.38866840630794 405.1495383819471 342.5590715406964 409.00789572582835 354.9276839791236 416.53052221427265 358.7360110724706 425.73282440471564 367.9476766545013 433.68697900278164 Z" stroke="#000" stroke-width="inherit" opacity="1" class="highcharts-point" data-constituency="JK_5" data-const-name="Udhampur" data-const-id="JK_5" data-won-alliance="NDA"></path>
            <path fill="#FF9650" d="M 163.51434055382532 375.82826403454317 L 167.27135582817374 389.4499132805789 174.7315382245778 395.5116763275273 173.9645947922474 407.9511142650996 181.76088339902304 411.3156666466368 185.42699565264382 418.27578560012876 183.92810881424666 424.36568171169836 186.49859169166575 433.1368994810015 179.97920955040942 441.91745862821745 186.2899618029994 449.9257366170601 193.20968858083452 450.49183412591856 203.709970216485 458.83284252018575 209.94261795063144 460.8371296266911 227.20724335737415 475.08811408498366 227.51666904171313 483.1470632940707 241.81391208211375 488.08531618529366 229.34037645437564 494.27228748551533 223.60823100189043 501.4092732482742 209.37426850054086 502.9538343896103 201.84631731251085 499.4223829686006 186.34718767415194 499.21974273780233 183.83806313870846 492.91004242419285 183.68946732063583 480.85644013292335 180.76298306501863 475.9138111644544 171.28278578140245 476.89892136122194 166.31973838606285 473.48787554557055 166.63810024329516 470.000336078652 144.8129273527415 445.8224979038347 133.30178249708692 434.81602757093276 143.87380756517214 427.02389421317855 143.05329709005576 405.95068230528807 134.21618889239906 403.02365622413174 132.45997895982202 387.6405094491246 136.5055822327662 381.92267515092146 143.63059168078217 381.4129299491758 149.448028615461 372.3703721885063 153.0918145061336 368.0164017808679 163.51434055382532 375.82826403454317 Z" stroke="#000" stroke-width="inherit" opacity="1" class="highcharts-point" data-constituency="JK_6" data-const-name="Jammu" data-const-id="JK_6" data-won-alliance="NDA"></path>
            <path fill="rgb(255,150,80)" d="M 563.9317922082366 391.13296625662656 L 569.9489323502279 401.4923636320485 553.8038641040757 399.76509520265415 555.0264752733857 417.17325761485404 560.2372782664276 426.01800860700484 569.2432148194172 429.1552791375318 581.6676202397379 428.87701685857576 600.2460422105868 432.2807265335732 593.5254598660975 447.35038325669575 594.0527776542824 457.0981202798489 601.0383470141329 461.6268275433183 615.1577858568575 477.45284278834833 599.658465117651 495.2283227979707 590.2409568630916 490.07007271320447 577.7237123826228 499.52164102486915 570.7840030454945 508.0854987490884 557.350198476149 509.58121856028527 545.8254110479677 503.36188255070965 539.092987574578 482.3045211359172 531.5060172418829 484.7330387775637 527.7753542660387 489.7184498902683 520.5531012639282 488.62767069220934 508.78333237371555 495.7956464513271 501.3483313139249 491.635944968171 509.3540335755589 487.67300885001066 501.29446709983824 479.89103869770724 491.58953523888226 484.1318306427503 483.7318654879462 484.27398300135167 478.7240218484285 490.3624862653119 473.5977665356192 490.35871285647784 467.24271820720367 481.57223247701256 468.52875511927834 476.0330350761011 454.9697843913937 466.65167380961543 457.47017484887175 463.1298373465529 450.7440608475105 457.35956021892684 439.3771386725922 460.17473067494586 428.4054333459123 466.88871525907246 421.8305683353857 465.2227387647812 416.80841082625574 470.290109587398 408.72284653524105 463.92643019130367 402.5808403297111 462.38385356118874 400.76673354539287 456.54536789921383 388.8026660566817 455.73632070336066 381.7868360354083 451.895405707132 378.3046766361301 444.8958271087429 367.9476766545013 433.68697900278164 368.14491712431413 435.2902169020035 368.04424750982605 435.4170651666267 367.9476766545013 433.68697900278164 358.7360110724706 425.73282440471564 354.9276839791236 416.53052221427265 342.5590715406964 409.00789572582835 327.38866840630794 405.1495383819471 323.83458869366046 391.32574253641405 318.6793663575408 388.483484852973 311.84412520299963 378.2666361709528 303.96924497247664 371.53799854662054 292.4792615307123 370.6380019149973 278.5909071903329 363.6464806751518 273.0295313337013 354.8973412453837 265.19495801796006 350.0711552386133 256.46749673704386 348.3195732648448 248.80941254985012 343.1720938744573 244.35024727376418 335.5466782044496 243.12743695828433 318.14633241479834 230.7454625262872 311.1461056554365 241.33302311622444 298.63387936075856 256.29605738414705 294.73210435233966 272.298045394688 307.49179138271677 280.31420635712925 309.88882744584055 297.9567590871163 306.6930241829642 304.13331470727564 311.03432964994875 309.4296372477773 302.8836996002177 328.82096336095145 284.8873222079136 334.51810141234813 281.75093316124753 369.4041078170704 276.9567961809263 390.13717760118004 270.96028708456583 396.10872619975936 264.9957991027207 421.0630534843549 263.87976649482493 433.65218099972697 254.87336369756923 440.60822864347824 253.8218389821546 453.48638352158264 258.1770938396951 461.2475327791762 253.5495949869249 472.31104376397184 254.36869177748343 477.67672772667714 262.17240055398076 485.26727314968997 264.4718220059739 486.9368302917876 278.04768832317944 490.881636968105 289.22053332234725 497.11833142599016 299.4210520475352 505.90073242975603 306.49867370046434 504.644193242491 319.88968249804327 501.55706386827825 326.13404713514717 494.9367340658463 327.39625887493366 490.25738048437245 342.0318927164566 496.9599192888463 346.98531367712644 501.20970269570427 362.01883880261175 515.9769329048845 369.54020450573637 525.4237941178449 366.3459399103883 550.3902100128927 361.37170458634625 550.17133199129 368.5550570401223 542.4403458150952 371.48174818968516 542.7843534980213 376.987414118018 550.2811432506545 380.04952077901623 563.9317922082366 391.13296625662656 Z" stroke="#000" stroke-width="inherit" opacity="1" class="highcharts-point " data-constituency="JK_4" data-const-name="Leh (Ladakh)" data-const-id="JK_4" data-won-alliance="NDA" data-z-index="0"></path>
         </g>
      </g>
      <g data-z-index="0.1" class="highcharts-markers highcharts-series-0 highcharts-map-series  highcharts-tracker " transform="translate(10,10) scale(1 1)" style="cursor:pointer;" clip-path="none"></g>
      <g data-z-index="0.1" class="highcharts-series highcharts-series-1 highcharts-mapline-series  highcharts-tracker " transform="translate(10,10) scale(1 1)" stroke-width="1" style="cursor:pointer;" clip-path="url(#highcharts-1atpj8h-1-)" opacity="0.9942578380595992">
         <g transform="translate(0,0) scale(1 1)">
            <path fill="none" d="M 563.9317922082366 391.13296625662656 L 569.9489323502279 401.4923636320485 553.8038641040757 399.76509520265415 555.0264752733857 417.17325761485404 560.2372782664276 426.01800860700484 569.2432148194172 429.1552791375318 581.6676202397379 428.87701685857576 600.2460422105868 432.2807265335732 593.5254598660975 447.35038325669575 594.0527776542824 457.0981202798489 601.0383470141329 461.6268275433183 615.1577858568575 477.45284278834833 599.658465117651 495.2283227979707 590.2409568630916 490.07007271320447 577.7237123826228 499.52164102486915 570.7840030454945 508.0854987490884 557.350198476149 509.58121856028527 545.8254110479677 503.36188255070965 539.092987574578 482.3045211359172 531.5060172418829 484.7330387775637 527.7753542660387 489.7184498902683 520.5531012639282 488.62767069220934 508.78333237371555 495.7956464513271 501.3483313139249 491.635944968171 509.3540335755589 487.67300885001066 501.29446709983824 479.89103869770724 491.58953523888226 484.1318306427503 483.7318654879462 484.27398300135167 478.7240218484285 490.3624862653119 473.5977665356192 490.35871285647784 467.24271820720367 481.57223247701256 468.52875511927834 476.0330350761011 454.9697843913937 466.65167380961543 457.47017484887175 463.1298373465529 450.7440608475105 457.35956021892684 439.3771386725922 460.17473067494586 428.4054333459123 466.88871525907246 421.8305683353857 465.2227387647812 416.80841082625574 470.290109587398 408.72284653524105 463.92643019130367 402.5808403297111 462.38385356118874 400.76673354539287 456.54536789921383 388.8026660566817 455.73632070336066 381.7868360354083 451.895405707132 378.3046766361301 444.8958271087429 367.9476766545013 433.68697900278164 368.14491712431413 435.2902169020035 368.04424750982605 435.4170651666267 367.9476766545013 433.68697900278164 358.7360110724706 425.73282440471564 354.9276839791236 416.53052221427265 342.5590715406964 409.00789572582835 327.38866840630794 405.1495383819471 323.83458869366046 391.32574253641405 318.6793663575408 388.483484852973 311.84412520299963 378.2666361709528 303.96924497247664 371.53799854662054 292.4792615307123 370.6380019149973 278.5909071903329 363.6464806751518 273.0295313337013 354.8973412453837 265.19495801796006 350.0711552386133 256.46749673704386 348.3195732648448 248.80941254985012 343.1720938744573 244.35024727376418 335.5466782044496 243.12743695828433 318.14633241479834 230.7454625262872 311.1461056554365 241.33302311622444 298.63387936075856 256.29605738414705 294.73210435233966 272.298045394688 307.49179138271677 280.31420635712925 309.88882744584055 297.9567590871163 306.6930241829642 304.13331470727564 311.03432964994875 309.4296372477773 302.8836996002177 328.82096336095145 284.8873222079136 334.51810141234813 281.75093316124753 369.4041078170704 276.9567961809263 390.13717760118004 270.96028708456583 396.10872619975936 264.9957991027207 421.0630534843549 263.87976649482493 433.65218099972697 254.87336369756923 440.60822864347824 253.8218389821546 453.48638352158264 258.1770938396951 461.2475327791762 253.5495949869249 472.31104376397184 254.36869177748343 477.67672772667714 262.17240055398076 485.26727314968997 264.4718220059739 486.9368302917876 278.04768832317944 490.881636968105 289.22053332234725 497.11833142599016 299.4210520475352 505.90073242975603 306.49867370046434 504.644193242491 319.88968249804327 501.55706386827825 326.13404713514717 494.9367340658463 327.39625887493366 490.25738048437245 342.0318927164566 496.9599192888463 346.98531367712644 501.20970269570427 362.01883880261175 515.9769329048845 369.54020450573637 525.4237941178449 366.3459399103883 550.3902100128927 361.37170458634625 550.17133199129 368.5550570401223 542.4403458150952 371.48174818968516 542.7843534980213 376.987414118018 550.2811432506545 380.04952077901623 563.9317922082366 391.13296625662656 Z" stroke="#eee" stroke-width="inherit" opacity="1" class="highcharts-point" data-state="JK" data-key="JK_4"></path>
            <path fill="none" d="M 163.51434055382532 375.82826403454317 L 167.27135582817374 389.4499132805789 174.7315382245778 395.5116763275273 173.9645947922474 407.9511142650996 181.76088339902304 411.3156666466368 185.42699565264382 418.27578560012876 183.92810881424666 424.36568171169836 186.49859169166575 433.1368994810015 179.97920955040942 441.91745862821745 186.2899618029994 449.9257366170601 193.20968858083452 450.49183412591856 203.709970216485 458.83284252018575 209.94261795063144 460.8371296266911 227.20724335737415 475.08811408498366 227.51666904171313 483.1470632940707 241.81391208211375 488.08531618529366 229.34037645437564 494.27228748551533 223.60823100189043 501.4092732482742 209.37426850054086 502.9538343896103 201.84631731251085 499.4223829686006 186.34718767415194 499.21974273780233 183.83806313870846 492.91004242419285 183.68946732063583 480.85644013292335 180.76298306501863 475.9138111644544 171.28278578140245 476.89892136122194 166.31973838606285 473.48787554557055 166.63810024329516 470.000336078652 144.8129273527415 445.8224979038347 133.30178249708692 434.81602757093276 143.87380756517214 427.02389421317855 143.05329709005576 405.95068230528807 134.21618889239906 403.02365622413174 132.45997895982202 387.6405094491246 136.5055822327662 381.92267515092146 143.63059168078217 381.4129299491758 149.448028615461 372.3703721885063 153.0918145061336 368.0164017808679 163.51434055382532 375.82826403454317 Z" stroke="#eee" stroke-width="inherit" opacity="1" class="highcharts-point" data-state="JK" data-key="JK_6"></path>
            <path fill="none" d="M 256.46749673704386 348.3195732648448 L 247.48081812610224 350.2141069819028 236.40089441820163 346.3332605354813 226.30006574383455 350.8856083261659 226.24257554197942 359.37291754664614 219.61390596024137 358.4970262012155 203.28498362622645 369.1932509950278 195.38869073006197 383.0572226451403 186.4464448359116 384.9400600860665 174.7315382245778 395.5116763275273 167.27135582817374 389.4499132805789 163.51434055382532 375.82826403454317 169.11242930913596 368.0039665781667 180.0125132737376 359.36635803828017 188.21271368814803 355.8575251554669 183.34493778595893 348.1929861705113 185.0355190967987 342.162214998972 204.13619649950815 335.4707237623187 204.85810625359747 330.0874751727206 213.44814749195083 329.85263945371776 227.21767945245162 337.9722554205275 244.35024727376418 335.5466782044496 248.80941254985012 343.1720938744573 256.46749673704386 348.3195732648448 Z" stroke="#eee" stroke-width="inherit" opacity="1" class="highcharts-point" data-state="JK" data-key="JK_2"></path>
            <path fill="none" d="M 181.76088339902304 411.3156666466368 L 173.9645947922474 407.9511142650996 174.7315382245778 395.5116763275273 186.4464448359116 384.9400600860665 195.38869073006197 383.0572226451403 203.28498362622645 369.1932509950278 219.61390596024137 358.4970262012155 226.24257554197942 359.37291754664614 226.30006574383455 350.8856083261659 236.40089441820163 346.3332605354813 247.48081812610224 350.2141069819028 256.46749673704386 348.3195732648448 265.19495801796006 350.0711552386133 259.5706570217299 363.0329204513723 252.8395567612935 365.0215346292822 248.44856086638103 375.22254414962924 258.2760744719257 391.7078307326775 260.37922003783495 402.5494870019239 255.2324870158037 411.4136828946338 255.64041441923044 419.3397726798024 244.97313294781358 421.38429619036094 231.93625651828734 410.68019832800564 220.8281622540589 407.26958523500275 215.35458367526243 412.94107657927407 206.8590805627289 411.1080573672813 197.7854452684636 413.90028838546436 187.81540850786442 408.909710946018 181.76088339902304 411.3156666466368 Z" stroke="#eee" stroke-width="inherit" opacity="1" class="highcharts-point" data-state="JK" data-key="JK_3"></path>
            <path fill="none" d="M 230.7454625262872 311.1461056554365 L 243.12743695828433 318.14633241479834 244.35024727376418 335.5466782044496 227.21767945245162 337.9722554205275 213.44814749195083 329.85263945371776 204.85810625359747 330.0874751727206 204.13619649950815 335.4707237623187 185.0355190967987 342.162214998972 183.34493778595893 348.1929861705113 188.21271368814803 355.8575251554669 180.0125132737376 359.36635803828017 169.11242930913596 368.0039665781667 163.51434055382532 375.82826403454317 153.0918145061336 368.0164017808679 149.448028615461 372.3703721885063 140.74129188209855 364.75620876088226 131.1952046346637 365.7896968772661 126.26538614220091 358.53687870697263 136.95773817514066 347.5404381545071 131.85066734261085 334.5692290385166 122.75753019443756 332.3929405632117 117.62309092813193 327.9904838039975 121.23689595836906 322.1344573052421 128.22238703496043 322.47282920602646 124.38256336213102 309.6813991253007 125.07552979746512 303.144208160353 149.79843533673898 302.5831673718458 170.40106584512517 296.6824160483036 177.52216869915333 296.80329204837955 197.73363832487416 309.44646443525585 213.07902651969923 310.45677206378423 219.45489560654818 314.39145170741403 230.7454625262872 311.1461056554365 Z" stroke="#eee" stroke-width="inherit" opacity="1" class="highcharts-point" data-state="JK" data-key="JK_1"></path>
            <path fill="none" d="M 367.9476766545013 433.68697900278164 L 368.04424750982605 435.4170651666267 367.811301370441 435.71060450599316 365.53309522454083 439.2143897408944 356.60584649053305 440.6703631602876 349.71547040347747 436.57407609503343 335.5761545123336 438.8618127721696 326.05721629978785 445.6946729447799 322.77239067229254 451.8883289760205 310.3082251916151 454.2745633715791 303.65673133460507 461.8325051492686 296.4153681305041 464.71193969548517 290.6387513680879 460.7135895916981 283.71682242945354 463.9023047657827 294.5426277524478 475.7533517227498 295.49032020108007 485.60298168163024 291.0471269842403 491.45569487367356 285.1158301383789 499.1824435785187 277.050496872706 505.147808805934 255.88216260323813 513.8360778262065 243.44760148056184 511.7134776072663 236.45000399285144 509.7716243220358 223.60823100189043 501.4092732482742 229.34037645437564 494.27228748551533 241.81391208211375 488.08531618529366 227.51666904171313 483.1470632940707 227.20724335737415 475.08811408498366 209.94261795063144 460.8371296266911 203.709970216485 458.83284252018575 193.20968858083452 450.49183412591856 186.2899618029994 449.9257366170601 179.97920955040942 441.91745862821745 186.49859169166575 433.1368994810015 183.92810881424666 424.36568171169836 185.42699565264382 418.27578560012876 181.76088339902304 411.3156666466368 187.81540850786442 408.909710946018 197.7854452684636 413.90028838546436 206.8590805627289 411.1080573672813 215.35458367526243 412.94107657927407 220.8281622540589 407.26958523500275 231.93625651828734 410.68019832800564 244.97313294781358 421.38429619036094 255.64041441923044 419.3397726798024 255.2324870158037 411.4136828946338 260.37922003783495 402.5494870019239 258.2760744719257 391.7078307326775 248.44856086638103 375.22254414962924 252.8395567612935 365.0215346292822 259.5706570217299 363.0329204513723 265.19495801796006 350.0711552386133 273.0295313337013 354.8973412453837 278.5909071903329 363.6464806751518 292.4792615307123 370.6380019149973 303.96924497247664 371.53799854662054 311.84412520299963 378.2666361709528 318.6793663575408 388.483484852973 323.83458869366046 391.32574253641405 327.38866840630794 405.1495383819471 342.5590715406964 409.00789572582835 354.9276839791236 416.53052221427265 358.7360110724706 425.73282440471564 367.9476766545013 433.68697900278164 Z" stroke="#eee" stroke-width="inherit" opacity="1" class="highcharts-point" data-state="JK" data-key="JK_5"></path>
            <path fill="#efddc8" d="M 563.9317922082366 391.13296625662656 L 550.2811432506545 380.04952077901623 542.7843534980213 376.987414118018 542.4403458150952 371.48174818968516 550.17133199129 368.5550570401223 550.3902100128927 361.37170458634625 525.4237941178449 366.3459399103883 515.9769329048845 369.54020450573637 501.20970269570427 362.01883880261175 496.9599192888463 346.98531367712644 490.25738048437245 342.0318927164566 494.9367340658463 327.39625887493366 501.55706386827825 326.13404713514717 504.644193242491 319.88968249804327 505.90073242975603 306.49867370046434 497.11833142599016 299.4210520475352 490.881636968105 289.22053332234725 486.9368302917876 278.04768832317944 485.26727314968997 264.4718220059739 477.67672772667714 262.17240055398076 472.31104376397184 254.36869177748343 461.2475327791762 253.5495949869249 453.48638352158264 258.1770938396951 440.60822864347824 253.8218389821546 433.65218099972697 254.87336369756923 421.0630534843549 263.87976649482493 396.10872619975936 264.9957991027207 390.13717760118004 270.96028708456583 369.4041078170704 276.9567961809263 334.51810141234813 281.75093316124753 328.82096336095145 284.8873222079136 309.4296372477773 302.8836996002177 304.13331470727564 311.03432964994875 297.9567590871163 306.6930241829642 280.31420635712925 309.88882744584055 272.298045394688 307.49179138271677 256.29605738414705 294.73210435233966 241.33302311622444 298.63387936075856 230.7454625262872 311.1461056554365 219.45489560654818 314.39145170741403 213.07902651969923 310.45677206378423 197.73363832487416 309.44646443525585 177.52216869915333 296.80329204837955 170.40106584512517 296.6824160483036 149.79843533673898 302.5831673718458 125.07552979746512 303.144208160353 124.38256336213102 309.6813991253007 128.22238703496043 322.47282920602646 121.23689595836906 322.1344573052421 117.62309092813193 327.9904838039975 122.75753019443756 332.3929405632117 131.85066734261085 334.5692290385166 136.95773817514066 347.5404381545071 126.26538614220091 358.53687870697263 131.1952046346637 365.7896968772661 140.74129188209855 364.75620876088226 149.448028615461 372.3703721885063 143.63059168078217 381.4129299491758 136.5055822327662 381.92267515092146 132.45997895982202 387.6405094491246 134.21618889239906 403.02365622413174 143.05329709005576 405.95068230528807 143.87380756517214 427.02389421317855 133.30178249708692 434.81602757093276 144.8129273527415 445.8224979038347 166.63810024329516 470.000336078652 166.31973838606285 473.48787554557055 160.56809495510228 475.6900018111288 142.75200182038006 464.84094927466003 132.09961880548127 462.3490627339189 123.68723488713778 455.82849569295684 111.92636055714064 454.2023610355958 100.2975656560913 447.02889616119035 97.6628982268553 436.9120977612271 93.10814166712282 432.8739499445194 89.02515528209337 422.75254828984464 94.31532272208305 404.6192093958333 89.42677273246836 396.0959325232195 89.0116624411404 386.758434347929 91.42091271552943 376.71424526992735 85.24601453739716 367.4231115831303 83.35020429276864 348.90811470476615 75.30947025374049 336.82892519251124 79.41999000100994 318.2095083931715 94.26173841165058 317.1968273546545 98.7173535676804 308.1991940838896 107.6890328314789 298.90599428212397 118.40816460113207 296.7489340038785 129.93191710940548 291.9043722489311 133.73912354768444 286.40149228155394 131.2028528016781 268.5999370084629 120.12790562708095 262.89596488521954 108.01275747232076 260.1524520188209 101.32899718965871 250.22359450192167 109.58216419593123 241.24125608678625 108.75008508693386 235.83489382597963 96.03194572654476 231.80463344481237 75.87179386747125 232.39478592868113 52.67666710130044 218.99414508842298 53.867649228020056 208.24454590562686 34.4791795959337 207.98600121593535 32.07062716852374 204.8535703797486 13.821115299621242 209.08392423938062 0.17292870851539688 201.7521314209015 5.574449434327554 192.22317690853913 0 188.3159830784728 5.667387546352987 171.68351705293688 21.399568361433552 167.72720150747406 31.070906913286144 160.10184942912764 29.974284289251166 156.61022691273217 45.931971894675755 147.97140443073434 50.35089861323583 141.6982485589174 47.96685332189748 135.4367715384006 67.88734808210613 133.34686594717988 78.42574971090646 130.0405092366953 101.3404520195101 135.21548293721236 103.46439151569794 133.0362360324911 118.70048999690994 133.32096213908113 115.47454119283248 126.25269346083185 103.58825601605511 122.39915627129909 102.26108267042459 115.45723229384804 116.78976729301807 117.04866470175435 131.8230224012644 124.66308679390181 149.96186717997844 117.72805604561272 164.5278473732595 108.77784489532374 173.57463020059677 109.09865046523169 188.74493126051408 101.16392217379351 190.43982244294332 105.64006880919243 199.5973928553359 105.73511574728933 206.5500065245092 115.77247103270231 215.62627011950985 109.94190328979994 225.77922704200992 111.58984400689296 236.9738365027489 103.3912595472264 243.93026649353203 107.62709905384385 252.8478513803385 118.26573640190404 255.53039946014306 124.6462698333785 267.45068301266423 128.5627685315857 278.8826022552635 143.57878559524394 294.0577539741309 151.03149039312447 306.7044248170955 153.19045853481853 322.79039748204406 164.44014391236936 331.25647398314874 163.39278359891549 338.15752458063207 167.8763407716566 342.46680635697743 176.26480055458785 361.15663290540067 182.81179059708376 370.12629670520306 190.34649499705273 363.36728876483687 198.63181443898264 370.39081162784174 207.56364126285177 381.78722179312035 213.316672506143 397.767236147612 212.24530548283144 406.8748215300259 219.30587779945674 418.4802341565165 219.06814674680825 425.3707044874245 225.712050190176 428.3621292486515 236.11410550237508 432.2165406689137 238.93258795312408 450.30123347577944 239.9308598028471 458.98865174781963 237.0397669748737 465.950839011855 240.60489189513135 471.26986465339456 231.44442342504763 478.1201931462356 230.54697750173935 486.0097573835686 234.5747073887574 491.4272767524155 224.62531354711007 497.8033335684091 218.701051886452 507.9653253370682 217.2762803924578 510.79801647408897 213.2071067751033 519.298876759995 215.07562387309167 531.1702612576905 207.25649238471408 555.5957571393419 205.03502450382342 571.0071774498372 208.7591654866368 576.4349584848142 205.8439741658547 581.7714147520177 195.7428103505162 594.3427093242044 195.42079710832434 597.7081641676327 203.6870165919945 605.7488155355828 204.69363840141426 625.4884527475683 211.90648821159007 636.1377884653822 213.4232200719245 647.4349260906944 208.6611775775968 657.5135750835794 222.5999523775688 673.0549813731383 229.0668632717766 676 240.3223719802777 667.3338305547944 261.5190436406661 663.4191085242496 266.83944386428743 662.3226559505221 282.2609750636182 653.8483845933299 296.17030700698734 653.4920908390202 306.02427637725276 642.6996370671264 308.9473169099033 635.4258737077607 308.2804657996703 627.7364051767634 314.0269614569494 629.6486945677987 325.94144487880794 611.1103903084002 325.51873691005346 609.3232612428005 332.3462879609655 611.4587392737798 347.3304183478678 593.3746976135712 365.1006769088101 577.9767587768544 363.5533194773403 568.096437440804 366.0978021949853 562.0860632119391 363.6348532009273 552.6278755266733 370.05906649872566 563.9317922082366 391.13296625662656 Z" stroke="#eee" stroke-width="inherit" opacity="1" class="highcharts-point" data-state="JK" data-key="JK_-1"></path>
         </g>
      </g>
      <g data-z-index="0.1" class="highcharts-markers highcharts-series-1 highcharts-mapline-series  highcharts-tracker " transform="translate(10,10) scale(1 1)" style="cursor:pointer;" clip-path="none" opacity="0.9942578380595992"></g>
   </g>
   <text x="348" text-anchor="middle" class="highcharts-title" data-z-index="4" style="color:#333333;font-size:18px;fill:#333333;" y="24"></text>
   <text x="348" text-anchor="middle" class="highcharts-subtitle" data-z-index="4" style="color:#666666;fill:#666666;" y="24"></text>
   <g class="highcharts-button highcharts-map-navigation highcharts-zoom-in" style="[object Object]" data-z-index="5" transform="translate(658,10)">
      <path fill="#f7f7f7" class="highcharts-button-box" d="M 1.5 -0.5 L 25.5 -0.5 C 26.5 -0.5 27.5 0.5 27.5 1.5 L 27.5 27.5 C 27.5 27.5 27.5 27.5 27.5 27.5 L -0.5 27.5 C -0.5 27.5 -0.5 27.5 -0.5 27.5 L -0.5 1.5 C -0.5 0.5 0.5 -0.5 1.5 -0.5 Z" stroke="#cccccc" stroke-width="1"></path>
      <title>Zoom in</title>
      <text x="7.59375" data-z-index="1" style="font-size:15px;font-weight:bold;color:#333333;cursor:pointer;fill:#333333;" y="19">+</text>
   </g>
   <g class="highcharts-button highcharts-map-navigation highcharts-zoom-out" style="[object Object]" data-z-index="5" transform="translate(658,38)">
      <path fill="#f7f7f7" class="highcharts-button-box" d="M -0.5 -0.5 L 27.5 -0.5 C 27.5 -0.5 27.5 -0.5 27.5 -0.5 L 27.5 25.5 C 27.5 26.5 26.5 27.5 25.5 27.5 L 1.5 27.5 C 0.5 27.5 -0.5 26.5 -0.5 25.5 L -0.5 -0.5 C -0.5 -0.5 -0.5 -0.5 -0.5 -0.5 Z" stroke="#cccccc" stroke-width="1"></path>
      <title>Zoom out</title>
      <text x="10.5" data-z-index="1" style="font-size:15px;font-weight:bold;color:#333333;cursor:pointer;fill:#333333;" y="19">-</text>
   </g>
   <g data-z-index="6" class="highcharts-data-labels highcharts-series-0 highcharts-map-series  highcharts-tracker " transform="translate(10,10) scale(1 1)" clip-path="url(#highcharts-1atpj8h-1-)" style="cursor:pointer;"></g>
   <g data-z-index="6" class="highcharts-data-labels highcharts-series-1 highcharts-mapline-series  highcharts-tracker " transform="translate(10,10) scale(1 1)" clip-path="url(#highcharts-1atpj8h-1-)" style="cursor:pointer;" opacity="0.9942578380595992"></g>
   <g class="highcharts-label highcharts-tooltip highcharts-color-undefined" style="pointer-events:auto;white-space:nowrap;" data-z-index="8" transform="translate(293,-9999)" opacity="0" visibility="visible">
      <path fill="rgba(247,247,247,0.85)" class="highcharts-label-box highcharts-tooltip-box" d="M 0 0 L 280 0 C 280 0 280 0 280 0 L 280 226 C 280 226 280 226 280 226 L 146 226 140 232 134 226 0 226 C 0 226 0 226 0 226 L 0 0 C 0 0 0 0 0 0"></path>
   </g>
</svg>