<svg version="1.1" 
   class="highcharts-root" 
   style="font-family:&quot;Lucida Grande&quot;, &quot;Lucida Sans Unicode&quot;, Arial, Helvetica, sans-serif;font-size:12px;" 
   xmlns="http://www.w3.org/2000/svg" 
   width="696" 
   height="640" 
   viewBox="0 0 696 640">
   <desc>Created with Highcharts 7.1.0</desc>
   <defs>
      <clipPath id="highcharts-q6d46oi-1-">
         <rect x="0" y="0" width="676" height="615" fill="none">
         </rect>
      </clipPath>
   </defs>
   <rect fill="#fff" class="highcharts-background" x="0" y="0" width="696" height="640" rx="0" ry="0"></rect>
   <rect fill="none" class="highcharts-plot-background" x="10" y="10" width="676" height="615"></rect>
   <rect fill="none" class="highcharts-plot-border" data-z-index="1" x="10" y="10" width="676" height="615"></rect>
   <g class="highcharts-series-group" data-z-index="3" style="pointer-events: auto;">
      <g data-z-index="0.1" class="highcharts-series highcharts-series-0 highcharts-map-series  highcharts-tracker     " transform="translate(10,10) scale(1 1)" stroke-width="0.3" style="cursor:pointer;" clip-path="url(#highcharts-q6d46oi-1-)">
         <g transform="translate(0,0) scale(1 1)">
            <path fill="#FF9650" d="M 248.8859546195094 133.80594572436132 L 248.13641135528354 141.54997222021208 253.5383224283248 142.23438975822506 252.93204477957053 151.1064923788272 243.9759943328197 155.63445909747924 242.06254720951273 162.44102227256204 233.3059713631976 165.581807428932 227.76943551653582 173.8730219044841 218.74709364089517 171.26459800401793 217.63468641270802 178.45467920342313 220.9521863222903 185.56060772984154 220.87373568925074 186.7731565654377 216.83093336876308 184.7889426513595 209.10155399062805 190.12157681884224 201.14107319264673 190.16489960178768 190.25935859500888 199.5105871134823 193.33561793259705 208.16246889482125 186.19172689761228 216.74734162801724 187.85986182576178 221.84259671660425 183.6723659203817 228.86780603936447 171.6988015019117 228.72718387523423 169.15672058625185 226.07535748375744 168.85839345735496 223.7307872030732 167.08015983341437 223.04607025310037 167.29749788125045 222.60654659353105 171.5263743301405 211.6462594417786 173.26213771353582 199.4486687180553 158.82890924883455 193.28855804509428 156.5662793882805 187.69903963045624 157.93613395228448 178.835912660861 152.3074416448677 172.67985895578846 163.654973121499 167.81071245730067 177.15023997887974 162.54840164506726 179.19579940417674 169.85453910210427 190.06421613010014 164.16553312563983 190.41519104820634 155.17178342958678 210.08648974045767 148.82711038480585 209.7311209415396 142.5086730718708 218.02032763422977 134.4214971206106 226.24509700241197 136.63788842886555 238.470481167686 143.84690911387057 248.8859546195094 133.80594572436132 Z" stroke="#000" stroke-width="inherit" opacity="1" class="highcharts-point" data-constituency="KA_1" data-const-name="Chikkodi" data-const-id="KA_1" data-won-alliance="NDA"></path>
            <path fill="#FF9650" d="M 220.87373568925074 186.7731565654377 L 220.9396714050499 185.75402669987565 221.01010693137056 186.17642816246743 221.0531156300832 187.35386241029448 222.20599511294185 189.6723538356939 223.7568405461762 190.3565242928892 229.83772067542662 193.98296283881118 238.12748644398022 195.4767317042416 243.9937612021415 201.91485778067886 243.61410658252322 208.5550478706102 256.81618938328717 211.52151532605708 257.04465907402357 227.4151343927622 259.32397232021845 231.90673321394104 251.11932284677343 236.5806256370484 243.48593295663045 247.60207061722636 243.1218668239044 247.67552568199474 227.65775872172583 249.2325122117663 226.88105942587123 253.2842376648372 215.09345831741228 251.05546926988544 205.21774510780511 254.6314755399459 205.11259739552156 254.7220659899293 206.30879361789403 248.2628871849112 199.25327602095925 243.80492911352766 199.70370721707357 234.3693635797893 203.53787649147938 228.54080728716485 203.8414151843951 220.48136119975374 190.56323138212792 223.5107409978674 189.10755530969726 243.3874213236903 184.78321871000344 247.37618124054984 168.90727159509743 244.6501048797592 158.6678847303343 240.81112832206156 160.76356420385733 230.68506597843322 166.66116444376428 223.89349146306512 167.08015983341437 223.04607025310037 168.85839345735496 223.7307872030732 169.15672058625185 226.07535748375744 171.6988015019117 228.72718387523423 183.6723659203817 228.86780603936447 187.85986182576178 221.84259671660425 186.19172689761228 216.74734162801724 193.33561793259705 208.16246889482125 190.25935859500888 199.5105871134823 201.14107319264673 190.16489960178768 209.10155399062805 190.12157681884224 216.83093336876308 184.7889426513595 220.87373568925074 186.7731565654377 Z" stroke="#000" stroke-width="inherit" opacity="1" class="highcharts-point" data-constituency="KA_2" data-const-name="Belgaum" data-const-id="KA_2" data-won-alliance="NDA"></path>
            <path fill="#FF9650" d="M 243.48593295663045 247.60207061722636 L 251.11932284677343 236.5806256370484 259.32397232021845 231.90673321394104 257.04465907402357 227.4151343927622 256.81618938328717 211.52151532605708 243.61410658252322 208.5550478706102 243.9937612021415 201.91485778067886 238.12748644398022 195.4767317042416 229.83772067542662 193.98296283881118 223.7568405461762 190.3565242928892 222.20599511294185 189.6723538356939 221.0531156300832 187.35386241029448 221.01010693137056 186.17642816246743 220.9396714050499 185.75402669987565 220.9521863222903 185.56060772984154 217.63468641270802 178.45467920342313 218.74709364089517 171.26459800401793 227.76943551653582 173.8730219044841 233.3059713631976 165.581807428932 242.06254720951273 162.44102227256204 243.9759943328197 155.63445909747924 252.93204477957053 151.1064923788272 262.13633329609775 165.69161165104978 261.8249181000579 173.87311158174154 267.79118450421913 178.6385287167403 275.9416732556339 180.06863496440292 304.3547861146521 192.9103498076105 314.04547013996523 196.39196028216412 313.75918763615005 200.7861041484105 329.72095367401175 204.8016880733385 335.30101370572027 213.14983743321767 337.5646992025121 225.9095920017275 333.73706577720463 228.5654928432824 328.5897377144697 225.1539937733503 318.6509645037179 230.04311713452114 313.4374397803294 228.26174460545346 315.78096460339134 220.37225030509305 305.84089209490907 221.3307906249918 294.2478224725112 233.6259328348463 294.1991762165244 233.92349478313616 278.9419964921441 242.10888387261662 278.1012274977069 253.902988887966 284.83103844142227 260.08415299011824 282.0801134140627 271.03955364780285 286.1353300285203 277.9767497322519 276.2414342698263 278.0737314111723 274.5672399182981 263.61756896866495 265.76813510467866 266.63029036909137 265.53093164462604 271.7348114364815 264.1305997128652 272.1700828468752 262.8443851743826 272.0716171625923 262.89080385876366 271.4024760617897 260.5902978243412 265.3014200650362 265.8895912192523 261.22535846747843 268.0991051752933 251.41603735990546 262.07122630159176 246.49412678752134 255.25650497299188 250.67347374687313 244.22101702679163 247.45379100581232 243.48593295663045 247.60207061722636 Z" stroke="#000" stroke-width="inherit" opacity="1" class="highcharts-point" data-constituency="KA_3" data-const-name="Bagalkot" data-const-id="KA_3" data-won-alliance="NDA"></path>
            <path fill="#FF9650" d="M 314.6390124491894 99.61483217713663 L 319.2709387334691 107.65569306804515 330.02367821189443 116.27686214894803 340.9953295569374 113.86522357861139 346.7135136101365 120.74554937928684 347.45886127528297 141.62503546368416 341.76171597117474 142.40895715752876 341.50756445045926 150.61226246850242 349.48811774374883 155.76827218704221 344.4871347350506 161.38533858395837 347.3884102751308 180.53807909909588 338.0733739610702 181.5287782410299 335.2295036078408 194.17914004711255 339.9244759019639 199.35409037528413 329.72095367401175 204.8016880733385 313.75918763615005 200.7861041484105 314.04547013996523 196.39196028216412 304.3547861146521 192.9103498076105 275.9416732556339 180.06863496440292 267.79118450421913 178.6385287167403 261.8249181000579 173.87311158174154 262.13633329609775 165.69161165104978 252.93204477957053 151.1064923788272 253.5383224283248 142.23438975822506 248.13641135528354 141.54997222021208 248.8859546195094 133.80594572436132 259.95948062682646 130.85014047327272 262.227350792407 134.45849348633192 278.0939329323684 131.02877402652388 278.57984142685314 119.31003131599861 274.7217204867794 115.12863854945977 277.0746977461281 105.19173571096627 272.42125421336254 102.25592103102511 275.0927143856388 86.58565663216777 290.9659585915228 96.24873343614804 298.46352264343386 93.01107502245074 301.7871732379259 100.36228101404726 314.6390124491894 99.61483217713663 Z" stroke="#000" stroke-width="inherit" opacity="1" class="highcharts-point" data-constituency="KA_4" data-const-name="Bijapur" data-const-id="KA_4" data-won-alliance="NDA"></path>
            <path fill="#FF9650" d="M 438.89266523746 96.60186111431558 L 438.86194310495 96.7341576721782 432.5976100749939 109.62036681666913 432.23912400073533 116.98087462977279 440.0271298832314 120.01183723069795 443.34866174680064 128.7036216619876 439.20380388020686 137.54371626758964 440.86826761852836 147.6757710635804 435.8979504124002 159.67911750640155 439.2677098591632 164.6543359938328 431.37374098457127 175.7479818998121 419.54439107163876 177.20413758027445 413.74253688208756 169.93972120153563 414.5791001846216 163.89825070640052 410.2249112626802 159.5872559255611 425.3869416079003 153.08720151595267 398.12309817176333 144.77220667451877 389.7850383330133 145.71633243764686 389.1278489620512 139.2051881088173 369.2967193723058 149.22986953255827 354.64340480402245 152.14763078670728 349.48811774374883 155.76827218704221 341.50756445045926 150.61226246850242 341.76171597117474 142.40895715752876 347.45886127528297 141.62503546368416 346.7135136101365 120.74554937928684 340.9953295569374 113.86522357861139 330.02367821189443 116.27686214894803 319.2709387334691 107.65569306804515 314.6390124491894 99.61483217713663 328.67844590726935 96.82563643901418 342.4676678180897 101.43766525878003 344.84411666425353 96.2677321736308 350.9006858489381 99.79303780511006 362.1571722476683 98.39654889094281 371.77809669944634 93.82124916924263 375.99313683695857 89.08461778289018 369.256989822518 80.88872553267998 375.7465903952323 69.12670205535966 389.7709148424972 71.58094261281715 397.60459581250956 67.0906689550595 411.6674481293017 72.84283216730003 412.3139801164491 77.82039662949242 401.5941648296159 86.29974299892315 401.9755915541814 94.36194013966474 409.43534286593643 98.14975371994035 407.37592882435507 107.24186457652006 421.90828760183894 106.96278838050148 422.56455563234044 98.88304988544222 427.3442245854195 91.90710549504206 438.89266523746 96.60186111431558 Z" stroke="#000" stroke-width="inherit" opacity="1" class="highcharts-point" data-constituency="KA_5" data-const-name="Gulbarga" data-const-id="KA_5" data-won-alliance="NDA"></path>
            <path fill="#FF9650" d="M 333.73706577720463 228.5654928432824 L 337.5646992025121 225.9095920017275 335.30101370572027 213.14983743321767 329.72095367401175 204.8016880733385 339.9244759019639 199.35409037528413 335.2295036078408 194.17914004711255 338.0733739610702 181.5287782410299 347.3884102751308 180.53807909909588 344.4871347350506 161.38533858395837 349.48811774374883 155.76827218704221 354.64340480402245 152.14763078670728 369.2967193723058 149.22986953255827 389.1278489620512 139.2051881088173 389.7850383330133 145.71633243764686 398.12309817176333 144.77220667451877 425.3869416079003 153.08720151595267 410.2249112626802 159.5872559255611 414.5791001846216 163.89825070640052 413.74253688208756 169.93972120153563 419.54439107163876 177.20413758027445 424.013763934838 183.0479013349764 435.48349937492156 186.65714003604901 441.7649095689326 185.2928632375661 451.7132208963543 188.89784297954802 442.3321150373293 196.79256533769527 442.2631473510891 208.84316651034652 444.33341657190454 226.35907348518367 420.82087953392863 223.07664207112595 405.29085920339776 227.41244550273822 400.9846600008304 233.246910301267 390.291291137799 229.50146276680115 380.56180952859717 223.07696265771153 381.29100524715545 215.22306571729496 377.9078501556427 207.34757177991312 370.3583035662481 206.96459005574903 366.6144067343248 212.6816044386305 360.92239610719935 208.83854645990522 356.5680467919169 212.805974314645 346.51759565863904 229.7932431141497 333.73706577720463 228.5654928432824 Z" stroke="#000" stroke-width="inherit" opacity="1" class="highcharts-point" data-constituency="KA_6" data-const-name="Raichur" data-const-id="KA_6" data-won-alliance="NDA"></path>
            <path fill="#FF9650" d="M 447.8519728016263 13.285160271613407 L 452.16859506979716 25.82088770248118 452.9768545183841 37.84876498275372 457.19262832591403 42.21788106249891 453.8767159059543 48.19704612034276 445.7083163129697 55.041032587417966 446.9166117594771 64.15442929233922 439.56711102478124 66.54081861209929 437.9535084589977 77.10297568869042 460.1212419810535 83.89242641975964 449.9260141170995 90.74820002939391 444.2959674489002 90.95693791140094 439.01717182042785 96.0657334477284 438.89266523746 96.60186111431558 427.3442245854195 91.90710549504206 422.56455563234044 98.88304988544222 421.90828760183894 106.96278838050148 407.37592882435507 107.24186457652006 409.43534286593643 98.14975371994035 401.9755915541814 94.36194013966474 401.5941648296159 86.29974299892315 412.3139801164491 77.82039662949242 411.6674481293017 72.84283216730003 397.60459581250956 67.0906689550595 389.7709148424972 71.58094261281715 375.7465903952323 69.12670205535966 369.256989822518 80.88872553267998 375.99313683695857 89.08461778289018 371.77809669944634 93.82124916924263 362.1571722476683 98.39654889094281 350.9006858489381 99.79303780511006 344.84411666425353 96.2677321736308 339.6003297473193 87.02654707038596 337.9403394369209 75.9932248683479 346.69918136372223 71.5317015274776 351.74788022323935 69.26030192825624 355.27000076911156 61.23396147665896 362.5235214229392 61.50395358669657 370.4949718986899 66.04171010165462 379.1373123270283 55.138575147399884 374.8470352223207 48.7106782708511 387.52690812510525 49.14514427643349 393.91964896585534 36.13554087390389 394.1000605277743 22.90489423924888 403.4444112271743 25.82092639941179 416.8409532157467 14.518498838813176 421.5444235153618 2.607255186100227 422.1025199379785 1.8913684174724548 426.49670564855404 0 434.36713446838485 3.7295735351472974 435.02863894582646 12.559895206397577 440.22438645906567 16.114418794536576 447.8519728016263 13.285160271613407 Z" stroke="#000" stroke-width="inherit" opacity="1" class="highcharts-point" data-constituency="KA_7" data-const-name="Bidar" data-const-id="KA_7" data-won-alliance="NDA"></path>
            <path fill="#FF9650" d="M 303.57090504517544 297.34984862635747 L 297.72654019913955 300.9576600453437 280.77109378328254 319.4131843214716 277.9563625561193 326.9468095157489 286.16961483555747 333.23980336362297 291.13763692178344 341.07912420826773 289.65920838030456 353.9195578973653 279.94605289565726 355.6208840326531 275.77200661281336 360.9471932760171 274.0654425460035 369.38022255893486 266.2958917892395 374.76196662014587 251.38987420182374 366.38958582334493 249.2803907362125 356.22933768255666 236.70497712459064 344.37147003178774 222.6365553500124 341.31506863131443 220.9309655200006 336.08151030614374 224.4408900534836 329.50667614260675 224.38947617546782 317.4066220179838 236.7969932367946 321.57580043884263 241.83433743829877 320.0113022205896 250.08194032968873 322.56648323084187 254.76947508076165 318.30579168489146 252.16129882907177 306.63970471073185 257.2182876150011 300.1514627858016 255.3812659369214 282.63063829871027 258.16462954735033 275.01421541064235 262.71551820516464 273.92959485923166 262.8443851743826 272.0716171625923 264.1305997128652 272.1700828468752 265.53093164462604 271.7348114364815 265.76813510467866 266.63029036909137 274.5672399182981 263.61756896866495 276.2414342698263 278.0737314111723 286.1353300285203 277.9767497322519 282.0801134140627 271.03955364780285 284.83103844142227 260.08415299011824 278.1012274977069 253.902988887966 278.9419964921441 242.10888387261662 294.1991762165244 233.92349478313616 294.13940598375973 234.28911706494807 301.50931240359466 238.32779909108095 311.64355878579704 240.52010954590767 305.19412472586873 249.83780555440862 298.96310958956224 255.0665475892161 292.3345326859524 269.1896208239963 299.3372666355566 273.473652226898 298.12406694912227 283.77171433150653 303.57090504517544 297.34984862635747 Z" stroke="#000" stroke-width="inherit" opacity="1" class="highcharts-point" data-constituency="KA_10" data-const-name="Haveri" data-const-id="KA_10" data-won-alliance="NDA"></path>
            <path fill="#FF9650" d="M 262.89080385876366 271.4024760617897 L 262.71551820516464 273.92959485923166 258.16462954735033 275.01421541064235 255.3812659369214 282.63063829871027 257.2182876150011 300.1514627858016 252.16129882907177 306.63970471073185 254.76947508076165 318.30579168489146 250.08194032968873 322.56648323084187 241.83433743829877 320.0113022205896 236.7969932367946 321.57580043884263 224.38947617546782 317.4066220179838 225.34451637799413 303.1544959586054 212.66624915403085 303.72746922860415 202.61175950316363 297.690325296055 209.83618248265915 287.12112015170794 208.91253415797678 282.7770751371088 193.7847754250067 271.02884317699903 201.23655778532282 264.4008220084656 205.07405960619616 254.75526885978167 205.21774510780511 254.6314755399459 215.09345831741228 251.05546926988544 226.88105942587123 253.2842376648372 227.65775872172583 249.2325122117663 243.1218668239044 247.67552568199474 244.22101702679163 247.45379100581232 255.25650497299188 250.67347374687313 262.07122630159176 246.49412678752134 268.0991051752933 251.41603735990546 265.8895912192523 261.22535846747843 260.5902978243412 265.3014200650362 262.89080385876366 271.4024760617897 Z" stroke="#000" stroke-width="inherit" opacity="1" class="highcharts-point" data-constituency="KA_11" data-const-name="Dharwad" data-const-id="KA_11" data-won-alliance="NDA"></path>
            <path fill="#FF9650" d="M 205.11259739552156 254.7220659899293 L 205.07405960619616 254.75526885978167 201.23655778532282 264.4008220084656 193.7847754250067 271.02884317699903 208.91253415797678 282.7770751371088 209.83618248265915 287.12112015170794 202.61175950316363 297.690325296055 212.66624915403085 303.72746922860415 225.34451637799413 303.1544959586054 224.38947617546782 317.4066220179838 224.4408900534836 329.50667614260675 220.9309655200006 336.08151030614374 222.6365553500124 341.31506863131443 216.1363337720345 349.9689131053788 209.54863016889968 352.04146141984586 210.96323548711564 360.74643380510906 210.70999757243328 378.8719478596706 192.5589511282085 378.6292939290806 188.01410180631373 382.81416910758287 185.6277230044886 390.9204942907889 188.114645557638 401.0939652574749 180.43653850901245 406.3603260690082 174.44386237977034 400.6431259059256 167.94419704258254 374.39593331256253 163.78713711865103 362.94556250754226 153.1087138193697 343.941796049751 151.6487328130679 334.6730542945458 137.72475859284486 328.98632746445696 135.94125965729563 319.05082387231676 144.21528802952443 313.6508565255931 149.20039905198698 314.27141468466925 154.68246843697773 305.86767562256955 152.75658613835594 300.29386235206294 156.44727631473245 292.895253176208 152.34484259201247 284.76738659643223 158.22489384286817 283.10221201434274 150.50019793879383 265.4222007160634 150.3975523906313 250.6086146806616 138.70857494927236 250.96443068282588 139.50401331843702 244.49749718178086 146.96878215863035 239.40701316915565 153.7303456215473 242.95319642251516 158.6678847303343 240.81112832206156 168.90727159509743 244.6501048797592 184.78321871000344 247.37618124054984 189.10755530969726 243.3874213236903 190.56323138212792 223.5107409978674 203.8414151843951 220.48136119975374 203.53787649147938 228.54080728716485 199.70370721707357 234.3693635797893 199.25327602095925 243.80492911352766 206.30879361789403 248.2628871849112 205.11259739552156 254.7220659899293 Z" stroke="#000" stroke-width="inherit" opacity="1" class="highcharts-point" data-constituency="KA_12" data-const-name="Uttara Kannada" data-const-id="KA_12" data-won-alliance="NDA"></path>
            <path fill="#FF9650" d="M 266.2958917892395 374.76196662014587 L 254.04655831945934 389.39879409818246 264.4876500426415 391.0274910391633 270.78395993725576 394.5473158709071 291.2496939546485 390.87972212056735 292.4675783982535 402.2110495550097 297.2170586936485 416.76823812820004 292.27478906815963 416.1285880181661 284.02660846309044 420.46666757665304 262.03733863021193 421.27674809261055 253.53520208456274 426.656262866933 254.69407364856082 432.81201225768206 248.78834434226502 436.82860610367857 239.96508329781426 435.19770450923477 238.1889406626509 442.19658845508366 228.12145582067419 448.0874093830543 221.52681556971115 439.6368403747412 220.03732202339793 432.5553451177728 214.7576861099215 432.40966311991104 206.42769880902767 437.75192409078113 196.28172185759297 432.6270966518095 186.48879618092212 430.0265771976275 180.43653850901245 406.3603260690082 188.114645557638 401.0939652574749 185.6277230044886 390.9204942907889 188.01410180631373 382.81416910758287 192.5589511282085 378.6292939290806 210.70999757243328 378.8719478596706 210.96323548711564 360.74643380510906 209.54863016889968 352.04146141984586 216.1363337720345 349.9689131053788 222.6365553500124 341.31506863131443 236.70497712459064 344.37147003178774 249.2803907362125 356.22933768255666 251.38987420182374 366.38958582334493 266.2958917892395 374.76196662014587 Z" stroke="#000" stroke-width="inherit" opacity="1" class="highcharts-point" data-constituency="KA_14" data-const-name="Shimoga" data-const-id="KA_14" data-won-alliance="NDA"></path>
            <path fill="#FF9650" d="M 268.1557348231809 497.3542737292312 L 274.11770365109726 502.5548370426442 273.3307870941602 507.8624729644877 280.61848306372895 516.5182825206559 281.20001746229775 516.2051531386227 280.6990629490857 516.8333852860695 278.9814380581357 518.9273476600172 279.5256138573883 531.5991328039352 274.2706830825402 534.382848598053 255.52610604930516 534.551962557964 245.56347240936884 534.4937109865368 236.24150456820144 523.0260293260719 228.20674928173116 518.4659254476148 222.342992724746 519.8974145547717 218.29100024487508 515.0791473070041 218.4805457381225 508.61919128308926 205.69676615795296 511.4547548023122 200.66431838191323 499.1775670328929 198.8743805007557 480.95333054180213 211.74851770612239 476.3049362630791 231.3265024890322 478.26482532067234 235.94843631154342 474.15591230847195 240.87537487722938 478.11074178795684 251.96086399976824 473.37439732055714 265.3426158803136 485.34805958564357 264.44359753787495 491.44054468740524 268.1557348231809 497.3542737292312 Z" stroke="#000" stroke-width="inherit" opacity="1" class="highcharts-point" data-constituency="KA_17" data-const-name="Dakshina Kannada" data-const-id="KA_17" data-won-alliance="NDA"></path>
            <path fill="#FF9650" d="M 439.1933254930954 428.1938391645668 L 430.67406059477446 434.5396225743089 433.4195983533689 441.80312742320086 429.581876179731 448.9577559109218 428.61727231144334 460.0350252104048 418.83053008179354 461.73625527085176 415.0560732266705 465.25112838165177 416.4521623697598 473.16318907617597 395.3952221878279 481.49189983230207 389.8632810179309 481.8155927670393 382.5041729852828 489.6760597157313 368.6880316055615 484.8439486140703 364.9042954922634 489.19212060941925 363.58652894359943 484.0028650864472 350.20516404751174 481.1123247760038 350.89563562761055 477.02366256703954 341.54226515696473 471.82650910635675 339.21080517835946 457.317137557074 345.68944126019477 449.4376329263112 339.90086278945034 437.70274592563226 354.1156303406351 433.07769993758893 359.6378495944882 425.5158598665375 369.6146942045168 425.64058621526925 376.9526624858639 419.4743077454933 389.82892637732397 432.79848199335913 391.17625678142736 445.2970129868698 402.4937072768439 440.33072657810135 399.62031124423453 423.14601839817664 407.185005469131 420.6002410935108 420.2426714608485 408.6008286157266 436.9140597338406 414.63066841505037 440.34605857054015 422.0967475190807 439.1933254930954 428.1938391645668 Z" stroke="#000" stroke-width="inherit" opacity="1" class="highcharts-point" data-constituency="KA_19" data-const-name="Tumkur" data-const-id="KA_19" data-won-alliance="NDA"></path>
            <path fill="rgb(255,150,80)" d="M 539.810337651339 463.2730232115503 L 540.0587403427044 464.3188935387515 534.448566610578 484.0197299590845 530.2541128815803 492.0776031940481 520.1152735237199 495.2615205322328 516.3100721733899 502.53999243333567 510.7179355526986 502.5325099382781 508.88804659593694 511.06279618916864 499.8673271962059 509.5152421705072 494.7968319830716 504.1174975457629 487.29131780179455 505.9083328022593 481.238700348999 500.24594092027536 476.2318311254148 501.6873505557967 474.974122864359 499.39236199039516 479.28354012217216 480.78556086987754 484.2210850417192 478.49406938735785 485.02373245161186 467.7952292893471 476.5625121470883 468.7910816631039 471.0464288306872 466.1791572333849 474.11859942225664 447.8411074038707 471.2554839593653 441.8702669840973 472.83542173088136 434.9075212142356 485.1954917716934 433.3661071876436 494.1082187284975 428.88262790615113 502.03354755907196 430.4237540464296 511.3798654051716 437.180126047882 523.1624633481542 436.52578243745353 520.9260618857446 456.87005509548504 534.1062894039071 463.84331476743625 539.810337651339 463.2730232115503 Z" stroke="#000" stroke-width="inherit" opacity="1" class="highcharts-point   " data-constituency="KA_28" data-const-name="Kolar" data-const-id="KA_28" data-won-alliance="NDA" data-z-index="0"></path>
            <path fill="rgb(255,150,80)" d="M 499.49472170722436 418.98942385755566 L 494.1082187284975 428.88262790615113 485.1954917716934 433.3661071876436 472.83542173088136 434.9075212142356 471.2554839593653 441.8702669840973 474.11859942225664 447.8411074038707 471.0464288306872 466.1791572333849 476.5625121470883 468.7910816631039 485.02373245161186 467.7952292893471 484.2210850417192 478.49406938735785 479.28354012217216 480.78556086987754 474.974122864359 499.39236199039516 476.2318311254148 501.6873505557967 473.2318671090419 501.5710904195531 467.08654900238844 495.30612406950445 467.1544387241679 481.8101152960678 466.6147174749083 479.5991718129916 463.67295136557914 472.80417275341637 453.87050777549996 471.2689627347492 449.9716601970955 474.34539307999376 453.56273983254374 481.6238098812163 441.93718486685293 481.27421544088156 440.00387331741 491.60102031493 427.7876291844545 492.0454522586183 422.55162522519566 491.6104219862377 418.86069553807823 485.6953882044022 416.4521623697598 473.16318907617597 415.0560732266705 465.25112838165177 418.83053008179354 461.73625527085176 428.61727231144334 460.0350252104048 429.581876179731 448.9577559109218 433.4195983533689 441.80312742320086 430.67406059477446 434.5396225743089 439.1933254930954 428.1938391645668 464.3244181260611 416.82383356005295 480.8393814301584 408.2066954441452 492.5257108522595 409.13050593388294 498.3846473460178 412.10172255193055 499.49472170722436 418.98942385755566 Z" stroke="#000" stroke-width="inherit" opacity="1" class="highcharts-point  " data-constituency="KA_27" data-const-name="Chikkaballapura" data-const-id="KA_27" data-won-alliance="NDA" data-z-index="0"></path>
            <path fill="rgb(255,150,80)" d="M 466.7264858250837 480.0569734195625 L 465.85474174706707 480.070569044809 464.5953635813339 479.92603460863467 463.11575589461 481.6742773038908 455.9660893824547 480.06462494853 456.35435340323795 483.17943203635417 458.74853471734383 491.0239938475403 446.52050450603986 490.81716356476767 445.68052030506465 490.6673603089948 445.16559717573364 490.61692341275983 445.1768143944511 490.59392130197955 442.4008235651636 494.5010524426779 448.1293181843535 501.2979039000086 444.92706111627945 513.5974030757501 435.20958364843926 500.8854002653011 429.4406655496202 501.62599914572905 427.7876291844545 492.0454522586183 440.00387331741 491.60102031493 441.93718486685293 481.27421544088156 453.56273983254374 481.6238098812163 449.9716601970955 474.34539307999376 453.87050777549996 471.2689627347492 463.67295136557914 472.80417275341637 466.6147174749083 479.5991718129916 466.7264858250837 480.0569734195625 Z" stroke="#000" stroke-width="inherit" opacity="1" class="highcharts-point " data-constituency="KA_24" data-const-name="Bangalore North" data-const-id="KA_24" data-won-alliance="NDA" data-z-index="0"></path>
            <path fill="rgb(255,150,80)" d="M 466.7264858250837 480.0569734195625 L 467.1544387241679 481.8101152960678 467.08654900238844 495.30612406950445 464.3723945786273 500.9327731338079 457.72487622694655 499.3231427222224 457.2286381295091 499.4844261076919 456.456485263822 494.09916355157645 446.9404890598118 490.8920854385288 446.52050450603986 490.81716356476767 458.74853471734383 491.0239938475403 456.35435340323795 483.17943203635417 455.9660893824547 480.06462494853 463.11575589461 481.6742773038908 464.5953635813339 479.92603460863467 465.85474174706707 480.070569044809 466.7264858250837 480.0569734195625 Z" stroke="#000" stroke-width="inherit" opacity="1" class="highcharts-point " data-constituency="KA_25" data-const-name="Bangalore Central" data-const-id="KA_25" data-won-alliance="NDA" data-z-index="0"></path>
            <path fill="rgb(255,150,80)" d="M 457.2286381295091 499.4844261076919 L 456.95016953726787 499.57494158226825 451.12300692002424 500.26233295133426 444.69227086786503 491.5876029393133 445.16559717573364 490.61692341275983 445.68052030506465 490.6673603089948 446.9404890598118 490.8920854385288 456.456485263822 494.09916355157645 457.2286381295091 499.4844261076919 Z" stroke="#000" stroke-width="inherit" opacity="1" class="highcharts-point " data-constituency="KA_26" data-const-name="Bangalore South" data-const-id="KA_26" data-won-alliance="NDA" data-z-index="0"></path>
            <path fill="rgb(30,180,255)" d="M 416.4521623697598 473.16318907617597 L 418.86069553807823 485.6953882044022 422.55162522519566 491.6104219862377 427.7876291844545 492.0454522586183 429.4406655496202 501.62599914572905 435.20958364843926 500.8854002653011 444.92706111627945 513.5974030757501 448.1293181843535 501.2979039000086 442.4008235651636 494.5010524426779 445.1768143944511 490.59392130197955 444.69227086786503 491.5876029393133 451.12300692002424 500.26233295133426 456.95016953726787 499.57494158226825 457.72487622694655 499.3231427222224 464.3723945786273 500.9327731338079 467.08654900238844 495.30612406950445 473.2318671090419 501.5710904195531 466.4610962749976 517.0361398358442 452.71800799115823 523.0122805835358 450.99339216236905 533.2688386691939 455.21278559750283 535.9353478694525 453.30473282214376 547.0473811531544 440.60963435439095 557.6857460484924 437.2668076899606 554.3359167126706 427.08983239144555 552.0640246122686 422.2907931154416 537.8574189295973 411.3303229477528 538.1546464044092 408.38760235789704 529.9339092729523 405.73579598277246 513.0902404576043 391.3034620236199 507.30740941363524 382.5041729852828 489.6760597157313 389.8632810179309 481.8155927670393 395.3952221878279 481.49189983230207 416.4521623697598 473.16318907617597 Z" stroke="#000" stroke-width="inherit" opacity="1" class="highcharts-point " data-constituency="KA_23" data-const-name="Bangalore Rural" data-const-id="KA_23" data-won-alliance="UPA" data-z-index="0"></path>
            <path fill="rgb(136,136,136)" d="M 382.5041729852828 489.6760597157313 L 391.3034620236199 507.30740941363524 405.73579598277246 513.0902404576043 408.38760235789704 529.9339092729523 411.3303229477528 538.1546464044092 422.2907931154416 537.8574189295973 427.08983239144555 552.0640246122686 412.9816641863632 551.8855638598008 413.33507808105384 556.3477281434147 398.0122590608501 557.77185208704 396.1718185159789 548.5054546882269 392.34361103917064 543.5654934673723 383.2667398597727 543.4953952105786 374.0042998193646 550.9641270653076 374.09573261964056 550.0786044294639 366.62047879770364 544.1102110577716 354.19025914628503 539.0850180110851 350.13710033905147 542.8158375098336 333.3090918638966 542.7876672798777 328.8160779297986 534.679960883589 320.37638788694113 532.2615064113846 332.28739261853724 524.0068769914502 338.70273338703157 521.5750458537991 340.87868174217687 515.7794753915495 337.9689213609747 507.9007807895478 345.0848701219365 503.5774022704176 350.3228364772583 508.1573294948508 359.95443683213097 503.3893224962814 364.9042954922634 489.19212060941925 368.6880316055615 484.8439486140703 382.5041729852828 489.6760597157313 Z" stroke="#000" stroke-width="inherit" opacity="1" class="highcharts-point " data-constituency="KA_20" data-const-name="Mandya" data-const-id="KA_20" data-won-alliance="OTH" data-z-index="0"></path>
            <path fill="rgb(255,150,80)" d="M 281.20001746229775 516.2051531386227 L 281.6703193863166 515.9519453793441 291.1070149655385 516.7045899758141 301.58615983339837 506.0146758496932 305.0376049630353 516.6856909564522 302.5947154033442 521.7124296113412 305.03521502552815 529.4313068353849 312.38581982888303 528.1667275934273 320.37638788694113 532.2615064113846 328.8160779297986 534.679960883589 333.3090918638966 542.7876672798777 350.13710033905147 542.8158375098336 354.19025914628503 539.0850180110851 366.62047879770364 544.1102110577716 374.09573261964056 550.0786044294639 374.01222347776024 550.8873828880505 367.0699275781119 559.0829424970268 369.5343937950055 563.0730331317795 354.4269486502359 568.5580366012147 354.7965771928994 558.1296070296854 349.8798521964243 553.5724550455241 341.0212616982245 565.4981660161426 331.760975386686 561.2727243125538 323.4193245601006 569.0588144950513 325.0676289016608 575.006887615128 318.2866908316638 581.7792471660118 311.2161457690142 585.198886962907 301.7828860286842 585.207829693312 292.6640116022265 580.5980428014059 290.02188928871055 572.5091619406397 282.948177470534 573.613929956825 275.52432304830387 566.4000708730862 270.25846825693674 565.6571004680793 262.61579187594634 555.224961752701 262.08607102154554 553.908425728497 257.0248680278386 552.9680073755587 252.29562491059193 544.4575269180885 255.52610604930516 534.551962557964 274.2706830825402 534.382848598053 279.5256138573883 531.5991328039352 278.9814380581357 518.9273476600172 280.6990629490857 516.8333852860695 281.20001746229775 516.2051531386227 Z" stroke="#000" stroke-width="inherit" opacity="1" class="highcharts-point " data-constituency="KA_21" data-const-name="Mysore" data-const-id="KA_21" data-won-alliance="NDA" data-z-index="0"></path>
            <path fill="rgb(255,150,80)" d="M 427.08983239144555 552.0640246122686 L 437.2668076899606 554.3359167126706 440.60963435439095 557.6857460484924 444.983980716561 562.3340079822336 453.3576520738108 561.3104997006326 465.5442746163964 565.5368692778625 468.0718403134691 569.0154059250918 461.09255995122044 577.9514759406466 458.87199049185887 584.2746979983675 458.48679935317153 584.416214168152 443.1449300209251 585.2048379085813 436.75376396037063 601.3273298306873 428.34671338699735 600.6015548547762 420.722911501503 596.7036906561966 408.18943928946135 600.2702203348622 399.2962887848751 596.6994354442402 389.8417974416768 598.4956720774062 383.577419840581 610.5854363208248 385.47248975684636 614.8280710146781 363.52345404790776 615 358.6218451195242 613.8865608624473 354.14220267704104 606.2373957221848 346.8549438604066 609.7359930585924 345.1167332012359 601.5936991693045 338.84767706171874 603.3357872940479 325.1857544758446 591.382857528645 318.3235997959466 592.5281804388702 318.2866908316638 581.7792471660118 325.0676289016608 575.006887615128 323.4193245601006 569.0588144950513 331.760975386686 561.2727243125538 341.0212616982245 565.4981660161426 349.8798521964243 553.5724550455241 354.7965771928994 558.1296070296854 354.4269486502359 568.5580366012147 369.5343937950055 563.0730331317795 367.0699275781119 559.0829424970268 374.01222347776024 550.8873828880505 374.0042998193646 550.9641270653076 383.2667398597727 543.4953952105786 392.34361103917064 543.5654934673723 396.1718185159789 548.5054546882269 398.0122590608501 557.77185208704 413.33507808105384 556.3477281434147 412.9816641863632 551.8855638598008 427.08983239144555 552.0640246122686 Z" stroke="#000" stroke-width="inherit" opacity="1" class="highcharts-point " data-constituency="KA_22" data-const-name="Chamrajnagar" data-const-id="KA_22" data-won-alliance="NDA" data-z-index="0"></path>
            <path fill="rgb(255,150,80)" d="M 402.2230530960771 275.50613424663027 L 404.6466679570387 280.47666706233406 411.76473542216564 283.50483588749336 412.21645776902614 297.3531814157691 408.3290489794118 306.6228253265674 395.4428322253382 308.0264901435258 387.3084131675238 306.64369411883615 380.1020918748306 301.07436761207407 376.5056658398755 310.76868920351933 369.11982047048093 319.40959610682927 371.24394378011743 326.2671852430563 363.1047913563292 337.89149185992534 362.05934018515535 343.7363987333282 354.0600371648093 349.1657770764859 346.2863226190525 347.3701857319871 337.16588319464086 337.37916386330596 324.8530911766768 336.62684248545486 326.2743452757057 332.13540484649894 314.7465826806804 321.54234211245034 312.74632961113144 317.0581567229141 297.8950177890307 321.43344468215196 286.16961483555747 333.23980336362297 277.9563625561193 326.9468095157489 280.77109378328254 319.4131843214716 297.72654019913955 300.9576600453437 303.57090504517544 297.34984862635747 317.1747483904232 294.6954175821987 324.9377260353232 288.537533047149 330.41322449697475 292.4669913298875 340.6970892962855 280.4003809547875 352.2162066782156 278.87084759437096 363.0994131755757 269.9488147676958 375.9500432860897 269.836975064583 392.35255335402644 277.52392086483803 402.2230530960771 275.50613424663027 Z" stroke="#000" stroke-width="inherit" opacity="1" class="highcharts-point " data-constituency="KA_9" data-const-name="Bellary" data-const-id="KA_9" data-won-alliance="NDA" data-z-index="0"></path>
            <path fill="rgb(255,150,80)" d="M 354.0600371648093 349.1657770764859 L 349.44441649216765 359.0953194366105 333.10533773306156 363.181531725929 326.46893921065964 358.59715443595445 321.70458990040106 363.140717521739 319.90599813281165 376.7627401835926 313.616475008831 379.9183349233816 311.1033825381344 409.0628413214216 303.0015238581516 416.5377718969509 297.2170586936485 416.76823812820004 292.4675783982535 402.2110495550097 291.2496939546485 390.87972212056735 270.78395993725576 394.5473158709071 264.4876500426415 391.0274910391633 254.04655831945934 389.39879409818246 266.2958917892395 374.76196662014587 274.0654425460035 369.38022255893486 275.77200661281336 360.9471932760171 279.94605289565726 355.6208840326531 289.65920838030456 353.9195578973653 291.13763692178344 341.07912420826773 286.16961483555747 333.23980336362297 297.8950177890307 321.43344468215196 312.74632961113144 317.0581567229141 314.7465826806804 321.54234211245034 326.2743452757057 332.13540484649894 324.8530911766768 336.62684248545486 337.16588319464086 337.37916386330596 346.2863226190525 347.3701857319871 354.0600371648093 349.1657770764859 Z" stroke="#000" stroke-width="inherit" opacity="1" class="highcharts-point " data-constituency="KA_13" data-const-name="Davanagere" data-const-id="KA_13" data-won-alliance="NDA" data-z-index="0"></path>
            <path fill="rgb(255,150,80)" d="M 320.8962520311091 421.2302233440875 L 309.70451783947044 426.47533017358177 307.3845126412582 431.4710238741123 300.8829393327111 432.03568261493683 295.5984810878315 437.11416030158034 293.97084173814494 446.87038172290954 304.5941691168558 446.27328349125247 309.1959169695215 450.38549552845745 320.5397188346263 450.0761738665972 311.09829777861114 459.3967733996833 311.94744750420796 465.22451012291066 293.2282451846172 467.15912144514124 283.7616203685483 473.3927153763601 284.6540365604603 486.92530165578887 276.1692450260173 486.8287902657533 268.1557348231809 497.3542737292312 264.44359753787495 491.44054468740524 265.3426158803136 485.34805958564357 251.96086399976824 473.37439732055714 240.87537487722938 478.11074178795684 235.94843631154342 474.15591230847195 231.3265024890322 478.26482532067234 211.74851770612239 476.3049362630791 198.8743805007557 480.95333054180213 192.29399067242127 463.79161687785506 188.5003545513087 435.7168295016115 196.28172185759297 432.6270966518095 206.42769880902767 437.75192409078113 214.7576861099215 432.40966311991104 220.03732202339793 432.5553451177728 221.52681556971115 439.6368403747412 228.12145582067419 448.0874093830543 238.1889406626509 442.19658845508366 239.96508329781426 435.19770450923477 248.78834434226502 436.82860610367857 254.69407364856082 432.81201225768206 253.53520208456274 426.656262866933 262.03733863021193 421.27674809261055 284.02660846309044 420.46666757665304 292.27478906815963 416.1285880181661 297.2170586936485 416.76823812820004 303.0015238581516 416.5377718969509 311.1033825381344 409.0628413214216 316.9083013581136 411.9769964860493 320.8962520311091 421.2302233440875 Z" stroke="#000" stroke-width="inherit" opacity="1" class="highcharts-point " data-constituency="KA_15" data-const-name="Udupi Chikmagalur" data-const-id="KA_15" data-won-alliance="NDA" data-z-index="0"></path>
            <path fill="rgb(30,180,255)" d="M 320.8962520311091 421.2302233440875 L 327.88996573777763 425.6617711085483 333.20434667270854 435.22387080553966 339.90086278945034 437.70274592563226 345.68944126019477 449.4376329263112 339.21080517835946 457.317137557074 341.54226515696473 471.82650910635675 350.89563562761055 477.02366256703954 350.20516404751174 481.1123247760038 363.58652894359943 484.0028650864472 364.9042954922634 489.19212060941925 359.95443683213097 503.3893224962814 350.3228364772583 508.1573294948508 345.0848701219365 503.5774022704176 337.9689213609747 507.9007807895478 340.87868174217687 515.7794753915495 338.70273338703157 521.5750458537991 332.28739261853724 524.0068769914502 320.37638788694113 532.2615064113846 312.38581982888303 528.1667275934273 305.03521502552815 529.4313068353849 302.5947154033442 521.7124296113412 305.0376049630353 516.6856909564522 301.58615983339837 506.0146758496932 291.1070149655385 516.7045899758141 281.6703193863166 515.9519453793441 280.61848306372895 516.5182825206559 273.3307870941602 507.8624729644877 274.11770365109726 502.5548370426442 268.1557348231809 497.3542737292312 276.1692450260173 486.8287902657533 284.6540365604603 486.92530165578887 283.7616203685483 473.3927153763601 293.2282451846172 467.15912144514124 311.94744750420796 465.22451012291066 311.09829777861114 459.3967733996833 320.5397188346263 450.0761738665972 309.1959169695215 450.38549552845745 304.5941691168558 446.27328349125247 293.97084173814494 446.87038172290954 295.5984810878315 437.11416030158034 300.8829393327111 432.03568261493683 307.3845126412582 431.4710238741123 309.70451783947044 426.47533017358177 320.8962520311091 421.2302233440875 Z" stroke="#000" stroke-width="inherit" opacity="1" class="highcharts-point  " data-constituency="KA_16" data-const-name="Hassan" data-const-id="KA_16" data-won-alliance="UPA" data-z-index="0"></path>
            <path fill="rgb(255,150,80)" d="M 400.9846600008304 233.246910301267 L 404.1343805254956 235.1969888913078 400.83009593023667 252.62375997957778 402.2230530960771 275.50613424663027 392.35255335402644 277.52392086483803 375.9500432860897 269.836975064583 363.0994131755757 269.9488147676958 352.2162066782156 278.87084759437096 340.6970892962855 280.4003809547875 330.41322449697475 292.4669913298875 324.9377260353232 288.537533047149 317.1747483904232 294.6954175821987 303.57090504517544 297.34984862635747 298.12406694912227 283.77171433150653 299.3372666355566 273.473652226898 292.3345326859524 269.1896208239963 298.96310958956224 255.0665475892161 305.19412472586873 249.83780555440862 311.64355878579704 240.52010954590767 301.50931240359466 238.32779909108095 294.13940598375973 234.28911706494807 294.2478224725112 233.6259328348463 305.84089209490907 221.3307906249918 315.78096460339134 220.37225030509305 313.4374397803294 228.26174460545346 318.6509645037179 230.04311713452114 328.5897377144697 225.1539937733503 333.73706577720463 228.5654928432824 346.51759565863904 229.7932431141497 356.5680467919169 212.805974314645 360.92239610719935 208.83854645990522 366.6144067343248 212.6816044386305 370.3583035662481 206.96459005574903 377.9078501556427 207.34757177991312 381.29100524715545 215.22306571729496 380.56180952859717 223.07696265771153 390.291291137799 229.50146276680115 400.9846600008304 233.246910301267 Z" stroke="#000" stroke-width="inherit" opacity="1" class="highcharts-point " data-constituency="KA_8" data-const-name="Koppal" data-const-id="KA_8" data-won-alliance="NDA" data-z-index="0"></path>
            <path fill="rgb(255,150,80)" d="M 339.90086278945034 437.70274592563226 L 333.20434667270854 435.22387080553966 327.88996573777763 425.6617711085483 320.8962520311091 421.2302233440875 316.9083013581136 411.9769964860493 311.1033825381344 409.0628413214216 313.616475008831 379.9183349233816 319.90599813281165 376.7627401835926 321.70458990040106 363.140717521739 326.46893921065964 358.59715443595445 333.10533773306156 363.181531725929 349.44441649216765 359.0953194366105 354.0600371648093 349.1657770764859 362.05934018515535 343.7363987333282 363.1047913563292 337.89149185992534 371.24394378011743 326.2671852430563 369.11982047048093 319.40959610682927 376.5056658398755 310.76868920351933 386.2096999672852 312.4589843563538 383.45728885386814 328.5660299625178 377.82764032051193 338.560380359952 376.8999603709518 345.5352416532966 386.20349504924627 356.4556716018467 392.91373515333834 377.53504553639925 403.0050211038108 377.5696386675539 412.2475941602241 368.72486475405987 423.7592407882695 374.24941109380393 430.42106643729846 374.7237275131291 434.1574736416649 369.4606609656142 443.5953240783477 375.61515432909925 444.59677047888516 383.5695505679509 433.71094732815845 384.1960690551516 433.1590933211962 398.3933034066168 436.38643309838824 408.4980330548746 430.010669645174 408.36325829341814 426.85018342534386 396.8344798065912 410.68242651517716 399.2618566518005 409.48153607939474 395.3037372127617 400.68810863609946 394.3216980428768 400.32391552974684 383.5835865584342 393.388136266279 389.0619440372053 401.8002914279946 405.7984624692483 395.7654591124488 416.1815584955009 399.62031124423453 423.14601839817664 402.4937072768439 440.33072657810135 391.17625678142736 445.2970129868698 389.82892637732397 432.79848199335913 376.9526624858639 419.4743077454933 369.6146942045168 425.64058621526925 359.6378495944882 425.5158598665375 354.1156303406351 433.07769993758893 339.90086278945034 437.70274592563226 Z" stroke="#000" stroke-width="inherit" opacity="1" class="highcharts-point  " data-constituency="KA_18" data-const-name="Chitradurga" data-const-id="KA_18" data-won-alliance="NDA" data-z-index="0"></path>
         </g>
      </g>
      <g data-z-index="0.1" class="highcharts-markers highcharts-series-0 highcharts-map-series  highcharts-tracker     " transform="translate(10,10) scale(1 1)" style="cursor:pointer;" clip-path="none"></g>
      <g data-z-index="0.1" class="highcharts-series highcharts-series-1 highcharts-mapline-series  highcharts-tracker     " transform="translate(10,10) scale(1 1)" stroke-width="1" style="cursor:pointer;" clip-path="url(#highcharts-q6d46oi-1-)" opacity="1">
         <g transform="translate(0,0) scale(1 1)">
            <path fill="none" d="M 438.89266523746 96.60186111431558 L 438.86194310495 96.7341576721782 432.5976100749939 109.62036681666913 432.23912400073533 116.98087462977279 440.0271298832314 120.01183723069795 443.34866174680064 128.7036216619876 439.20380388020686 137.54371626758964 440.86826761852836 147.6757710635804 435.8979504124002 159.67911750640155 439.2677098591632 164.6543359938328 431.37374098457127 175.7479818998121 419.54439107163876 177.20413758027445 413.74253688208756 169.93972120153563 414.5791001846216 163.89825070640052 410.2249112626802 159.5872559255611 425.3869416079003 153.08720151595267 398.12309817176333 144.77220667451877 389.7850383330133 145.71633243764686 389.1278489620512 139.2051881088173 369.2967193723058 149.22986953255827 354.64340480402245 152.14763078670728 349.48811774374883 155.76827218704221 341.50756445045926 150.61226246850242 341.76171597117474 142.40895715752876 347.45886127528297 141.62503546368416 346.7135136101365 120.74554937928684 340.9953295569374 113.86522357861139 330.02367821189443 116.27686214894803 319.2709387334691 107.65569306804515 314.6390124491894 99.61483217713663 328.67844590726935 96.82563643901418 342.4676678180897 101.43766525878003 344.84411666425353 96.2677321736308 350.9006858489381 99.79303780511006 362.1571722476683 98.39654889094281 371.77809669944634 93.82124916924263 375.99313683695857 89.08461778289018 369.256989822518 80.88872553267998 375.7465903952323 69.12670205535966 389.7709148424972 71.58094261281715 397.60459581250956 67.0906689550595 411.6674481293017 72.84283216730003 412.3139801164491 77.82039662949242 401.5941648296159 86.29974299892315 401.9755915541814 94.36194013966474 409.43534286593643 98.14975371994035 407.37592882435507 107.24186457652006 421.90828760183894 106.96278838050148 422.56455563234044 98.88304988544222 427.3442245854195 91.90710549504206 438.89266523746 96.60186111431558 Z" stroke="#eee" stroke-width="inherit" opacity="1" class="highcharts-point" data-state="KA" data-key="KA_5"></path>
            <path fill="none" d="M 314.6390124491894 99.61483217713663 L 319.2709387334691 107.65569306804515 330.02367821189443 116.27686214894803 340.9953295569374 113.86522357861139 346.7135136101365 120.74554937928684 347.45886127528297 141.62503546368416 341.76171597117474 142.40895715752876 341.50756445045926 150.61226246850242 349.48811774374883 155.76827218704221 344.4871347350506 161.38533858395837 347.3884102751308 180.53807909909588 338.0733739610702 181.5287782410299 335.2295036078408 194.17914004711255 339.9244759019639 199.35409037528413 329.72095367401175 204.8016880733385 313.75918763615005 200.7861041484105 314.04547013996523 196.39196028216412 304.3547861146521 192.9103498076105 275.9416732556339 180.06863496440292 267.79118450421913 178.6385287167403 261.8249181000579 173.87311158174154 262.13633329609775 165.69161165104978 252.93204477957053 151.1064923788272 253.5383224283248 142.23438975822506 248.13641135528354 141.54997222021208 248.8859546195094 133.80594572436132 259.95948062682646 130.85014047327272 262.227350792407 134.45849348633192 278.0939329323684 131.02877402652388 278.57984142685314 119.31003131599861 274.7217204867794 115.12863854945977 277.0746977461281 105.19173571096627 272.42125421336254 102.25592103102511 275.0927143856388 86.58565663216777 290.9659585915228 96.24873343614804 298.46352264343386 93.01107502245074 301.7871732379259 100.36228101404726 314.6390124491894 99.61483217713663 Z" stroke="#eee" stroke-width="inherit" opacity="1" class="highcharts-point" data-state="KA" data-key="KA_4"></path>
            <path fill="none" d="M 248.8859546195094 133.80594572436132 L 248.13641135528354 141.54997222021208 253.5383224283248 142.23438975822506 252.93204477957053 151.1064923788272 243.9759943328197 155.63445909747924 242.06254720951273 162.44102227256204 233.3059713631976 165.581807428932 227.76943551653582 173.8730219044841 218.74709364089517 171.26459800401793 217.63468641270802 178.45467920342313 220.9521863222903 185.56060772984154 220.87373568925074 186.7731565654377 216.83093336876308 184.7889426513595 209.10155399062805 190.12157681884224 201.14107319264673 190.16489960178768 190.25935859500888 199.5105871134823 193.33561793259705 208.16246889482125 186.19172689761228 216.74734162801724 187.85986182576178 221.84259671660425 183.6723659203817 228.86780603936447 171.6988015019117 228.72718387523423 169.15672058625185 226.07535748375744 168.85839345735496 223.7307872030732 167.08015983341437 223.04607025310037 167.29749788125045 222.60654659353105 171.5263743301405 211.6462594417786 173.26213771353582 199.4486687180553 158.82890924883455 193.28855804509428 156.5662793882805 187.69903963045624 157.93613395228448 178.835912660861 152.3074416448677 172.67985895578846 163.654973121499 167.81071245730067 177.15023997887974 162.54840164506726 179.19579940417674 169.85453910210427 190.06421613010014 164.16553312563983 190.41519104820634 155.17178342958678 210.08648974045767 148.82711038480585 209.7311209415396 142.5086730718708 218.02032763422977 134.4214971206106 226.24509700241197 136.63788842886555 238.470481167686 143.84690911387057 248.8859546195094 133.80594572436132 Z" stroke="#eee" stroke-width="inherit" opacity="1" class="highcharts-point" data-state="KA" data-key="KA_1"></path>
            <path fill="none" d="M 333.73706577720463 228.5654928432824 L 337.5646992025121 225.9095920017275 335.30101370572027 213.14983743321767 329.72095367401175 204.8016880733385 339.9244759019639 199.35409037528413 335.2295036078408 194.17914004711255 338.0733739610702 181.5287782410299 347.3884102751308 180.53807909909588 344.4871347350506 161.38533858395837 349.48811774374883 155.76827218704221 354.64340480402245 152.14763078670728 369.2967193723058 149.22986953255827 389.1278489620512 139.2051881088173 389.7850383330133 145.71633243764686 398.12309817176333 144.77220667451877 425.3869416079003 153.08720151595267 410.2249112626802 159.5872559255611 414.5791001846216 163.89825070640052 413.74253688208756 169.93972120153563 419.54439107163876 177.20413758027445 424.013763934838 183.0479013349764 435.48349937492156 186.65714003604901 441.7649095689326 185.2928632375661 451.7132208963543 188.89784297954802 442.3321150373293 196.79256533769527 442.2631473510891 208.84316651034652 444.33341657190454 226.35907348518367 420.82087953392863 223.07664207112595 405.29085920339776 227.41244550273822 400.9846600008304 233.246910301267 390.291291137799 229.50146276680115 380.56180952859717 223.07696265771153 381.29100524715545 215.22306571729496 377.9078501556427 207.34757177991312 370.3583035662481 206.96459005574903 366.6144067343248 212.6816044386305 360.92239610719935 208.83854645990522 356.5680467919169 212.805974314645 346.51759565863904 229.7932431141497 333.73706577720463 228.5654928432824 Z" stroke="#eee" stroke-width="inherit" opacity="1" class="highcharts-point" data-state="KA" data-key="KA_6"></path>
            <path fill="none" d="M 400.9846600008304 233.246910301267 L 404.1343805254956 235.1969888913078 400.83009593023667 252.62375997957778 402.2230530960771 275.50613424663027 392.35255335402644 277.52392086483803 375.9500432860897 269.836975064583 363.0994131755757 269.9488147676958 352.2162066782156 278.87084759437096 340.6970892962855 280.4003809547875 330.41322449697475 292.4669913298875 324.9377260353232 288.537533047149 317.1747483904232 294.6954175821987 303.57090504517544 297.34984862635747 298.12406694912227 283.77171433150653 299.3372666355566 273.473652226898 292.3345326859524 269.1896208239963 298.96310958956224 255.0665475892161 305.19412472586873 249.83780555440862 311.64355878579704 240.52010954590767 301.50931240359466 238.32779909108095 294.13940598375973 234.28911706494807 294.2478224725112 233.6259328348463 305.84089209490907 221.3307906249918 315.78096460339134 220.37225030509305 313.4374397803294 228.26174460545346 318.6509645037179 230.04311713452114 328.5897377144697 225.1539937733503 333.73706577720463 228.5654928432824 346.51759565863904 229.7932431141497 356.5680467919169 212.805974314645 360.92239610719935 208.83854645990522 366.6144067343248 212.6816044386305 370.3583035662481 206.96459005574903 377.9078501556427 207.34757177991312 381.29100524715545 215.22306571729496 380.56180952859717 223.07696265771153 390.291291137799 229.50146276680115 400.9846600008304 233.246910301267 Z" stroke="#eee" stroke-width="inherit" opacity="1" class="highcharts-point" data-state="KA" data-key="KA_8"></path>
            <path fill="none" d="M 303.57090504517544 297.34984862635747 L 297.72654019913955 300.9576600453437 280.77109378328254 319.4131843214716 277.9563625561193 326.9468095157489 286.16961483555747 333.23980336362297 291.13763692178344 341.07912420826773 289.65920838030456 353.9195578973653 279.94605289565726 355.6208840326531 275.77200661281336 360.9471932760171 274.0654425460035 369.38022255893486 266.2958917892395 374.76196662014587 251.38987420182374 366.38958582334493 249.2803907362125 356.22933768255666 236.70497712459064 344.37147003178774 222.6365553500124 341.31506863131443 220.9309655200006 336.08151030614374 224.4408900534836 329.50667614260675 224.38947617546782 317.4066220179838 236.7969932367946 321.57580043884263 241.83433743829877 320.0113022205896 250.08194032968873 322.56648323084187 254.76947508076165 318.30579168489146 252.16129882907177 306.63970471073185 257.2182876150011 300.1514627858016 255.3812659369214 282.63063829871027 258.16462954735033 275.01421541064235 262.71551820516464 273.92959485923166 262.8443851743826 272.0716171625923 264.1305997128652 272.1700828468752 265.53093164462604 271.7348114364815 265.76813510467866 266.63029036909137 274.5672399182981 263.61756896866495 276.2414342698263 278.0737314111723 286.1353300285203 277.9767497322519 282.0801134140627 271.03955364780285 284.83103844142227 260.08415299011824 278.1012274977069 253.902988887966 278.9419964921441 242.10888387261662 294.1991762165244 233.92349478313616 294.13940598375973 234.28911706494807 301.50931240359466 238.32779909108095 311.64355878579704 240.52010954590767 305.19412472586873 249.83780555440862 298.96310958956224 255.0665475892161 292.3345326859524 269.1896208239963 299.3372666355566 273.473652226898 298.12406694912227 283.77171433150653 303.57090504517544 297.34984862635747 Z" stroke="#eee" stroke-width="inherit" opacity="1" class="highcharts-point" data-state="KA" data-key="KA_10"></path>
            <path fill="none" d="M 354.0600371648093 349.1657770764859 L 349.44441649216765 359.0953194366105 333.10533773306156 363.181531725929 326.46893921065964 358.59715443595445 321.70458990040106 363.140717521739 319.90599813281165 376.7627401835926 313.616475008831 379.9183349233816 311.1033825381344 409.0628413214216 303.0015238581516 416.5377718969509 297.2170586936485 416.76823812820004 292.4675783982535 402.2110495550097 291.2496939546485 390.87972212056735 270.78395993725576 394.5473158709071 264.4876500426415 391.0274910391633 254.04655831945934 389.39879409818246 266.2958917892395 374.76196662014587 274.0654425460035 369.38022255893486 275.77200661281336 360.9471932760171 279.94605289565726 355.6208840326531 289.65920838030456 353.9195578973653 291.13763692178344 341.07912420826773 286.16961483555747 333.23980336362297 297.8950177890307 321.43344468215196 312.74632961113144 317.0581567229141 314.7465826806804 321.54234211245034 326.2743452757057 332.13540484649894 324.8530911766768 336.62684248545486 337.16588319464086 337.37916386330596 346.2863226190525 347.3701857319871 354.0600371648093 349.1657770764859 Z" stroke="#eee" stroke-width="inherit" opacity="1" class="highcharts-point" data-state="KA" data-key="KA_13"></path>
            <path fill="none" d="M 499.49472170722436 418.98942385755566 L 494.1082187284975 428.88262790615113 485.1954917716934 433.3661071876436 472.83542173088136 434.9075212142356 471.2554839593653 441.8702669840973 474.11859942225664 447.8411074038707 471.0464288306872 466.1791572333849 476.5625121470883 468.7910816631039 485.02373245161186 467.7952292893471 484.2210850417192 478.49406938735785 479.28354012217216 480.78556086987754 474.974122864359 499.39236199039516 476.2318311254148 501.6873505557967 473.2318671090419 501.5710904195531 467.08654900238844 495.30612406950445 467.1544387241679 481.8101152960678 466.6147174749083 479.5991718129916 463.67295136557914 472.80417275341637 453.87050777549996 471.2689627347492 449.9716601970955 474.34539307999376 453.56273983254374 481.6238098812163 441.93718486685293 481.27421544088156 440.00387331741 491.60102031493 427.7876291844545 492.0454522586183 422.55162522519566 491.6104219862377 418.86069553807823 485.6953882044022 416.4521623697598 473.16318907617597 415.0560732266705 465.25112838165177 418.83053008179354 461.73625527085176 428.61727231144334 460.0350252104048 429.581876179731 448.9577559109218 433.4195983533689 441.80312742320086 430.67406059477446 434.5396225743089 439.1933254930954 428.1938391645668 464.3244181260611 416.82383356005295 480.8393814301584 408.2066954441452 492.5257108522595 409.13050593388294 498.3846473460178 412.10172255193055 499.49472170722436 418.98942385755566 Z" stroke="#eee" stroke-width="inherit" opacity="1" class="highcharts-point" data-state="KA" data-key="KA_27"></path>
            <path fill="none" d="M 320.8962520311091 421.2302233440875 L 309.70451783947044 426.47533017358177 307.3845126412582 431.4710238741123 300.8829393327111 432.03568261493683 295.5984810878315 437.11416030158034 293.97084173814494 446.87038172290954 304.5941691168558 446.27328349125247 309.1959169695215 450.38549552845745 320.5397188346263 450.0761738665972 311.09829777861114 459.3967733996833 311.94744750420796 465.22451012291066 293.2282451846172 467.15912144514124 283.7616203685483 473.3927153763601 284.6540365604603 486.92530165578887 276.1692450260173 486.8287902657533 268.1557348231809 497.3542737292312 264.44359753787495 491.44054468740524 265.3426158803136 485.34805958564357 251.96086399976824 473.37439732055714 240.87537487722938 478.11074178795684 235.94843631154342 474.15591230847195 231.3265024890322 478.26482532067234 211.74851770612239 476.3049362630791 198.8743805007557 480.95333054180213 192.29399067242127 463.79161687785506 188.5003545513087 435.7168295016115 196.28172185759297 432.6270966518095 206.42769880902767 437.75192409078113 214.7576861099215 432.40966311991104 220.03732202339793 432.5553451177728 221.52681556971115 439.6368403747412 228.12145582067419 448.0874093830543 238.1889406626509 442.19658845508366 239.96508329781426 435.19770450923477 248.78834434226502 436.82860610367857 254.69407364856082 432.81201225768206 253.53520208456274 426.656262866933 262.03733863021193 421.27674809261055 284.02660846309044 420.46666757665304 292.27478906815963 416.1285880181661 297.2170586936485 416.76823812820004 303.0015238581516 416.5377718969509 311.1033825381344 409.0628413214216 316.9083013581136 411.9769964860493 320.8962520311091 421.2302233440875 Z" stroke="#eee" stroke-width="inherit" opacity="1" class="highcharts-point" data-state="KA" data-key="KA_15"></path>
            <path fill="none" d="M 439.1933254930954 428.1938391645668 L 430.67406059477446 434.5396225743089 433.4195983533689 441.80312742320086 429.581876179731 448.9577559109218 428.61727231144334 460.0350252104048 418.83053008179354 461.73625527085176 415.0560732266705 465.25112838165177 416.4521623697598 473.16318907617597 395.3952221878279 481.49189983230207 389.8632810179309 481.8155927670393 382.5041729852828 489.6760597157313 368.6880316055615 484.8439486140703 364.9042954922634 489.19212060941925 363.58652894359943 484.0028650864472 350.20516404751174 481.1123247760038 350.89563562761055 477.02366256703954 341.54226515696473 471.82650910635675 339.21080517835946 457.317137557074 345.68944126019477 449.4376329263112 339.90086278945034 437.70274592563226 354.1156303406351 433.07769993758893 359.6378495944882 425.5158598665375 369.6146942045168 425.64058621526925 376.9526624858639 419.4743077454933 389.82892637732397 432.79848199335913 391.17625678142736 445.2970129868698 402.4937072768439 440.33072657810135 399.62031124423453 423.14601839817664 407.185005469131 420.6002410935108 420.2426714608485 408.6008286157266 436.9140597338406 414.63066841505037 440.34605857054015 422.0967475190807 439.1933254930954 428.1938391645668 Z" stroke="#eee" stroke-width="inherit" opacity="1" class="highcharts-point" data-state="KA" data-key="KA_19"></path>
            <path fill="none" d="M 539.810337651339 463.2730232115503 L 540.0587403427044 464.3188935387515 534.448566610578 484.0197299590845 530.2541128815803 492.0776031940481 520.1152735237199 495.2615205322328 516.3100721733899 502.53999243333567 510.7179355526986 502.5325099382781 508.88804659593694 511.06279618916864 499.8673271962059 509.5152421705072 494.7968319830716 504.1174975457629 487.29131780179455 505.9083328022593 481.238700348999 500.24594092027536 476.2318311254148 501.6873505557967 474.974122864359 499.39236199039516 479.28354012217216 480.78556086987754 484.2210850417192 478.49406938735785 485.02373245161186 467.7952292893471 476.5625121470883 468.7910816631039 471.0464288306872 466.1791572333849 474.11859942225664 447.8411074038707 471.2554839593653 441.8702669840973 472.83542173088136 434.9075212142356 485.1954917716934 433.3661071876436 494.1082187284975 428.88262790615113 502.03354755907196 430.4237540464296 511.3798654051716 437.180126047882 523.1624633481542 436.52578243745353 520.9260618857446 456.87005509548504 534.1062894039071 463.84331476743625 539.810337651339 463.2730232115503 Z" stroke="#eee" stroke-width="inherit" opacity="1" class="highcharts-point" data-state="KA" data-key="KA_28"></path>
            <path fill="none" d="M 416.4521623697598 473.16318907617597 L 418.86069553807823 485.6953882044022 422.55162522519566 491.6104219862377 427.7876291844545 492.0454522586183 429.4406655496202 501.62599914572905 435.20958364843926 500.8854002653011 444.92706111627945 513.5974030757501 448.1293181843535 501.2979039000086 442.4008235651636 494.5010524426779 445.1768143944511 490.59392130197955 444.69227086786503 491.5876029393133 451.12300692002424 500.26233295133426 456.95016953726787 499.57494158226825 457.72487622694655 499.3231427222224 464.3723945786273 500.9327731338079 467.08654900238844 495.30612406950445 473.2318671090419 501.5710904195531 466.4610962749976 517.0361398358442 452.71800799115823 523.0122805835358 450.99339216236905 533.2688386691939 455.21278559750283 535.9353478694525 453.30473282214376 547.0473811531544 440.60963435439095 557.6857460484924 437.2668076899606 554.3359167126706 427.08983239144555 552.0640246122686 422.2907931154416 537.8574189295973 411.3303229477528 538.1546464044092 408.38760235789704 529.9339092729523 405.73579598277246 513.0902404576043 391.3034620236199 507.30740941363524 382.5041729852828 489.6760597157313 389.8632810179309 481.8155927670393 395.3952221878279 481.49189983230207 416.4521623697598 473.16318907617597 Z" stroke="#eee" stroke-width="inherit" opacity="1" class="highcharts-point" data-state="KA" data-key="KA_23"></path>
            <path fill="none" d="M 262.89080385876366 271.4024760617897 L 262.71551820516464 273.92959485923166 258.16462954735033 275.01421541064235 255.3812659369214 282.63063829871027 257.2182876150011 300.1514627858016 252.16129882907177 306.63970471073185 254.76947508076165 318.30579168489146 250.08194032968873 322.56648323084187 241.83433743829877 320.0113022205896 236.7969932367946 321.57580043884263 224.38947617546782 317.4066220179838 225.34451637799413 303.1544959586054 212.66624915403085 303.72746922860415 202.61175950316363 297.690325296055 209.83618248265915 287.12112015170794 208.91253415797678 282.7770751371088 193.7847754250067 271.02884317699903 201.23655778532282 264.4008220084656 205.07405960619616 254.75526885978167 205.21774510780511 254.6314755399459 215.09345831741228 251.05546926988544 226.88105942587123 253.2842376648372 227.65775872172583 249.2325122117663 243.1218668239044 247.67552568199474 244.22101702679163 247.45379100581232 255.25650497299188 250.67347374687313 262.07122630159176 246.49412678752134 268.0991051752933 251.41603735990546 265.8895912192523 261.22535846747843 260.5902978243412 265.3014200650362 262.89080385876366 271.4024760617897 Z" stroke="#eee" stroke-width="inherit" opacity="1" class="highcharts-point" data-state="KA" data-key="KA_11"></path>
            <path fill="none" d="M 466.7264858250837 480.0569734195625 L 465.85474174706707 480.070569044809 464.5953635813339 479.92603460863467 463.11575589461 481.6742773038908 455.9660893824547 480.06462494853 456.35435340323795 483.17943203635417 458.74853471734383 491.0239938475403 446.52050450603986 490.81716356476767 445.68052030506465 490.6673603089948 445.16559717573364 490.61692341275983 445.1768143944511 490.59392130197955 442.4008235651636 494.5010524426779 448.1293181843535 501.2979039000086 444.92706111627945 513.5974030757501 435.20958364843926 500.8854002653011 429.4406655496202 501.62599914572905 427.7876291844545 492.0454522586183 440.00387331741 491.60102031493 441.93718486685293 481.27421544088156 453.56273983254374 481.6238098812163 449.9716601970955 474.34539307999376 453.87050777549996 471.2689627347492 463.67295136557914 472.80417275341637 466.6147174749083 479.5991718129916 466.7264858250837 480.0569734195625 Z" stroke="#eee" stroke-width="inherit" opacity="1" class="highcharts-point" data-state="KA" data-key="KA_24"></path>
            <path fill="none" d="M 268.1557348231809 497.3542737292312 L 274.11770365109726 502.5548370426442 273.3307870941602 507.8624729644877 280.61848306372895 516.5182825206559 281.20001746229775 516.2051531386227 280.6990629490857 516.8333852860695 278.9814380581357 518.9273476600172 279.5256138573883 531.5991328039352 274.2706830825402 534.382848598053 255.52610604930516 534.551962557964 245.56347240936884 534.4937109865368 236.24150456820144 523.0260293260719 228.20674928173116 518.4659254476148 222.342992724746 519.8974145547717 218.29100024487508 515.0791473070041 218.4805457381225 508.61919128308926 205.69676615795296 511.4547548023122 200.66431838191323 499.1775670328929 198.8743805007557 480.95333054180213 211.74851770612239 476.3049362630791 231.3265024890322 478.26482532067234 235.94843631154342 474.15591230847195 240.87537487722938 478.11074178795684 251.96086399976824 473.37439732055714 265.3426158803136 485.34805958564357 264.44359753787495 491.44054468740524 268.1557348231809 497.3542737292312 Z" stroke="#eee" stroke-width="inherit" opacity="1" class="highcharts-point" data-state="KA" data-key="KA_17"></path>
            <path fill="none" d="M 281.20001746229775 516.2051531386227 L 281.6703193863166 515.9519453793441 291.1070149655385 516.7045899758141 301.58615983339837 506.0146758496932 305.0376049630353 516.6856909564522 302.5947154033442 521.7124296113412 305.03521502552815 529.4313068353849 312.38581982888303 528.1667275934273 320.37638788694113 532.2615064113846 328.8160779297986 534.679960883589 333.3090918638966 542.7876672798777 350.13710033905147 542.8158375098336 354.19025914628503 539.0850180110851 366.62047879770364 544.1102110577716 374.09573261964056 550.0786044294639 374.01222347776024 550.8873828880505 367.0699275781119 559.0829424970268 369.5343937950055 563.0730331317795 354.4269486502359 568.5580366012147 354.7965771928994 558.1296070296854 349.8798521964243 553.5724550455241 341.0212616982245 565.4981660161426 331.760975386686 561.2727243125538 323.4193245601006 569.0588144950513 325.0676289016608 575.006887615128 318.2866908316638 581.7792471660118 311.2161457690142 585.198886962907 301.7828860286842 585.207829693312 292.6640116022265 580.5980428014059 290.02188928871055 572.5091619406397 282.948177470534 573.613929956825 275.52432304830387 566.4000708730862 270.25846825693674 565.6571004680793 262.61579187594634 555.224961752701 262.08607102154554 553.908425728497 257.0248680278386 552.9680073755587 252.29562491059193 544.4575269180885 255.52610604930516 534.551962557964 274.2706830825402 534.382848598053 279.5256138573883 531.5991328039352 278.9814380581357 518.9273476600172 280.6990629490857 516.8333852860695 281.20001746229775 516.2051531386227 Z" stroke="#eee" stroke-width="inherit" opacity="1" class="highcharts-point" data-state="KA" data-key="KA_21"></path>
            <path fill="none" d="M 427.08983239144555 552.0640246122686 L 437.2668076899606 554.3359167126706 440.60963435439095 557.6857460484924 444.983980716561 562.3340079822336 453.3576520738108 561.3104997006326 465.5442746163964 565.5368692778625 468.0718403134691 569.0154059250918 461.09255995122044 577.9514759406466 458.87199049185887 584.2746979983675 458.48679935317153 584.416214168152 443.1449300209251 585.2048379085813 436.75376396037063 601.3273298306873 428.34671338699735 600.6015548547762 420.722911501503 596.7036906561966 408.18943928946135 600.2702203348622 399.2962887848751 596.6994354442402 389.8417974416768 598.4956720774062 383.577419840581 610.5854363208248 385.47248975684636 614.8280710146781 363.52345404790776 615 358.6218451195242 613.8865608624473 354.14220267704104 606.2373957221848 346.8549438604066 609.7359930585924 345.1167332012359 601.5936991693045 338.84767706171874 603.3357872940479 325.1857544758446 591.382857528645 318.3235997959466 592.5281804388702 318.2866908316638 581.7792471660118 325.0676289016608 575.006887615128 323.4193245601006 569.0588144950513 331.760975386686 561.2727243125538 341.0212616982245 565.4981660161426 349.8798521964243 553.5724550455241 354.7965771928994 558.1296070296854 354.4269486502359 568.5580366012147 369.5343937950055 563.0730331317795 367.0699275781119 559.0829424970268 374.01222347776024 550.8873828880505 374.0042998193646 550.9641270653076 383.2667398597727 543.4953952105786 392.34361103917064 543.5654934673723 396.1718185159789 548.5054546882269 398.0122590608501 557.77185208704 413.33507808105384 556.3477281434147 412.9816641863632 551.8855638598008 427.08983239144555 552.0640246122686 Z" stroke="#eee" stroke-width="inherit" opacity="1" class="highcharts-point" data-state="KA" data-key="KA_22"></path>
            <path fill="none" d="M 382.5041729852828 489.6760597157313 L 391.3034620236199 507.30740941363524 405.73579598277246 513.0902404576043 408.38760235789704 529.9339092729523 411.3303229477528 538.1546464044092 422.2907931154416 537.8574189295973 427.08983239144555 552.0640246122686 412.9816641863632 551.8855638598008 413.33507808105384 556.3477281434147 398.0122590608501 557.77185208704 396.1718185159789 548.5054546882269 392.34361103917064 543.5654934673723 383.2667398597727 543.4953952105786 374.0042998193646 550.9641270653076 374.09573261964056 550.0786044294639 366.62047879770364 544.1102110577716 354.19025914628503 539.0850180110851 350.13710033905147 542.8158375098336 333.3090918638966 542.7876672798777 328.8160779297986 534.679960883589 320.37638788694113 532.2615064113846 332.28739261853724 524.0068769914502 338.70273338703157 521.5750458537991 340.87868174217687 515.7794753915495 337.9689213609747 507.9007807895478 345.0848701219365 503.5774022704176 350.3228364772583 508.1573294948508 359.95443683213097 503.3893224962814 364.9042954922634 489.19212060941925 368.6880316055615 484.8439486140703 382.5041729852828 489.6760597157313 Z" stroke="#eee" stroke-width="inherit" opacity="1" class="highcharts-point" data-state="KA" data-key="KA_20"></path>
            <path fill="none" d="M 402.2230530960771 275.50613424663027 L 404.6466679570387 280.47666706233406 411.76473542216564 283.50483588749336 412.21645776902614 297.3531814157691 408.3290489794118 306.6228253265674 395.4428322253382 308.0264901435258 387.3084131675238 306.64369411883615 380.1020918748306 301.07436761207407 376.5056658398755 310.76868920351933 369.11982047048093 319.40959610682927 371.24394378011743 326.2671852430563 363.1047913563292 337.89149185992534 362.05934018515535 343.7363987333282 354.0600371648093 349.1657770764859 346.2863226190525 347.3701857319871 337.16588319464086 337.37916386330596 324.8530911766768 336.62684248545486 326.2743452757057 332.13540484649894 314.7465826806804 321.54234211245034 312.74632961113144 317.0581567229141 297.8950177890307 321.43344468215196 286.16961483555747 333.23980336362297 277.9563625561193 326.9468095157489 280.77109378328254 319.4131843214716 297.72654019913955 300.9576600453437 303.57090504517544 297.34984862635747 317.1747483904232 294.6954175821987 324.9377260353232 288.537533047149 330.41322449697475 292.4669913298875 340.6970892962855 280.4003809547875 352.2162066782156 278.87084759437096 363.0994131755757 269.9488147676958 375.9500432860897 269.836975064583 392.35255335402644 277.52392086483803 402.2230530960771 275.50613424663027 Z" stroke="#eee" stroke-width="inherit" opacity="1" class="highcharts-point" data-state="KA" data-key="KA_9"></path>
            <path fill="none" d="M 339.90086278945034 437.70274592563226 L 333.20434667270854 435.22387080553966 327.88996573777763 425.6617711085483 320.8962520311091 421.2302233440875 316.9083013581136 411.9769964860493 311.1033825381344 409.0628413214216 313.616475008831 379.9183349233816 319.90599813281165 376.7627401835926 321.70458990040106 363.140717521739 326.46893921065964 358.59715443595445 333.10533773306156 363.181531725929 349.44441649216765 359.0953194366105 354.0600371648093 349.1657770764859 362.05934018515535 343.7363987333282 363.1047913563292 337.89149185992534 371.24394378011743 326.2671852430563 369.11982047048093 319.40959610682927 376.5056658398755 310.76868920351933 386.2096999672852 312.4589843563538 383.45728885386814 328.5660299625178 377.82764032051193 338.560380359952 376.8999603709518 345.5352416532966 386.20349504924627 356.4556716018467 392.91373515333834 377.53504553639925 403.0050211038108 377.5696386675539 412.2475941602241 368.72486475405987 423.7592407882695 374.24941109380393 430.42106643729846 374.7237275131291 434.1574736416649 369.4606609656142 443.5953240783477 375.61515432909925 444.59677047888516 383.5695505679509 433.71094732815845 384.1960690551516 433.1590933211962 398.3933034066168 436.38643309838824 408.4980330548746 430.010669645174 408.36325829341814 426.85018342534386 396.8344798065912 410.68242651517716 399.2618566518005 409.48153607939474 395.3037372127617 400.68810863609946 394.3216980428768 400.32391552974684 383.5835865584342 393.388136266279 389.0619440372053 401.8002914279946 405.7984624692483 395.7654591124488 416.1815584955009 399.62031124423453 423.14601839817664 402.4937072768439 440.33072657810135 391.17625678142736 445.2970129868698 389.82892637732397 432.79848199335913 376.9526624858639 419.4743077454933 369.6146942045168 425.64058621526925 359.6378495944882 425.5158598665375 354.1156303406351 433.07769993758893 339.90086278945034 437.70274592563226 Z" stroke="#eee" stroke-width="inherit" opacity="1" class="highcharts-point" data-state="KA" data-key="KA_18"></path>
            <path fill="none" d="M 447.8519728016263 13.285160271613407 L 452.16859506979716 25.82088770248118 452.9768545183841 37.84876498275372 457.19262832591403 42.21788106249891 453.8767159059543 48.19704612034276 445.7083163129697 55.041032587417966 446.9166117594771 64.15442929233922 439.56711102478124 66.54081861209929 437.9535084589977 77.10297568869042 460.1212419810535 83.89242641975964 449.9260141170995 90.74820002939391 444.2959674489002 90.95693791140094 439.01717182042785 96.0657334477284 438.89266523746 96.60186111431558 427.3442245854195 91.90710549504206 422.56455563234044 98.88304988544222 421.90828760183894 106.96278838050148 407.37592882435507 107.24186457652006 409.43534286593643 98.14975371994035 401.9755915541814 94.36194013966474 401.5941648296159 86.29974299892315 412.3139801164491 77.82039662949242 411.6674481293017 72.84283216730003 397.60459581250956 67.0906689550595 389.7709148424972 71.58094261281715 375.7465903952323 69.12670205535966 369.256989822518 80.88872553267998 375.99313683695857 89.08461778289018 371.77809669944634 93.82124916924263 362.1571722476683 98.39654889094281 350.9006858489381 99.79303780511006 344.84411666425353 96.2677321736308 339.6003297473193 87.02654707038596 337.9403394369209 75.9932248683479 346.69918136372223 71.5317015274776 351.74788022323935 69.26030192825624 355.27000076911156 61.23396147665896 362.5235214229392 61.50395358669657 370.4949718986899 66.04171010165462 379.1373123270283 55.138575147399884 374.8470352223207 48.7106782708511 387.52690812510525 49.14514427643349 393.91964896585534 36.13554087390389 394.1000605277743 22.90489423924888 403.4444112271743 25.82092639941179 416.8409532157467 14.518498838813176 421.5444235153618 2.607255186100227 422.1025199379785 1.8913684174724548 426.49670564855404 0 434.36713446838485 3.7295735351472974 435.02863894582646 12.559895206397577 440.22438645906567 16.114418794536576 447.8519728016263 13.285160271613407 Z" stroke="#eee" stroke-width="inherit" opacity="1" class="highcharts-point" data-state="KA" data-key="KA_7"></path>
            <path fill="none" d="M 205.11259739552156 254.7220659899293 L 205.07405960619616 254.75526885978167 201.23655778532282 264.4008220084656 193.7847754250067 271.02884317699903 208.91253415797678 282.7770751371088 209.83618248265915 287.12112015170794 202.61175950316363 297.690325296055 212.66624915403085 303.72746922860415 225.34451637799413 303.1544959586054 224.38947617546782 317.4066220179838 224.4408900534836 329.50667614260675 220.9309655200006 336.08151030614374 222.6365553500124 341.31506863131443 216.1363337720345 349.9689131053788 209.54863016889968 352.04146141984586 210.96323548711564 360.74643380510906 210.70999757243328 378.8719478596706 192.5589511282085 378.6292939290806 188.01410180631373 382.81416910758287 185.6277230044886 390.9204942907889 188.114645557638 401.0939652574749 180.43653850901245 406.3603260690082 174.44386237977034 400.6431259059256 167.94419704258254 374.39593331256253 163.78713711865103 362.94556250754226 153.1087138193697 343.941796049751 151.6487328130679 334.6730542945458 137.72475859284486 328.98632746445696 135.94125965729563 319.05082387231676 144.21528802952443 313.6508565255931 149.20039905198698 314.27141468466925 154.68246843697773 305.86767562256955 152.75658613835594 300.29386235206294 156.44727631473245 292.895253176208 152.34484259201247 284.76738659643223 158.22489384286817 283.10221201434274 150.50019793879383 265.4222007160634 150.3975523906313 250.6086146806616 138.70857494927236 250.96443068282588 139.50401331843702 244.49749718178086 146.96878215863035 239.40701316915565 153.7303456215473 242.95319642251516 158.6678847303343 240.81112832206156 168.90727159509743 244.6501048797592 184.78321871000344 247.37618124054984 189.10755530969726 243.3874213236903 190.56323138212792 223.5107409978674 203.8414151843951 220.48136119975374 203.53787649147938 228.54080728716485 199.70370721707357 234.3693635797893 199.25327602095925 243.80492911352766 206.30879361789403 248.2628871849112 205.11259739552156 254.7220659899293 Z" stroke="#eee" stroke-width="inherit" opacity="1" class="highcharts-point" data-state="KA" data-key="KA_12"></path>
            <path fill="none" d="M 266.2958917892395 374.76196662014587 L 254.04655831945934 389.39879409818246 264.4876500426415 391.0274910391633 270.78395993725576 394.5473158709071 291.2496939546485 390.87972212056735 292.4675783982535 402.2110495550097 297.2170586936485 416.76823812820004 292.27478906815963 416.1285880181661 284.02660846309044 420.46666757665304 262.03733863021193 421.27674809261055 253.53520208456274 426.656262866933 254.69407364856082 432.81201225768206 248.78834434226502 436.82860610367857 239.96508329781426 435.19770450923477 238.1889406626509 442.19658845508366 228.12145582067419 448.0874093830543 221.52681556971115 439.6368403747412 220.03732202339793 432.5553451177728 214.7576861099215 432.40966311991104 206.42769880902767 437.75192409078113 196.28172185759297 432.6270966518095 186.48879618092212 430.0265771976275 180.43653850901245 406.3603260690082 188.114645557638 401.0939652574749 185.6277230044886 390.9204942907889 188.01410180631373 382.81416910758287 192.5589511282085 378.6292939290806 210.70999757243328 378.8719478596706 210.96323548711564 360.74643380510906 209.54863016889968 352.04146141984586 216.1363337720345 349.9689131053788 222.6365553500124 341.31506863131443 236.70497712459064 344.37147003178774 249.2803907362125 356.22933768255666 251.38987420182374 366.38958582334493 266.2958917892395 374.76196662014587 Z" stroke="#eee" stroke-width="inherit" opacity="1" class="highcharts-point" data-state="KA" data-key="KA_14"></path>
            <path fill="none" d="M 320.8962520311091 421.2302233440875 L 327.88996573777763 425.6617711085483 333.20434667270854 435.22387080553966 339.90086278945034 437.70274592563226 345.68944126019477 449.4376329263112 339.21080517835946 457.317137557074 341.54226515696473 471.82650910635675 350.89563562761055 477.02366256703954 350.20516404751174 481.1123247760038 363.58652894359943 484.0028650864472 364.9042954922634 489.19212060941925 359.95443683213097 503.3893224962814 350.3228364772583 508.1573294948508 345.0848701219365 503.5774022704176 337.9689213609747 507.9007807895478 340.87868174217687 515.7794753915495 338.70273338703157 521.5750458537991 332.28739261853724 524.0068769914502 320.37638788694113 532.2615064113846 312.38581982888303 528.1667275934273 305.03521502552815 529.4313068353849 302.5947154033442 521.7124296113412 305.0376049630353 516.6856909564522 301.58615983339837 506.0146758496932 291.1070149655385 516.7045899758141 281.6703193863166 515.9519453793441 280.61848306372895 516.5182825206559 273.3307870941602 507.8624729644877 274.11770365109726 502.5548370426442 268.1557348231809 497.3542737292312 276.1692450260173 486.8287902657533 284.6540365604603 486.92530165578887 283.7616203685483 473.3927153763601 293.2282451846172 467.15912144514124 311.94744750420796 465.22451012291066 311.09829777861114 459.3967733996833 320.5397188346263 450.0761738665972 309.1959169695215 450.38549552845745 304.5941691168558 446.27328349125247 293.97084173814494 446.87038172290954 295.5984810878315 437.11416030158034 300.8829393327111 432.03568261493683 307.3845126412582 431.4710238741123 309.70451783947044 426.47533017358177 320.8962520311091 421.2302233440875 Z" stroke="#eee" stroke-width="inherit" opacity="1" class="highcharts-point" data-state="KA" data-key="KA_16"></path>
            <path fill="none" d="M 220.87373568925074 186.7731565654377 L 220.9396714050499 185.75402669987565 221.01010693137056 186.17642816246743 221.0531156300832 187.35386241029448 222.20599511294185 189.6723538356939 223.7568405461762 190.3565242928892 229.83772067542662 193.98296283881118 238.12748644398022 195.4767317042416 243.9937612021415 201.91485778067886 243.61410658252322 208.5550478706102 256.81618938328717 211.52151532605708 257.04465907402357 227.4151343927622 259.32397232021845 231.90673321394104 251.11932284677343 236.5806256370484 243.48593295663045 247.60207061722636 243.1218668239044 247.67552568199474 227.65775872172583 249.2325122117663 226.88105942587123 253.2842376648372 215.09345831741228 251.05546926988544 205.21774510780511 254.6314755399459 205.11259739552156 254.7220659899293 206.30879361789403 248.2628871849112 199.25327602095925 243.80492911352766 199.70370721707357 234.3693635797893 203.53787649147938 228.54080728716485 203.8414151843951 220.48136119975374 190.56323138212792 223.5107409978674 189.10755530969726 243.3874213236903 184.78321871000344 247.37618124054984 168.90727159509743 244.6501048797592 158.6678847303343 240.81112832206156 160.76356420385733 230.68506597843322 166.66116444376428 223.89349146306512 167.08015983341437 223.04607025310037 168.85839345735496 223.7307872030732 169.15672058625185 226.07535748375744 171.6988015019117 228.72718387523423 183.6723659203817 228.86780603936447 187.85986182576178 221.84259671660425 186.19172689761228 216.74734162801724 193.33561793259705 208.16246889482125 190.25935859500888 199.5105871134823 201.14107319264673 190.16489960178768 209.10155399062805 190.12157681884224 216.83093336876308 184.7889426513595 220.87373568925074 186.7731565654377 Z" stroke="#eee" stroke-width="inherit" opacity="1" class="highcharts-point" data-state="KA" data-key="KA_2"></path>
            <path fill="none" d="M 457.2286381295091 499.4844261076919 L 456.95016953726787 499.57494158226825 451.12300692002424 500.26233295133426 444.69227086786503 491.5876029393133 445.16559717573364 490.61692341275983 445.68052030506465 490.6673603089948 446.9404890598118 490.8920854385288 456.456485263822 494.09916355157645 457.2286381295091 499.4844261076919 Z" stroke="#eee" stroke-width="inherit" opacity="1" class="highcharts-point" data-state="KA" data-key="KA_26"></path>
            <path fill="none" d="M 466.7264858250837 480.0569734195625 L 467.1544387241679 481.8101152960678 467.08654900238844 495.30612406950445 464.3723945786273 500.9327731338079 457.72487622694655 499.3231427222224 457.2286381295091 499.4844261076919 456.456485263822 494.09916355157645 446.9404890598118 490.8920854385288 446.52050450603986 490.81716356476767 458.74853471734383 491.0239938475403 456.35435340323795 483.17943203635417 455.9660893824547 480.06462494853 463.11575589461 481.6742773038908 464.5953635813339 479.92603460863467 465.85474174706707 480.070569044809 466.7264858250837 480.0569734195625 Z" stroke="#eee" stroke-width="inherit" opacity="1" class="highcharts-point" data-state="KA" data-key="KA_25"></path>
            <path fill="none" d="M 243.48593295663045 247.60207061722636 L 251.11932284677343 236.5806256370484 259.32397232021845 231.90673321394104 257.04465907402357 227.4151343927622 256.81618938328717 211.52151532605708 243.61410658252322 208.5550478706102 243.9937612021415 201.91485778067886 238.12748644398022 195.4767317042416 229.83772067542662 193.98296283881118 223.7568405461762 190.3565242928892 222.20599511294185 189.6723538356939 221.0531156300832 187.35386241029448 221.01010693137056 186.17642816246743 220.9396714050499 185.75402669987565 220.9521863222903 185.56060772984154 217.63468641270802 178.45467920342313 218.74709364089517 171.26459800401793 227.76943551653582 173.8730219044841 233.3059713631976 165.581807428932 242.06254720951273 162.44102227256204 243.9759943328197 155.63445909747924 252.93204477957053 151.1064923788272 262.13633329609775 165.69161165104978 261.8249181000579 173.87311158174154 267.79118450421913 178.6385287167403 275.9416732556339 180.06863496440292 304.3547861146521 192.9103498076105 314.04547013996523 196.39196028216412 313.75918763615005 200.7861041484105 329.72095367401175 204.8016880733385 335.30101370572027 213.14983743321767 337.5646992025121 225.9095920017275 333.73706577720463 228.5654928432824 328.5897377144697 225.1539937733503 318.6509645037179 230.04311713452114 313.4374397803294 228.26174460545346 315.78096460339134 220.37225030509305 305.84089209490907 221.3307906249918 294.2478224725112 233.6259328348463 294.1991762165244 233.92349478313616 278.9419964921441 242.10888387261662 278.1012274977069 253.902988887966 284.83103844142227 260.08415299011824 282.0801134140627 271.03955364780285 286.1353300285203 277.9767497322519 276.2414342698263 278.0737314111723 274.5672399182981 263.61756896866495 265.76813510467866 266.63029036909137 265.53093164462604 271.7348114364815 264.1305997128652 272.1700828468752 262.8443851743826 272.0716171625923 262.89080385876366 271.4024760617897 260.5902978243412 265.3014200650362 265.8895912192523 261.22535846747843 268.0991051752933 251.41603735990546 262.07122630159176 246.49412678752134 255.25650497299188 250.67347374687313 244.22101702679163 247.45379100581232 243.48593295663045 247.60207061722636 Z" stroke="#eee" stroke-width="inherit" opacity="1" class="highcharts-point" data-state="KA" data-key="KA_3"></path>
         </g>
      </g>
      <g data-z-index="0.1" class="highcharts-markers highcharts-series-1 highcharts-mapline-series  highcharts-tracker     " transform="translate(10,10) scale(1 1)" style="cursor:pointer;" clip-path="none" opacity="1"></g>
   </g>
   <text x="348" text-anchor="middle" class="highcharts-title" data-z-index="4" style="color:#333333;font-size:18px;fill:#333333;" y="24"></text>
   <text x="348" text-anchor="middle" class="highcharts-subtitle" data-z-index="4" style="color:#666666;fill:#666666;" y="24"></text>
   <g class="highcharts-button highcharts-map-navigation highcharts-zoom-in" style="[object Object]" data-z-index="5" transform="translate(658,10)">
      <path fill="#f7f7f7" class="highcharts-button-box" d="M 1.5 -0.5 L 25.5 -0.5 C 26.5 -0.5 27.5 0.5 27.5 1.5 L 27.5 27.5 C 27.5 27.5 27.5 27.5 27.5 27.5 L -0.5 27.5 C -0.5 27.5 -0.5 27.5 -0.5 27.5 L -0.5 1.5 C -0.5 0.5 0.5 -0.5 1.5 -0.5 Z" stroke="#cccccc" stroke-width="1"></path>
      <title>Zoom in</title>
      <text x="7.59375" data-z-index="1" style="font-size:15px;font-weight:bold;color:#333333;cursor:pointer;fill:#333333;" y="19">+</text>
   </g>
   <g class="highcharts-button highcharts-map-navigation highcharts-zoom-out" style="[object Object]" data-z-index="5" transform="translate(658,38)">
      <path fill="#f7f7f7" class="highcharts-button-box" d="M -0.5 -0.5 L 27.5 -0.5 C 27.5 -0.5 27.5 -0.5 27.5 -0.5 L 27.5 25.5 C 27.5 26.5 26.5 27.5 25.5 27.5 L 1.5 27.5 C 0.5 27.5 -0.5 26.5 -0.5 25.5 L -0.5 -0.5 C -0.5 -0.5 -0.5 -0.5 -0.5 -0.5 Z" stroke="#cccccc" stroke-width="1"></path>
      <title>Zoom out</title>
      <text x="10.5" data-z-index="1" style="font-size:15px;font-weight:bold;color:#333333;cursor:pointer;fill:#333333;" y="19">-</text>
   </g>
   <g data-z-index="6" class="highcharts-data-labels highcharts-series-0 highcharts-map-series  highcharts-tracker     " transform="translate(10,10) scale(1 1)" clip-path="url(#highcharts-q6d46oi-1-)" style="cursor:pointer;"></g>
   <g data-z-index="6" class="highcharts-data-labels highcharts-series-1 highcharts-mapline-series  highcharts-tracker     " transform="translate(10,10) scale(1 1)" clip-path="url(#highcharts-q6d46oi-1-)" style="cursor:pointer;" opacity="1"></g>
   <g class="highcharts-label highcharts-tooltip highcharts-color-undefined" style="pointer-events:auto;white-space:nowrap;" data-z-index="8" transform="translate(248,-9999)" opacity="0" visibility="visible">
      <path fill="rgba(247,247,247,0.85)" class="highcharts-label-box highcharts-tooltip-box" d="M 0 0 L 280 0 C 280 0 280 0 280 0 L 280 227 C 280 227 280 227 280 227 L 146 227 140 233 134 227 0 227 C 0 227 0 227 0 227 L 0 0 C 0 0 0 0 0 0"></path>
   </g>
   <g class="highcharts-label highcharts-tooltip highcharts-color-undefined" style="pointer-events:auto;white-space:nowrap;" data-z-index="8" transform="translate(376,-9999)" opacity="0" visibility="visible">
      <path fill="rgba(247,247,247,0.85)" class="highcharts-label-box highcharts-tooltip-box" d="M 0 0 L 280 0 C 280 0 280 0 280 0 L 280 226 C 280 226 280 226 280 226 L 146 226 140 232 134 226 0 226 C 0 226 0 226 0 226 L 0 0 C 0 0 0 0 0 0"></path>
   </g>
</svg>