<svg version="1.1" class="highcharts-root" style="font-family:&quot;Lucida Grande&quot;, &quot;Lucida Sans Unicode&quot;, Arial, Helvetica, sans-serif;font-size:12px;" xmlns="http://www.w3.org/2000/svg" width="323" height="640" viewBox="0 0 323 640">
   <desc>Created with Highcharts 7.1.0</desc>
   <defs>
      <clipPath id="highcharts-e6n97yx-1-">
         <rect x="0" y="0" width="303" height="615" fill="none"></rect>
      </clipPath>
   </defs>
   <rect fill="#fff" class="highcharts-background" x="0" y="0" width="323" height="640" rx="0" ry="0"></rect>
   <rect fill="none" class="highcharts-plot-background" x="10" y="10" width="303" height="615"></rect>
   <rect fill="none" class="highcharts-plot-border" data-z-index="1" x="10" y="10" width="303" height="615"></rect>
   <g class="highcharts-series-group" data-z-index="3" style="pointer-events: auto;">
      <g data-z-index="0.1" class="highcharts-series highcharts-series-0 highcharts-map-series  highcharts-tracker " transform="translate(10,10) scale(1 1)" stroke-width="0.3" style="cursor:pointer;" clip-path="url(#highcharts-e6n97yx-1-)">
         <g transform="translate(0,0) scale(1 1)">
            <path fill="#FF9650" d="M 84.68389567189148 177.26733014306652 L 84.12190164808624 183.07366156991566 88.17215716377294 183.586825498549 87.71758111509281 190.23896806234757 81.00249598498925 193.63395586001621 79.5678278350773 198.737394193226 73.0023051634685 201.09229826905573 68.85111042006554 207.30890137622984 62.086321171942764 205.35315217057615 61.252258291096744 210.74414540285295 63.739659902377056 216.07204247835926 63.68083903234029 216.98118973069415 60.64961875196505 215.49346191712374 54.85426946986338 219.49177485821897 48.88564451036549 219.52425749967807 40.726731123367045 226.5314854751684 43.033254903799154 233.01851042469409 37.676894223907055 239.45529319822458 38.927631713342144 243.2756235863666 35.78792279211908 248.542998858493 26.810360097619657 248.43756289551712 24.90435366568176 246.44927128473432 24.68067336384863 244.69135476540328 23.347385857601296 244.17796634308144 23.510342006844443 243.848419428596 26.681077313420232 235.63059375733718 27.98252139912709 226.48506017878537 17.160746955252137 221.86632027488056 15.464267885390816 217.67540015738692 16.4913601363601 211.02998737486502 12.271068140441836 206.414289312328 20.779242623732465 202.76349106786822 30.89775036769604 198.81790531047318 32.431473939400384 204.295915432004 40.580416821973635 200.03040133460564 40.84357148681468 193.2870499871655 55.59275653479364 188.52992854488576 55.32630741735 183.7924781812632 61.541405125138425 177.72885948039487 67.70818888894009 179.39066971751262 76.87456148879723 184.79586343457666 84.68389567189148 177.26733014306652 Z" stroke="#000" stroke-width="inherit" opacity="1" class="highcharts-point" data-constituency="KA_1" data-const-name="Chikkodi" data-const-id="KA_1" data-won-alliance="NDA"></path>
            <path fill="#FF9650" d="M 63.68083903234029 216.98118973069415 L 63.73027644309831 216.2170645343736 63.78308773064509 216.53377353431154 63.81533487741003 217.41659250192095 64.67974312501589 219.1549555658115 65.84253906611947 219.66793423770307 70.40187333702971 222.38697246775118 76.61739022981932 223.50697342751607 81.01581726323582 228.33416426779323 80.73115907535136 233.31285906178422 90.62984270033792 235.53706286874626 90.8011451547027 247.45381185234336 92.51013312628389 250.82153165626997 86.35843489675564 254.32593191581722 80.63505680187473 262.58961262403585 80.3620865803716 262.64468790706263 68.7673771730651 263.81208833161406 68.18502204642026 266.8499990158989 59.346891288489836 265.1789086623586 51.9422596020907 267.860133681357 51.86342174343661 267.92805676723395 52.76030810124554 263.0850809706882 47.47020823165971 259.74258439435044 47.80793342036266 252.6679674986059 50.682724404842126 248.2978210905122 50.910312243402 242.25499374153497 40.95456945973621 244.52636808859765 39.86312978927602 259.4295445820014 36.62082018295828 262.42024484262515 24.7173213101608 260.376281943721 17.040013674863417 257.49788654491397 18.611316354966462 249.90554759210366 23.03323066973699 244.8133474856735 23.347385857601296 244.17796634308144 24.68067336384863 244.69135476540328 24.90435366568176 246.44927128473432 26.810360097619657 248.43756289551712 35.78792279211908 248.542998858493 38.927631713342144 243.2756235863666 37.676894223907055 239.45529319822458 43.033254903799154 233.01851042469409 40.726731123367045 226.5314854751684 48.88564451036549 219.52425749967807 54.85426946986338 219.49177485821897 60.64961875196505 215.49346191712374 63.68083903234029 216.98118973069415 Z" stroke="#000" stroke-width="inherit" opacity="1" class="highcharts-point" data-constituency="KA_2" data-const-name="Belgaum" data-const-id="KA_2" data-won-alliance="NDA"></path>
            <path fill="#FF9650" d="M 80.63505680187473 262.58961262403585 L 86.35843489675564 254.32593191581722 92.51013312628389 250.82153165626997 90.8011451547027 247.45381185234336 90.62984270033792 235.53706286874626 80.73115907535136 233.31285906178422 81.01581726323582 228.33416426779323 76.61739022981932 223.50697342751607 70.40187333702971 222.38697246775118 65.84253906611947 219.66793423770307 64.67974312501589 219.1549555658115 63.81533487741003 217.41659250192095 63.78308773064509 216.53377353431154 63.73027644309831 216.2170645343736 63.739659902377056 216.07204247835926 61.252258291096744 210.74414540285295 62.086321171942764 205.35315217057615 68.85111042006554 207.30890137622984 73.0023051634685 201.09229826905573 79.5678278350773 198.737394193226 81.00249598498925 193.63395586001621 87.71758111509281 190.23896806234757 94.61879067370333 201.17462749481766 94.38529717512952 207.30896861462043 98.85869614167447 210.88199245277667 104.96978563844674 211.9542603296991 126.27342531689077 221.58274655823948 133.53932545733946 224.19319531190519 133.32467599820478 227.48784514792433 145.29252035195364 230.49865756610913 149.47634874447962 236.75794942290585 151.17361931135687 246.32498331537977 148.30372878867738 248.31632987536094 144.44435502349546 245.75844938863654 136.9924420853315 249.4242259245147 133.08343525764508 248.08858492380358 134.84056791170258 242.17318436019832 127.38768078352919 242.89188060772693 118.6954062260693 252.11055653153838 118.65893214051626 252.33366311475007 107.21937389956503 258.47092025568355 106.58898046822323 267.3139275257224 111.63487136234457 271.9484529112009 109.57227738131651 280.1626147773205 112.61280567545673 285.3639993104098 105.19454104161875 285.4367144244975 103.9392603057974 274.59774449760744 97.34185018138315 276.85662867846725 97.16399930427175 280.68390653043235 96.11405567252417 281.01026518516215 95.14967520449976 280.93643739061315 95.18447909703023 280.4347274591365 93.45960115498288 275.86026568658235 97.43291578600235 272.80410819998883 99.08956950844201 265.4492561145172 94.56997462322747 261.75889631888805 89.46041945361782 264.8924953073203 81.18620958269747 262.4784352451651 80.63505680187473 262.58961262403585 Z" stroke="#000" stroke-width="inherit" opacity="1" class="highcharts-point" data-constituency="KA_3" data-const-name="Bagalkot" data-const-id="KA_3" data-won-alliance="NDA"></path>
            <path fill="#FF9650" d="M 233.86502836363093 86.90301843290213 L 237.10155390327705 96.30208081721358 237.70757226335013 105.32036631612684 240.86848344570004 108.59625076912667 238.3822721055132 113.07932091361522 232.2577533826989 118.21081855634678 233.16371152059185 125.04387907356988 227.65318839539594 126.83315075432202 226.44333828793913 134.75246567427834 243.06430515576866 139.84307340553715 235.42010714300596 144.98340883521456 231.19879967179472 145.13991673519666 227.24085389643673 148.97039950689407 227.14750110562136 149.37237836388488 218.488688545389 145.85233525605588 214.90497895102393 151.08277257024054 214.41292101553273 157.1408148005611 203.5168204506442 157.35006110005352 205.0609319638131 150.53296032809197 199.4677449439689 147.69292600718876 199.1817580637495 141.6480359680311 207.2192822668636 135.29037495920784 206.73452424111966 131.55828688054743 196.1904511543504 127.24541862661098 190.31689841941804 130.61214484689967 179.80171283448848 128.77199953161073 174.9359273450873 137.59095264292745 179.98656891078681 143.73608486438383 176.82620782098672 147.2875256672677 169.61261215087495 150.7180028971165 161.17270162527612 151.76506510356944 156.6315952622282 149.1218545091489 152.6998983875068 142.19298055513417 151.45526758559834 133.92039452013407 158.02248932349394 130.57522476902383 161.80791269057798 128.87217030724509 164.44873516524362 122.85416496704258 169.88729415651056 123.05660018267008 175.8641439825955 126.45892819308008 182.34401499769032 118.28395420894066 179.12724258655481 113.46443303828767 188.63438264648852 113.79018781501296 193.4275444554308 104.03582177204757 193.56281379138906 94.11572149947054 200.56903944912622 96.30210983147437 210.61352506665716 87.82775345111443 214.14010228466375 78.896917743016 214.5585529187864 78.36015875271863 217.85323412892902 76.94204481831974 223.7543397390206 79.73841180356615 224.2503238680042 86.35922776493182 228.14600166407814 89.02434545639971 233.86502836363093 86.90301843290213 Z" stroke="#000" stroke-width="inherit" opacity="1" class="highcharts-point" data-constituency="KA_7" data-const-name="Bidar" data-const-id="KA_7" data-won-alliance="NDA"></path>
            <path fill="#FF9650" d="M 198.7247623336742 251.82637227036824 L 201.08636598752977 253.2885060335012 198.60887298063147 266.35478475717844 199.6532871458732 283.5115763692549 192.25256442343908 285.02447639100103 179.95425814340516 279.26094304043454 170.3190874081979 279.34479843314284 162.15905542168957 286.03437776511703 153.52222892063088 287.1811942983196 145.81157253203267 296.22852117330206 141.7061425192885 293.28228420861944 135.88560186260804 297.89935499445994 125.68568542588535 299.8895995268568 121.60174443846519 289.70895927253775 122.51137968702244 281.98765800043213 117.26085604441408 278.7755685038886 122.23084348070937 268.18634285871127 126.90274627268636 264.26592636532035 131.73841563508034 257.2796859141838 124.13994043772125 255.6359310667423 118.61411749776194 252.6078001087774 118.6954062260693 252.11055653153838 127.38768078352919 242.89188060772693 134.84056791170258 242.17318436019832 133.08343525764508 248.08858492380358 136.9924420853315 249.4242259245147 144.44435502349546 245.75844938863654 148.30372878867738 248.31632987536094 157.88633963616317 249.23687488975088 165.42198666686866 236.50012705711558 168.6867992661476 233.52542119201104 172.95456619643193 236.40687676670873 175.76167253132434 232.1203624712245 181.42218643116055 232.4075152621033 183.95881511396274 238.31241860600076 183.41207731299357 244.20112891100922 190.7070671822467 249.01810324667161 198.7247623336742 251.82637227036824 Z" stroke="#000" stroke-width="inherit" opacity="1" class="highcharts-point" data-constituency="KA_8" data-const-name="Koppal" data-const-id="KA_8" data-won-alliance="NDA"></path>
            <path fill="#FF9650" d="M 199.6532871458732 283.5115763692549 L 201.47046986616994 287.23839224617234 206.80746849903144 289.50885862755 207.14616176928195 299.89209839226095 204.23145275631035 306.8423102470121 194.56959979745787 307.89475281598243 188.47055906717955 306.85795729115057 183.0673893057957 302.6821767020833 180.37085391528709 309.95080422402555 174.83308023835795 316.42960040790325 176.4257095938817 321.5712970866825 170.32311987114792 330.2869925793335 169.53925943450358 334.6693983580624 163.54152627271617 338.7402483375945 157.71293528138034 337.39394632546583 150.87459426007715 329.90285828573064 141.64268482840524 329.33878128242395 142.7083155239034 325.97118233002163 134.06500699795575 318.0286949053923 132.5652533148303 314.66653355883284 121.43000750842683 317.9470455757854 112.63851180555196 326.799240423725 106.48036334721529 322.08086711141044 108.59079806630722 316.4322907865396 121.30368604950246 302.59467147301143 125.68568542588535 299.8895995268568 135.88560186260804 297.89935499445994 141.7061425192885 293.28228420861944 145.81157253203267 296.22852117330206 153.52222892063088 287.1811942983196 162.15905542168957 286.03437776511703 170.3190874081979 279.34479843314284 179.95425814340516 279.26094304043454 192.25256442343908 285.02447639100103 199.6532871458732 283.5115763692549 Z" stroke="#000" stroke-width="inherit" opacity="1" class="highcharts-point" data-constituency="KA_9" data-const-name="Bellary" data-const-id="KA_9" data-won-alliance="NDA"></path>
            <path fill="#FF9650" d="M 125.68568542588535 299.8895995268568 L 121.30368604950246 302.59467147301143 108.59079806630722 316.4322907865396 106.48036334721529 322.08086711141044 112.63851180555196 326.799240423725 116.36344518278023 332.6770218349589 115.25494612129859 342.3045474772493 107.97219728584491 343.5801711352952 104.84257264907686 347.57374176233674 103.56302168442575 353.89667505487904 97.73755262699552 357.93180970874556 86.5612894242094 351.65434955748447 84.97963675975122 344.03637871039956 75.55081839272876 335.14556336608644 65.00256942693954 332.8539287088261 63.72374892747224 328.9299010477679 66.35542705196609 324.00020894889394 66.31687785332129 314.9278065535745 75.61981041443126 318.0537813552031 79.39672026368359 316.88074880207853 85.58062419145394 318.79657744872185 89.09525322251227 315.60198775605784 87.13968969944547 306.85496610489076 90.93132870387005 301.99019930509894 89.55396297469127 288.85340103894976 91.6408788203745 283.1427444962769 95.05305307470026 282.3295155646305 95.14967520449976 280.93643739061315 96.11405567252417 281.01026518516215 97.16399930427175 280.68390653043235 97.34185018138315 276.85662867846725 103.9392603057974 274.59774449760744 105.19454104161875 285.4367144244975 112.61280567545673 285.3639993104098 109.57227738131651 280.1626147773205 111.63487136234457 271.9484529112009 106.58898046822323 267.3139275257224 107.21937389956503 258.47092025568355 118.65893214051626 252.33366311475007 118.61411749776194 252.6078001087774 124.13994043772125 255.6359310667423 131.73841563508034 257.2796859141838 126.90274627268636 264.26592636532035 122.23084348070937 268.18634285871127 117.26085604441408 278.7755685038886 122.51137968702244 281.98765800043213 121.60174443846519 289.70895927253775 125.68568542588535 299.8895995268568 Z" stroke="#000" stroke-width="inherit" opacity="1" class="highcharts-point" data-constituency="KA_10" data-const-name="Haveri" data-const-id="KA_10" data-won-alliance="NDA"></path>
            <path fill="#FF9650" d="M 95.18447909703023 280.4347274591365 L 95.05305307470026 282.3295155646305 91.6408788203745 283.1427444962769 89.55396297469127 288.85340103894976 90.93132870387005 301.99019930509894 87.13968969944547 306.85496610489076 89.09525322251227 315.60198775605784 85.58062419145394 318.79657744872185 79.39672026368359 316.88074880207853 75.61981041443126 318.0537813552031 66.31687785332129 314.9278065535745 67.0329497759579 304.2418194275848 57.52701362505094 304.6714244536163 49.988338586679205 300.14488279434465 55.40508066641914 292.22028336027523 54.712545807733775 288.9631967398422 43.37002509243169 280.1545842594423 48.95723713618259 275.1850135032863 51.83452680391113 267.95295168033743 51.9422596020907 267.860133681357 59.346891288489836 265.1789086623586 68.18502204642026 266.8499990158989 68.7673771730651 263.81208833161406 80.3620865803716 262.64468790706263 81.18620958269747 262.4784352451651 89.46041945361782 264.8924953073203 94.56997462322747 261.75889631888805 99.08956950844201 265.4492561145172 97.43291578600235 272.80410819998883 93.45960115498288 275.86026568658235 95.18447909703023 280.4347274591365 Z" stroke="#000" stroke-width="inherit" opacity="1" class="highcharts-point" data-constituency="KA_11" data-const-name="Dharwad" data-const-id="KA_11" data-won-alliance="NDA"></path>
            <path fill="#FF9650" d="M 51.86342174343661 267.92805676723395 L 51.83452680391113 267.95295168033743 48.95723713618259 275.1850135032863 43.37002509243169 280.1545842594423 54.712545807733775 288.9631967398422 55.40508066641914 292.22028336027523 49.988338586679205 300.14488279434465 57.52701362505094 304.6714244536163 67.0329497759579 304.2418194275848 66.31687785332129 314.9278065535745 66.35542705196609 324.00020894889394 63.72374892747224 328.9299010477679 65.00256942693954 332.8539287088261 60.128820499308915 339.3424252499662 55.189479126685335 340.8963846041085 56.25012468622028 347.4232159311305 56.0602514641597 361.01339953124926 42.45092413866968 360.83146198961146 39.04327806951552 363.9692059370783 37.25401427492134 370.04718238676196 39.11866396126063 377.675067470272 33.36175774728614 381.6236898441128 28.868557245093854 377.33703625398374 23.995225376777565 357.65736453500637 20.87833680562517 349.0720829776812 12.871847568400094 334.8234015622063 11.777180136149552 327.87386612745127 1.3372353419477616 323.6100608929079 0 316.1605994558214 6.203717276800907 312.11180131107847 9.941463630272844 312.5770846288928 14.051820402850256 306.2761126157607 12.607828582717465 302.0969679321428 15.375041526699528 296.54962418328574 12.29911069619974 290.455496382887 16.707867095421765 289.206978507547 10.916029397718729 275.95082484081433 10.83906761660374 264.843865149009 2.074883105889912 265.11064957138274 2.671288451800992 260.26185944358815 8.268237523992525 256.44510632217055 13.337935884451996 259.1039705810131 17.040013674863417 257.49788654491397 24.7173213101608 260.376281943721 36.62082018295828 262.42024484262515 39.86312978927602 259.4295445820014 40.95456945973621 244.52636808859765 50.910312243402 242.25499374153497 50.682724404842126 248.2978210905122 47.80793342036266 252.6679674986059 47.47020823165971 259.74258439435044 52.76030810124554 263.0850809706882 51.86342174343661 267.92805676723395 Z" stroke="#000" stroke-width="inherit" opacity="1" class="highcharts-point" data-constituency="KA_12" data-const-name="Uttara Kannada" data-const-id="KA_12" data-won-alliance="NDA"></path>
            <path fill="#FF9650" d="M 163.54152627271617 338.7402483375945 L 160.080817120916 346.1852401504082 147.8300704924545 349.24900844264727 142.85421854742776 345.8117250157925 139.28199534500675 349.2184066883045 137.9334436697481 359.4319536488101 133.21767264362495 361.7979616832421 131.33340122500292 383.6499870488079 125.25877367889628 389.2545552069186 120.9216860036199 389.4273546313584 117.36061132042657 378.5126371333783 116.44746352541792 370.0166121487308 101.10262519584974 372.7665078089436 96.38176557148407 370.1274066193353 88.55322327047186 368.9062390215363 97.73755262699552 357.93180970874556 103.56302168442575 353.89667505487904 104.84257264907686 347.57374176233674 107.97219728584491 343.5801711352952 115.25494612129859 342.3045474772493 116.36344518278023 332.6770218349589 112.63851180555196 326.799240423725 121.43000750842683 317.9470455757854 132.5652533148303 314.66653355883284 134.06500699795575 318.0286949053923 142.7083155239034 325.97118233002163 141.64268482840524 329.33878128242395 150.87459426007715 329.90285828573064 157.71293528138034 337.39394632546583 163.54152627271617 338.7402483375945 Z" stroke="#000" stroke-width="inherit" opacity="1" class="highcharts-point" data-constituency="KA_13" data-const-name="Davanagere" data-const-id="KA_13" data-won-alliance="NDA"></path>
            <path fill="#FF9650" d="M 97.73755262699552 357.93180970874556 L 88.55322327047186 368.9062390215363 96.38176557148407 370.1274066193353 101.10262519584974 372.7665078089436 116.44746352541792 370.0166121487308 117.36061132042657 378.5126371333783 120.9216860036199 389.4273546313584 117.21606135708579 388.9477565129807 111.03172427001603 392.2003703419894 94.54456625828698 392.80775410553963 88.16981758628599 396.84121728029544 89.0387185882814 401.45668717344006 84.61070924611526 404.46825681223123 77.99518721540716 403.2454362050198 76.66346749484046 408.49307318423547 69.11504889650318 412.9099044931602 64.17050655041913 406.57382023079157 63.0537111478361 401.26424278013985 59.09513534193402 401.1550130450707 52.849461069467544 405.16054398975587 45.24219050282286 401.318040786542 37.8996314158004 399.3682181921798 33.36175774728614 381.6236898441128 39.11866396126063 377.675067470272 37.25401427492134 370.04718238676196 39.04327806951552 363.9692059370783 42.45092413866968 360.83146198961146 56.0602514641597 361.01339953124926 56.25012468622028 347.4232159311305 55.189479126685335 340.8963846041085 60.128820499308915 339.3424252499662 65.00256942693954 332.8539287088261 75.55081839272876 335.14556336608644 84.97963675975122 344.03637871039956 86.5612894242094 351.65434955748447 97.73755262699552 357.93180970874556 Z" stroke="#000" stroke-width="inherit" opacity="1" class="highcharts-point" data-constituency="KA_14" data-const-name="Shimoga" data-const-id="KA_14" data-won-alliance="NDA"></path>
            <path fill="#1EB4FF" d="M 138.67591818650308 392.772870688028 L 143.9196786136107 396.09556529246385 147.90430561007955 403.2650552221604 152.9252326433061 405.12367108830443 157.26540440143137 413.9222777587585 152.40783988958032 419.83018824823245 154.15592654081658 430.70905340391994 161.16891506039 434.6057853540351 160.65121192016673 437.67139055184776 170.68431802742492 439.8386655545992 171.67235562373963 443.7294757734339 167.96104085587476 454.3742817452597 160.73944058612972 457.949247416421 156.81210786354947 454.5153005684658 151.47669779686666 457.75689182325294 153.658383662098 463.6641949677682 152.02689682195737 468.0096091950451 147.21678999471277 469.83295233144827 138.28613342535954 476.0221246236194 132.2949495807874 472.9519333026779 126.7835986448195 473.900092015494 124.95375603502308 468.1126170591559 126.78539057686713 464.3436590575171 124.1975592548806 456.34272434946126 116.34048539216072 464.35782920144885 109.26502120868946 463.79350985465 108.47637330065167 464.21813923105424 103.01219027388898 457.7281693067869 103.6022061186565 453.7485995995054 99.13202939728636 449.8493110032993 105.14041484832211 441.9574932971593 111.50215854368474 442.0298557971214 110.83304097497492 431.8833666234474 117.93094556055217 427.2095302975457 131.9662659164449 425.7589936129122 131.32958876400042 421.38946170317405 138.40859602476175 414.4010442416597 129.9032179369416 414.63296804605613 126.45291037540572 411.5497056116774 118.48773106593858 411.99739909894066 119.70810570085557 404.6823602007248 123.67029720388781 400.8746092060311 128.54505963472488 400.45123826404745 130.28455769817432 396.70555720938626 138.67591818650308 392.772870688028 Z" stroke="#000" stroke-width="inherit" opacity="1" class="highcharts-point" data-constituency="KA_16" data-const-name="Hassan" data-const-id="KA_16" data-won-alliance="UPA"></path>
            <path fill="#888888" d="M 184.86842640825557 444.09232458899083 L 191.46597466104112 457.3119926652246 202.28707842078535 461.64785510639086 204.27535502366817 474.27693426029026 206.4817538590118 480.4406947257043 214.69971675231957 480.2178389246752 218.29794986552946 490.86969569303005 207.71989974285313 490.7358890388214 207.98488310835774 494.0815393572434 196.49610970700118 495.1493218104712 195.1161805731509 488.2015441318656 192.24585963700738 484.4976502855014 185.44018530019596 484.4450918765642 178.49537477756368 490.0450123455938 178.5639294425008 489.38106344091995 172.95911892006242 484.90606971247354 163.6391643662731 481.1382705799947 160.6001789788832 483.9355717662822 147.9828416656744 483.91445023582486 144.61406083559828 477.83543817747767 138.28613342535954 476.0221246236194 147.21678999471277 469.83295233144827 152.02689682195737 468.0096091950451 153.658383662098 463.6641949677682 151.47669779686666 457.75689182325294 156.81210786354947 454.5153005684658 160.73944058612972 457.949247416421 167.96104085587476 454.3742817452597 171.67235562373963 443.7294757734339 174.50933273342775 440.4692948172521 184.86842640825557 444.09232458899083 Z" stroke="#000" stroke-width="inherit" opacity="1" class="highcharts-point" data-constituency="KA_20" data-const-name="Mandya" data-const-id="KA_20" data-won-alliance="OTH"></path>
            <path fill="#FF9650" d="M 108.9123973065113 463.98336046673256 L 109.26502120868946 463.79350985465 116.34048539216072 464.35782920144885 124.1975592548806 456.34272434946126 126.78539057686713 464.3436590575171 124.95375603502308 468.1126170591559 126.7835986448195 473.900092015494 132.2949495807874 472.9519333026779 138.28613342535954 476.0221246236194 144.61406083559828 477.83543817747767 147.9828416656744 483.91445023582486 160.6001789788832 483.9355717662822 163.6391643662731 481.1382705799947 172.95911892006242 484.90606971247354 178.5639294425008 489.38106344091995 178.5013157937499 489.98747094533206 173.2961075111838 496.13235375838946 175.1439198415295 499.12405176729396 163.81662988836698 503.23660846348065 164.09377070454028 495.4175600154548 160.4072989602217 492.00068963197384 153.7652875421508 500.94237267416423 146.82209184658916 497.7742126776803 140.56767247287496 503.6120826982876 141.8035413460691 508.07184066848606 136.71931625458257 513.1496337410288 131.41794906217794 515.7136179980371 124.34506100875305 515.7203230960399 117.5078933946958 512.2639880078411 115.52687772658481 506.19909099656803 110.22313615798882 507.0274261340047 104.65686397862021 501.6186046728157 100.70862100957545 501.06153886033155 94.97828007131051 493.2397093631307 94.5811049265699 492.2525943918673 90.78630618514396 491.5474856683916 87.24040497321084 485.166480881764 89.66256147920991 477.7394673409808 103.71690733783807 477.61266874329056 107.65695967627796 475.5254888366279 107.24894647453802 466.0244128324545 108.53679064568138 464.45439760265043 108.9123973065113 463.98336046673256 Z" stroke="#000" stroke-width="inherit" opacity="1" class="highcharts-point" data-constituency="KA_21" data-const-name="Mysore" data-const-id="KA_21" data-won-alliance="NDA"></path>
            <path fill="#FF9650" d="M 218.29794986552946 490.86969569303005 L 225.928462433855 492.57311942331336 228.43485358923013 495.08476105542616 231.71465961368006 498.5699440362139 237.99308740389444 497.80253598249857 247.13039723800665 500.97139168190733 249.0255204207853 503.57953573527226 243.79258185506268 510.27963989835075 242.1276389155853 515.0206777773355 241.83882954553698 515.1267840496305 230.3357725637247 515.7180799097966 225.5437914965768 527.8064336333541 219.24033657200468 527.2622606435391 213.52414739011914 524.3397123534565 204.12677592821757 527.0138319951083 197.4588520405417 524.3365218722613 190.37004491413293 525.6833077101969 185.67312754764652 534.7479949381357 187.09401679909513 537.9290459286973 170.63702560799737 538.0579551816802 166.96188761896198 537.2231185937992 163.60313249218478 531.487912500837 158.13927723480947 534.1110976972149 156.83599822585535 528.0061525602962 152.13557297562375 529.3123388230185 141.89210977156011 520.3502476193062 136.74698993046198 521.208990085011 136.71931625458257 513.1496337410288 141.8035413460691 508.07184066848606 140.56767247287496 503.6120826982876 146.82209184658916 497.7742126776803 153.7652875421508 500.94237267416423 160.4072989602217 492.00068963197384 164.09377070454028 495.4175600154548 163.81662988836698 503.23660846348065 175.1439198415295 499.12405176729396 173.2961075111838 496.13235375838946 178.5013157937499 489.98747094533206 178.49537477756368 490.0450123455938 185.44018530019596 484.4450918765642 192.24585963700738 484.4976502855014 195.1161805731509 488.2015441318656 196.49610970700118 495.1493218104712 207.98488310835774 494.0815393572434 207.71989974285313 490.7358890388214 218.29794986552946 490.86969569303005 Z" stroke="#000" stroke-width="inherit" opacity="1" class="highcharts-point" data-constituency="KA_22" data-const-name="Chamrajnagar" data-const-id="KA_22" data-won-alliance="NDA"></path>
            <path fill="#1EB4FF" d="M 210.3220167009853 431.71127194237135 L 212.12789144009017 441.10768886898427 214.89528396490692 445.54267453913246 218.82114531830499 445.8688523929282 220.060562177471 453.0521736931379 224.38599294324118 452.4968860070198 231.67198232375915 462.02811649235605 234.0729769305274 452.806173794087 229.7778549608699 447.7100171317268 231.85924282819877 444.78052065554436 231.49594082921925 445.52556522922 236.3175907625491 452.0297213701133 240.68669221797293 451.51432771658034 241.26755332443759 451.32553347173723 246.25174271694559 452.532405329602 248.28676676244046 448.31364532052646 252.8944154668664 453.01100412036146 247.81781358556228 464.6064193080158 237.51349380473852 469.0872218792863 236.2204079544634 476.7774041863805 239.3840330683218 478.7767047024285 237.9534095032307 487.1083068871475 228.43485358923013 495.08476105542616 225.928462433855 492.57311942331336 218.29794986552946 490.86969569303005 214.69971675231957 480.2178389246752 206.4817538590118 480.4406947257043 204.27535502366817 474.27693426029026 202.28707842078535 461.64785510639086 191.46597466104112 457.3119926652246 184.86842640825557 444.09232458899083 190.38615291221788 438.1986882102474 194.53390264983352 437.9559890845896 210.3220167009853 431.71127194237135 Z" stroke="#000" stroke-width="inherit" opacity="1" class="highcharts-point" data-constituency="KA_23" data-const-name="Bangalore Rural" data-const-id="KA_23" data-won-alliance="UPA"></path>
            <path fill="#FF9650" d="M 248.0167978847312 436.88010713480935 L 247.3631798942621 436.89030088946384 246.41892085461365 436.7819315754551 245.30953769128953 438.0927324241691 239.94884666275797 436.8858441132574 240.2399600243918 439.2212703017261 242.03507400199973 445.102981295168 232.86671744454264 444.94790367869416 232.23691243718733 444.83558389875736 231.85083235987253 444.79776722343496 231.85924282819877 444.78052065554436 229.7778549608699 447.7100171317268 234.0729769305274 452.806173794087 231.67198232375915 462.02811649235605 224.38599294324118 452.4968860070198 220.060562177471 453.0521736931379 218.82114531830499 445.8688523929282 227.98066488674212 445.5356253355162 229.43022702517686 437.7927732531721 238.14685850726437 438.0548928606728 235.4543317507001 432.59766718701474 238.3776173612431 430.2910151881254 245.72731280811277 431.44208797732324 247.9329959911687 436.5368557452488 248.0167978847312 436.88010713480935 Z" stroke="#000" stroke-width="inherit" opacity="1" class="highcharts-point" data-constituency="KA_24" data-const-name="Bangalore North" data-const-id="KA_24" data-won-alliance="NDA"></path>
            <path fill="#FF9650" d="M 248.0167978847312 436.88010713480935 L 248.33766925164804 438.1945813012823 248.28676676244046 448.31364532052646 246.25174271694559 452.532405329602 241.26755332443759 451.32553347173723 240.89548294710937 451.44646084591164 240.3165366518232 447.408688088011 233.181614289829 445.0040787486543 232.86671744454264 444.94790367869416 242.03507400199973 445.102981295168 240.2399600243918 439.2212703017261 239.94884666275797 436.8858441132574 245.30953769128953 438.0927324241691 246.41892085461365 436.7819315754551 247.3631798942621 436.89030088946384 248.0167978847312 436.88010713480935 Z" stroke="#000" stroke-width="inherit" opacity="1" class="highcharts-point" data-constituency="KA_25" data-const-name="Bangalore Central" data-const-id="KA_25" data-won-alliance="NDA"></path>
            <path fill="#FF9650" d="M 240.89548294710937 451.44646084591164 L 240.68669221797293 451.51432771658034 236.3175907625491 452.0297213701133 231.49594082921925 445.52556522922 231.85083235987253 444.79776722343496 232.23691243718733 444.83558389875736 233.181614289829 445.0040787486543 240.3165366518232 447.408688088011 240.89548294710937 451.44646084591164 Z" stroke="#000" stroke-width="inherit" opacity="1" class="highcharts-point" data-constituency="KA_26" data-const-name="Bangalore South" data-const-id="KA_26" data-won-alliance="NDA"></path>
            <path fill="#FF9650" d="M 272.5858302746412 391.09275963896476 L 268.5471274702337 398.5105056410438 261.86452551168605 401.87213756052455 252.59716787099674 403.0278620029942 251.4125590192405 408.2484032294957 253.55927136582028 412.7252317104683 251.25581325342503 426.4747708022164 255.3916730584371 428.4331446415826 261.7357434706409 427.68647248887953 261.1339329159849 435.7082698736376 257.4318507687704 437.42638886721807 254.20072741597025 451.3774328308562 255.1437343912032 453.09817387412227 252.8944154668664 453.01100412036146 248.28676676244046 448.31364532052646 248.33766925164804 438.1945813012823 247.9329959911687 436.5368557452488 245.72731280811277 431.44208797732324 238.3776173612431 430.2910151881254 235.4543317507001 432.59766718701474 238.14685850726437 438.0548928606728 229.43022702517686 437.7927732531721 227.98066488674212 445.5356253355162 218.82114531830499 445.8688523929282 214.89528396490692 445.54267453913246 212.12789144009017 441.10768886898427 210.3220167009853 431.71127194237135 209.27525423567798 425.77895150333774 212.1052739249093 423.143563024804 219.44319677485484 421.8680114019414 220.16643936162802 413.562474625728 223.043894245886 408.1980631973913 220.98533954183523 402.7520182366995 227.37293074381228 397.99406426279387 246.21577083791948 389.4690390836688 258.59839252667774 383.00806430798815 267.3605916003009 383.70072075510785 271.7535165353911 385.9284853985514 272.5858302746412 391.09275963896476 Z" stroke="#000" stroke-width="inherit" opacity="1" class="highcharts-point" data-constituency="KA_27" data-const-name="Chikkaballapura" data-const-id="KA_27" data-won-alliance="NDA"></path>
            <path fill="#FF9650" d="M 227.14750110562136 149.37237836388488 L 227.1244662046447 149.47157193740804 222.42758225679515 159.13341919073258 222.15879586251168 164.65219522483977 227.99810224043426 166.92475632890955 230.48852693811008 173.44169956584648 227.38078724952288 180.0698430971642 228.62877214702357 187.66667508270038 224.90211793027808 196.6665678020309 227.42870280019622 200.39689691111786 221.5099472815174 208.71471257158032 212.6405140228042 209.80651184349443 208.29038837010444 204.35978343416002 208.91762844949395 199.82999779627775 205.65293611024995 196.59769164515828 217.0211530624338 191.7240680573567 196.5792148737209 185.4896348606503 190.32748795793322 186.19752333343456 189.83473921797827 181.31558472417362 174.96571584511776 188.83191009134595 163.97892480935406 191.01959486684166 160.11358353133366 193.73428650166235 154.1299085767995 189.86840338750494 154.32046680418966 183.71771298675986 158.59208362268757 183.1299426363359 158.03323538341726 167.47488046767575 153.7458440902203 162.31613624787906 145.51949775175058 164.1243393614208 137.4572875834674 157.66034224087286 133.98435277808267 151.63144973710632 144.51086682687676 149.540161067243 154.84977676933252 152.9981771125249 156.6315952622282 149.1218545091489 161.17270162527612 151.76506510356944 169.61261215087495 150.7180028971165 176.82620782098672 147.2875256672677 179.98656891078681 143.73608486438383 174.9359273450873 137.59095264292745 179.80171283448848 128.77199953161073 190.31689841941804 130.61214484689967 196.1904511543504 127.24541862661098 206.73452424111966 131.55828688054743 207.2192822668636 135.29037495920784 199.1817580637495 141.6480359680311 199.4677449439689 147.69292600718876 205.0609319638131 150.53296032809197 203.5168204506442 157.35006110005352 214.41292101553273 157.1408148005611 214.90497895102393 151.08277257024054 218.488688545389 145.85233525605588 227.14750110562136 149.37237836388488 Z" stroke="#000" stroke-width="inherit" opacity="1" class="highcharts-point" data-constituency="KA_5" data-const-name="Gulbarga" data-const-id="KA_5" data-won-alliance="NDA" data-z-index="0"></path>
            <path fill="#FF9650" d="M 138.67591818650308 392.772870688028 L 130.28455769817432 396.70555720938626 128.54505963472488 400.45123826404745 123.67029720388781 400.8746092060311 119.70810570085557 404.6823602007248 118.48773106593858 411.99739909894066 126.45291037540572 411.5497056116774 129.9032179369416 414.63296804605613 138.40859602476175 414.4010442416597 131.32958876400042 421.38946170317405 131.9662659164449 425.7589936129122 117.93094556055217 427.2095302975457 110.83304097497492 431.8833666234474 111.50215854368474 442.0298557971214 105.14041484832211 441.9574932971593 99.13202939728636 449.8493110032993 96.34873579776175 445.41530360368336 97.0228035398869 440.84726813364426 86.98940727866041 431.8696320755162 78.67770742733906 435.420857751743 74.98357773299655 432.4555979212316 71.51813509526247 435.53638680614966 56.83891513387795 434.0668973313476 47.1861192028284 437.55217954201623 42.25226156666869 424.6846360955995 39.40786160963756 403.63466676347866 45.24219050282286 401.318040786542 52.849461069467544 405.16054398975587 59.09513534193402 401.1550130450707 63.0537111478361 401.26424278013985 64.17050655041913 406.57382023079157 69.11504889650318 412.9099044931602 76.66346749484046 408.49307318423547 77.99518721540716 403.2454362050198 84.61070924611526 404.46825681223123 89.0387185882814 401.45668717344006 88.16981758628599 396.84121728029544 94.54456625828698 392.80775410553963 111.03172427001603 392.2003703419894 117.21606135708579 388.9477565129807 120.9216860036199 389.4273546313584 125.25877367889628 389.2545552069186 131.33340122500292 383.6499870488079 135.6858246823364 385.83496804340524 138.67591818650308 392.772870688028 Z" stroke="#000" stroke-width="inherit" opacity="1" class="highcharts-point" data-constituency="KA_15" data-const-name="Udupi Chikmagalur" data-const-id="KA_15" data-won-alliance="NDA" data-z-index="0"></path>
            <path fill="#FF9650" d="M 99.13202939728636 449.8493110032993 L 103.6022061186565 453.7485995995054 103.01219027388898 457.7281693067869 108.47637330065167 464.21813923105424 108.9123973065113 463.98336046673256 108.53679064568138 464.45439760265043 107.24894647453802 466.0244128324545 107.65695967627796 475.5254888366279 103.71690733783807 477.61266874329056 89.66256147920991 477.7394673409808 82.19275842149304 477.6957913631129 75.2033150272526 469.0975304385235 69.17900039559802 465.67844677792806 64.78246146401538 466.75175149796365 61.74435056785084 463.13910159824275 61.8864683608168 458.295543056983 52.30142094781775 460.4215974530149 48.528182350086645 451.2163834448886 47.1861192028284 437.55217954201623 56.83891513387795 434.0668973313476 71.51813509526247 435.53638680614966 74.98357773299655 432.4555979212316 78.67770742733906 435.420857751743 86.98940727866041 431.8696320755162 97.0228035398869 440.84726813364426 96.34873579776175 445.41530360368336 99.13202939728636 449.8493110032993 Z" stroke="#000" stroke-width="inherit" opacity="1" class="highcharts-point" data-constituency="KA_17" data-const-name="Dakshina Kannada" data-const-id="KA_17" data-won-alliance="NDA" data-z-index="0"></path>
            <path fill="#FF9650" d="M 152.9252326433061 405.12367108830443 L 147.90430561007955 403.2650552221604 143.9196786136107 396.09556529246385 138.67591818650308 392.772870688028 135.6858246823364 385.83496804340524 131.33340122500292 383.6499870488079 133.21767264362495 361.7979616832421 137.9334436697481 359.4319536488101 139.28199534500675 349.2184066883045 142.85421854742776 345.8117250157925 147.8300704924545 349.24900844264727 160.080817120916 346.1852401504082 163.54152627271617 338.7402483375945 169.53925943450358 334.6693983580624 170.32311987114792 330.2869925793335 176.4257095938817 321.5712970866825 174.83308023835795 316.42960040790325 180.37085391528709 309.95080422402555 187.64676372155964 311.2181570503378 185.5830555000027 323.2949294047288 181.3620465431176 330.7885131153032 180.66648884479687 336.018138342846 187.64211138590068 344.20607980184593 192.6733284173725 360.01101427618886 200.23959265767996 360.03695158214765 207.16950727395295 353.40529959014947 215.80073233846102 357.54750481745947 220.79564908453256 357.9031387158293 223.5971398317352 353.95698632174754 230.6734699065063 358.5715144682982 231.4243363596184 364.535577335077 223.26234245359908 365.0053295994429 222.84857227017133 375.65015991264266 225.2683734399466 383.2265039951338 220.48794097004364 383.12545230924275 218.11826539207965 374.48138208594077 205.9959727966894 376.3013854741905 205.0955668023114 373.3336588913299 198.50241346779228 372.59734362981123 198.2293480437535 364.54610126764544 193.02902581748796 368.6536749198722 199.33630807035354 381.20241464849767 194.81149961982817 388.9874728217263 197.70179823781925 394.2092992741027 199.85621877019508 407.09408359396394 191.37059846420112 410.81771559153214 190.36039442217125 401.4465424252275 180.70600394023714 391.45631683474835 175.20412764060978 396.0796812414877 167.72366945376896 395.98616367426536 163.58320903349815 401.65589500497276 152.9252326433061 405.12367108830443 Z" stroke="#000" stroke-width="inherit" opacity="1" class="highcharts-point" data-constituency="KA_18" data-const-name="Chitradurga" data-const-id="KA_18" data-won-alliance="NDA" data-z-index="0"></path>
            <path fill="#FF9650" d="M 148.30372878867738 248.31632987536094 L 151.17361931135687 246.32498331537977 149.47634874447962 236.75794942290585 145.29252035195364 230.49865756610913 152.94293732927872 226.41414704280555 149.42273176255463 222.53406260108198 151.55501447293636 213.04904942931338 158.53926073314094 212.30624107690835 156.36393664878474 197.94586159952485 160.11358353133366 193.73428650166235 163.97892480935406 191.01959486684166 174.96571584511776 188.83191009134595 189.83473921797827 181.31558472417362 190.32748795793322 186.19752333343456 196.5792148737209 185.4896348606503 217.0211530624338 191.7240680573567 205.65293611024995 196.59769164515828 208.91762844949395 199.82999779627775 208.29038837010444 204.35978343416002 212.6405140228042 209.80651184349443 215.9915692042146 214.18806053243392 224.59137001572853 216.89420262896041 229.30105811325222 215.87129248600095 236.7601225593046 218.57424129179847 229.72633854564708 224.49356175886032 229.67462781812466 233.5288852225235 231.22687834894342 246.6619964266568 213.5976020542792 244.20088854096815 201.95347284667884 247.45179577108925 198.7247623336742 251.82637227036824 190.7070671822467 249.01810324667161 183.41207731299357 244.20112891100922 183.95881511396274 238.31241860600076 181.42218643116055 232.4075152621033 175.76167253132434 232.1203624712245 172.95456619643193 236.40687676670873 168.6867992661476 233.52542119201104 165.42198666686866 236.50012705711558 157.88633963616317 249.23687488975088 148.30372878867738 248.31632987536094 Z" stroke="#000" stroke-width="inherit" opacity="1" class="highcharts-point" data-constituency="KA_6" data-const-name="Raichur" data-const-id="KA_6" data-won-alliance="NDA" data-z-index="0"></path>
            <path fill="#FF9650" d="M 133.98435277808267 151.63144973710632 L 137.4572875834674 157.66034224087286 145.51949775175058 164.1243393614208 153.7458440902203 162.31613624787906 158.03323538341726 167.47488046767575 158.59208362268757 183.1299426363359 154.32046680418966 183.71771298675986 154.1299085767995 189.86840338750494 160.11358353133366 193.73428650166235 156.36393664878474 197.94586159952485 158.53926073314094 212.30624107690835 151.55501447293636 213.04904942931338 149.42273176255463 222.53406260108198 152.94293732927872 226.41414704280555 145.29252035195364 230.49865756610913 133.32467599820478 227.48784514792433 133.53932545733946 224.19319531190519 126.27342531689077 221.58274655823948 104.96978563844674 211.9542603296991 98.85869614167447 210.88199245277667 94.38529717512952 207.30896861462043 94.61879067370333 201.17462749481766 87.71758111509281 190.23896806234757 88.17215716377294 183.586825498549 84.12190164808624 183.07366156991566 84.68389567189148 177.26733014306652 92.98662579513757 175.05112066467217 94.68703395121494 177.75659868829686 106.5835111346675 175.18505688179226 106.94783656196448 166.39855490898276 104.05508705046195 163.26342201121147 105.81930697080156 155.81291144444043 102.33023892049964 153.61169053582387 104.3332515860909 141.86240885466344 116.23472386644235 149.10760959836824 121.85626219701889 146.68007170100623 124.34827548093585 152.19187339707716 133.98435277808267 151.63144973710632 Z" stroke="#000" stroke-width="inherit" opacity="1" class="highcharts-point" data-constituency="KA_4" data-const-name="Bijapur" data-const-id="KA_4" data-won-alliance="NDA" data-z-index="0"></path>
            <path fill="#FF9650" d="M 227.37293074381228 397.99406426279387 L 220.98533954183523 402.7520182366995 223.043894245886 408.1980631973913 220.16643936162802 413.562474625728 219.44319677485484 421.8680114019414 212.1052739249093 423.143563024804 209.27525423567798 425.77895150333774 210.3220167009853 431.71127194237135 194.53390264983352 437.9559890845896 190.38615291221788 438.1986882102474 184.86842640825557 444.09232458899083 174.50933273342775 440.4692948172521 171.67235562373963 443.7294757734339 170.68431802742492 439.8386655545992 160.65121192016673 437.67139055184776 161.16891506039 434.6057853540351 154.15592654081658 430.70905340391994 152.40783988958032 419.83018824823245 157.26540440143137 413.9222777587585 152.9252326433061 405.12367108830443 163.58320903349815 401.65589500497276 167.72366945376896 395.98616367426536 175.20412764060978 396.0796812414877 180.70600394023714 391.45631683474835 190.36039442217125 401.4465424252275 191.37059846420112 410.81771559153214 199.85621877019508 407.09408359396394 197.70179823781925 394.2092992741027 203.3736695616137 392.30052135634116 213.16407206729093 383.3035782530583 225.6639783770825 387.82464340494516 228.2372292192788 393.42257488933507 227.37293074381228 397.99406426279387 Z" stroke="#000" stroke-width="inherit" opacity="1" class="highcharts-point" data-constituency="KA_19" data-const-name="Tumkur" data-const-id="KA_19" data-won-alliance="NDA" data-z-index="0"></path>
            <path fill="rgb(255,150,80)" d="M 302.813752141194 424.29580391584864 L 303 425.0799786281241 298.79359289790887 439.8513105319964 295.64866712600036 445.89295858457007 288.046748198313 448.280202392568 285.193676840958 453.7374693791228 281.000793639777 453.73185913925244 279.62877589642574 460.1277139526499 272.8652031514836 458.9673858548425 269.0634372714877 454.9202542669597 263.4359380772687 456.2629902500656 258.8977946515338 452.01743092080534 255.1437343912032 453.09817387412227 254.20072741597025 451.3774328308562 257.4318507687704 437.42638886721807 261.1339329159849 435.7082698736376 261.7357434706409 427.68647248887953 255.3916730584371 428.4331446415826 251.25581325342503 426.4747708022164 253.55927136582028 412.7252317104683 251.4125590192405 408.2484032294957 252.59716787099674 403.0278620029942 261.86452551168605 401.87213756052455 268.5471274702337 398.5105056410438 274.48939611842775 399.6660142315467 281.4970967072888 404.73182012781217 290.33147618196176 404.2412050877907 288.6546626920806 419.4949738802925 298.5369596202655 424.7233982409948 302.813752141194 424.29580391584864 Z" stroke="#000" stroke-width="inherit" opacity="1" class="highcharts-point " data-constituency="KA_28" data-const-name="Kolar" data-const-id="KA_28" data-won-alliance="NDA" data-z-index="0"></path>
         </g>
      </g>
      <g data-z-index="0.1" class="highcharts-markers highcharts-series-0 highcharts-map-series  highcharts-tracker " transform="translate(10,10) scale(1 1)" style="cursor:pointer;" clip-path="none"></g>
      <g data-z-index="0.1" class="highcharts-series highcharts-series-1 highcharts-mapline-series  highcharts-tracker " transform="translate(10,10) scale(1 1)" stroke-width="1" style="cursor:pointer;" clip-path="url(#highcharts-e6n97yx-1-)" opacity="1">
         <g transform="translate(0,0) scale(1 1)">
            <path fill="none" d="M 227.14750110562136 149.37237836388488 L 227.1244662046447 149.47157193740804 222.42758225679515 159.13341919073258 222.15879586251168 164.65219522483977 227.99810224043426 166.92475632890955 230.48852693811008 173.44169956584648 227.38078724952288 180.0698430971642 228.62877214702357 187.66667508270038 224.90211793027808 196.6665678020309 227.42870280019622 200.39689691111786 221.5099472815174 208.71471257158032 212.6405140228042 209.80651184349443 208.29038837010444 204.35978343416002 208.91762844949395 199.82999779627775 205.65293611024995 196.59769164515828 217.0211530624338 191.7240680573567 196.5792148737209 185.4896348606503 190.32748795793322 186.19752333343456 189.83473921797827 181.31558472417362 174.96571584511776 188.83191009134595 163.97892480935406 191.01959486684166 160.11358353133366 193.73428650166235 154.1299085767995 189.86840338750494 154.32046680418966 183.71771298675986 158.59208362268757 183.1299426363359 158.03323538341726 167.47488046767575 153.7458440902203 162.31613624787906 145.51949775175058 164.1243393614208 137.4572875834674 157.66034224087286 133.98435277808267 151.63144973710632 144.51086682687676 149.540161067243 154.84977676933252 152.9981771125249 156.6315952622282 149.1218545091489 161.17270162527612 151.76506510356944 169.61261215087495 150.7180028971165 176.82620782098672 147.2875256672677 179.98656891078681 143.73608486438383 174.9359273450873 137.59095264292745 179.80171283448848 128.77199953161073 190.31689841941804 130.61214484689967 196.1904511543504 127.24541862661098 206.73452424111966 131.55828688054743 207.2192822668636 135.29037495920784 199.1817580637495 141.6480359680311 199.4677449439689 147.69292600718876 205.0609319638131 150.53296032809197 203.5168204506442 157.35006110005352 214.41292101553273 157.1408148005611 214.90497895102393 151.08277257024054 218.488688545389 145.85233525605588 227.14750110562136 149.37237836388488 Z" stroke="#eee" stroke-width="inherit" opacity="1" class="highcharts-point" data-state="KA" data-key="KA_5"></path>
            <path fill="none" d="M 133.98435277808267 151.63144973710632 L 137.4572875834674 157.66034224087286 145.51949775175058 164.1243393614208 153.7458440902203 162.31613624787906 158.03323538341726 167.47488046767575 158.59208362268757 183.1299426363359 154.32046680418966 183.71771298675986 154.1299085767995 189.86840338750494 160.11358353133366 193.73428650166235 156.36393664878474 197.94586159952485 158.53926073314094 212.30624107690835 151.55501447293636 213.04904942931338 149.42273176255463 222.53406260108198 152.94293732927872 226.41414704280555 145.29252035195364 230.49865756610913 133.32467599820478 227.48784514792433 133.53932545733946 224.19319531190519 126.27342531689077 221.58274655823948 104.96978563844674 211.9542603296991 98.85869614167447 210.88199245277667 94.38529717512952 207.30896861462043 94.61879067370333 201.17462749481766 87.71758111509281 190.23896806234757 88.17215716377294 183.586825498549 84.12190164808624 183.07366156991566 84.68389567189148 177.26733014306652 92.98662579513757 175.05112066467217 94.68703395121494 177.75659868829686 106.5835111346675 175.18505688179226 106.94783656196448 166.39855490898276 104.05508705046195 163.26342201121147 105.81930697080156 155.81291144444043 102.33023892049964 153.61169053582387 104.3332515860909 141.86240885466344 116.23472386644235 149.10760959836824 121.85626219701889 146.68007170100623 124.34827548093585 152.19187339707716 133.98435277808267 151.63144973710632 Z" stroke="#eee" stroke-width="inherit" opacity="1" class="highcharts-point" data-state="KA" data-key="KA_4"></path>
            <path fill="none" d="M 84.68389567189148 177.26733014306652 L 84.12190164808624 183.07366156991566 88.17215716377294 183.586825498549 87.71758111509281 190.23896806234757 81.00249598498925 193.63395586001621 79.5678278350773 198.737394193226 73.0023051634685 201.09229826905573 68.85111042006554 207.30890137622984 62.086321171942764 205.35315217057615 61.252258291096744 210.74414540285295 63.739659902377056 216.07204247835926 63.68083903234029 216.98118973069415 60.64961875196505 215.49346191712374 54.85426946986338 219.49177485821897 48.88564451036549 219.52425749967807 40.726731123367045 226.5314854751684 43.033254903799154 233.01851042469409 37.676894223907055 239.45529319822458 38.927631713342144 243.2756235863666 35.78792279211908 248.542998858493 26.810360097619657 248.43756289551712 24.90435366568176 246.44927128473432 24.68067336384863 244.69135476540328 23.347385857601296 244.17796634308144 23.510342006844443 243.848419428596 26.681077313420232 235.63059375733718 27.98252139912709 226.48506017878537 17.160746955252137 221.86632027488056 15.464267885390816 217.67540015738692 16.4913601363601 211.02998737486502 12.271068140441836 206.414289312328 20.779242623732465 202.76349106786822 30.89775036769604 198.81790531047318 32.431473939400384 204.295915432004 40.580416821973635 200.03040133460564 40.84357148681468 193.2870499871655 55.59275653479364 188.52992854488576 55.32630741735 183.7924781812632 61.541405125138425 177.72885948039487 67.70818888894009 179.39066971751262 76.87456148879723 184.79586343457666 84.68389567189148 177.26733014306652 Z" stroke="#eee" stroke-width="inherit" opacity="1" class="highcharts-point" data-state="KA" data-key="KA_1"></path>
            <path fill="none" d="M 148.30372878867738 248.31632987536094 L 151.17361931135687 246.32498331537977 149.47634874447962 236.75794942290585 145.29252035195364 230.49865756610913 152.94293732927872 226.41414704280555 149.42273176255463 222.53406260108198 151.55501447293636 213.04904942931338 158.53926073314094 212.30624107690835 156.36393664878474 197.94586159952485 160.11358353133366 193.73428650166235 163.97892480935406 191.01959486684166 174.96571584511776 188.83191009134595 189.83473921797827 181.31558472417362 190.32748795793322 186.19752333343456 196.5792148737209 185.4896348606503 217.0211530624338 191.7240680573567 205.65293611024995 196.59769164515828 208.91762844949395 199.82999779627775 208.29038837010444 204.35978343416002 212.6405140228042 209.80651184349443 215.9915692042146 214.18806053243392 224.59137001572853 216.89420262896041 229.30105811325222 215.87129248600095 236.7601225593046 218.57424129179847 229.72633854564708 224.49356175886032 229.67462781812466 233.5288852225235 231.22687834894342 246.6619964266568 213.5976020542792 244.20088854096815 201.95347284667884 247.45179577108925 198.7247623336742 251.82637227036824 190.7070671822467 249.01810324667161 183.41207731299357 244.20112891100922 183.95881511396274 238.31241860600076 181.42218643116055 232.4075152621033 175.76167253132434 232.1203624712245 172.95456619643193 236.40687676670873 168.6867992661476 233.52542119201104 165.42198666686866 236.50012705711558 157.88633963616317 249.23687488975088 148.30372878867738 248.31632987536094 Z" stroke="#eee" stroke-width="inherit" opacity="1" class="highcharts-point" data-state="KA" data-key="KA_6"></path>
            <path fill="none" d="M 198.7247623336742 251.82637227036824 L 201.08636598752977 253.2885060335012 198.60887298063147 266.35478475717844 199.6532871458732 283.5115763692549 192.25256442343908 285.02447639100103 179.95425814340516 279.26094304043454 170.3190874081979 279.34479843314284 162.15905542168957 286.03437776511703 153.52222892063088 287.1811942983196 145.81157253203267 296.22852117330206 141.7061425192885 293.28228420861944 135.88560186260804 297.89935499445994 125.68568542588535 299.8895995268568 121.60174443846519 289.70895927253775 122.51137968702244 281.98765800043213 117.26085604441408 278.7755685038886 122.23084348070937 268.18634285871127 126.90274627268636 264.26592636532035 131.73841563508034 257.2796859141838 124.13994043772125 255.6359310667423 118.61411749776194 252.6078001087774 118.6954062260693 252.11055653153838 127.38768078352919 242.89188060772693 134.84056791170258 242.17318436019832 133.08343525764508 248.08858492380358 136.9924420853315 249.4242259245147 144.44435502349546 245.75844938863654 148.30372878867738 248.31632987536094 157.88633963616317 249.23687488975088 165.42198666686866 236.50012705711558 168.6867992661476 233.52542119201104 172.95456619643193 236.40687676670873 175.76167253132434 232.1203624712245 181.42218643116055 232.4075152621033 183.95881511396274 238.31241860600076 183.41207731299357 244.20112891100922 190.7070671822467 249.01810324667161 198.7247623336742 251.82637227036824 Z" stroke="#eee" stroke-width="inherit" opacity="1" class="highcharts-point" data-state="KA" data-key="KA_8"></path>
            <path fill="none" d="M 125.68568542588535 299.8895995268568 L 121.30368604950246 302.59467147301143 108.59079806630722 316.4322907865396 106.48036334721529 322.08086711141044 112.63851180555196 326.799240423725 116.36344518278023 332.6770218349589 115.25494612129859 342.3045474772493 107.97219728584491 343.5801711352952 104.84257264907686 347.57374176233674 103.56302168442575 353.89667505487904 97.73755262699552 357.93180970874556 86.5612894242094 351.65434955748447 84.97963675975122 344.03637871039956 75.55081839272876 335.14556336608644 65.00256942693954 332.8539287088261 63.72374892747224 328.9299010477679 66.35542705196609 324.00020894889394 66.31687785332129 314.9278065535745 75.61981041443126 318.0537813552031 79.39672026368359 316.88074880207853 85.58062419145394 318.79657744872185 89.09525322251227 315.60198775605784 87.13968969944547 306.85496610489076 90.93132870387005 301.99019930509894 89.55396297469127 288.85340103894976 91.6408788203745 283.1427444962769 95.05305307470026 282.3295155646305 95.14967520449976 280.93643739061315 96.11405567252417 281.01026518516215 97.16399930427175 280.68390653043235 97.34185018138315 276.85662867846725 103.9392603057974 274.59774449760744 105.19454104161875 285.4367144244975 112.61280567545673 285.3639993104098 109.57227738131651 280.1626147773205 111.63487136234457 271.9484529112009 106.58898046822323 267.3139275257224 107.21937389956503 258.47092025568355 118.65893214051626 252.33366311475007 118.61411749776194 252.6078001087774 124.13994043772125 255.6359310667423 131.73841563508034 257.2796859141838 126.90274627268636 264.26592636532035 122.23084348070937 268.18634285871127 117.26085604441408 278.7755685038886 122.51137968702244 281.98765800043213 121.60174443846519 289.70895927253775 125.68568542588535 299.8895995268568 Z" stroke="#eee" stroke-width="inherit" opacity="1" class="highcharts-point" data-state="KA" data-key="KA_10"></path>
            <path fill="none" d="M 163.54152627271617 338.7402483375945 L 160.080817120916 346.1852401504082 147.8300704924545 349.24900844264727 142.85421854742776 345.8117250157925 139.28199534500675 349.2184066883045 137.9334436697481 359.4319536488101 133.21767264362495 361.7979616832421 131.33340122500292 383.6499870488079 125.25877367889628 389.2545552069186 120.9216860036199 389.4273546313584 117.36061132042657 378.5126371333783 116.44746352541792 370.0166121487308 101.10262519584974 372.7665078089436 96.38176557148407 370.1274066193353 88.55322327047186 368.9062390215363 97.73755262699552 357.93180970874556 103.56302168442575 353.89667505487904 104.84257264907686 347.57374176233674 107.97219728584491 343.5801711352952 115.25494612129859 342.3045474772493 116.36344518278023 332.6770218349589 112.63851180555196 326.799240423725 121.43000750842683 317.9470455757854 132.5652533148303 314.66653355883284 134.06500699795575 318.0286949053923 142.7083155239034 325.97118233002163 141.64268482840524 329.33878128242395 150.87459426007715 329.90285828573064 157.71293528138034 337.39394632546583 163.54152627271617 338.7402483375945 Z" stroke="#eee" stroke-width="inherit" opacity="1" class="highcharts-point" data-state="KA" data-key="KA_13"></path>
            <path fill="none" d="M 272.5858302746412 391.09275963896476 L 268.5471274702337 398.5105056410438 261.86452551168605 401.87213756052455 252.59716787099674 403.0278620029942 251.4125590192405 408.2484032294957 253.55927136582028 412.7252317104683 251.25581325342503 426.4747708022164 255.3916730584371 428.4331446415826 261.7357434706409 427.68647248887953 261.1339329159849 435.7082698736376 257.4318507687704 437.42638886721807 254.20072741597025 451.3774328308562 255.1437343912032 453.09817387412227 252.8944154668664 453.01100412036146 248.28676676244046 448.31364532052646 248.33766925164804 438.1945813012823 247.9329959911687 436.5368557452488 245.72731280811277 431.44208797732324 238.3776173612431 430.2910151881254 235.4543317507001 432.59766718701474 238.14685850726437 438.0548928606728 229.43022702517686 437.7927732531721 227.98066488674212 445.5356253355162 218.82114531830499 445.8688523929282 214.89528396490692 445.54267453913246 212.12789144009017 441.10768886898427 210.3220167009853 431.71127194237135 209.27525423567798 425.77895150333774 212.1052739249093 423.143563024804 219.44319677485484 421.8680114019414 220.16643936162802 413.562474625728 223.043894245886 408.1980631973913 220.98533954183523 402.7520182366995 227.37293074381228 397.99406426279387 246.21577083791948 389.4690390836688 258.59839252667774 383.00806430798815 267.3605916003009 383.70072075510785 271.7535165353911 385.9284853985514 272.5858302746412 391.09275963896476 Z" stroke="#eee" stroke-width="inherit" opacity="1" class="highcharts-point" data-state="KA" data-key="KA_27"></path>
            <path fill="none" d="M 138.67591818650308 392.772870688028 L 130.28455769817432 396.70555720938626 128.54505963472488 400.45123826404745 123.67029720388781 400.8746092060311 119.70810570085557 404.6823602007248 118.48773106593858 411.99739909894066 126.45291037540572 411.5497056116774 129.9032179369416 414.63296804605613 138.40859602476175 414.4010442416597 131.32958876400042 421.38946170317405 131.9662659164449 425.7589936129122 117.93094556055217 427.2095302975457 110.83304097497492 431.8833666234474 111.50215854368474 442.0298557971214 105.14041484832211 441.9574932971593 99.13202939728636 449.8493110032993 96.34873579776175 445.41530360368336 97.0228035398869 440.84726813364426 86.98940727866041 431.8696320755162 78.67770742733906 435.420857751743 74.98357773299655 432.4555979212316 71.51813509526247 435.53638680614966 56.83891513387795 434.0668973313476 47.1861192028284 437.55217954201623 42.25226156666869 424.6846360955995 39.40786160963756 403.63466676347866 45.24219050282286 401.318040786542 52.849461069467544 405.16054398975587 59.09513534193402 401.1550130450707 63.0537111478361 401.26424278013985 64.17050655041913 406.57382023079157 69.11504889650318 412.9099044931602 76.66346749484046 408.49307318423547 77.99518721540716 403.2454362050198 84.61070924611526 404.46825681223123 89.0387185882814 401.45668717344006 88.16981758628599 396.84121728029544 94.54456625828698 392.80775410553963 111.03172427001603 392.2003703419894 117.21606135708579 388.9477565129807 120.9216860036199 389.4273546313584 125.25877367889628 389.2545552069186 131.33340122500292 383.6499870488079 135.6858246823364 385.83496804340524 138.67591818650308 392.772870688028 Z" stroke="#eee" stroke-width="inherit" opacity="1" class="highcharts-point" data-state="KA" data-key="KA_15"></path>
            <path fill="none" d="M 227.37293074381228 397.99406426279387 L 220.98533954183523 402.7520182366995 223.043894245886 408.1980631973913 220.16643936162802 413.562474625728 219.44319677485484 421.8680114019414 212.1052739249093 423.143563024804 209.27525423567798 425.77895150333774 210.3220167009853 431.71127194237135 194.53390264983352 437.9559890845896 190.38615291221788 438.1986882102474 184.86842640825557 444.09232458899083 174.50933273342775 440.4692948172521 171.67235562373963 443.7294757734339 170.68431802742492 439.8386655545992 160.65121192016673 437.67139055184776 161.16891506039 434.6057853540351 154.15592654081658 430.70905340391994 152.40783988958032 419.83018824823245 157.26540440143137 413.9222777587585 152.9252326433061 405.12367108830443 163.58320903349815 401.65589500497276 167.72366945376896 395.98616367426536 175.20412764060978 396.0796812414877 180.70600394023714 391.45631683474835 190.36039442217125 401.4465424252275 191.37059846420112 410.81771559153214 199.85621877019508 407.09408359396394 197.70179823781925 394.2092992741027 203.3736695616137 392.30052135634116 213.16407206729093 383.3035782530583 225.6639783770825 387.82464340494516 228.2372292192788 393.42257488933507 227.37293074381228 397.99406426279387 Z" stroke="#eee" stroke-width="inherit" opacity="1" class="highcharts-point" data-state="KA" data-key="KA_19"></path>
            <path fill="none" d="M 302.813752141194 424.29580391584864 L 303 425.0799786281241 298.79359289790887 439.8513105319964 295.64866712600036 445.89295858457007 288.046748198313 448.280202392568 285.193676840958 453.7374693791228 281.000793639777 453.73185913925244 279.62877589642574 460.1277139526499 272.8652031514836 458.9673858548425 269.0634372714877 454.9202542669597 263.4359380772687 456.2629902500656 258.8977946515338 452.01743092080534 255.1437343912032 453.09817387412227 254.20072741597025 451.3774328308562 257.4318507687704 437.42638886721807 261.1339329159849 435.7082698736376 261.7357434706409 427.68647248887953 255.3916730584371 428.4331446415826 251.25581325342503 426.4747708022164 253.55927136582028 412.7252317104683 251.4125590192405 408.2484032294957 252.59716787099674 403.0278620029942 261.86452551168605 401.87213756052455 268.5471274702337 398.5105056410438 274.48939611842775 399.6660142315467 281.4970967072888 404.73182012781217 290.33147618196176 404.2412050877907 288.6546626920806 419.4949738802925 298.5369596202655 424.7233982409948 302.813752141194 424.29580391584864 Z" stroke="#eee" stroke-width="inherit" opacity="1" class="highcharts-point" data-state="KA" data-key="KA_28"></path>
            <path fill="none" d="M 210.3220167009853 431.71127194237135 L 212.12789144009017 441.10768886898427 214.89528396490692 445.54267453913246 218.82114531830499 445.8688523929282 220.060562177471 453.0521736931379 224.38599294324118 452.4968860070198 231.67198232375915 462.02811649235605 234.0729769305274 452.806173794087 229.7778549608699 447.7100171317268 231.85924282819877 444.78052065554436 231.49594082921925 445.52556522922 236.3175907625491 452.0297213701133 240.68669221797293 451.51432771658034 241.26755332443759 451.32553347173723 246.25174271694559 452.532405329602 248.28676676244046 448.31364532052646 252.8944154668664 453.01100412036146 247.81781358556228 464.6064193080158 237.51349380473852 469.0872218792863 236.2204079544634 476.7774041863805 239.3840330683218 478.7767047024285 237.9534095032307 487.1083068871475 228.43485358923013 495.08476105542616 225.928462433855 492.57311942331336 218.29794986552946 490.86969569303005 214.69971675231957 480.2178389246752 206.4817538590118 480.4406947257043 204.27535502366817 474.27693426029026 202.28707842078535 461.64785510639086 191.46597466104112 457.3119926652246 184.86842640825557 444.09232458899083 190.38615291221788 438.1986882102474 194.53390264983352 437.9559890845896 210.3220167009853 431.71127194237135 Z" stroke="#eee" stroke-width="inherit" opacity="1" class="highcharts-point" data-state="KA" data-key="KA_23"></path>
            <path fill="none" d="M 95.18447909703023 280.4347274591365 L 95.05305307470026 282.3295155646305 91.6408788203745 283.1427444962769 89.55396297469127 288.85340103894976 90.93132870387005 301.99019930509894 87.13968969944547 306.85496610489076 89.09525322251227 315.60198775605784 85.58062419145394 318.79657744872185 79.39672026368359 316.88074880207853 75.61981041443126 318.0537813552031 66.31687785332129 314.9278065535745 67.0329497759579 304.2418194275848 57.52701362505094 304.6714244536163 49.988338586679205 300.14488279434465 55.40508066641914 292.22028336027523 54.712545807733775 288.9631967398422 43.37002509243169 280.1545842594423 48.95723713618259 275.1850135032863 51.83452680391113 267.95295168033743 51.9422596020907 267.860133681357 59.346891288489836 265.1789086623586 68.18502204642026 266.8499990158989 68.7673771730651 263.81208833161406 80.3620865803716 262.64468790706263 81.18620958269747 262.4784352451651 89.46041945361782 264.8924953073203 94.56997462322747 261.75889631888805 99.08956950844201 265.4492561145172 97.43291578600235 272.80410819998883 93.45960115498288 275.86026568658235 95.18447909703023 280.4347274591365 Z" stroke="#eee" stroke-width="inherit" opacity="1" class="highcharts-point" data-state="KA" data-key="KA_11"></path>
            <path fill="none" d="M 248.0167978847312 436.88010713480935 L 247.3631798942621 436.89030088946384 246.41892085461365 436.7819315754551 245.30953769128953 438.0927324241691 239.94884666275797 436.8858441132574 240.2399600243918 439.2212703017261 242.03507400199973 445.102981295168 232.86671744454264 444.94790367869416 232.23691243718733 444.83558389875736 231.85083235987253 444.79776722343496 231.85924282819877 444.78052065554436 229.7778549608699 447.7100171317268 234.0729769305274 452.806173794087 231.67198232375915 462.02811649235605 224.38599294324118 452.4968860070198 220.060562177471 453.0521736931379 218.82114531830499 445.8688523929282 227.98066488674212 445.5356253355162 229.43022702517686 437.7927732531721 238.14685850726437 438.0548928606728 235.4543317507001 432.59766718701474 238.3776173612431 430.2910151881254 245.72731280811277 431.44208797732324 247.9329959911687 436.5368557452488 248.0167978847312 436.88010713480935 Z" stroke="#eee" stroke-width="inherit" opacity="1" class="highcharts-point" data-state="KA" data-key="KA_24"></path>
            <path fill="none" d="M 99.13202939728636 449.8493110032993 L 103.6022061186565 453.7485995995054 103.01219027388898 457.7281693067869 108.47637330065167 464.21813923105424 108.9123973065113 463.98336046673256 108.53679064568138 464.45439760265043 107.24894647453802 466.0244128324545 107.65695967627796 475.5254888366279 103.71690733783807 477.61266874329056 89.66256147920991 477.7394673409808 82.19275842149304 477.6957913631129 75.2033150272526 469.0975304385235 69.17900039559802 465.67844677792806 64.78246146401538 466.75175149796365 61.74435056785084 463.13910159824275 61.8864683608168 458.295543056983 52.30142094781775 460.4215974530149 48.528182350086645 451.2163834448886 47.1861192028284 437.55217954201623 56.83891513387795 434.0668973313476 71.51813509526247 435.53638680614966 74.98357773299655 432.4555979212316 78.67770742733906 435.420857751743 86.98940727866041 431.8696320755162 97.0228035398869 440.84726813364426 96.34873579776175 445.41530360368336 99.13202939728636 449.8493110032993 Z" stroke="#eee" stroke-width="inherit" opacity="1" class="highcharts-point" data-state="KA" data-key="KA_17"></path>
            <path fill="none" d="M 108.9123973065113 463.98336046673256 L 109.26502120868946 463.79350985465 116.34048539216072 464.35782920144885 124.1975592548806 456.34272434946126 126.78539057686713 464.3436590575171 124.95375603502308 468.1126170591559 126.7835986448195 473.900092015494 132.2949495807874 472.9519333026779 138.28613342535954 476.0221246236194 144.61406083559828 477.83543817747767 147.9828416656744 483.91445023582486 160.6001789788832 483.9355717662822 163.6391643662731 481.1382705799947 172.95911892006242 484.90606971247354 178.5639294425008 489.38106344091995 178.5013157937499 489.98747094533206 173.2961075111838 496.13235375838946 175.1439198415295 499.12405176729396 163.81662988836698 503.23660846348065 164.09377070454028 495.4175600154548 160.4072989602217 492.00068963197384 153.7652875421508 500.94237267416423 146.82209184658916 497.7742126776803 140.56767247287496 503.6120826982876 141.8035413460691 508.07184066848606 136.71931625458257 513.1496337410288 131.41794906217794 515.7136179980371 124.34506100875305 515.7203230960399 117.5078933946958 512.2639880078411 115.52687772658481 506.19909099656803 110.22313615798882 507.0274261340047 104.65686397862021 501.6186046728157 100.70862100957545 501.06153886033155 94.97828007131051 493.2397093631307 94.5811049265699 492.2525943918673 90.78630618514396 491.5474856683916 87.24040497321084 485.166480881764 89.66256147920991 477.7394673409808 103.71690733783807 477.61266874329056 107.65695967627796 475.5254888366279 107.24894647453802 466.0244128324545 108.53679064568138 464.45439760265043 108.9123973065113 463.98336046673256 Z" stroke="#eee" stroke-width="inherit" opacity="1" class="highcharts-point" data-state="KA" data-key="KA_21"></path>
            <path fill="none" d="M 218.29794986552946 490.86969569303005 L 225.928462433855 492.57311942331336 228.43485358923013 495.08476105542616 231.71465961368006 498.5699440362139 237.99308740389444 497.80253598249857 247.13039723800665 500.97139168190733 249.0255204207853 503.57953573527226 243.79258185506268 510.27963989835075 242.1276389155853 515.0206777773355 241.83882954553698 515.1267840496305 230.3357725637247 515.7180799097966 225.5437914965768 527.8064336333541 219.24033657200468 527.2622606435391 213.52414739011914 524.3397123534565 204.12677592821757 527.0138319951083 197.4588520405417 524.3365218722613 190.37004491413293 525.6833077101969 185.67312754764652 534.7479949381357 187.09401679909513 537.9290459286973 170.63702560799737 538.0579551816802 166.96188761896198 537.2231185937992 163.60313249218478 531.487912500837 158.13927723480947 534.1110976972149 156.83599822585535 528.0061525602962 152.13557297562375 529.3123388230185 141.89210977156011 520.3502476193062 136.74698993046198 521.208990085011 136.71931625458257 513.1496337410288 141.8035413460691 508.07184066848606 140.56767247287496 503.6120826982876 146.82209184658916 497.7742126776803 153.7652875421508 500.94237267416423 160.4072989602217 492.00068963197384 164.09377070454028 495.4175600154548 163.81662988836698 503.23660846348065 175.1439198415295 499.12405176729396 173.2961075111838 496.13235375838946 178.5013157937499 489.98747094533206 178.49537477756368 490.0450123455938 185.44018530019596 484.4450918765642 192.24585963700738 484.4976502855014 195.1161805731509 488.2015441318656 196.49610970700118 495.1493218104712 207.98488310835774 494.0815393572434 207.71989974285313 490.7358890388214 218.29794986552946 490.86969569303005 Z" stroke="#eee" stroke-width="inherit" opacity="1" class="highcharts-point" data-state="KA" data-key="KA_22"></path>
            <path fill="none" d="M 184.86842640825557 444.09232458899083 L 191.46597466104112 457.3119926652246 202.28707842078535 461.64785510639086 204.27535502366817 474.27693426029026 206.4817538590118 480.4406947257043 214.69971675231957 480.2178389246752 218.29794986552946 490.86969569303005 207.71989974285313 490.7358890388214 207.98488310835774 494.0815393572434 196.49610970700118 495.1493218104712 195.1161805731509 488.2015441318656 192.24585963700738 484.4976502855014 185.44018530019596 484.4450918765642 178.49537477756368 490.0450123455938 178.5639294425008 489.38106344091995 172.95911892006242 484.90606971247354 163.6391643662731 481.1382705799947 160.6001789788832 483.9355717662822 147.9828416656744 483.91445023582486 144.61406083559828 477.83543817747767 138.28613342535954 476.0221246236194 147.21678999471277 469.83295233144827 152.02689682195737 468.0096091950451 153.658383662098 463.6641949677682 151.47669779686666 457.75689182325294 156.81210786354947 454.5153005684658 160.73944058612972 457.949247416421 167.96104085587476 454.3742817452597 171.67235562373963 443.7294757734339 174.50933273342775 440.4692948172521 184.86842640825557 444.09232458899083 Z" stroke="#eee" stroke-width="inherit" opacity="1" class="highcharts-point" data-state="KA" data-key="KA_20"></path>
            <path fill="none" d="M 199.6532871458732 283.5115763692549 L 201.47046986616994 287.23839224617234 206.80746849903144 289.50885862755 207.14616176928195 299.89209839226095 204.23145275631035 306.8423102470121 194.56959979745787 307.89475281598243 188.47055906717955 306.85795729115057 183.0673893057957 302.6821767020833 180.37085391528709 309.95080422402555 174.83308023835795 316.42960040790325 176.4257095938817 321.5712970866825 170.32311987114792 330.2869925793335 169.53925943450358 334.6693983580624 163.54152627271617 338.7402483375945 157.71293528138034 337.39394632546583 150.87459426007715 329.90285828573064 141.64268482840524 329.33878128242395 142.7083155239034 325.97118233002163 134.06500699795575 318.0286949053923 132.5652533148303 314.66653355883284 121.43000750842683 317.9470455757854 112.63851180555196 326.799240423725 106.48036334721529 322.08086711141044 108.59079806630722 316.4322907865396 121.30368604950246 302.59467147301143 125.68568542588535 299.8895995268568 135.88560186260804 297.89935499445994 141.7061425192885 293.28228420861944 145.81157253203267 296.22852117330206 153.52222892063088 287.1811942983196 162.15905542168957 286.03437776511703 170.3190874081979 279.34479843314284 179.95425814340516 279.26094304043454 192.25256442343908 285.02447639100103 199.6532871458732 283.5115763692549 Z" stroke="#eee" stroke-width="inherit" opacity="1" class="highcharts-point" data-state="KA" data-key="KA_9"></path>
            <path fill="none" d="M 152.9252326433061 405.12367108830443 L 147.90430561007955 403.2650552221604 143.9196786136107 396.09556529246385 138.67591818650308 392.772870688028 135.6858246823364 385.83496804340524 131.33340122500292 383.6499870488079 133.21767264362495 361.7979616832421 137.9334436697481 359.4319536488101 139.28199534500675 349.2184066883045 142.85421854742776 345.8117250157925 147.8300704924545 349.24900844264727 160.080817120916 346.1852401504082 163.54152627271617 338.7402483375945 169.53925943450358 334.6693983580624 170.32311987114792 330.2869925793335 176.4257095938817 321.5712970866825 174.83308023835795 316.42960040790325 180.37085391528709 309.95080422402555 187.64676372155964 311.2181570503378 185.5830555000027 323.2949294047288 181.3620465431176 330.7885131153032 180.66648884479687 336.018138342846 187.64211138590068 344.20607980184593 192.6733284173725 360.01101427618886 200.23959265767996 360.03695158214765 207.16950727395295 353.40529959014947 215.80073233846102 357.54750481745947 220.79564908453256 357.9031387158293 223.5971398317352 353.95698632174754 230.6734699065063 358.5715144682982 231.4243363596184 364.535577335077 223.26234245359908 365.0053295994429 222.84857227017133 375.65015991264266 225.2683734399466 383.2265039951338 220.48794097004364 383.12545230924275 218.11826539207965 374.48138208594077 205.9959727966894 376.3013854741905 205.0955668023114 373.3336588913299 198.50241346779228 372.59734362981123 198.2293480437535 364.54610126764544 193.02902581748796 368.6536749198722 199.33630807035354 381.20241464849767 194.81149961982817 388.9874728217263 197.70179823781925 394.2092992741027 199.85621877019508 407.09408359396394 191.37059846420112 410.81771559153214 190.36039442217125 401.4465424252275 180.70600394023714 391.45631683474835 175.20412764060978 396.0796812414877 167.72366945376896 395.98616367426536 163.58320903349815 401.65589500497276 152.9252326433061 405.12367108830443 Z" stroke="#eee" stroke-width="inherit" opacity="1" class="highcharts-point" data-state="KA" data-key="KA_18"></path>
            <path fill="none" d="M 233.86502836363093 86.90301843290213 L 237.10155390327705 96.30208081721358 237.70757226335013 105.32036631612684 240.86848344570004 108.59625076912667 238.3822721055132 113.07932091361522 232.2577533826989 118.21081855634678 233.16371152059185 125.04387907356988 227.65318839539594 126.83315075432202 226.44333828793913 134.75246567427834 243.06430515576866 139.84307340553715 235.42010714300596 144.98340883521456 231.19879967179472 145.13991673519666 227.24085389643673 148.97039950689407 227.14750110562136 149.37237836388488 218.488688545389 145.85233525605588 214.90497895102393 151.08277257024054 214.41292101553273 157.1408148005611 203.5168204506442 157.35006110005352 205.0609319638131 150.53296032809197 199.4677449439689 147.69292600718876 199.1817580637495 141.6480359680311 207.2192822668636 135.29037495920784 206.73452424111966 131.55828688054743 196.1904511543504 127.24541862661098 190.31689841941804 130.61214484689967 179.80171283448848 128.77199953161073 174.9359273450873 137.59095264292745 179.98656891078681 143.73608486438383 176.82620782098672 147.2875256672677 169.61261215087495 150.7180028971165 161.17270162527612 151.76506510356944 156.6315952622282 149.1218545091489 152.6998983875068 142.19298055513417 151.45526758559834 133.92039452013407 158.02248932349394 130.57522476902383 161.80791269057798 128.87217030724509 164.44873516524362 122.85416496704258 169.88729415651056 123.05660018267008 175.8641439825955 126.45892819308008 182.34401499769032 118.28395420894066 179.12724258655481 113.46443303828767 188.63438264648852 113.79018781501296 193.4275444554308 104.03582177204757 193.56281379138906 94.11572149947054 200.56903944912622 96.30210983147437 210.61352506665716 87.82775345111443 214.14010228466375 78.896917743016 214.5585529187864 78.36015875271863 217.85323412892902 76.94204481831974 223.7543397390206 79.73841180356615 224.2503238680042 86.35922776493182 228.14600166407814 89.02434545639971 233.86502836363093 86.90301843290213 Z" stroke="#eee" stroke-width="inherit" opacity="1" class="highcharts-point" data-state="KA" data-key="KA_7"></path>
            <path fill="none" d="M 51.86342174343661 267.92805676723395 L 51.83452680391113 267.95295168033743 48.95723713618259 275.1850135032863 43.37002509243169 280.1545842594423 54.712545807733775 288.9631967398422 55.40508066641914 292.22028336027523 49.988338586679205 300.14488279434465 57.52701362505094 304.6714244536163 67.0329497759579 304.2418194275848 66.31687785332129 314.9278065535745 66.35542705196609 324.00020894889394 63.72374892747224 328.9299010477679 65.00256942693954 332.8539287088261 60.128820499308915 339.3424252499662 55.189479126685335 340.8963846041085 56.25012468622028 347.4232159311305 56.0602514641597 361.01339953124926 42.45092413866968 360.83146198961146 39.04327806951552 363.9692059370783 37.25401427492134 370.04718238676196 39.11866396126063 377.675067470272 33.36175774728614 381.6236898441128 28.868557245093854 377.33703625398374 23.995225376777565 357.65736453500637 20.87833680562517 349.0720829776812 12.871847568400094 334.8234015622063 11.777180136149552 327.87386612745127 1.3372353419477616 323.6100608929079 0 316.1605994558214 6.203717276800907 312.11180131107847 9.941463630272844 312.5770846288928 14.051820402850256 306.2761126157607 12.607828582717465 302.0969679321428 15.375041526699528 296.54962418328574 12.29911069619974 290.455496382887 16.707867095421765 289.206978507547 10.916029397718729 275.95082484081433 10.83906761660374 264.843865149009 2.074883105889912 265.11064957138274 2.671288451800992 260.26185944358815 8.268237523992525 256.44510632217055 13.337935884451996 259.1039705810131 17.040013674863417 257.49788654491397 24.7173213101608 260.376281943721 36.62082018295828 262.42024484262515 39.86312978927602 259.4295445820014 40.95456945973621 244.52636808859765 50.910312243402 242.25499374153497 50.682724404842126 248.2978210905122 47.80793342036266 252.6679674986059 47.47020823165971 259.74258439435044 52.76030810124554 263.0850809706882 51.86342174343661 267.92805676723395 Z" stroke="#eee" stroke-width="inherit" opacity="1" class="highcharts-point" data-state="KA" data-key="KA_12"></path>
            <path fill="none" d="M 97.73755262699552 357.93180970874556 L 88.55322327047186 368.9062390215363 96.38176557148407 370.1274066193353 101.10262519584974 372.7665078089436 116.44746352541792 370.0166121487308 117.36061132042657 378.5126371333783 120.9216860036199 389.4273546313584 117.21606135708579 388.9477565129807 111.03172427001603 392.2003703419894 94.54456625828698 392.80775410553963 88.16981758628599 396.84121728029544 89.0387185882814 401.45668717344006 84.61070924611526 404.46825681223123 77.99518721540716 403.2454362050198 76.66346749484046 408.49307318423547 69.11504889650318 412.9099044931602 64.17050655041913 406.57382023079157 63.0537111478361 401.26424278013985 59.09513534193402 401.1550130450707 52.849461069467544 405.16054398975587 45.24219050282286 401.318040786542 37.8996314158004 399.3682181921798 33.36175774728614 381.6236898441128 39.11866396126063 377.675067470272 37.25401427492134 370.04718238676196 39.04327806951552 363.9692059370783 42.45092413866968 360.83146198961146 56.0602514641597 361.01339953124926 56.25012468622028 347.4232159311305 55.189479126685335 340.8963846041085 60.128820499308915 339.3424252499662 65.00256942693954 332.8539287088261 75.55081839272876 335.14556336608644 84.97963675975122 344.03637871039956 86.5612894242094 351.65434955748447 97.73755262699552 357.93180970874556 Z" stroke="#eee" stroke-width="inherit" opacity="1" class="highcharts-point" data-state="KA" data-key="KA_14"></path>
            <path fill="none" d="M 138.67591818650308 392.772870688028 L 143.9196786136107 396.09556529246385 147.90430561007955 403.2650552221604 152.9252326433061 405.12367108830443 157.26540440143137 413.9222777587585 152.40783988958032 419.83018824823245 154.15592654081658 430.70905340391994 161.16891506039 434.6057853540351 160.65121192016673 437.67139055184776 170.68431802742492 439.8386655545992 171.67235562373963 443.7294757734339 167.96104085587476 454.3742817452597 160.73944058612972 457.949247416421 156.81210786354947 454.5153005684658 151.47669779686666 457.75689182325294 153.658383662098 463.6641949677682 152.02689682195737 468.0096091950451 147.21678999471277 469.83295233144827 138.28613342535954 476.0221246236194 132.2949495807874 472.9519333026779 126.7835986448195 473.900092015494 124.95375603502308 468.1126170591559 126.78539057686713 464.3436590575171 124.1975592548806 456.34272434946126 116.34048539216072 464.35782920144885 109.26502120868946 463.79350985465 108.47637330065167 464.21813923105424 103.01219027388898 457.7281693067869 103.6022061186565 453.7485995995054 99.13202939728636 449.8493110032993 105.14041484832211 441.9574932971593 111.50215854368474 442.0298557971214 110.83304097497492 431.8833666234474 117.93094556055217 427.2095302975457 131.9662659164449 425.7589936129122 131.32958876400042 421.38946170317405 138.40859602476175 414.4010442416597 129.9032179369416 414.63296804605613 126.45291037540572 411.5497056116774 118.48773106593858 411.99739909894066 119.70810570085557 404.6823602007248 123.67029720388781 400.8746092060311 128.54505963472488 400.45123826404745 130.28455769817432 396.70555720938626 138.67591818650308 392.772870688028 Z" stroke="#eee" stroke-width="inherit" opacity="1" class="highcharts-point" data-state="KA" data-key="KA_16"></path>
            <path fill="none" d="M 63.68083903234029 216.98118973069415 L 63.73027644309831 216.2170645343736 63.78308773064509 216.53377353431154 63.81533487741003 217.41659250192095 64.67974312501589 219.1549555658115 65.84253906611947 219.66793423770307 70.40187333702971 222.38697246775118 76.61739022981932 223.50697342751607 81.01581726323582 228.33416426779323 80.73115907535136 233.31285906178422 90.62984270033792 235.53706286874626 90.8011451547027 247.45381185234336 92.51013312628389 250.82153165626997 86.35843489675564 254.32593191581722 80.63505680187473 262.58961262403585 80.3620865803716 262.64468790706263 68.7673771730651 263.81208833161406 68.18502204642026 266.8499990158989 59.346891288489836 265.1789086623586 51.9422596020907 267.860133681357 51.86342174343661 267.92805676723395 52.76030810124554 263.0850809706882 47.47020823165971 259.74258439435044 47.80793342036266 252.6679674986059 50.682724404842126 248.2978210905122 50.910312243402 242.25499374153497 40.95456945973621 244.52636808859765 39.86312978927602 259.4295445820014 36.62082018295828 262.42024484262515 24.7173213101608 260.376281943721 17.040013674863417 257.49788654491397 18.611316354966462 249.90554759210366 23.03323066973699 244.8133474856735 23.347385857601296 244.17796634308144 24.68067336384863 244.69135476540328 24.90435366568176 246.44927128473432 26.810360097619657 248.43756289551712 35.78792279211908 248.542998858493 38.927631713342144 243.2756235863666 37.676894223907055 239.45529319822458 43.033254903799154 233.01851042469409 40.726731123367045 226.5314854751684 48.88564451036549 219.52425749967807 54.85426946986338 219.49177485821897 60.64961875196505 215.49346191712374 63.68083903234029 216.98118973069415 Z" stroke="#eee" stroke-width="inherit" opacity="1" class="highcharts-point" data-state="KA" data-key="KA_2"></path>
            <path fill="none" d="M 240.89548294710937 451.44646084591164 L 240.68669221797293 451.51432771658034 236.3175907625491 452.0297213701133 231.49594082921925 445.52556522922 231.85083235987253 444.79776722343496 232.23691243718733 444.83558389875736 233.181614289829 445.0040787486543 240.3165366518232 447.408688088011 240.89548294710937 451.44646084591164 Z" stroke="#eee" stroke-width="inherit" opacity="1" class="highcharts-point" data-state="KA" data-key="KA_26"></path>
            <path fill="none" d="M 248.0167978847312 436.88010713480935 L 248.33766925164804 438.1945813012823 248.28676676244046 448.31364532052646 246.25174271694559 452.532405329602 241.26755332443759 451.32553347173723 240.89548294710937 451.44646084591164 240.3165366518232 447.408688088011 233.181614289829 445.0040787486543 232.86671744454264 444.94790367869416 242.03507400199973 445.102981295168 240.2399600243918 439.2212703017261 239.94884666275797 436.8858441132574 245.30953769128953 438.0927324241691 246.41892085461365 436.7819315754551 247.3631798942621 436.89030088946384 248.0167978847312 436.88010713480935 Z" stroke="#eee" stroke-width="inherit" opacity="1" class="highcharts-point" data-state="KA" data-key="KA_25"></path>
            <path fill="none" d="M 80.63505680187473 262.58961262403585 L 86.35843489675564 254.32593191581722 92.51013312628389 250.82153165626997 90.8011451547027 247.45381185234336 90.62984270033792 235.53706286874626 80.73115907535136 233.31285906178422 81.01581726323582 228.33416426779323 76.61739022981932 223.50697342751607 70.40187333702971 222.38697246775118 65.84253906611947 219.66793423770307 64.67974312501589 219.1549555658115 63.81533487741003 217.41659250192095 63.78308773064509 216.53377353431154 63.73027644309831 216.2170645343736 63.739659902377056 216.07204247835926 61.252258291096744 210.74414540285295 62.086321171942764 205.35315217057615 68.85111042006554 207.30890137622984 73.0023051634685 201.09229826905573 79.5678278350773 198.737394193226 81.00249598498925 193.63395586001621 87.71758111509281 190.23896806234757 94.61879067370333 201.17462749481766 94.38529717512952 207.30896861462043 98.85869614167447 210.88199245277667 104.96978563844674 211.9542603296991 126.27342531689077 221.58274655823948 133.53932545733946 224.19319531190519 133.32467599820478 227.48784514792433 145.29252035195364 230.49865756610913 149.47634874447962 236.75794942290585 151.17361931135687 246.32498331537977 148.30372878867738 248.31632987536094 144.44435502349546 245.75844938863654 136.9924420853315 249.4242259245147 133.08343525764508 248.08858492380358 134.84056791170258 242.17318436019832 127.38768078352919 242.89188060772693 118.6954062260693 252.11055653153838 118.65893214051626 252.33366311475007 107.21937389956503 258.47092025568355 106.58898046822323 267.3139275257224 111.63487136234457 271.9484529112009 109.57227738131651 280.1626147773205 112.61280567545673 285.3639993104098 105.19454104161875 285.4367144244975 103.9392603057974 274.59774449760744 97.34185018138315 276.85662867846725 97.16399930427175 280.68390653043235 96.11405567252417 281.01026518516215 95.14967520449976 280.93643739061315 95.18447909703023 280.4347274591365 93.45960115498288 275.86026568658235 97.43291578600235 272.80410819998883 99.08956950844201 265.4492561145172 94.56997462322747 261.75889631888805 89.46041945361782 264.8924953073203 81.18620958269747 262.4784352451651 80.63505680187473 262.58961262403585 Z" stroke="#eee" stroke-width="inherit" opacity="1" class="highcharts-point" data-state="KA" data-key="KA_3"></path>
         </g>
      </g>
      <g data-z-index="0.1" class="highcharts-markers highcharts-series-1 highcharts-mapline-series  highcharts-tracker " transform="translate(10,10) scale(1 1)" style="cursor:pointer;" clip-path="none" opacity="1"></g>
   </g>
   <text x="162" text-anchor="middle" class="highcharts-title" data-z-index="4" style="color:#333333;font-size:18px;fill:#333333;" y="24"></text>
   <text x="162" text-anchor="middle" class="highcharts-subtitle" data-z-index="4" style="color:#666666;fill:#666666;" y="24"></text>
   <g class="highcharts-button highcharts-map-navigation highcharts-zoom-in" style="[object Object]" data-z-index="5" transform="translate(285,10)">
      <path fill="#f7f7f7" class="highcharts-button-box" d="M 1.5 -0.5 L 25.5 -0.5 C 26.5 -0.5 27.5 0.5 27.5 1.5 L 27.5 27.5 C 27.5 27.5 27.5 27.5 27.5 27.5 L -0.5 27.5 C -0.5 27.5 -0.5 27.5 -0.5 27.5 L -0.5 1.5 C -0.5 0.5 0.5 -0.5 1.5 -0.5 Z" stroke="#cccccc" stroke-width="1"></path>
      <title>Zoom in</title>
      <text x="7.59375" data-z-index="1" style="font-size:15px;font-weight:bold;color:#333333;cursor:pointer;fill:#333333;" y="19">+</text>
   </g>
   <g class="highcharts-button highcharts-map-navigation highcharts-zoom-out" style="[object Object]" data-z-index="5" transform="translate(285,38)">
      <path fill="#f7f7f7" class="highcharts-button-box" d="M -0.5 -0.5 L 27.5 -0.5 C 27.5 -0.5 27.5 -0.5 27.5 -0.5 L 27.5 25.5 C 27.5 26.5 26.5 27.5 25.5 27.5 L 1.5 27.5 C 0.5 27.5 -0.5 26.5 -0.5 25.5 L -0.5 -0.5 C -0.5 -0.5 -0.5 -0.5 -0.5 -0.5 Z" stroke="#cccccc" stroke-width="1"></path>
      <title>Zoom out</title>
      <text x="10.5" data-z-index="1" style="font-size:15px;font-weight:bold;color:#333333;cursor:pointer;fill:#333333;" y="19">-</text>
   </g>
   <g data-z-index="6" class="highcharts-data-labels highcharts-series-0 highcharts-map-series  highcharts-tracker " transform="translate(10,10) scale(1 1)" clip-path="url(#highcharts-e6n97yx-1-)" style="cursor:pointer;"></g>
   <g data-z-index="6" class="highcharts-data-labels highcharts-series-1 highcharts-mapline-series  highcharts-tracker " transform="translate(10,10) scale(1 1)" clip-path="url(#highcharts-e6n97yx-1-)" style="cursor:pointer;" opacity="1"></g>
   <g class="highcharts-label highcharts-tooltip highcharts-color-undefined" style="pointer-events:auto;white-space:nowrap;" data-z-index="8" transform="translate(41,-9999)" opacity="0" visibility="visible">
      <path fill="rgba(247,247,247,0.85)" class="highcharts-label-box highcharts-tooltip-box" d="M 0 0 L 280 0 C 280 0 280 0 280 0 L 280 229 C 280 229 280 229 280 229 L 252 229 246 235 240 229 0 229 C 0 229 0 229 0 229 L 0 0 C 0 0 0 0 0 0"></path>
   </g>
</svg>