<svg version="1.1" class="highcharts-root" style="font-family:&quot;Lucida Grande&quot;, &quot;Lucida Sans Unicode&quot;, Arial, Helvetica, sans-serif;font-size:12px;" xmlns="http://www.w3.org/2000/svg" width="696" height="640" viewBox="0 0 696 640">
   <desc>Created with Highcharts 7.1.0</desc>
   <defs>
      <clipPath id="highcharts-bf91tqk-1-">
         <rect x="0" y="0" width="676" height="615" fill="none"></rect>
      </clipPath>
   </defs>
   <rect fill="#fff" class="highcharts-background" x="0" y="0" width="696" height="640" rx="0" ry="0"></rect>
   <rect fill="none" class="highcharts-plot-background" x="10" y="10" width="676" height="615"></rect>
   <rect fill="none" class="highcharts-plot-border" data-z-index="1" x="10" y="10" width="676" height="615"></rect>
   <g class="highcharts-series-group" data-z-index="3" style="pointer-events: auto;">
      <g data-z-index="0.1" class="highcharts-series highcharts-series-0 highcharts-map-series  highcharts-tracker " transform="translate(10,10) scale(1 1)" stroke-width="0.3" style="cursor:pointer;" clip-path="url(#highcharts-bf91tqk-1-)">
         <g transform="translate(0,0) scale(1 1)">
            <path fill="#FF9650" d="M 354.15975519984767 223.22081652837272 L 369.3909421222594 235.63850473904162 401.5096845438774 228.92598456479968 429.50532067815556 248.89906199907168 406.52573071821274 317.47777540167044 391.3756889078458 328.6319722135793 360.76110112446634 313.9612952207121 344.8378866936511 392.04196675951897 318.81611083127166 426.43013021512064 283.65549799693713 407.4726225575132 289.4116885670871 356.0849800033006 332.3170359498584 231.15501767651548 354.15975519984767 223.22081652837272 Z" stroke="#000" stroke-width="inherit" opacity="1" class="highcharts-point" data-constituency="MN_1" data-const-name="Inner Manipur" data-const-id="MN_1" data-won-alliance="NDA"></path>
            <path fill="rgb(136,136,136)" d="M 621.8880153822741 56.51708318514219 L 592.7280390429293 115.82219813111267 593.7227085621965 148.49169455697523 643.6941454191252 169.01500764389178 642.4521068364272 207.74971247724915 624.9921744261752 251.3273669091584 607.3058207742749 269.0620971685711 596.7078106770006 313.0856282486645 575.9203396292284 314.9668537886758 565.3934552025466 349.63578543857756 546.1738669840198 363.92372885027453 475.60980040741447 505.5678998760108 469.5284807040981 548.5033186206473 443.1689351646291 588.6101886447 440.349404759303 615 390.44977277407924 586.6330096476424 348.230512718405 579.2584036494253 317.6587602852134 586.7305962467364 301.76541570451775 561.9957675188246 251.0984168552283 559.5717520007167 248.6531973558949 572.5312711453663 201.05102694142408 573.3777501459981 181.36814679438672 535.5934327881822 154.26271087266264 544.5069400294029 82.04180579921956 540.6321260004548 32.30585458087478 517.9986635989325 49.43596007004015 452.1496740727197 37.40328651970271 422.6178189884053 55.573710138848 373.47640783171 71.0735029122641 360.35888051030554 68.16821295155535 316.31971490362577 76.51291012654814 283.990235469638 104.42378586406598 282.64930598755234 125.37156757191016 243.53662764838344 125.25980529131118 223.94841949249812 123.8694418156598 208.7691685147535 154.09244094818524 182.03487308800734 177.70240017024398 123.9228946152053 202.1866035695946 107.90192837354586 212.63263282993225 127.36222867713667 248.67153898338228 145.28967737609923 276.1947495567364 100.42334012839412 308.8622675419737 67.96549527662943 328.1726178542356 19.8817914219311 389.22178357549774 15.754698609704704 416.92402146154166 30.626940406253077 451.1665577088074 31.38379371927985 490.0128361453131 44.049028263812076 532.7376136442589 23.87062222247127 549.598116280398 0 577.9407068184875 12.534994184857597 578.4968689518524 37.95201130853383 621.8880153822741 56.51708318514219 M 354.15975519984767 223.22081652837272 L 332.3170359498584 231.15501767651548 289.4116885670871 356.0849800033006 283.65549799693713 407.4726225575132 318.81611083127166 426.43013021512064 344.8378866936511 392.04196675951897 360.76110112446634 313.9612952207121 391.3756889078458 328.6319722135793 406.52573071821274 317.47777540167044 429.50532067815556 248.89906199907168 401.5096845438774 228.92598456479968 369.3909421222594 235.63850473904162 354.15975519984767 223.22081652837272 Z" stroke="#000" stroke-width="inherit" opacity="1" class="highcharts-point " data-constituency="MN_2" data-const-name="Outer Manipur" data-const-id="MN_2" data-won-alliance="OTH" data-z-index="0"></path>
         </g>
      </g>
      <g data-z-index="0.1" class="highcharts-markers highcharts-series-0 highcharts-map-series  highcharts-tracker " transform="translate(10,10) scale(1 1)" style="cursor:pointer;" clip-path="none"></g>
      <g data-z-index="0.1" class="highcharts-series highcharts-series-1 highcharts-mapline-series  highcharts-tracker " transform="translate(10,10) scale(1 1)" stroke-width="1" style="cursor:pointer;" clip-path="url(#highcharts-bf91tqk-1-)" opacity="1">
         <g transform="translate(0,0) scale(1 1)">
            <path fill="none" d="M 354.15975519984767 223.22081652837272 L 369.3909421222594 235.63850473904162 401.5096845438774 228.92598456479968 429.50532067815556 248.89906199907168 406.52573071821274 317.47777540167044 391.3756889078458 328.6319722135793 360.76110112446634 313.9612952207121 344.8378866936511 392.04196675951897 318.81611083127166 426.43013021512064 283.65549799693713 407.4726225575132 289.4116885670871 356.0849800033006 332.3170359498584 231.15501767651548 354.15975519984767 223.22081652837272 Z" stroke="#eee" stroke-width="inherit" opacity="1" class="highcharts-point" data-state="MN" data-key="MN_1"></path>
            <path fill="none" d="M 621.8880153822741 56.51708318514219 L 592.7280390429293 115.82219813111267 593.7227085621965 148.49169455697523 643.6941454191252 169.01500764389178 642.4521068364272 207.74971247724915 624.9921744261752 251.3273669091584 607.3058207742749 269.0620971685711 596.7078106770006 313.0856282486645 575.9203396292284 314.9668537886758 565.3934552025466 349.63578543857756 546.1738669840198 363.92372885027453 475.60980040741447 505.5678998760108 469.5284807040981 548.5033186206473 443.1689351646291 588.6101886447 440.349404759303 615 390.44977277407924 586.6330096476424 348.230512718405 579.2584036494253 317.6587602852134 586.7305962467364 301.76541570451775 561.9957675188246 251.0984168552283 559.5717520007167 248.6531973558949 572.5312711453663 201.05102694142408 573.3777501459981 181.36814679438672 535.5934327881822 154.26271087266264 544.5069400294029 82.04180579921956 540.6321260004548 32.30585458087478 517.9986635989325 49.43596007004015 452.1496740727197 37.40328651970271 422.6178189884053 55.573710138848 373.47640783171 71.0735029122641 360.35888051030554 68.16821295155535 316.31971490362577 76.51291012654814 283.990235469638 104.42378586406598 282.64930598755234 125.37156757191016 243.53662764838344 125.25980529131118 223.94841949249812 123.8694418156598 208.7691685147535 154.09244094818524 182.03487308800734 177.70240017024398 123.9228946152053 202.1866035695946 107.90192837354586 212.63263282993225 127.36222867713667 248.67153898338228 145.28967737609923 276.1947495567364 100.42334012839412 308.8622675419737 67.96549527662943 328.1726178542356 19.8817914219311 389.22178357549774 15.754698609704704 416.92402146154166 30.626940406253077 451.1665577088074 31.38379371927985 490.0128361453131 44.049028263812076 532.7376136442589 23.87062222247127 549.598116280398 0 577.9407068184875 12.534994184857597 578.4968689518524 37.95201130853383 621.8880153822741 56.51708318514219 M 354.15975519984767 223.22081652837272 L 332.3170359498584 231.15501767651548 289.4116885670871 356.0849800033006 283.65549799693713 407.4726225575132 318.81611083127166 426.43013021512064 344.8378866936511 392.04196675951897 360.76110112446634 313.9612952207121 391.3756889078458 328.6319722135793 406.52573071821274 317.47777540167044 429.50532067815556 248.89906199907168 401.5096845438774 228.92598456479968 369.3909421222594 235.63850473904162 354.15975519984767 223.22081652837272 Z" stroke="#eee" stroke-width="inherit" opacity="1" class="highcharts-point" data-state="MN" data-key="MN_2"></path>
         </g>
      </g>
      <g data-z-index="0.1" class="highcharts-markers highcharts-series-1 highcharts-mapline-series  highcharts-tracker " transform="translate(10,10) scale(1 1)" style="cursor:pointer;" clip-path="none" opacity="1"></g>
   </g>
   <text x="348" text-anchor="middle" class="highcharts-title" data-z-index="4" style="color:#333333;font-size:18px;fill:#333333;" y="24"></text>
   <text x="348" text-anchor="middle" class="highcharts-subtitle" data-z-index="4" style="color:#666666;fill:#666666;" y="24"></text>
   <g class="highcharts-button highcharts-map-navigation highcharts-zoom-in" style="[object Object]" data-z-index="5" transform="translate(658,10)">
      <path fill="#f7f7f7" class="highcharts-button-box" d="M 1.5 -0.5 L 25.5 -0.5 C 26.5 -0.5 27.5 0.5 27.5 1.5 L 27.5 27.5 C 27.5 27.5 27.5 27.5 27.5 27.5 L -0.5 27.5 C -0.5 27.5 -0.5 27.5 -0.5 27.5 L -0.5 1.5 C -0.5 0.5 0.5 -0.5 1.5 -0.5 Z" stroke="#cccccc" stroke-width="1"></path>
      <title>Zoom in</title>
      <text x="7.59375" data-z-index="1" style="font-size:15px;font-weight:bold;color:#333333;cursor:pointer;fill:#333333;" y="19">+</text>
   </g>
   <g class="highcharts-button highcharts-map-navigation highcharts-zoom-out" style="[object Object]" data-z-index="5" transform="translate(658,38)">
      <path fill="#f7f7f7" class="highcharts-button-box" d="M -0.5 -0.5 L 27.5 -0.5 C 27.5 -0.5 27.5 -0.5 27.5 -0.5 L 27.5 25.5 C 27.5 26.5 26.5 27.5 25.5 27.5 L 1.5 27.5 C 0.5 27.5 -0.5 26.5 -0.5 25.5 L -0.5 -0.5 C -0.5 -0.5 -0.5 -0.5 -0.5 -0.5 Z" stroke="#cccccc" stroke-width="1"></path>
      <title>Zoom out</title>
      <text x="10.5" data-z-index="1" style="font-size:15px;font-weight:bold;color:#333333;cursor:pointer;fill:#333333;" y="19">-</text>
   </g>
   <g data-z-index="6" class="highcharts-data-labels highcharts-series-0 highcharts-map-series  highcharts-tracker " transform="translate(10,10) scale(1 1)" clip-path="url(#highcharts-bf91tqk-1-)" style="cursor:pointer;"></g>
   <g data-z-index="6" class="highcharts-data-labels highcharts-series-1 highcharts-mapline-series  highcharts-tracker " transform="translate(10,10) scale(1 1)" clip-path="url(#highcharts-bf91tqk-1-)" style="cursor:pointer;" opacity="1"></g>
   <g class="highcharts-label highcharts-tooltip highcharts-color-undefined" style="pointer-events:auto;white-space:nowrap;" data-z-index="8" transform="translate(208,-9999)" opacity="0" visibility="visible">
      <path fill="rgba(247,247,247,0.85)" class="highcharts-label-box highcharts-tooltip-box" d="M 0 0 L 280 0 C 280 0 280 0 280 0 L 280 226 C 280 226 280 226 280 226 L 146 226 140 232 134 226 0 226 C 0 226 0 226 0 226 L 0 0 C 0 0 0 0 0 0"></path>
   </g>
</svg>