<svg version="1.1" class="highcharts-root" style="font-family:&quot;Lucida Grande&quot;, &quot;Lucida Sans Unicode&quot;, Arial, Helvetica, sans-serif;font-size:12px;" xmlns="http://www.w3.org/2000/svg" width="696" height="640" viewBox="0 0 696 640">
   <desc>Created with Highcharts 7.1.0</desc>
   <defs>
      <clipPath id="highcharts-50um2lw-1-">
         <rect x="0" y="0" width="676" height="615" fill="none"></rect>
      </clipPath>
   </defs>
   <rect fill="#fff" class="highcharts-background" x="0" y="0" width="696" height="640" rx="0" ry="0"></rect>
   <rect fill="none" class="highcharts-plot-background" x="10" y="10" width="676" height="615"></rect>
   <rect fill="none" class="highcharts-plot-border" data-z-index="1" x="10" y="10" width="676" height="615"></rect>
   <g class="highcharts-series-group" data-z-index="3" style="pointer-events: auto;">
      <g data-z-index="0.1" class="highcharts-series highcharts-series-0 highcharts-map-series  highcharts-tracker highcharts-series-hover" transform="translate(10,10) scale(1 1)" stroke-width="0.3" style="cursor:pointer;" clip-path="url(#highcharts-50um2lw-1-)">
         <g transform="translate(0,0) scale(1 1)">
            <path fill="rgb(255,150,80)" d="M 174.76366555045868 219.8138879617254 L 175.8523174294251 221.14981515680077 184.93547582884187 229.54088190630338 210.6216065911732 229.96146439943178 242.95923623559668 221.68126615042473 272.60805401603375 237.01961313591863 269.65112935762255 251.1170150640806 265.4636636103573 268.77541473751944 235.17606014567434 303.6946638054685 219.23593680934397 304.85677320888277 222.30196560767462 326.4206716327516 216.00919291512676 354.3011351287254 233.46357307244398 358.03845272517754 260.0749431079598 381.89128100686605 262.5479776734186 398.7096930257129 239.77360981621663 401.6449912143705 221.77198736632783 396.48664832036263 198.76842258309298 401.31035555620997 158.20970838831005 399.64478030554983 143.25724302411444 405.24557483283263 117.61866377506094 394.3605246216184 67.78656553724733 386.9732514333392 21.37681224142097 367.9781668342193 0 353.8689667617456 8.921140878418838 329.5131155127324 16.696157266833584 311.0151472601698 42.97352617388838 305.0484654087761 18.52703834306952 272.55504609648625 32.38205009577385 261.8370099803805 68.40591797656195 220.29773977688043 116.19302224680672 216.46728925186846 125.43053284617316 208.3129363742102 150.91582723315878 207.20206105416733 174.76366555045868 219.8138879617254 Z" stroke="#000" stroke-width="inherit" opacity="1" class="highcharts-point " data-constituency="ML_2" data-const-name="Tura" data-const-id="ML_2" data-won-alliance="NDA" data-z-index="0"></path>
            <path fill="rgb(81,231,255)" d="M 536.9329281861806 192.92411508173478 L 564.900980800397 193.64407095518342 534.002635842988 219.06829785146215 537.4875603018605 240.16124207441987 531.1269853228724 253.52955812180798 534.8672978424361 286.7847407326716 550.1002341299231 277.2656857868289 590.853067294539 270.0227556308055 609.314998295806 295.8460787812655 629.6166348524333 312.6840454182445 643.8905963517211 340.2724282082721 676 373.241332782019 665.7512029907127 391.181839898714 637.2471537295442 411.59635510328894 619.3902400758416 415.67872090892087 606.0877236491268 413.7350942640704 592.5722420161238 431.0789498717836 548.7479748767871 415.85315788335305 513.584611126061 395.6224589589997 439.0840931576198 398.9196453407849 415.3132103147993 409.6740933238884 406.41980456121087 398.4616591377775 381.46957435877556 407.3203693005796 329.5763694983509 390.9422747018883 287.96823522221075 392.0444063245508 262.5479776734186 398.7096930257129 260.0749431079598 381.89128100686605 233.46357307244398 358.03845272517754 216.00919291512676 354.3011351287254 222.30196560767462 326.4206716327516 219.23593680934397 304.85677320888277 235.17606014567434 303.6946638054685 265.4636636103573 268.77541473751944 269.65112935762255 251.1170150640806 304.17174662017015 244.82338201546486 320.24977596292445 273.6049385930065 344.9154859899818 248.9413726723447 375.84690457899455 242.84899862117214 398.8873238599508 204.60284186160408 412.4957295143216 223.4358904984733 432.9348685155781 221.3130801274977 435.48153251209106 197.4276156379014 455.479827310484 183.9210501282164 469.9586499081601 204.09945819269333 526.6641736829023 200.5518294728161 536.9329281861806 192.92411508173478 Z" stroke="#000" stroke-width="inherit" opacity="1" class="highcharts-point  highcharts-point-hover" data-constituency="ML_1" data-const-name="Shillong" data-const-id="ML_1" data-won-alliance="UPA" data-z-index="1"></path>
         </g>
      </g>
      <g data-z-index="0.1" class="highcharts-markers highcharts-series-0 highcharts-map-series  highcharts-tracker highcharts-series-hover" transform="translate(10,10) scale(1 1)" style="cursor:pointer;" clip-path="none"></g>
      <g data-z-index="0.1" class="highcharts-series highcharts-series-1 highcharts-mapline-series  highcharts-tracker highcharts-series-inactive" transform="translate(10,10) scale(1 1)" stroke-width="1" style="cursor:pointer;" clip-path="url(#highcharts-50um2lw-1-)" opacity="0.2">
         <g transform="translate(0,0) scale(1 1)">
            <path fill="none" d="M 174.76366555045868 219.8138879617254 L 175.8523174294251 221.14981515680077 184.93547582884187 229.54088190630338 210.6216065911732 229.96146439943178 242.95923623559668 221.68126615042473 272.60805401603375 237.01961313591863 269.65112935762255 251.1170150640806 265.4636636103573 268.77541473751944 235.17606014567434 303.6946638054685 219.23593680934397 304.85677320888277 222.30196560767462 326.4206716327516 216.00919291512676 354.3011351287254 233.46357307244398 358.03845272517754 260.0749431079598 381.89128100686605 262.5479776734186 398.7096930257129 239.77360981621663 401.6449912143705 221.77198736632783 396.48664832036263 198.76842258309298 401.31035555620997 158.20970838831005 399.64478030554983 143.25724302411444 405.24557483283263 117.61866377506094 394.3605246216184 67.78656553724733 386.9732514333392 21.37681224142097 367.9781668342193 0 353.8689667617456 8.921140878418838 329.5131155127324 16.696157266833584 311.0151472601698 42.97352617388838 305.0484654087761 18.52703834306952 272.55504609648625 32.38205009577385 261.8370099803805 68.40591797656195 220.29773977688043 116.19302224680672 216.46728925186846 125.43053284617316 208.3129363742102 150.91582723315878 207.20206105416733 174.76366555045868 219.8138879617254 Z" stroke="#eee" stroke-width="inherit" opacity="1" class="highcharts-point" data-state="ML" data-key="ML_2"></path>
            <path fill="none" d="M 536.9329281861806 192.92411508173478 L 564.900980800397 193.64407095518342 534.002635842988 219.06829785146215 537.4875603018605 240.16124207441987 531.1269853228724 253.52955812180798 534.8672978424361 286.7847407326716 550.1002341299231 277.2656857868289 590.853067294539 270.0227556308055 609.314998295806 295.8460787812655 629.6166348524333 312.6840454182445 643.8905963517211 340.2724282082721 676 373.241332782019 665.7512029907127 391.181839898714 637.2471537295442 411.59635510328894 619.3902400758416 415.67872090892087 606.0877236491268 413.7350942640704 592.5722420161238 431.0789498717836 548.7479748767871 415.85315788335305 513.584611126061 395.6224589589997 439.0840931576198 398.9196453407849 415.3132103147993 409.6740933238884 406.41980456121087 398.4616591377775 381.46957435877556 407.3203693005796 329.5763694983509 390.9422747018883 287.96823522221075 392.0444063245508 262.5479776734186 398.7096930257129 260.0749431079598 381.89128100686605 233.46357307244398 358.03845272517754 216.00919291512676 354.3011351287254 222.30196560767462 326.4206716327516 219.23593680934397 304.85677320888277 235.17606014567434 303.6946638054685 265.4636636103573 268.77541473751944 269.65112935762255 251.1170150640806 304.17174662017015 244.82338201546486 320.24977596292445 273.6049385930065 344.9154859899818 248.9413726723447 375.84690457899455 242.84899862117214 398.8873238599508 204.60284186160408 412.4957295143216 223.4358904984733 432.9348685155781 221.3130801274977 435.48153251209106 197.4276156379014 455.479827310484 183.9210501282164 469.9586499081601 204.09945819269333 526.6641736829023 200.5518294728161 536.9329281861806 192.92411508173478 Z" stroke="#eee" stroke-width="inherit" opacity="1" class="highcharts-point" data-state="ML" data-key="ML_1"></path>
         </g>
      </g>
      <g data-z-index="0.1" class="highcharts-markers highcharts-series-1 highcharts-mapline-series  highcharts-tracker highcharts-series-inactive" transform="translate(10,10) scale(1 1)" style="cursor:pointer;" clip-path="none" opacity="0.2"></g>
   </g>
   <text x="348" text-anchor="middle" class="highcharts-title" data-z-index="4" style="color:#333333;font-size:18px;fill:#333333;" y="24"></text>
   <text x="348" text-anchor="middle" class="highcharts-subtitle" data-z-index="4" style="color:#666666;fill:#666666;" y="24"></text>
   <g class="highcharts-button highcharts-map-navigation highcharts-zoom-in" style="[object Object]" data-z-index="5" transform="translate(658,10)">
      <path fill="#f7f7f7" class="highcharts-button-box" d="M 1.5 -0.5 L 25.5 -0.5 C 26.5 -0.5 27.5 0.5 27.5 1.5 L 27.5 27.5 C 27.5 27.5 27.5 27.5 27.5 27.5 L -0.5 27.5 C -0.5 27.5 -0.5 27.5 -0.5 27.5 L -0.5 1.5 C -0.5 0.5 0.5 -0.5 1.5 -0.5 Z" stroke="#cccccc" stroke-width="1"></path>
      <title>Zoom in</title>
      <text x="7.59375" data-z-index="1" style="font-size:15px;font-weight:bold;color:#333333;cursor:pointer;fill:#333333;" y="19">+</text>
   </g>
   <g class="highcharts-button highcharts-map-navigation highcharts-zoom-out" style="[object Object]" data-z-index="5" transform="translate(658,38)">
      <path fill="#f7f7f7" class="highcharts-button-box" d="M -0.5 -0.5 L 27.5 -0.5 C 27.5 -0.5 27.5 -0.5 27.5 -0.5 L 27.5 25.5 C 27.5 26.5 26.5 27.5 25.5 27.5 L 1.5 27.5 C 0.5 27.5 -0.5 26.5 -0.5 25.5 L -0.5 -0.5 C -0.5 -0.5 -0.5 -0.5 -0.5 -0.5 Z" stroke="#cccccc" stroke-width="1"></path>
      <title>Zoom out</title>
      <text x="10.5" data-z-index="1" style="font-size:15px;font-weight:bold;color:#333333;cursor:pointer;fill:#333333;" y="19">-</text>
   </g>
   <g data-z-index="6" class="highcharts-data-labels highcharts-series-0 highcharts-map-series  highcharts-tracker highcharts-series-hover" transform="translate(10,10) scale(1 1)" clip-path="url(#highcharts-50um2lw-1-)" style="cursor:pointer;"></g>
   <g data-z-index="6" class="highcharts-data-labels highcharts-series-1 highcharts-mapline-series  highcharts-tracker highcharts-series-inactive" transform="translate(10,10) scale(1 1)" clip-path="url(#highcharts-50um2lw-1-)" style="cursor:pointer;" opacity="0.2"></g>
   <g class="highcharts-label highcharts-tooltip highcharts-color-undefined" style="pointer-events:auto;white-space:nowrap;" data-z-index="8" transform="translate(316,-9999)" opacity="0" visibility="visible">
      <path fill="rgba(247,247,247,0.85)" class="highcharts-label-box highcharts-tooltip-box" d="M 0 0 L 280 0 C 280 0 280 0 280 0 L 280 226 C 280 226 280 226 280 226 L 146 226 140 232 134 226 0 226 C 0 226 0 226 0 226 L 0 0 C 0 0 0 0 0 0"></path>
   </g>
</svg>