<svg version="1.1" class="highcharts-root" style="font-family:&quot;Lucida Grande&quot;, &quot;Lucida Sans Unicode&quot;, Arial, Helvetica, sans-serif;font-size:12px;" xmlns="http://www.w3.org/2000/svg" width="696" height="640" viewBox="0 0 696 640">
   <desc>Created with Highcharts 7.1.0</desc>
   <defs>
      <clipPath id="highcharts-7e7m4lc-1-">
         <rect x="0" y="0" width="676" height="615" fill="none"></rect>
      </clipPath>
   </defs>
   <rect fill="#fff" class="highcharts-background" x="0" y="0" width="696" height="640" rx="0" ry="0"></rect>
   <rect fill="none" class="highcharts-plot-background" x="10" y="10" width="676" height="615"></rect>
   <rect fill="none" class="highcharts-plot-border" data-z-index="1" x="10" y="10" width="676" height="615"></rect>
   <g class="highcharts-series-group" data-z-index="3" style="pointer-events: auto;">
      <g data-z-index="0.1" class="highcharts-series highcharts-series-0 highcharts-map-series  highcharts-tracker " transform="translate(10,10) scale(1 1)" stroke-width="0.3" style="cursor:pointer;" clip-path="url(#highcharts-7e7m4lc-1-)">
         <g transform="translate(0,0) scale(1 1)">
            <path fill="rgb(255,150,80)" d="M 376.5168559054597 28.941115474582386 L 385.0030234804684 49.76876196544368 372.9218392656305 96.20944345046279 407.998633693374 112.17192709455635 458.9331745755912 114.9046797977763 458.9351792634363 132.21792930612978 473.92971301048254 145.12704564812415 481.1048523726227 212.9920847003095 469.05157954619426 291.62702879360785 472.79789820260265 318.2077845486902 463.8307595347554 354.0572385455233 450.0422514109721 371.0852232713363 426.5955352393483 359.1258701389104 408.66413545569276 361.3775963135551 415.94429882562923 394.2299821088025 400.37882989707543 419.4669525369526 398.5160805225082 444.23153116065725 411.6853344768998 474.4644076991119 408.9516946857188 501.7291238609219 422.7287245833794 513.4256359068645 425.4303069668629 549.3064323316663 394.8249223724423 566.5641619008483 376.13790494402826 604.3661535343552 350.05560298877595 615 331.1710355853079 594.4614196317431 303.34608673618743 580.1313007852262 300.03652490644123 607.7587764188916 278.5168296123577 614.717002306646 269.73081856466683 584.9009739305965 278.44881357799784 573.0892445585512 256.5748209659671 437.1917857211226 243.86350464488586 403.2717611507996 223.46606336225108 388.48762408498914 228.68607688015118 359.6575345975927 219.0473320876037 314.8217353189354 227.79979773437032 307.6051251653013 224.33164252420016 280.98736894758684 213.49681741891905 258.41916830566373 197.24332086723697 194.6245345553406 194.8951476273773 172.80541903631539 212.48910917722282 149.10924647870215 210.95140626789612 77.04370644086796 204.1042574450338 65.77111909543034 234.90338660680322 65.48705599603305 238.35631108380682 90.17368213907915 261.15846669863447 84.73030733866331 266.314836971971 67.31100362614887 281.24208469997853 65.51292084623125 284.8297949134182 45.632009404105226 300.87903381295234 40.28001109655856 318.92240807208094 0 335.1723888871929 29.82012428351411 376.5168559054597 28.941115474582386 Z" stroke="#000" stroke-width="inherit" opacity="1" class="highcharts-point " data-constituency="MZ_1" data-const-name="Mizoram" data-const-id="MZ_1" data-won-alliance="NDA" data-z-index="0"></path>
         </g>
      </g>
      <g data-z-index="0.1" class="highcharts-markers highcharts-series-0 highcharts-map-series  highcharts-tracker " transform="translate(10,10) scale(1 1)" style="cursor:pointer;" clip-path="none"></g>
      <g data-z-index="0.1" class="highcharts-series highcharts-series-1 highcharts-mapline-series  highcharts-tracker " transform="translate(10,10) scale(1 1)" stroke-width="1" style="cursor:pointer;" clip-path="url(#highcharts-7e7m4lc-1-)" opacity="1">
         <g transform="translate(0,0) scale(1 1)">
            <path fill="none" d="M 376.5168559054597 28.941115474582386 L 385.0030234804684 49.76876196544368 372.9218392656305 96.20944345046279 407.998633693374 112.17192709455635 458.9331745755912 114.9046797977763 458.9351792634363 132.21792930612978 473.92971301048254 145.12704564812415 481.1048523726227 212.9920847003095 469.05157954619426 291.62702879360785 472.79789820260265 318.2077845486902 463.8307595347554 354.0572385455233 450.0422514109721 371.0852232713363 426.5955352393483 359.1258701389104 408.66413545569276 361.3775963135551 415.94429882562923 394.2299821088025 400.37882989707543 419.4669525369526 398.5160805225082 444.23153116065725 411.6853344768998 474.4644076991119 408.9516946857188 501.7291238609219 422.7287245833794 513.4256359068645 425.4303069668629 549.3064323316663 394.8249223724423 566.5641619008483 376.13790494402826 604.3661535343552 350.05560298877595 615 331.1710355853079 594.4614196317431 303.34608673618743 580.1313007852262 300.03652490644123 607.7587764188916 278.5168296123577 614.717002306646 269.73081856466683 584.9009739305965 278.44881357799784 573.0892445585512 256.5748209659671 437.1917857211226 243.86350464488586 403.2717611507996 223.46606336225108 388.48762408498914 228.68607688015118 359.6575345975927 219.0473320876037 314.8217353189354 227.79979773437032 307.6051251653013 224.33164252420016 280.98736894758684 213.49681741891905 258.41916830566373 197.24332086723697 194.6245345553406 194.8951476273773 172.80541903631539 212.48910917722282 149.10924647870215 210.95140626789612 77.04370644086796 204.1042574450338 65.77111909543034 234.90338660680322 65.48705599603305 238.35631108380682 90.17368213907915 261.15846669863447 84.73030733866331 266.314836971971 67.31100362614887 281.24208469997853 65.51292084623125 284.8297949134182 45.632009404105226 300.87903381295234 40.28001109655856 318.92240807208094 0 335.1723888871929 29.82012428351411 376.5168559054597 28.941115474582386 Z" stroke="#eee" stroke-width="inherit" opacity="1" class="highcharts-point" data-state="MZ" data-key="MZ_1"></path>
         </g>
      </g>
      <g data-z-index="0.1" class="highcharts-markers highcharts-series-1 highcharts-mapline-series  highcharts-tracker " transform="translate(10,10) scale(1 1)" style="cursor:pointer;" clip-path="none" opacity="1"></g>
   </g>
   <text x="348" text-anchor="middle" class="highcharts-title" data-z-index="4" style="color:#333333;font-size:18px;fill:#333333;" y="24"></text>
   <text x="348" text-anchor="middle" class="highcharts-subtitle" data-z-index="4" style="color:#666666;fill:#666666;" y="24"></text>
   <g class="highcharts-button highcharts-map-navigation highcharts-zoom-in" style="[object Object]" data-z-index="5" transform="translate(658,10)">
      <path fill="#f7f7f7" class="highcharts-button-box" d="M 1.5 -0.5 L 25.5 -0.5 C 26.5 -0.5 27.5 0.5 27.5 1.5 L 27.5 27.5 C 27.5 27.5 27.5 27.5 27.5 27.5 L -0.5 27.5 C -0.5 27.5 -0.5 27.5 -0.5 27.5 L -0.5 1.5 C -0.5 0.5 0.5 -0.5 1.5 -0.5 Z" stroke="#cccccc" stroke-width="1"></path>
      <title>Zoom in</title>
      <text x="7.59375" data-z-index="1" style="font-size:15px;font-weight:bold;color:#333333;cursor:pointer;fill:#333333;" y="19">+</text>
   </g>
   <g class="highcharts-button highcharts-map-navigation highcharts-zoom-out" style="[object Object]" data-z-index="5" transform="translate(658,38)">
      <path fill="#f7f7f7" class="highcharts-button-box" d="M -0.5 -0.5 L 27.5 -0.5 C 27.5 -0.5 27.5 -0.5 27.5 -0.5 L 27.5 25.5 C 27.5 26.5 26.5 27.5 25.5 27.5 L 1.5 27.5 C 0.5 27.5 -0.5 26.5 -0.5 25.5 L -0.5 -0.5 C -0.5 -0.5 -0.5 -0.5 -0.5 -0.5 Z" stroke="#cccccc" stroke-width="1"></path>
      <title>Zoom out</title>
      <text x="10.5" data-z-index="1" style="font-size:15px;font-weight:bold;color:#333333;cursor:pointer;fill:#333333;" y="19">-</text>
   </g>
   <g data-z-index="6" class="highcharts-data-labels highcharts-series-0 highcharts-map-series  highcharts-tracker " transform="translate(10,10) scale(1 1)" clip-path="url(#highcharts-7e7m4lc-1-)" style="cursor:pointer;"></g>
   <g data-z-index="6" class="highcharts-data-labels highcharts-series-1 highcharts-mapline-series  highcharts-tracker " transform="translate(10,10) scale(1 1)" clip-path="url(#highcharts-7e7m4lc-1-)" style="cursor:pointer;" opacity="1"></g>
   <g class="highcharts-label highcharts-tooltip highcharts-color-undefined" style="pointer-events:auto;white-space:nowrap;" data-z-index="8" transform="translate(208,-9999)" opacity="0" visibility="visible">
      <path fill="rgba(247,247,247,0.85)" class="highcharts-label-box highcharts-tooltip-box" d="M 0 0 L 280 0 C 280 0 280 0 280 0 L 280 226 C 280 226 280 226 280 226 L 146 226 140 232 134 226 0 226 C 0 226 0 226 0 226 L 0 0 C 0 0 0 0 0 0"></path>
   </g>
</svg>