<svg version="1.1" class="highcharts-root" style="font-family:&quot;Lucida Grande&quot;, &quot;Lucida Sans Unicode&quot;, Arial, Helvetica, sans-serif;font-size:12px;" xmlns="http://www.w3.org/2000/svg" width="696" height="640" viewBox="0 0 696 640">
   <desc>Created with Highcharts 7.1.0</desc>
   <defs>
      <clipPath id="highcharts-rfys4be-1-">
         <rect x="0" y="0" width="676" height="615" fill="none"></rect>
      </clipPath>
   </defs>
   <rect fill="#fff" class="highcharts-background" x="0" y="0" width="696" height="640" rx="0" ry="0"></rect>
   <rect fill="none" class="highcharts-plot-background" x="10" y="10" width="676" height="615"></rect>
   <rect fill="none" class="highcharts-plot-border" data-z-index="1" x="10" y="10" width="676" height="615"></rect>
   <g class="highcharts-series-group" data-z-index="3" style="pointer-events: auto;">
      <g data-z-index="0.1" class="highcharts-series highcharts-series-0 highcharts-map-series  highcharts-tracker   highcharts-series-hover" transform="translate(10,10) scale(1 1)" stroke-width="0.3" style="cursor:pointer;" clip-path="url(#highcharts-rfys4be-1-)">
         <g transform="translate(0,0) scale(1 1)">
            <path fill="rgb(255,201,131)" d="M 656.2852127877718 119.47268977949646 L 599.7732950452532 192.8792462678454 622.0838359334392 219.33017429549122 618.9203179527349 315.3551878925349 638.500900150893 320.87040825616606 581.6304931743091 391.9146752837978 593.9784654004123 428.55438210080706 554.711617770487 461.2913713587183 549.9529404622341 477.9218693139488 513.6805956461374 517.8097937828372 470.2303527323791 529.6229206723675 428.4988996339362 511.76795508554625 427.96401047121566 487.323128311959 400.7055122514175 475.2675924492815 384.4899168394718 498.2251732844655 343.39934433759794 517.6317636741853 306.03891991964514 505.45096909150607 273.1061464639839 504.7230651034051 246.4635076732089 490.41968037959816 187.7494471889775 494.3889136056094 169.17770975717562 540.6334357555226 137.75971076907598 571.8497815204342 111.28925157062484 615 76.62881861171466 597.7582687690646 66.58234563267598 579.0423168708325 60.91242832504159 534.6494094494826 19.714787212228202 498.75776669406724 69.84705388470195 466.48661159597555 99.97558987859978 429.45974212822574 144.4444664717226 397.19959352523125 138.20831901023155 378.40048928935664 166.73659461850335 359.5236339546417 192.96729480315759 394.05492127436764 236.7398614624824 372.9607731144435 227.49968326616255 345.8173005904516 246.99854516732267 285.97101860324784 278.81002069326803 239.14116904729667 298.73894884810466 230.17210482885997 305.10482861628805 194.30528018137323 375.28257302485036 171.2694283126446 379.77847940947044 142.257736973423 424.9829543022836 110.72574125888649 472.27046880319875 103.56152919290318 510.9287150862075 79.04382352523037 539.0590635747784 36.779073281380114 572.2693028056896 41.60672966856081 606.0879661203022 30.12979425610407 642.4339301878477 0 653.834847132049 52.69995341556966 638.6475110796324 59.64514486781943 656.2852127877718 119.47268977949646 Z" stroke="#000" stroke-width="inherit" opacity="1" class="highcharts-point   highcharts-point-hover" data-constituency="NL_1" data-const-name="Nagaland" data-const-id="NL_1" data-won-alliance="NDA" data-z-index="1"></path>
         </g>
      </g>
      <g data-z-index="0.1" class="highcharts-markers highcharts-series-0 highcharts-map-series  highcharts-tracker   highcharts-series-hover" transform="translate(10,10) scale(1 1)" style="cursor:pointer;" clip-path="none"></g>
      <g data-z-index="0.1" class="highcharts-series highcharts-series-1 highcharts-mapline-series  highcharts-tracker   highcharts-series-inactive" transform="translate(10,10) scale(1 1)" stroke-width="1" style="cursor:pointer;" clip-path="url(#highcharts-rfys4be-1-)" opacity="0.2">
         <g transform="translate(0,0) scale(1 1)">
            <path fill="none" d="M 656.2852127877718 119.47268977949646 L 599.7732950452532 192.8792462678454 622.0838359334392 219.33017429549122 618.9203179527349 315.3551878925349 638.500900150893 320.87040825616606 581.6304931743091 391.9146752837978 593.9784654004123 428.55438210080706 554.711617770487 461.2913713587183 549.9529404622341 477.9218693139488 513.6805956461374 517.8097937828372 470.2303527323791 529.6229206723675 428.4988996339362 511.76795508554625 427.96401047121566 487.323128311959 400.7055122514175 475.2675924492815 384.4899168394718 498.2251732844655 343.39934433759794 517.6317636741853 306.03891991964514 505.45096909150607 273.1061464639839 504.7230651034051 246.4635076732089 490.41968037959816 187.7494471889775 494.3889136056094 169.17770975717562 540.6334357555226 137.75971076907598 571.8497815204342 111.28925157062484 615 76.62881861171466 597.7582687690646 66.58234563267598 579.0423168708325 60.91242832504159 534.6494094494826 19.714787212228202 498.75776669406724 69.84705388470195 466.48661159597555 99.97558987859978 429.45974212822574 144.4444664717226 397.19959352523125 138.20831901023155 378.40048928935664 166.73659461850335 359.5236339546417 192.96729480315759 394.05492127436764 236.7398614624824 372.9607731144435 227.49968326616255 345.8173005904516 246.99854516732267 285.97101860324784 278.81002069326803 239.14116904729667 298.73894884810466 230.17210482885997 305.10482861628805 194.30528018137323 375.28257302485036 171.2694283126446 379.77847940947044 142.257736973423 424.9829543022836 110.72574125888649 472.27046880319875 103.56152919290318 510.9287150862075 79.04382352523037 539.0590635747784 36.779073281380114 572.2693028056896 41.60672966856081 606.0879661203022 30.12979425610407 642.4339301878477 0 653.834847132049 52.69995341556966 638.6475110796324 59.64514486781943 656.2852127877718 119.47268977949646 Z" stroke="#eee" stroke-width="inherit" opacity="1" class="highcharts-point" data-state="NL" data-key="NL_1"></path>
         </g>
      </g>
      <g data-z-index="0.1" class="highcharts-markers highcharts-series-1 highcharts-mapline-series  highcharts-tracker   highcharts-series-inactive" transform="translate(10,10) scale(1 1)" style="cursor:pointer;" clip-path="none" opacity="0.2"></g>
   </g>
   <text x="348" text-anchor="middle" class="highcharts-title" data-z-index="4" style="color:#333333;font-size:18px;fill:#333333;" y="24"></text>
   <text x="348" text-anchor="middle" class="highcharts-subtitle" data-z-index="4" style="color:#666666;fill:#666666;" y="24"></text>
   <g class="highcharts-button highcharts-map-navigation highcharts-zoom-in" style="[object Object]" data-z-index="5" transform="translate(658,10)">
      <path fill="#f7f7f7" class="highcharts-button-box" d="M 1.5 -0.5 L 25.5 -0.5 C 26.5 -0.5 27.5 0.5 27.5 1.5 L 27.5 27.5 C 27.5 27.5 27.5 27.5 27.5 27.5 L -0.5 27.5 C -0.5 27.5 -0.5 27.5 -0.5 27.5 L -0.5 1.5 C -0.5 0.5 0.5 -0.5 1.5 -0.5 Z" stroke="#cccccc" stroke-width="1"></path>
      <title>Zoom in</title>
      <text x="7.59375" data-z-index="1" style="font-size:15px;font-weight:bold;color:#333333;cursor:pointer;fill:#333333;" y="19">+</text>
   </g>
   <g class="highcharts-button highcharts-map-navigation highcharts-zoom-out" style="[object Object]" data-z-index="5" transform="translate(658,38)">
      <path fill="#f7f7f7" class="highcharts-button-box" d="M -0.5 -0.5 L 27.5 -0.5 C 27.5 -0.5 27.5 -0.5 27.5 -0.5 L 27.5 25.5 C 27.5 26.5 26.5 27.5 25.5 27.5 L 1.5 27.5 C 0.5 27.5 -0.5 26.5 -0.5 25.5 L -0.5 -0.5 C -0.5 -0.5 -0.5 -0.5 -0.5 -0.5 Z" stroke="#cccccc" stroke-width="1"></path>
      <title>Zoom out</title>
      <text x="10.5" data-z-index="1" style="font-size:15px;font-weight:bold;color:#333333;cursor:pointer;fill:#333333;" y="19">-</text>
   </g>
   <g data-z-index="6" class="highcharts-data-labels highcharts-series-0 highcharts-map-series  highcharts-tracker   highcharts-series-hover" transform="translate(10,10) scale(1 1)" clip-path="url(#highcharts-rfys4be-1-)" style="cursor:pointer;"></g>
   <g data-z-index="6" class="highcharts-data-labels highcharts-series-1 highcharts-mapline-series  highcharts-tracker   highcharts-series-inactive" transform="translate(10,10) scale(1 1)" clip-path="url(#highcharts-rfys4be-1-)" style="cursor:pointer;" opacity="0.2"></g>
   <g class="highcharts-label highcharts-tooltip highcharts-color-undefined" style="pointer-events:auto;white-space:nowrap;" data-z-index="8" transform="translate(208,76)" opacity="1" visibility="visible">
      <path fill="rgba(247,247,247,0.85)" class="highcharts-label-box highcharts-tooltip-box" d="M 0 0 L 280 0 C 280 0 280 0 280 0 L 280 226 C 280 226 280 226 280 226 L 146 226 140 232 134 226 0 226 C 0 226 0 226 0 226 L 0 0 C 0 0 0 0 0 0"></path>
   </g>
</svg>