<svg version="1.1" class="highcharts-root" style="font-family:&quot;Lucida Grande&quot;, &quot;Lucida Sans Unicode&quot;, Arial, Helvetica, sans-serif;font-size:12px;" xmlns="http://www.w3.org/2000/svg" width="696" height="640" viewBox="0 0 696 640">
   <desc>Created with Highcharts 7.1.0</desc>
   <defs>
      <clipPath id="highcharts-jptlbbf-1-">
         <rect x="0" y="0" width="676" height="615" fill="none"></rect>
      </clipPath>
   </defs>
   <rect fill="#fff" class="highcharts-background" x="0" y="0" width="696" height="640" rx="0" ry="0"></rect>
   <rect fill="none" class="highcharts-plot-background" x="10" y="10" width="676" height="615"></rect>
   <rect fill="none" class="highcharts-plot-border" data-z-index="1" x="10" y="10" width="676" height="615"></rect>
   <g class="highcharts-series-group" data-z-index="3" style="pointer-events: auto;">
      <g data-z-index="0.1" class="highcharts-series highcharts-series-0 highcharts-map-series  highcharts-tracker   highcharts-series-hover" transform="translate(10,10) scale(1 1)" stroke-width="0.3" style="cursor:pointer;" clip-path="url(#highcharts-jptlbbf-1-)">
         <g transform="translate(0,0) scale(1 1)">
            </g>
      </g>
      <g data-z-index="0.1" class="highcharts-markers highcharts-series-0 highcharts-map-series  highcharts-tracker   highcharts-series-hover" transform="translate(10,10) scale(1 1)" style="cursor:pointer;" clip-path="none"></g>
      <g data-z-index="0.1" class="highcharts-series highcharts-series-1 highcharts-mapline-series  highcharts-tracker   highcharts-series-inactive" transform="translate(10,10) scale(1 1)" stroke-width="1" style="cursor:pointer;" clip-path="url(#highcharts-jptlbbf-1-)" opacity="0.2">
         <g transform="translate(0,0) scale(1 1)">
            <path fill="none" d="M 611.5859204413117 185.26877842428817 L 604.2587418369429 199.5145227282313 607.8034123155818 212.06710009737088 619.337956514174 232.43534018855487 618.7879225738164 239.86120109236666 607.4290357482239 239.80107628712884 599.2519364516457 245.90792223949302 594.2993708837331 242.11494940640026 580.1554638849838 239.45366084394144 576.9530282900158 232.75896774305755 550.5298517408719 233.20807844631645 542.0809833935069 227.29081730819928 542.9235924591308 214.8698698900175 545.7486400413167 210.64400901244645 541.3599039466394 200.22654533421232 548.5075441551659 197.0021870782728 554.7329178618232 181.4761577956206 558.0088233353946 180.21488748376774 558.1645916194366 180.3747949020268 558.3248543096647 180.53932126212172 558.4697750129723 181.0185333228168 558.9505209564456 181.51212327221043 560.5681545266825 182.8428338268981 567.7596791116689 180.3149467709431 577.4991417958374 180.73999820861178 584.6220962860842 176.32393363151178 593.0593427161004 179.22331336709877 606.7181252984117 178.73789076224864 611.5859204413117 185.26877842428817 Z" stroke="#eee" stroke-width="inherit" opacity="1" class="highcharts-point" data-state="OD" data-key="OD_7"></path>
            <path fill="none" d="M 542.9235924591308 214.8698698900175 L 542.0809833935069 227.29081730819928 550.5298517408719 233.20807844631645 576.9530282900158 232.75896774305755 580.1554638849838 239.45366084394144 571.150125683417 244.19849414887395 571.12436932411 250.9025903529929 561.6208886134752 253.5142408025447 552.3869729811057 261.86997557505595 544.538370910162 263.6215443121184 531.761111520442 258.62801157065996 516.0348622538099 261.3434960189734 501.01897676641715 250.40990255202516 509.1757244875381 246.27681025807937 513.0776451304131 238.12803694238096 499.6554470173377 232.8552109210486 501.9112633511409 224.97549944826685 491.35306736451 223.5866381508709 483.94101568096596 217.94417937571137 476.20904286342636 202.4331935497436 480.6704225692102 201.02770284887202 497.06345944945946 207.41418538820133 503.80962517276646 201.82759133032053 514.4052130180269 201.2333305602147 516.1251382194625 214.25684166328426 526.4721218355493 208.7375255103722 542.9235924591308 214.8698698900175 Z" stroke="#eee" stroke-width="inherit" opacity="1" class="highcharts-point" data-state="OD" data-key="OD_8"></path>
            <path fill="none" d="M 399.02883289578756 263.3426106118283 L 398.97032674398764 263.84448858623773 388.5922231697899 263.45468171649213 383.4353335308024 269.226939552832 375.31427469364365 261.05062105397656 359.7148439483501 258.51628984650756 352.40370397949096 251.59320584869192 328.6267423517967 241.1406254657359 328.0051668440944 234.48131885352035 318.67641597901815 229.1881936060419 305.41611977338425 212.97127428425097 294.36467510606406 212.0252168312641 287.4589376149076 201.97680573472542 277.4241699363189 197.16013203262276 279.40907656460354 189.64614504876263 274.76948530183006 182.47576505890333 276.4580474786179 168.2648772384182 268.44577927447926 151.37678100295892 285.0297660578781 153.5933419580591 285.5531975942387 133.15488186942108 301.77964789501516 129.43786991965231 310.09128065010606 133.28706302724572 321.9195995480102 128.682095792616 332.6137233669861 106.89101972484733 328.6600578397777 101.98985855812214 318.903985564613 104.48051760006156 319.9328059758175 94.08005630320322 342.02359739457313 85.12775149541135 345.9689606788939 100.1392134888015 344.8864667575853 108.47618949569457 347.62576307042946 126.74634253450043 354.8281313406632 132.9005071065563 361.6067691719376 131.91188211350192 366.39544550029416 138.5622035765498 385.01924406684657 144.5842882378189 402.9617091004608 142.45685647131867 403.97142399293665 149.66117590065323 416.5774070902498 151.05201651041077 422.77098160624394 159.212648488367 417.34569192226024 165.86929213552875 402.491428545995 166.40205777379776 399.4290854418769 170.8939253414355 400.7514102423851 184.7426736527216 389.2302758092492 188.8316783765626 398.87822758247404 198.35399078341678 395.97514631853215 202.31777409552052 398.1308160581405 216.8637306897335 403.5208375400285 224.80042267518758 417.36066946684036 234.83918140667146 400.01377896121244 238.98255120187437 393.9299514641854 250.57202884845233 399.02883289578756 263.3426106118283 Z" stroke="#eee" stroke-width="inherit" opacity="1" class="highcharts-point" data-state="OD" data-key="OD_3"></path>
            <path fill="none" d="M 647.5145284504118 110.4021887276061 L 653.2558825518647 127.77327018630193 671.3160703863045 132.00909843944393 673.4308567076706 135.8277212606634 673.6969543488896 135.83248063262533 676 150.09496116268755 665.4915225274356 156.79724060890607 648.0310272891365 157.3200045616673 638.3051415576739 160.60228151183918 615.808598206639 177.88586729822427 611.5859204413117 185.26877842428817 606.7181252984117 178.73789076224864 593.0593427161004 179.22331336709877 584.6220962860842 176.32393363151178 577.4991417958374 180.73999820861178 567.7596791116689 180.3149467709431 560.5681545266825 182.8428338268981 558.9505209564456 181.51212327221043 558.4697750129723 181.0185333228168 558.3248543096647 180.53932126212172 558.1645916194366 180.3747949020268 558.0088233353946 180.21488748376774 558.2095008889817 180.13765146387493 566.06709213351 173.7518800087382 566.6529548143695 172.87502526971173 575.6740773171755 159.17013031244446 581.7937918657631 157.7373935231425 594.3245579306858 143.74178541485446 586.5366738588032 132.2449799074717 591.1123091316185 128.05284335280209 619.8041538714882 132.5739938630656 625.2400423760822 143.56897932629136 641.4443221688169 126.86813424796027 632.6561170050153 121.0018429975229 632.5364774859356 115.73778713185445 647.5145284504118 110.4021887276061 Z" stroke="#eee" stroke-width="inherit" opacity="1" class="highcharts-point" data-state="OD" data-key="OD_6"></path>
            <path fill="none" d="M 475.05345420205543 99.89618026594755 L 474.3778716617381 104.58704162964925 488.1268633827959 111.4289327752875 492.9670784294026 124.43804420994034 502.10959613980265 124.65211352612825 508.39698805473034 117.20936236654663 523.5845057220307 125.3667507581417 536.8095337739853 126.33561061428833 539.4617130884765 134.70632801599965 551.5648990277363 139.77106703871922 549.4224069106479 158.9071632253557 562.6909557843602 173.8557064254498 566.6449178982768 172.8870532291363 566.06709213351 173.7518800087382 558.2095008889817 180.13765146387493 554.7329178618232 181.4761577956206 548.5075441551659 197.0021870782728 541.3599039466394 200.22654533421232 545.7486400413167 210.64400901244645 542.9235924591308 214.8698698900175 526.4721218355493 208.7375255103722 516.1251382194625 214.25684166328426 514.4052130180269 201.2333305602147 503.80962517276646 201.82759133032053 497.06345944945946 207.41418538820133 480.6704225692102 201.02770284887202 475.7806842503616 196.36566337324163 455.50000273804375 204.31087430028052 430.76307314541594 184.44969669796976 438.00874514196784 177.13043784090732 430.41826018186333 169.56684000547602 436.91283851555346 163.52618365817432 427.7428601163077 141.96664040620635 421.4221775847519 143.38712035876398 422.57847275830557 131.75693881820632 431.1650380546088 124.4717474301492 438.5608302819595 124.4586494020604 441.7168170213136 116.05021107126552 426.19074543552557 105.59139825552532 430.97971127075186 96.75182559273743 446.06542548512334 88.33244641401798 475.05345420205543 99.89618026594755 Z" stroke="#eee" stroke-width="inherit" opacity="1" class="highcharts-point" data-state="OD" data-key="OD_4"></path>
            <path fill="none" d="M 566.6529548143695 172.87502526971173 L 566.6449178982768 172.8870532291363 562.6909557843602 173.8557064254498 549.4224069106479 158.9071632253557 551.5648990277363 139.77106703871922 539.4617130884765 134.70632801599965 536.8095337739853 126.33561061428833 523.5845057220307 125.3667507581417 508.39698805473034 117.20936236654663 502.10959613980265 124.65211352612825 492.9670784294026 124.43804420994034 488.1268633827959 111.4289327752875 474.3778716617381 104.58704162964925 475.05345420205543 99.89618026594755 486.9078204087423 101.57362201728458 487.4981021303697 107.95476721107826 499.6729494113353 107.98501740226372 505.03770466073087 103.46185134565604 514.3617348070233 85.0708892978916 508.05515714072544 78.6336801619618 513.3731897138238 71.86238247800286 513.7884017069599 63.314262619938624 506.25576316782383 55.10254483147443 518.2583891182368 44.85250128326879 522.6393268529338 51.311177413716536 543.3085487430538 58.47593320601495 550.4829791360178 67.32336909219566 558.421045600952 71.65462838706691 566.7927362408078 67.81201525884437 583.2109117825138 79.46005917476276 591.4745185198797 81.72037312100528 590.6588311008103 89.66555752820076 617.4427002785333 96.31458609751577 625.977944095824 106.74028758309476 621.9482119162155 115.78282470610401 632.6561170050153 121.0018429975229 641.4443221688169 126.86813424796027 625.2400423760822 143.56897932629136 619.8041538714882 132.5739938630656 591.1123091316185 128.05284335280209 586.5366738588032 132.2449799074717 594.3245579306858 143.74178541485446 581.7937918657631 157.7373935231425 575.6740773171755 159.17013031244446 566.6529548143695 172.87502526971173 Z" stroke="#eee" stroke-width="inherit" opacity="1" class="highcharts-point" data-state="OD" data-key="OD_5"></path>
            <path fill="none" d="M 290.0633557674239 48.061886976956714 L 305.0190700957458 54.00180234189178 311.2971437622926 64.54506420002767 321.83791927852036 68.35567894865858 336.97865191808324 66.7143959045545 345.39526986638265 59.70230255911365 359.8363915163037 58.21594704895355 372.2225444149403 59.74506957000034 378.58322542055555 56.53501465256904 387.3364195600419 59.42063512354862 407.5316483497311 52.67365671685811 412.2708226630413 73.40212789670741 403.4167062505996 88.58921318189556 423.95314619132876 100.8430042247229 426.19074543552557 105.59139825552532 441.7168170213136 116.05021107126552 438.5608302819595 124.4586494020604 431.1650380546088 124.4717474301492 422.57847275830557 131.75693881820632 421.4221775847519 143.38712035876398 416.5774070902498 151.05201651041077 403.97142399293665 149.66117590065323 402.9617091004608 142.45685647131867 385.01924406684657 144.5842882378189 366.39544550029416 138.5622035765498 361.6067691719376 131.91188211350192 354.8281313406632 132.9005071065563 347.62576307042946 126.74634253450043 344.8864667575853 108.47618949569457 345.9689606788939 100.1392134888015 342.02359739457313 85.12775149541135 319.9328059758175 94.08005630320322 318.903985564613 104.48051760006156 316.38125460608995 107.95030927940587 299.39065865554215 106.14935638595713 292.252222094511 111.2705135816138 277.5595945707618 111.99405306303406 258.17078275124334 129.72125467833712 242.50952755292008 124.61901926381186 245.49705171113254 115.63055937155214 238.2581888558597 109.80817465647263 240.70852950555735 94.69712735001059 250.51643029490475 80.89462677139787 261.5910954228934 79.0436580956364 274.3779782886146 67.6785500661959 289.9156303158842 64.80025980224707 294.3908902263129 54.34189210405511 290.0633557674239 48.061886976956714 Z" stroke="#eee" stroke-width="inherit" opacity="1" class="highcharts-point" data-state="OD" data-key="OD_2"></path>
            <path fill="none" d="M 277.4241699363189 197.16013203262276 L 272.57119000779994 205.13612581042042 264.86063380376476 199.78230506876986 257.75351958377877 203.49378112547294 246.18249418744406 202.61247526313224 232.80981930848975 212.2741455566216 221.87733733458003 209.21253979861223 211.05710651033777 215.20787720307274 223.943291329463 228.44651972149035 211.80168378162543 233.21221499179939 202.5858879536748 224.94482856532267 192.82201823005886 232.04513133300756 177.40188921662528 233.64208251879217 166.05411406368142 226.87254978074978 145.18879674401813 247.33137908945395 143.34347551564136 229.83352716894754 144.1725218086026 214.50928776402236 138.12259843762473 206.93047249850912 138.57455814670232 200.0134029089428 161.19793249022197 198.4496918051291 176.71015769124992 199.08798910585563 192.22238157819964 205.31426320501467 200.30505546810647 201.05850929818166 208.86816786834305 174.97259127367514 220.48511428539135 178.8445529330662 222.58532710521084 172.25907025566437 216.85264394381667 162.75656200400368 221.13602892306568 148.64919593328574 227.8446663150099 144.60051282378566 233.3996114655597 126.952011566602 242.50952755292008 124.61901926381186 258.17078275124334 129.72125467833712 277.5595945707618 111.99405306303406 292.252222094511 111.2705135816138 299.39065865554215 106.14935638595713 316.38125460608995 107.95030927940587 318.903985564613 104.48051760006156 328.6600578397777 101.98985855812214 332.6137233669861 106.89101972484733 321.9195995480102 128.682095792616 310.09128065010606 133.28706302724572 301.77964789501516 129.43786991965231 285.5531975942387 133.15488186942108 285.0297660578781 153.5933419580591 268.44577927447926 151.37678100295892 276.4580474786179 168.2648772384182 274.76948530183006 182.47576505890333 279.40907656460354 189.64614504876263 277.4241699363189 197.16013203262276 Z" stroke="#eee" stroke-width="inherit" opacity="1" class="highcharts-point" data-state="OD" data-key="OD_1"></path>
            <path fill="none" d="M 480.6704225692102 201.02770284887202 L 476.20904286342636 202.4331935497436 483.94101568096596 217.94417937571137 491.35306736451 223.5866381508709 501.9112633511409 224.97549944826685 499.6554470173377 232.8552109210486 513.0776451304131 238.12803694238096 509.1757244875381 246.27681025807937 501.01897676641715 250.40990255202516 501.0544314621536 250.94028376856903 500.82135857216826 252.0798703328176 479.6412306955454 257.28028923593564 472.95080364497716 266.82327032779745 465.26854738163473 271.00873970871635 456.6407602390562 268.42530153323753 450.69683076875805 273.9995412648244 427.8840285431402 270.3422711322502 417.69310289773466 260.3453541369994 399.04553539325144 263.19933850408586 399.02883289578756 263.3426106118283 393.9299514641854 250.57202884845233 400.01377896121244 238.98255120187437 417.36066946684036 234.83918140667146 403.5208375400285 224.80042267518758 398.1308160581405 216.8637306897335 395.97514631853215 202.31777409552052 398.87822758247404 198.35399078341678 389.2302758092492 188.8316783765626 400.7514102423851 184.7426736527216 399.4290854418769 170.8939253414355 402.491428545995 166.40205777379776 417.34569192226024 165.86929213552875 422.77098160624394 159.212648488367 416.5774070902498 151.05201651041077 421.4221775847519 143.38712035876398 427.7428601163077 141.96664040620635 436.91283851555346 163.52618365817432 430.41826018186333 169.56684000547602 438.00874514196784 177.13043784090732 430.76307314541594 184.44969669796976 455.50000273804375 204.31087430028052 475.7806842503616 196.36566337324163 480.6704225692102 201.02770284887202 Z" stroke="#eee" stroke-width="inherit" opacity="1" class="highcharts-point" data-state="OD" data-key="OD_9"></path>
            <path fill="none" d="M 318.67641597901815 229.1881936060419 L 313.16416096286827 227.8163218927314 301.52580672243164 234.03493223296482 272.5852059514632 236.50403554930614 262.76868120651557 241.86396145872376 259.2348449397926 260.5781016815391 242.99525298775407 273.89546061364877 250.488941162396 284.62065907645723 247.44634937184478 288.9142657464811 232.55540123936623 281.702491420563 225.0909436930813 283.07357991276035 216.2542417884967 292.6732782262917 205.08546696312516 298.92672052209207 203.23396349925827 305.0696248526197 194.26935367929454 308.9208284029273 188.21849737361416 305.76959367616564 179.61871360982138 308.8972747452643 161.38180568397286 306.0291870315391 157.5475890707359 295.07294856809244 143.39270699101564 277.894307889844 149.65552071672 258.7188154126434 145.18879674401813 247.33137908945395 166.05411406368142 226.87254978074978 177.40188921662528 233.64208251879217 192.82201823005886 232.04513133300756 202.5858879536748 224.94482856532267 211.80168378162543 233.21221499179939 223.943291329463 228.44651972149035 211.05710651033777 215.20787720307274 221.87733733458003 209.21253979861223 232.80981930848975 212.2741455566216 246.18249418744406 202.61247526313224 257.75351958377877 203.49378112547294 264.86063380376476 199.78230506876986 272.57119000779994 205.13612581042042 277.4241699363189 197.16013203262276 287.4589376149076 201.97680573472542 294.36467510606406 212.0252168312641 305.41611977338425 212.97127428425097 318.67641597901815 229.1881936060419 Z" stroke="#eee" stroke-width="inherit" opacity="1" class="highcharts-point" data-state="OD" data-key="OD_10"></path>
            <path fill="none" d="M 145.18879674401813 247.33137908945395 L 149.65552071672 258.7188154126434 143.39270699101564 277.894307889844 157.5475890707359 295.07294856809244 161.38180568397286 306.0291870315391 179.61871360982138 308.8972747452643 188.21849737361416 305.76959367616564 194.26935367929454 308.9208284029273 203.23396349925827 305.0696248526197 205.08546696312516 298.92672052209207 216.2542417884967 292.6732782262917 225.0909436930813 283.07357991276035 232.55540123936623 281.702491420563 247.44634937184478 288.9142657464811 250.488941162396 284.62065907645723 256.37810689726916 286.7360608409369 258.0120313304866 301.30230184488 265.8094469293822 307.75720475754594 256.9628222973754 316.4381227333312 241.85276927935982 318.0757321097259 233.14275647724082 332.2781729520158 223.43363066205353 336.2947009706001 228.66626354597966 356.6245314740171 215.06761841374407 372.57345173793533 207.72063779823714 372.29622805996416 205.3222389397618 382.58562610986314 196.77656117603146 390.7642914944366 186.27914528122608 376.3866870552369 171.4090250671153 388.80909923690587 173.41761831427914 402.6477536689659 162.22945623744047 416.109671951694 160.14481932685604 402.64577068025886 151.2158985448063 402.30863900689354 144.15564628775965 392.4416638927599 130.34708552429623 378.47218803297534 128.2231783188075 371.0639330418918 132.9678448076799 352.5782501876204 145.53716282785453 346.3881851907079 146.9159931107766 329.07743781501745 132.6636865044261 328.3544794243792 111.97035770231912 321.8406230075543 110.09964259960718 311.25908064838904 113.94285749664284 304.8752512838458 111.74130282303933 290.1306290486465 113.52792005385217 282.6943070021182 110.26318636577096 270.83584180031954 103.99990881333554 265.97021482738285 108.8240232927498 257.58714040358757 105.10560384350032 234.23516772935255 129.37417665487325 223.04243857463345 138.12259843762473 206.93047249850912 144.1725218086026 214.50928776402236 143.34347551564136 229.83352716894754 145.18879674401813 247.33137908945395 Z" stroke="#eee" stroke-width="inherit" opacity="1" class="highcharts-point" data-state="OD" data-key="OD_11"></path>
            <path fill="none" d="M 383.4353335308024 269.226939552832 L 408.3711421695079 281.703159904494 398.96196473356287 292.6452850871995 413.5054513403455 305.1055747432407 409.76056920197266 311.4330291142267 396.32233707876037 314.12877526774486 394.41175442102036 320.67751135977886 383.6754912758052 322.685785820659 390.8568911145517 333.3591646692404 391.1403137220756 333.7923934072854 390.9281896963977 333.7853858911071 390.58406322062507 334.08884078075977 388.2564624663636 334.0121750104193 386.2268145864634 334.8900295631354 383.26293996764304 334.0062150154549 366.9294533903403 344.02774211906757 355.41441429925175 335.4838057979124 347.7195393314573 346.42220214801387 331.4931789831399 345.35409960577493 324.633721179183 341.4578455673968 309.5485387284868 343.35221913711143 306.97009622043777 357.27199385366345 316.40041450380426 367.5046753483148 315.7374656018328 374.8922031952262 303.97186614560576 369.0667279384043 282.70914060802494 368.26178857003475 280.19983211216476 363.3694222631782 263.2483911869718 360.1362959262366 248.81417691893714 364.12498672909663 246.8225110690693 348.3082593166202 238.58674677232122 345.2260980491827 240.48830269728458 336.1479174533615 233.14275647724082 332.2781729520158 241.85276927935982 318.0757321097259 256.9628222973754 316.4381227333312 265.8094469293822 307.75720475754594 258.0120313304866 301.30230184488 256.37810689726916 286.7360608409369 250.488941162396 284.62065907645723 242.99525298775407 273.89546061364877 259.2348449397926 260.5781016815391 262.76868120651557 241.86396145872376 272.5852059514632 236.50403554930614 301.52580672243164 234.03493223296482 313.16416096286827 227.8163218927314 318.67641597901815 229.1881936060419 328.0051668440944 234.48131885352035 328.6267423517967 241.1406254657359 352.40370397949096 251.59320584869192 359.7148439483501 258.51628984650756 375.31427469364365 261.05062105397656 383.4353335308024 269.226939552832 Z" stroke="#eee" stroke-width="inherit" opacity="1" class="highcharts-point" data-state="OD" data-key="OD_13"></path>
            <path fill="none" d="M 599.2519364516457 245.90792223949302 L 605.8128628110273 242.12424785542413 621.5722643049049 243.19904465086034 623.3223216483907 252.0327736320569 598.051125850087 269.1667073140185 592.0623375346004 282.2770153991204 597.5680760975255 290.3479273569243 590.7223337811963 294.4233325862024 583.8871123274315 290.7181015699573 559.1297043290327 290.16819850099785 539.0408017463524 287.15520718431844 538.9639968534696 287.178788472335 531.8704416503982 278.0899062070133 522.3975544440415 280.5358141188632 506.43997078937014 278.63105656661344 504.2330750595964 271.9265636261273 504.21614694254623 264.8362895661896 502.36139243594965 257.6727130054784 503.4150142415883 252.8300180014923 501.96706482052 251.5121272506463 501.63277518558857 251.49890371067204 501.31252665096554 251.17110753911044 501.14537768300073 251.16450149803757 501.1523969716105 251.00721150148826 501.0416372791681 251.00283499509308 501.0544314621536 250.94028376856903 501.01897676641715 250.40990255202516 516.0348622538099 261.3434960189734 531.761111520442 258.62801157065996 544.538370910162 263.6215443121184 552.3869729811057 261.86997557505595 561.6208886134752 253.5142408025447 571.12436932411 250.9025903529929 571.150125683417 244.19849414887395 580.1554638849838 239.45366084394144 594.2993708837331 242.11494940640026 599.2519364516457 245.90792223949302 Z" stroke="#eee" stroke-width="inherit" opacity="1" class="highcharts-point" data-state="OD" data-key="OD_15"></path>
            <path fill="none" d="M 538.9639968534696 287.178788472335 L 538.2716119661994 287.39138970591 525.9722404458482 288.2130023845383 512.4467259003221 285.5327031466164 501.76171964428363 289.9401679531816 501.5237445254668 289.47001471769534 498.0873041298367 288.15846515436624 498.03557140863086 288.26438387616133 488.8143321441845 279.68420953307225 479.2593951752878 283.51937439727817 469.38048149804047 295.4165898114552 458.1235016072728 294.12709542748496 449.81877887460496 298.5903671848988 436.52591070515234 297.33392450023325 435.82817442005563 302.2007054962093 422.23643490944636 306.71183781279 422.2660348484164 307.1408127603009 413.5054513403455 305.1055747432407 398.96196473356287 292.6452850871995 408.3711421695079 281.703159904494 383.4353335308024 269.226939552832 388.5922231697899 263.45468171649213 398.97032674398764 263.84448858623773 399.04553539325144 263.19933850408586 417.69310289773466 260.3453541369994 427.8840285431402 270.3422711322502 450.69683076875805 273.9995412648244 456.6407602390562 268.42530153323753 465.26854738163473 271.00873970871635 472.95080364497716 266.82327032779745 479.6412306955454 257.28028923593564 500.82135857216826 252.0798703328176 501.0416372791681 251.00283499509308 501.1523969716105 251.00721150148826 501.14537768300073 251.16450149803757 501.31252665096554 251.17110753911044 501.63277518558857 251.49890371067204 501.96706482052 251.5121272506463 503.4150142415883 252.8300180014923 502.36139243594965 257.6727130054784 504.21614694254623 264.8362895661896 504.2330750595964 271.9265636261273 506.43997078937014 278.63105656661344 522.3975544440415 280.5358141188632 531.8704416503982 278.0899062070133 538.9639968534696 287.178788472335 Z" stroke="#eee" stroke-width="inherit" opacity="1" class="highcharts-point" data-state="OD" data-key="OD_14"></path>
            <path fill="none" d="M 498.03557140863086 288.26438387616133 L 497.6297840544002 289.0952564663364 496.0078466696101 306.6769890664872 491.60817153248934 310.22815410474846 476.33538101131927 311.2759595389073 475.311557273137 319.86817909635954 462.6136895169158 326.479882914636 462.5146580722483 343.91992972615265 442.9684190175954 339.52191969897126 436.33029918032594 343.2183400457833 430.517381986501 338.7611329568343 440.2080407543865 332.4372548083096 450.2309525578178 331.78088841298154 442.133138470694 319.87072596346866 445.8510384665894 313.66291400932937 434.51760239081995 310.7075708046632 427.03696329326607 314.0208615001429 422.28617134347763 307.42885478714334 422.23643490944636 306.71183781279 435.82817442005563 302.2007054962093 436.52591070515234 297.33392450023325 449.81877887460496 298.5903671848988 458.1235016072728 294.12709542748496 469.38048149804047 295.4165898114552 479.2593951752878 283.51937439727817 488.8143321441845 279.68420953307225 498.03557140863086 288.26438387616133 Z" stroke="#eee" stroke-width="inherit" opacity="1" class="highcharts-point" data-state="OD" data-key="OD_18"></path>
            <path fill="none" d="M 391.1403137220756 333.7923934072854 L 391.4728876305102 334.300789314252 389.4922843016255 337.3073864844407 400.9606147451744 349.6829758368773 414.14623334280583 355.63227303574473 421.27704809547214 366.6090735609338 416.27732585773714 384.2582366810007 416.1894326085091 384.23778603826395 409.3518572657231 378.78500087993115 396.5557925105921 383.7012594965717 392.94555725453984 391.60417963652054 378.4773234908735 395.3799459308892 369.0608314903056 391.0142317141435 358.0351983323793 394.6475843141443 333.36989513045137 393.19113386408935 331.83580815341077 374.2689189829467 320.94078049338555 377.5692434432971 315.7374656018328 374.8922031952262 316.40041450380426 367.5046753483148 306.97009622043777 357.27199385366345 309.5485387284868 343.35221913711143 324.633721179183 341.4578455673968 331.4931789831399 345.35409960577493 347.7195393314573 346.42220214801387 355.41441429925175 335.4838057979124 366.9294533903403 344.02774211906757 383.26293996764304 334.0062150154549 386.2268145864634 334.8900295631354 388.2564624663636 334.0121750104193 390.58406322062507 334.08884078075977 390.9281896963977 333.7853858911071 391.1403137220756 333.7923934072854 Z" stroke="#eee" stroke-width="inherit" opacity="1" class="highcharts-point" data-state="OD" data-key="OD_19"></path>
            <path fill="none" d="M 538.2716119661994 287.39138970591 L 539.0408017463524 287.15520718431844 559.1297043290327 290.16819850099785 583.8871123274315 290.7181015699573 590.7223337811963 294.4233325862024 597.5680760975255 290.3479273569243 569.2117057462615 309.2206914581324 558.3351552636227 321.9408718587525 551.415875292199 333.59465183373186 515.8088831986389 345.37177633419697 505.22082973904475 346.81427910806497 505.4520911285325 334.1871502079758 497.5857942395219 323.7972952040238 500.14744203929314 314.1335814791902 518.9177433509135 315.6277529045513 511.6343150409074 302.9471291649619 503.45935536238636 297.56749556399404 501.7738283611071 289.9640911941357 501.76171964428363 289.9401679531816 512.4467259003221 285.5327031466164 525.9722404458482 288.2130023845383 538.2716119661994 287.39138970591 Z" stroke="#eee" stroke-width="inherit" opacity="1" class="highcharts-point" data-state="OD" data-key="OD_16"></path>
            <path fill="none" d="M 112.34729929445975 498.5103585422727 L 112.22519235296761 498.61786057616695 106.47585787344015 512.987004268532 105.4866906207213 543.3695021445186 96.81995459869769 544.7522566680941 70.92495735576767 542.240612287499 61.10983500399494 550.4201055376641 46.13507322026104 555.7534770276139 41.39727328054066 560.4875451033773 30.837447485068274 562.3205961848345 25.08340930644345 569.1419746568439 0 570.1474987167312 1.200444111696349 561.1852118239358 10.157958362850968 551.6182446642841 15.23929913101871 531.3194910927236 15.825963660999943 520.0498828441173 30.25376287282405 511.154516178939 39.88252813385576 510.4703270221447 41.78280589761219 503.1687145705961 62.269744780739614 486.7825233860419 63.169633786603725 473.3801402630663 84.27459096792157 463.05594310599594 87.07297236128352 449.9593031932531 94.69950495100552 447.8625449484197 91.25422738323984 429.26798286915573 86.7689715751717 423.1517404876693 84.94364395549789 408.587343928799 88.10265521312698 401.197302650476 73.2211540725308 378.3719029329937 72.2622559098629 360.079094337675 73.88137284493784 350.4008747513697 65.89358005688551 349.9195808888293 56.78398987730852 340.7728778490178 53.589642619852185 339.1947829287206 50.04535360195906 332.8607603291826 52.579751120807025 324.74720854171636 60.75652564803243 316.3317584140188 69.18901423081765 322.3551060869559 74.5059317464533 321.78780280607265 88.51217221246362 329.3771221044356 97.1072553559597 330.4289240084887 105.73372705275477 346.08951509153826 111.20454159176877 340.3502006057475 120.83770970936934 338.26204789920195 134.3302828284438 342.68099702192296 132.9678448076799 352.5782501876204 128.2231783188075 371.0639330418918 130.34708552429623 378.47218803297534 144.15564628775965 392.4416638927599 151.2158985448063 402.30863900689354 160.14481932685604 402.64577068025886 162.22945623744047 416.109671951694 140.0805225015315 419.2014123452939 126.9018204658763 432.5081236770541 116.23428118187626 438.0501891499783 117.7360100842365 452.16733090542186 98.81735636908344 461.490181156973 114.17237654061206 470.94082613320705 116.16199372510347 482.2706740566981 109.97372890307507 493.04662270849025 112.34729929445975 498.5103585422727 Z" stroke="#eee" stroke-width="inherit" opacity="1" class="highcharts-point" data-state="OD" data-key="OD_12"></path>
            <path fill="none" d="M 233.14275647724082 332.2781729520158 L 240.48830269728458 336.1479174533615 238.58674677232122 345.2260980491827 246.8225110690693 348.3082593166202 248.81417691893714 364.12498672909663 263.2483911869718 360.1362959262366 280.19983211216476 363.3694222631782 282.70914060802494 368.26178857003475 286.4793178613246 379.8800719255213 283.13486850605744 394.5962058112635 290.9281422465287 397.1983993961042 291.4121384057011 407.1233995574338 287.2683249586968 415.9286759708141 291.7039926691823 422.9865731529724 283.69034787171137 439.88866497590516 273.80682669279935 440.97064210594004 266.38386942741744 436.8938831183528 259.5108684095179 440.4702808318547 245.99613660469834 427.5033661013707 231.61284250412518 437.7600498826582 216.13736731468856 437.06799376116214 213.7412117586448 441.5068542031758 222.00138731792217 452.07626487745455 208.51676851259288 464.7076337597195 193.7573984410283 463.01402983741553 179.9205757853129 483.39508835449925 184.7048724201505 489.31055691730313 180.8600529896945 498.96769557939814 186.41205979911345 505.0930545446843 176.43185491037627 509.2375459955729 156.77442848628988 499.9125275093063 153.22142827378323 511.9028775285257 133.50758916741327 520.1551688987486 134.79380159198124 508.05693846837505 127.59001772939985 503.3874114143955 126.16668196888544 492.8097274217618 120.71838788087828 489.17595054124376 113.86993852846282 497.17003148472463 112.34729929445975 498.5103585422727 109.97372890307507 493.04662270849025 116.16199372510347 482.2706740566981 114.17237654061206 470.94082613320705 98.81735636908344 461.490181156973 117.7360100842365 452.16733090542186 116.23428118187626 438.0501891499783 126.9018204658763 432.5081236770541 140.0805225015315 419.2014123452939 162.22945623744047 416.109671951694 173.41761831427914 402.6477536689659 171.4090250671153 388.80909923690587 186.27914528122608 376.3866870552369 196.77656117603146 390.7642914944366 205.3222389397618 382.58562610986314 207.72063779823714 372.29622805996416 215.06761841374407 372.57345173793533 228.66626354597966 356.6245314740171 223.43363066205353 336.2947009706001 233.14275647724082 332.2781729520158 Z" stroke="#eee" stroke-width="inherit" opacity="1" class="highcharts-point" data-state="OD" data-key="OD_21"></path>
            <path fill="none" d="M 497.6297840544002 289.0952564663364 L 498.0873041298367 288.15846515436624 501.5237445254668 289.47001471769534 501.7738283611071 289.9640911941357 503.45935536238636 297.56749556399404 511.6343150409074 302.9471291649619 518.9177433509135 315.6277529045513 500.14744203929314 314.1335814791902 497.5857942395219 323.7972952040238 505.4520911285325 334.1871502079758 505.22082973904475 346.81427910806497 477.1009231095186 355.3679511074042 438.79716755200894 373.9374448858267 419.62087569187617 387.25307858310265 416.31938344174915 384.26802267979036 416.27732585773714 384.2582366810007 421.27704809547214 366.6090735609338 414.14623334280583 355.63227303574473 400.9606147451744 349.6829758368773 389.4922843016255 337.3073864844407 391.4728876305102 334.300789314252 390.8568911145517 333.3591646692404 383.6754912758052 322.685785820659 394.41175442102036 320.67751135977886 396.32233707876037 314.12877526774486 409.76056920197266 311.4330291142267 413.5054513403455 305.1055747432407 422.2660348484164 307.1408127603009 422.28617134347763 307.42885478714334 427.03696329326607 314.0208615001429 434.51760239081995 310.7075708046632 445.8510384665894 313.66291400932937 442.133138470694 319.87072596346866 450.2309525578178 331.78088841298154 440.2080407543865 332.4372548083096 430.517381986501 338.7611329568343 436.33029918032594 343.2183400457833 442.9684190175954 339.52191969897126 462.5146580722483 343.91992972615265 462.6136895169158 326.479882914636 475.311557273137 319.86817909635954 476.33538101131927 311.2759595389073 491.60817153248934 310.22815410474846 496.0078466696101 306.6769890664872 497.6297840544002 289.0952564663364 Z" stroke="#eee" stroke-width="inherit" opacity="1" class="highcharts-point" data-state="OD" data-key="OD_17"></path>
            <path fill="none" d="M 315.7374656018328 374.8922031952262 L 320.94078049338555 377.5692434432971 331.83580815341077 374.2689189829467 333.36989513045137 393.19113386408935 358.0351983323793 394.6475843141443 369.0608314903056 391.0142317141435 378.4773234908735 395.3799459308892 392.94555725453984 391.60417963652054 396.5557925105921 383.7012594965717 409.3518572657231 378.78500087993115 416.1894326085091 384.23778603826395 416.31938344174915 384.26802267979036 419.62087569187617 387.25307858310265 410.1225512576299 396.57921504258786 387.7885380315779 411.6154192243836 374.2274893027195 429.8028990006937 363.1059731334174 424.1880389923073 355.9983822264251 435.49247104390747 346.3490068859258 433.53883894225874 335.90273981489776 444.54951226149893 326.6714856089726 460.71378367072595 313.87010382893897 461.25101262276286 300.01444196285684 465.91484646880167 290.6731857359299 459.40036502726406 281.05503815852416 458.59419081807437 279.63156753263115 458.06195670567786 272.52598617058305 454.1955568982967 266.38386942741744 436.8938831183528 273.80682669279935 440.97064210594004 283.69034787171137 439.88866497590516 291.7039926691823 422.9865731529724 287.2683249586968 415.9286759708141 291.4121384057011 407.1233995574338 290.9281422465287 397.1983993961042 283.13486850605744 394.5962058112635 286.4793178613246 379.8800719255213 282.70914060802494 368.26178857003475 303.97186614560576 369.0667279384043 315.7374656018328 374.8922031952262 Z" stroke="#eee" stroke-width="inherit" opacity="1" class="highcharts-point" data-state="OD" data-key="OD_20"></path>
         </g>
      </g>
      <g data-z-index="0.1" class="highcharts-markers highcharts-series-1 highcharts-mapline-series  highcharts-tracker   highcharts-series-inactive" transform="translate(10,10) scale(1 1)" style="cursor:pointer;" clip-path="none" opacity="0.2"></g>
   </g>
   <text x="348" text-anchor="middle" class="highcharts-title" data-z-index="4" style="color:#333333;font-size:18px;fill:#333333;" y="24"></text>
   <text x="348" text-anchor="middle" class="highcharts-subtitle" data-z-index="4" style="color:#666666;fill:#666666;" y="24"></text>
   <g class="highcharts-button highcharts-map-navigation highcharts-zoom-in" style="[object Object]" data-z-index="5" transform="translate(658,10)">
      <path fill="#f7f7f7" class="highcharts-button-box" d="M 1.5 -0.5 L 25.5 -0.5 C 26.5 -0.5 27.5 0.5 27.5 1.5 L 27.5 27.5 C 27.5 27.5 27.5 27.5 27.5 27.5 L -0.5 27.5 C -0.5 27.5 -0.5 27.5 -0.5 27.5 L -0.5 1.5 C -0.5 0.5 0.5 -0.5 1.5 -0.5 Z" stroke="#cccccc" stroke-width="1"></path>
      <title>Zoom in</title>
      <text x="7.59375" data-z-index="1" style="font-size:15px;font-weight:bold;color:#333333;cursor:pointer;fill:#333333;" y="19">+</text>
   </g>
   <g class="highcharts-button highcharts-map-navigation highcharts-zoom-out" style="[object Object]" data-z-index="5" transform="translate(658,38)">
      <path fill="#f7f7f7" class="highcharts-button-box" d="M -0.5 -0.5 L 27.5 -0.5 C 27.5 -0.5 27.5 -0.5 27.5 -0.5 L 27.5 25.5 C 27.5 26.5 26.5 27.5 25.5 27.5 L 1.5 27.5 C 0.5 27.5 -0.5 26.5 -0.5 25.5 L -0.5 -0.5 C -0.5 -0.5 -0.5 -0.5 -0.5 -0.5 Z" stroke="#cccccc" stroke-width="1"></path>
      <title>Zoom out</title>
      <text x="10.5" data-z-index="1" style="font-size:15px;font-weight:bold;color:#333333;cursor:pointer;fill:#333333;" y="19">-</text>
   </g>
   <g data-z-index="6" class="highcharts-data-labels highcharts-series-0 highcharts-map-series  highcharts-tracker   highcharts-series-hover" transform="translate(10,10) scale(1 1)" clip-path="url(#highcharts-jptlbbf-1-)" style="cursor:pointer;"></g>
   <g data-z-index="6" class="highcharts-data-labels highcharts-series-1 highcharts-mapline-series  highcharts-tracker   highcharts-series-inactive" transform="translate(10,10) scale(1 1)" clip-path="url(#highcharts-jptlbbf-1-)" style="cursor:pointer;" opacity="0.2"></g>
   <g class="highcharts-label highcharts-tooltip highcharts-color-undefined" style="pointer-events:auto;white-space:nowrap;" data-z-index="8" transform="translate(65,193)" opacity="1" visibility="visible">
      <path fill="rgba(247,247,247,0.85)" class="highcharts-label-box highcharts-tooltip-box" d="M 0 0 L 280 0 C 280 0 280 0 280 0 L 280 227 C 280 227 280 227 280 227 L 146 227 140 233 134 227 0 227 C 0 227 0 227 0 227 L 0 0 C 0 0 0 0 0 0"></path>
   </g>
</svg>