<svg version="1.1" class="highcharts-root" style="font-family:&quot;Lucida Grande&quot;, &quot;Lucida Sans Unicode&quot;, Arial, Helvetica, sans-serif;font-size:12px;" xmlns="http://www.w3.org/2000/svg" width="696" height="640" viewBox="0 0 696 640">
   <desc>Created with Highcharts 7.1.0</desc>
   <defs>
      <clipPath id="highcharts-51t6goo-1-">
         <rect x="0" y="0" width="676" height="615" fill="none"></rect>
      </clipPath>
   </defs>
   <rect fill="#fff" class="highcharts-background" x="0" y="0" width="696" height="640" rx="0" ry="0"></rect>
   <rect fill="none" class="highcharts-plot-background" x="10" y="10" width="676" height="615"></rect>
   <rect fill="none" class="highcharts-plot-border" data-z-index="1" x="10" y="10" width="676" height="615"></rect>
   <g class="highcharts-series-group" data-z-index="3" style="pointer-events: auto;">
      <g data-z-index="0.1" class="highcharts-series highcharts-series-0 highcharts-map-series  highcharts-tracker  " transform="translate(10,10) scale(1 1)" stroke-width="0.3" style="cursor:pointer;" clip-path="url(#highcharts-51t6goo-1-)">
         <g transform="translate(0,0) scale(1 1)">
            <path fill="#FF9650" d="M 375.31245293515053 102.35666855409735 L 362.2356099397213 130.88505501390992 370.9947075687093 149.11648669328792 360.97374853544915 160.73603131311305 336.7443008391308 168.32714499451043 309.01554452271637 163.52066021265279 294.13179432318816 175.30638290052923 292.4293163437488 174.1155991132945 272.84928217939853 168.7818642717592 246.0014256305257 153.50832895152536 232.09825240603905 132.89550917901184 234.3170614469874 108.66196432629324 254.00928019817124 110.11526529854338 311.00381673902166 94.48109393801558 321.3115538461615 73.95556067187097 322.7436297004258 48.3546188989331 352.4244922197694 53.42119138672293 402.95256578963574 32.682597094761526 422.20423422162963 18.443478926795297 436.3620323543184 0 432.7553266586675 15.871237858523822 447.35052629818034 34.09548024625842 430.34498267570797 40.792031571614814 408.0422319579289 62.62107078433973 384.4463042854188 70.66934341226855 391.23313535778294 89.04937546016683 375.31245293515053 102.35666855409735 Z" stroke="#000" stroke-width="inherit" opacity="1" class="highcharts-point" data-constituency="PB_1" data-const-name="Gurdaspur" data-const-id="PB_1" data-won-alliance="NDA"></path>
            <path fill="#FF9650" d="M 375.31245293515053 102.35666855409735 L 389.9350156909574 103.322981340897 440.61346773431575 129.7849182654537 452.0498275962168 150.9183316951192 446.25673759845944 157.31373693857378 462.94636858467794 192.69568249263367 494.74666327742534 242.9075833051887 491.1758377642141 253.54843297588593 492.6633357320978 254.46030048396068 492.6352838281301 254.5119210461041 492.63800205940106 254.59750928944413 492.4412704079469 254.68776417000342 492.2662959826077 255.46273116806572 490.3715850241202 255.50713017272983 480.3246561318578 256.5152206009431 467.87631679979626 248.16242263510762 446.63677111433765 269.6680518608033 415.51049389034085 285.0721976433326 398.734169558295 291.7487031062963 392.36068395940384 267.1480526204616 408.9785290730556 258.16664000832486 422.2884624371542 238.12624985303697 397.4550817590552 214.6320311919829 391.3132805301794 200.44745938186864 347.9205366682229 221.70274683801162 346.1296833326679 235.54336021799517 345.5805723501115 236.06296966836467 328.12757502657047 231.74088197827817 318.4925588103284 214.5308499054843 336.25060910679434 203.14470434047692 307.37381843420445 182.63680988074617 304.50016215725043 182.7166959645515 294.45609455440234 175.53323646207483 294.13179432318816 175.30638290052923 309.01554452271637 163.52066021265279 336.7443008391308 168.32714499451043 360.97374853544915 160.73603131311305 370.9947075687093 149.11648669328792 362.2356099397213 130.88505501390992 375.31245293515053 102.35666855409735 Z" stroke="#000" stroke-width="inherit" opacity="1" class="highcharts-point" data-constituency="PB_5" data-const-name="Hoshiarpur" data-const-id="PB_5" data-won-alliance="NDA"></path>
            <path fill="#1EB4FF" d="M 348.81922318090875 407.79654051794097 L 343.8499705864269 410.80956454047686 339.41992688128215 412.54015551826177 338.54779449862247 412.73378477043883 337.4740989471629 412.7640364743522 337.1812731559789 412.77229288255944 337.08366481995097 412.77504557804167 336.8884477749334 412.7805518296722 336.8863654672249 412.7806105689219 336.89157043524574 412.5865460721173 331.3654418079132 404.31596307847116 334.5574496245435 365.7056230637546 326.01298334383364 328.4598053761149 375.84684038804323 332.5424818577413 409.71427219777786 323.06015064588297 419.3746654252959 327.2825393752263 422.5342965447294 326.2741168858168 422.5362458938828 326.3307257545972 422.54009933819043 326.4426301797098 422.67771136860455 326.66312010454027 422.80098264486145 330.24414303843463 427.02679419548303 335.9609968382279 437.4987938081112 338.16061241270137 449.7179790005845 349.9541771385419 443.47610207105424 384.5871970499672 421.6391056531716 395.6415363627982 386.963383509209 370.3301925052636 373.57407104604584 370.8588648630738 365.31866049438145 385.9565620408338 346.7563388572198 397.03408513963376 348.81922318090875 407.79654051794097 Z" stroke="#000" stroke-width="inherit" opacity="1" class="highcharts-point" data-constituency="PB_7" data-const-name="Ludhiana" data-const-id="PB_7" data-won-alliance="UPA"></path>
            <path fill="#1EB4FF" d="M 326.01298334383364 328.4598053761149 L 334.5574496245435 365.7056230637546 331.3654418079132 404.31596307847116 336.89157043524574 412.5865460721173 336.8154189315635 415.42620691469097 317.58547904277856 422.4814296549485 305.7967817310051 436.879920506098 318.85353771432233 464.5010358169092 318.8475317254559 464.52628170662086 302.9719724307379 477.1187669540884 283.76802321189405 476.956286689483 287.832736677684 456.2272297131172 270.24523904165403 446.37911945210095 261.212767996005 455.02737680848674 238.4007718047661 456.91849431229656 215.66869738932127 451.7584311948982 195.12009245634295 479.76305887588944 191.38418115155636 499.93410667973967 173.3573621979588 493.9028043722637 173.34528200621716 493.6282230981249 152.16689937709575 469.59194474362727 166.09956953539825 458.6777741530357 170.02277273530217 436.2840580026607 192.54095067410316 417.7291090459178 173.9379792511066 401.6471926915973 148.27701724976833 394.4296023935536 142.77407504740324 379.3553406730484 174.89198144821276 361.1287200072334 199.7818186044193 363.4515202034603 223.56176864693506 379.49888222819686 233.7914528827504 376.73095310060154 241.13828024876278 351.6114459064956 257.3401343148313 347.4959187952102 272.5277956972179 329.8706256209269 281.8217827633049 307.6571751366168 281.92460683856183 307.68356070000635 313.53830532169894 319.11462767485153 326.01298334383364 328.4598053761149 Z" stroke="#000" stroke-width="inherit" opacity="1" class="highcharts-point" data-constituency="PB_9" data-const-name="Faridkot" data-const-id="PB_9" data-won-alliance="UPA"></path>
            <path fill="#FF9650" d="M 173.3514998079267 493.7695521281246 L 173.2555839127517 493.69236369172415 173.25060841813664 493.57928201901683 172.72494077992087 493.48349361079534 172.45463682213784 493.2659806835998 170.49704407184043 493.2178366276949 166.45664936017135 496.183796935875 161.35767541360153 507.567100771787 142.5999589454937 493.25202857718483 134.55008315279466 473.9368897321412 112.03866640952297 465.0593924442008 99.63967172707855 482.1488209460497 119.39077121833567 483.528093406569 115.20355956238409 499.683194131716 133.80510806348207 528.3420668448184 136.07966027625366 543.5849828431913 24.852344231835332 539.0330222534226 26.384618874016457 521.7212212197267 39.69201112012346 506.4564253431124 40.51934344181809 492.4626581903212 26.28164692795522 460.5216664071902 38.772143140819075 445.3195905544477 39.55385986805194 431.9848052941212 59.50030391285139 425.35934724007 66.74136492277708 409.0167534235655 86.75807654770094 394.7386673817618 113.27806228165822 357.4549309052303 133.56804865985106 344.4708157599768 140.63487703592716 332.44070998748276 189.40295541515275 311.11510151749167 190.95404589029712 302.35491717233117 213.17038822939955 300.72370470287865 209.0711947991465 324.2398901854777 219.3172784106577 346.3148733341994 241.13828024876278 351.6114459064956 233.7914528827504 376.73095310060154 223.56176864693506 379.49888222819686 199.7818186044193 363.4515202034603 174.89198144821276 361.1287200072334 142.77407504740324 379.3553406730484 148.27701724976833 394.4296023935536 173.9379792511066 401.6471926915973 192.54095067410316 417.7291090459178 170.02277273530217 436.2840580026607 166.09956953539825 458.6777741530357 152.16689937709575 469.59194474362727 173.34528200621716 493.6282230981249 173.3514998079267 493.7695521281246 Z" stroke="#000" stroke-width="inherit" opacity="1" class="highcharts-point" data-constituency="PB_10" data-const-name="Firozpur" data-const-id="PB_10" data-won-alliance="NDA"></path>
            <path fill="#FF9650" d="M 318.8475317254559 464.52628170662086 L 318.6918577619872 465.18067289533394 329.0956379190637 490.80358367816643 348.5423392026077 492.46597812767493 356.03747127836994 502.0694204170076 377.8459519377838 505.2533140138778 404.10575858627647 546.9590004896494 412.7826048684525 567.3494784919625 404.9107094177476 572.7375986556206 392.5054676046277 580.7565476335379 346.4412856213367 577.8812507124504 300.26670601404567 615 290.3551729879681 610.1078752926497 302.34241582561094 584.8613839274876 292.30022952038416 566.8978736497127 275.703122987004 574.3530941855713 268.10845166829415 558.4930942947772 252.44391620131285 563.1399437273653 238.84315836595832 545.487028707142 213.39532815383063 534.8564871924283 168.74295726248133 550.8705499744717 154.92950838549166 544.9139224798708 136.07966027625366 543.5849828431913 133.80510806348207 528.3420668448184 115.20355956238409 499.683194131716 119.39077121833567 483.528093406569 99.63967172707855 482.1488209460497 112.03866640952297 465.0593924442008 134.55008315279466 473.9368897321412 142.5999589454937 493.25202857718483 161.35767541360153 507.567100771787 166.45664936017135 496.183796935875 170.49704407184043 493.2178366276949 172.45463682213784 493.2659806835998 172.72494077992087 493.48349361079534 173.25060841813664 493.57928201901683 173.2555839127517 493.69236369172415 173.3514998079267 493.7695521281246 173.3573621979588 493.9028043722637 191.38418115155636 499.93410667973967 195.12009245634295 479.76305887588944 215.66869738932127 451.7584311948982 238.4007718047661 456.91849431229656 261.212767996005 455.02737680848674 270.24523904165403 446.37911945210095 287.832736677684 456.2272297131172 283.76802321189405 476.956286689483 302.9719724307379 477.1187669540884 318.8475317254559 464.52628170662086 Z" stroke="#000" stroke-width="inherit" opacity="1" class="highcharts-point" data-constituency="PB_11" data-const-name="Bathinda" data-const-id="PB_11" data-won-alliance="NDA"></path>
            <path fill="#888888" d="M 427.93490554401006 440.19852774781435 L 403.02333605681076 442.7720349587241 389.7339669406097 470.7518570524938 413.71530791748177 472.538297959488 427.0619472897471 485.6087924179232 481.5883902383915 509.63746030380776 461.987268661904 529.4245867714957 455.8204674795415 552.3794490285071 480.4249328402349 573.0015039335212 470.23662794069327 585.8367957464677 433.4279582263713 585.0438715260647 424.37627747804373 571.9707932849055 404.9107094177476 572.7375986556206 412.7826048684525 567.3494784919625 404.10575858627647 546.9590004896494 377.8459519377838 505.2533140138778 356.03747127836994 502.0694204170076 348.5423392026077 492.46597812767493 329.0956379190637 490.80358367816643 318.6918577619872 465.18067289533394 318.85353771432233 464.5010358169092 305.7967817310051 436.879920506098 317.58547904277856 422.4814296549485 336.8154189315635 415.42620691469097 336.8863654672249 412.7806105689219 336.8884477749334 412.7805518296722 337.08366481995097 412.77504557804167 337.1812731559789 412.77229288255944 337.4740989471629 412.7640364743522 338.54779449862247 412.73378477043883 339.41992688128215 412.54015551826177 343.8499705864269 410.80956454047686 348.81922318090875 407.79654051794097 370.69352866302074 415.3945828632904 414.1885394904008 402.8920889468404 440.03415657904674 426.28378930719134 427.93490554401006 440.19852774781435 Z" stroke="#000" stroke-width="inherit" opacity="1" class="highcharts-point" data-constituency="PB_12" data-const-name="Sangrur" data-const-id="PB_12" data-won-alliance="OTH"></path>
            <path fill="rgb(30,180,255)" d="M 234.3170614469874 108.66196432629324 L 232.09825240603905 132.89550917901184 246.0014256305257 153.50832895152536 272.84928217939853 168.7818642717592 292.4293163437488 174.1155991132945 294.45609455440234 175.53323646207483 304.50016215725043 182.7166959645515 307.03415477446714 182.64623977138032 307.0374114047187 182.729041907949 307.041948132597 182.84439249534236 307.05102146240665 183.0750941695914 306.9161146290279 183.07897343889195 306.94787431775353 183.88643426650657 306.4718129912175 185.51690212897904 298.7532724531219 188.39610107372891 295.2585011135384 192.19343695030295 251.13549386855556 186.34570788568507 242.41157636570492 216.6464174336969 220.2342030107545 216.4425327456445 198.43180820695247 209.23265860694121 172.38480392632846 223.12019495777423 173.9123927317267 208.9126260197164 160.17683276847973 198.19720627262163 146.09062312974484 176.65353047997274 162.52832220052557 169.01923880684902 163.4567360839852 154.2406110982917 183.2954853187216 137.4978385817732 214.2595012117273 126.81783224799392 234.3170614469874 108.66196432629324 Z" stroke="#000" stroke-width="inherit" opacity="1" class="highcharts-point " data-constituency="PB_2" data-const-name="Amritsar" data-const-id="PB_2" data-won-alliance="UPA" data-z-index="0"></path>
            <path fill="rgb(30,180,255)" d="M 344.2661634563543 237.30689777135 L 346.1296833326679 235.54336021799517 347.9205366682229 221.70274683801162 391.3132805301794 200.44745938186864 397.4550817590552 214.6320311919829 422.2884624371542 238.12624985303697 408.9785290730556 258.16664000832486 392.36068395940384 267.1480526204616 398.734169558295 291.7487031062963 415.51049389034085 285.0721976433326 428.9912729293102 288.5639004179804 444.42891812654256 306.78199709800316 449.8097879818599 323.70997148744266 423.33490394231654 326.01865799175044 419.3746654252959 327.2825393752263 409.71427219777786 323.06015064588297 375.84684038804323 332.5424818577413 326.01298334383364 328.4598053761149 313.53830532169894 319.11462767485153 281.92460683856183 307.68356070000635 279.8550261585068 307.15153337093324 279.43414059785704 291.1292079983183 299.8445671918327 291.3997766702383 324.14392177123244 278.0688416449798 348.1100626648949 276.8830090968124 356.0506351783552 249.5337006695118 344.2661634563543 237.30689777135 Z" stroke="#000" stroke-width="inherit" opacity="1" class="highcharts-point " data-constituency="PB_4" data-const-name="Jalandhar" data-const-id="PB_4" data-won-alliance="UPA" data-z-index="0"></path>
            <path fill="rgb(30,180,255)" d="M 593.8033711658181 282.73996776508613 L 588.4731345366745 325.9751973964172 609.6915116542833 334.46107423541343 621.5290122326171 346.2878251461484 633.4900310104266 361.5945882208788 633.553390382477 375.83990307844886 619.3123954559669 368.5227453535786 605.0643572248943 376.5718435685302 621.6158221167105 393.60734274667885 624.0500151877499 394.5739230762475 624.0147269187264 394.60584665241515 624.0166826889206 394.6801630871639 623.9326660564643 394.75617009186107 623.7685468360179 395.05681850167656 623.6845319936109 395.1328266278551 623.6044317543481 395.35746887375774 622.8581256762691 396.4131451470987 623.1823160995889 398.9240839800816 610.8683168412584 414.93242722225256 591.0344915086355 404.6867862562444 590.483850553061 404.74640287453855 567.0771218506873 381.1119031808432 551.7554264290967 375.95715596712694 543.5351436328351 358.6041511095643 525.9404724685667 351.36981891750617 524.8148826336858 329.66861565167284 503.62991934765637 324.8289024699123 487.30762012370917 328.98451090113934 449.8097879818599 323.70997148744266 444.42891812654256 306.78199709800316 428.9912729293102 288.5639004179804 415.51049389034085 285.0721976433326 446.63677111433765 269.6680518608033 467.87631679979626 248.16242263510762 480.3246561318578 256.5152206009431 490.3715850241202 255.50713017272983 492.2662959826077 255.46273116806572 492.4412704079469 254.68776417000342 492.63800205940106 254.59750928944413 492.6352838281301 254.5119210461041 492.6633357320978 254.46030048396068 492.85689173459014 254.57896495070372 498.0391009233492 263.1687581895316 524.8509434356968 259.14899557403083 536.6714864868754 240.6719680194544 550.8946886453839 259.4336570095717 593.8033711658181 282.73996776508613 Z" stroke="#000" stroke-width="inherit" opacity="1" class="highcharts-point " data-constituency="PB_6" data-const-name="Anandpur Sahib" data-const-id="PB_6" data-won-alliance="UPA" data-z-index="0"></path>
            <path fill="rgb(30,180,255)" d="M 449.8097879818599 323.70997148744266 L 487.30762012370917 328.98451090113934 503.62991934765637 324.8289024699123 524.8148826336858 329.66861565167284 525.9404724685667 351.36981891750617 543.5351436328351 358.6041511095643 551.7554264290967 375.95715596712694 567.0771218506873 381.1119031808432 590.483850553061 404.74640287453855 590.5592505756656 404.73823892210055 590.491202168289 404.7999728726681 590.4953097188962 404.9486181738309 590.4093741740767 404.9503945127067 588.8157176882521 406.3963263918957 586.7699074657554 407.0337132772046 579.1312021731643 415.4236688724816 561.2615197400794 426.6339440935599 551.9174728068238 440.34574940314246 529.8920151875654 433.92876538716513 526.190496736232 420.6912366654808 508.3246174341769 415.45133907706474 476.6899034905752 421.75315254390256 475.5678298589246 439.8095914846581 427.93490554401006 440.19852774781435 440.03415657904674 426.28378930719134 414.1885394904008 402.8920889468404 370.69352866302074 415.3945828632904 348.81922318090875 407.79654051794097 346.7563388572198 397.03408513963376 365.31866049438145 385.9565620408338 373.57407104604584 370.8588648630738 386.963383509209 370.3301925052636 421.6391056531716 395.6415363627982 443.47610207105424 384.5871970499672 449.7179790005845 349.9541771385419 437.4987938081112 338.16061241270137 427.02679419548303 335.9609968382279 422.80098264486145 330.24414303843463 422.67771136860455 326.66312010454027 422.54009933819043 326.4426301797098 422.5362458938828 326.3307257545972 422.5342965447294 326.2741168858168 423.33490394231654 326.01865799175044 449.8097879818599 323.70997148744266 Z" stroke="#000" stroke-width="inherit" opacity="1" class="highcharts-point " data-constituency="PB_8" data-const-name="Fatehgarh Sahib" data-const-id="PB_8" data-won-alliance="UPA" data-z-index="0"></path>
            <path fill="rgb(30,180,255)" d="M 591.7928238186051 501.85379677485923 L 590.8894244880419 503.0351831504842 576.6996202098462 513.5038138842018 565.5624625855069 518.0729470678508 550.0406149033275 503.36171464018304 529.7968483113431 511.21259571133913 513.8038163883796 509.22552355971163 502.8451815397225 526.0004849133164 505.40670551791044 566.3270260029111 480.4249328402349 573.0015039335212 455.8204674795415 552.3794490285071 461.987268661904 529.4245867714957 481.5883902383915 509.63746030380776 427.0619472897471 485.6087924179232 413.71530791748177 472.538297959488 389.7339669406097 470.7518570524938 403.02333605681076 442.7720349587241 427.93490554401006 440.19852774781435 475.5678298589246 439.8095914846581 476.6899034905752 421.75315254390256 508.3246174341769 415.45133907706474 526.190496736232 420.6912366654808 529.8920151875654 433.92876538716513 551.9174728068238 440.34574940314246 561.2615197400794 426.6339440935599 579.1312021731643 415.4236688724816 586.7699074657554 407.0337132772046 588.8157176882521 406.3963263918957 590.4093741740767 404.9503945127067 590.4953097188962 404.9486181738309 590.491202168289 404.7999728726681 590.5592505756656 404.73823892210055 591.0344915086355 404.6867862562444 610.8683168412584 414.93242722225256 623.1823160995889 398.9240839800816 622.8581256762691 396.4131451470987 623.6044317543481 395.35746887375774 623.6845319936109 395.1328266278551 623.7685468360179 395.05681850167656 623.9326660564643 394.75617009186107 624.0166826889206 394.6801630871639 624.0147269187264 394.60584665241515 624.0500151877499 394.5739230762475 625.46624909692 395.13640710957293 631.7899374772204 391.98487264443673 651.1476557681647 409.84907706744536 640.9934763288442 449.37751259530353 617.0027910554669 445.6513977903549 614.833834025757 459.52083292825534 584.1015335453873 481.339450535459 591.7928238186051 501.85379677485923 Z" stroke="#000" stroke-width="inherit" opacity="1" class="highcharts-point " data-constituency="PB_13" data-const-name="Patiala" data-const-id="PB_13" data-won-alliance="UPA" data-z-index="0"></path>
            <path fill="rgb(39,189,255)" d="M 281.8217827633049 307.6571751366168 L 272.5277956972179 329.8706256209269 257.3401343148313 347.4959187952102 241.13828024876278 351.6114459064956 219.3172784106577 346.3148733341994 209.0711947991465 324.2398901854777 213.17038822939955 300.72370470287865 190.95404589029712 302.35491717233117 169.7044893461391 306.7099940733948 152.75950586169623 297.83749983053013 153.84484829051152 269.5461585630467 160.05898170588986 250.2324017160515 181.04857878137472 230.40572063322622 172.38480392632846 223.12019495777423 198.43180820695247 209.23265860694121 220.2342030107545 216.4425327456445 242.41157636570492 216.6464174336969 251.13549386855556 186.34570788568507 295.2585011135384 192.19343695030295 298.7532724531219 188.39610107372891 306.4718129912175 185.51690212897904 306.94787431775353 183.88643426650657 306.9161146290279 183.07897343889195 307.05102146240665 183.0750941695914 307.041948132597 182.84439249534236 307.0374114047187 182.729041907949 307.03415477446714 182.64623977138032 307.37381843420445 182.63680988074617 336.25060910679434 203.14470434047692 318.4925588103284 214.5308499054843 328.12757502657047 231.74088197827817 345.5805723501115 236.06296966836467 344.2661634563543 237.30689777135 356.0506351783552 249.5337006695118 348.1100626648949 276.8830090968124 324.14392177123244 278.0688416449798 299.8445671918327 291.3997766702383 279.43414059785704 291.1292079983183 279.8550261585068 307.15153337093324 281.8217827633049 307.6571751366168 Z" stroke="#000" stroke-width="inherit" opacity="1" class="highcharts-point " data-constituency="PB_3" data-const-name="Khadoor Sahib" data-const-id="PB_3" data-won-alliance="UPA" data-z-index="0"></path>
         </g>
      </g>
      <g data-z-index="0.1" class="highcharts-markers highcharts-series-0 highcharts-map-series  highcharts-tracker  " transform="translate(10,10) scale(1 1)" style="cursor:pointer;" clip-path="none"></g>
      <g data-z-index="0.1" class="highcharts-series highcharts-series-1 highcharts-mapline-series  highcharts-tracker  " transform="translate(10,10) scale(1 1)" stroke-width="1" style="cursor:pointer;" clip-path="url(#highcharts-51t6goo-1-)" opacity="0.8664047469737006">
         <g transform="translate(0,0) scale(1 1)">
            <path fill="none" d="M 344.2661634563543 237.30689777135 L 346.1296833326679 235.54336021799517 347.9205366682229 221.70274683801162 391.3132805301794 200.44745938186864 397.4550817590552 214.6320311919829 422.2884624371542 238.12624985303697 408.9785290730556 258.16664000832486 392.36068395940384 267.1480526204616 398.734169558295 291.7487031062963 415.51049389034085 285.0721976433326 428.9912729293102 288.5639004179804 444.42891812654256 306.78199709800316 449.8097879818599 323.70997148744266 423.33490394231654 326.01865799175044 419.3746654252959 327.2825393752263 409.71427219777786 323.06015064588297 375.84684038804323 332.5424818577413 326.01298334383364 328.4598053761149 313.53830532169894 319.11462767485153 281.92460683856183 307.68356070000635 279.8550261585068 307.15153337093324 279.43414059785704 291.1292079983183 299.8445671918327 291.3997766702383 324.14392177123244 278.0688416449798 348.1100626648949 276.8830090968124 356.0506351783552 249.5337006695118 344.2661634563543 237.30689777135 Z" stroke="#eee" stroke-width="inherit" opacity="1" class="highcharts-point" data-state="PB" data-key="PB_4"></path>
            <path fill="none" d="M 375.31245293515053 102.35666855409735 L 389.9350156909574 103.322981340897 440.61346773431575 129.7849182654537 452.0498275962168 150.9183316951192 446.25673759845944 157.31373693857378 462.94636858467794 192.69568249263367 494.74666327742534 242.9075833051887 491.1758377642141 253.54843297588593 492.6633357320978 254.46030048396068 492.6352838281301 254.5119210461041 492.63800205940106 254.59750928944413 492.4412704079469 254.68776417000342 492.2662959826077 255.46273116806572 490.3715850241202 255.50713017272983 480.3246561318578 256.5152206009431 467.87631679979626 248.16242263510762 446.63677111433765 269.6680518608033 415.51049389034085 285.0721976433326 398.734169558295 291.7487031062963 392.36068395940384 267.1480526204616 408.9785290730556 258.16664000832486 422.2884624371542 238.12624985303697 397.4550817590552 214.6320311919829 391.3132805301794 200.44745938186864 347.9205366682229 221.70274683801162 346.1296833326679 235.54336021799517 345.5805723501115 236.06296966836467 328.12757502657047 231.74088197827817 318.4925588103284 214.5308499054843 336.25060910679434 203.14470434047692 307.37381843420445 182.63680988074617 304.50016215725043 182.7166959645515 294.45609455440234 175.53323646207483 294.13179432318816 175.30638290052923 309.01554452271637 163.52066021265279 336.7443008391308 168.32714499451043 360.97374853544915 160.73603131311305 370.9947075687093 149.11648669328792 362.2356099397213 130.88505501390992 375.31245293515053 102.35666855409735 Z" stroke="#eee" stroke-width="inherit" opacity="1" class="highcharts-point" data-state="PB" data-key="PB_5"></path>
            <path fill="none" d="M 449.8097879818599 323.70997148744266 L 487.30762012370917 328.98451090113934 503.62991934765637 324.8289024699123 524.8148826336858 329.66861565167284 525.9404724685667 351.36981891750617 543.5351436328351 358.6041511095643 551.7554264290967 375.95715596712694 567.0771218506873 381.1119031808432 590.483850553061 404.74640287453855 590.5592505756656 404.73823892210055 590.491202168289 404.7999728726681 590.4953097188962 404.9486181738309 590.4093741740767 404.9503945127067 588.8157176882521 406.3963263918957 586.7699074657554 407.0337132772046 579.1312021731643 415.4236688724816 561.2615197400794 426.6339440935599 551.9174728068238 440.34574940314246 529.8920151875654 433.92876538716513 526.190496736232 420.6912366654808 508.3246174341769 415.45133907706474 476.6899034905752 421.75315254390256 475.5678298589246 439.8095914846581 427.93490554401006 440.19852774781435 440.03415657904674 426.28378930719134 414.1885394904008 402.8920889468404 370.69352866302074 415.3945828632904 348.81922318090875 407.79654051794097 346.7563388572198 397.03408513963376 365.31866049438145 385.9565620408338 373.57407104604584 370.8588648630738 386.963383509209 370.3301925052636 421.6391056531716 395.6415363627982 443.47610207105424 384.5871970499672 449.7179790005845 349.9541771385419 437.4987938081112 338.16061241270137 427.02679419548303 335.9609968382279 422.80098264486145 330.24414303843463 422.67771136860455 326.66312010454027 422.54009933819043 326.4426301797098 422.5362458938828 326.3307257545972 422.5342965447294 326.2741168858168 423.33490394231654 326.01865799175044 449.8097879818599 323.70997148744266 Z" stroke="#eee" stroke-width="inherit" opacity="1" class="highcharts-point" data-state="PB" data-key="PB_8"></path>
            <path fill="none" d="M 173.3514998079267 493.7695521281246 L 173.2555839127517 493.69236369172415 173.25060841813664 493.57928201901683 172.72494077992087 493.48349361079534 172.45463682213784 493.2659806835998 170.49704407184043 493.2178366276949 166.45664936017135 496.183796935875 161.35767541360153 507.567100771787 142.5999589454937 493.25202857718483 134.55008315279466 473.9368897321412 112.03866640952297 465.0593924442008 99.63967172707855 482.1488209460497 119.39077121833567 483.528093406569 115.20355956238409 499.683194131716 133.80510806348207 528.3420668448184 136.07966027625366 543.5849828431913 24.852344231835332 539.0330222534226 26.384618874016457 521.7212212197267 39.69201112012346 506.4564253431124 40.51934344181809 492.4626581903212 26.28164692795522 460.5216664071902 38.772143140819075 445.3195905544477 39.55385986805194 431.9848052941212 59.50030391285139 425.35934724007 66.74136492277708 409.0167534235655 86.75807654770094 394.7386673817618 113.27806228165822 357.4549309052303 133.56804865985106 344.4708157599768 140.63487703592716 332.44070998748276 189.40295541515275 311.11510151749167 190.95404589029712 302.35491717233117 213.17038822939955 300.72370470287865 209.0711947991465 324.2398901854777 219.3172784106577 346.3148733341994 241.13828024876278 351.6114459064956 233.7914528827504 376.73095310060154 223.56176864693506 379.49888222819686 199.7818186044193 363.4515202034603 174.89198144821276 361.1287200072334 142.77407504740324 379.3553406730484 148.27701724976833 394.4296023935536 173.9379792511066 401.6471926915973 192.54095067410316 417.7291090459178 170.02277273530217 436.2840580026607 166.09956953539825 458.6777741530357 152.16689937709575 469.59194474362727 173.34528200621716 493.6282230981249 173.3514998079267 493.7695521281246 Z" stroke="#eee" stroke-width="inherit" opacity="1" class="highcharts-point" data-state="PB" data-key="PB_10"></path>
            <path fill="none" d="M 591.7928238186051 501.85379677485923 L 590.8894244880419 503.0351831504842 576.6996202098462 513.5038138842018 565.5624625855069 518.0729470678508 550.0406149033275 503.36171464018304 529.7968483113431 511.21259571133913 513.8038163883796 509.22552355971163 502.8451815397225 526.0004849133164 505.40670551791044 566.3270260029111 480.4249328402349 573.0015039335212 455.8204674795415 552.3794490285071 461.987268661904 529.4245867714957 481.5883902383915 509.63746030380776 427.0619472897471 485.6087924179232 413.71530791748177 472.538297959488 389.7339669406097 470.7518570524938 403.02333605681076 442.7720349587241 427.93490554401006 440.19852774781435 475.5678298589246 439.8095914846581 476.6899034905752 421.75315254390256 508.3246174341769 415.45133907706474 526.190496736232 420.6912366654808 529.8920151875654 433.92876538716513 551.9174728068238 440.34574940314246 561.2615197400794 426.6339440935599 579.1312021731643 415.4236688724816 586.7699074657554 407.0337132772046 588.8157176882521 406.3963263918957 590.4093741740767 404.9503945127067 590.4953097188962 404.9486181738309 590.491202168289 404.7999728726681 590.5592505756656 404.73823892210055 591.0344915086355 404.6867862562444 610.8683168412584 414.93242722225256 623.1823160995889 398.9240839800816 622.8581256762691 396.4131451470987 623.6044317543481 395.35746887375774 623.6845319936109 395.1328266278551 623.7685468360179 395.05681850167656 623.9326660564643 394.75617009186107 624.0166826889206 394.6801630871639 624.0147269187264 394.60584665241515 624.0500151877499 394.5739230762475 625.46624909692 395.13640710957293 631.7899374772204 391.98487264443673 651.1476557681647 409.84907706744536 640.9934763288442 449.37751259530353 617.0027910554669 445.6513977903549 614.833834025757 459.52083292825534 584.1015335453873 481.339450535459 591.7928238186051 501.85379677485923 Z" stroke="#eee" stroke-width="inherit" opacity="1" class="highcharts-point" data-state="PB" data-key="PB_13"></path>
            <path fill="none" d="M 318.8475317254559 464.52628170662086 L 318.6918577619872 465.18067289533394 329.0956379190637 490.80358367816643 348.5423392026077 492.46597812767493 356.03747127836994 502.0694204170076 377.8459519377838 505.2533140138778 404.10575858627647 546.9590004896494 412.7826048684525 567.3494784919625 404.9107094177476 572.7375986556206 392.5054676046277 580.7565476335379 346.4412856213367 577.8812507124504 300.26670601404567 615 290.3551729879681 610.1078752926497 302.34241582561094 584.8613839274876 292.30022952038416 566.8978736497127 275.703122987004 574.3530941855713 268.10845166829415 558.4930942947772 252.44391620131285 563.1399437273653 238.84315836595832 545.487028707142 213.39532815383063 534.8564871924283 168.74295726248133 550.8705499744717 154.92950838549166 544.9139224798708 136.07966027625366 543.5849828431913 133.80510806348207 528.3420668448184 115.20355956238409 499.683194131716 119.39077121833567 483.528093406569 99.63967172707855 482.1488209460497 112.03866640952297 465.0593924442008 134.55008315279466 473.9368897321412 142.5999589454937 493.25202857718483 161.35767541360153 507.567100771787 166.45664936017135 496.183796935875 170.49704407184043 493.2178366276949 172.45463682213784 493.2659806835998 172.72494077992087 493.48349361079534 173.25060841813664 493.57928201901683 173.2555839127517 493.69236369172415 173.3514998079267 493.7695521281246 173.3573621979588 493.9028043722637 191.38418115155636 499.93410667973967 195.12009245634295 479.76305887588944 215.66869738932127 451.7584311948982 238.4007718047661 456.91849431229656 261.212767996005 455.02737680848674 270.24523904165403 446.37911945210095 287.832736677684 456.2272297131172 283.76802321189405 476.956286689483 302.9719724307379 477.1187669540884 318.8475317254559 464.52628170662086 Z" stroke="#eee" stroke-width="inherit" opacity="1" class="highcharts-point" data-state="PB" data-key="PB_11"></path>
            <path fill="none" d="M 375.31245293515053 102.35666855409735 L 362.2356099397213 130.88505501390992 370.9947075687093 149.11648669328792 360.97374853544915 160.73603131311305 336.7443008391308 168.32714499451043 309.01554452271637 163.52066021265279 294.13179432318816 175.30638290052923 292.4293163437488 174.1155991132945 272.84928217939853 168.7818642717592 246.0014256305257 153.50832895152536 232.09825240603905 132.89550917901184 234.3170614469874 108.66196432629324 254.00928019817124 110.11526529854338 311.00381673902166 94.48109393801558 321.3115538461615 73.95556067187097 322.7436297004258 48.3546188989331 352.4244922197694 53.42119138672293 402.95256578963574 32.682597094761526 422.20423422162963 18.443478926795297 436.3620323543184 0 432.7553266586675 15.871237858523822 447.35052629818034 34.09548024625842 430.34498267570797 40.792031571614814 408.0422319579289 62.62107078433973 384.4463042854188 70.66934341226855 391.23313535778294 89.04937546016683 375.31245293515053 102.35666855409735 Z" stroke="#eee" stroke-width="inherit" opacity="1" class="highcharts-point" data-state="PB" data-key="PB_1"></path>
            <path fill="none" d="M 234.3170614469874 108.66196432629324 L 232.09825240603905 132.89550917901184 246.0014256305257 153.50832895152536 272.84928217939853 168.7818642717592 292.4293163437488 174.1155991132945 294.45609455440234 175.53323646207483 304.50016215725043 182.7166959645515 307.03415477446714 182.64623977138032 307.0374114047187 182.729041907949 307.041948132597 182.84439249534236 307.05102146240665 183.0750941695914 306.9161146290279 183.07897343889195 306.94787431775353 183.88643426650657 306.4718129912175 185.51690212897904 298.7532724531219 188.39610107372891 295.2585011135384 192.19343695030295 251.13549386855556 186.34570788568507 242.41157636570492 216.6464174336969 220.2342030107545 216.4425327456445 198.43180820695247 209.23265860694121 172.38480392632846 223.12019495777423 173.9123927317267 208.9126260197164 160.17683276847973 198.19720627262163 146.09062312974484 176.65353047997274 162.52832220052557 169.01923880684902 163.4567360839852 154.2406110982917 183.2954853187216 137.4978385817732 214.2595012117273 126.81783224799392 234.3170614469874 108.66196432629324 Z" stroke="#eee" stroke-width="inherit" opacity="1" class="highcharts-point" data-state="PB" data-key="PB_2"></path>
            <path fill="none" d="M 281.8217827633049 307.6571751366168 L 272.5277956972179 329.8706256209269 257.3401343148313 347.4959187952102 241.13828024876278 351.6114459064956 219.3172784106577 346.3148733341994 209.0711947991465 324.2398901854777 213.17038822939955 300.72370470287865 190.95404589029712 302.35491717233117 169.7044893461391 306.7099940733948 152.75950586169623 297.83749983053013 153.84484829051152 269.5461585630467 160.05898170588986 250.2324017160515 181.04857878137472 230.40572063322622 172.38480392632846 223.12019495777423 198.43180820695247 209.23265860694121 220.2342030107545 216.4425327456445 242.41157636570492 216.6464174336969 251.13549386855556 186.34570788568507 295.2585011135384 192.19343695030295 298.7532724531219 188.39610107372891 306.4718129912175 185.51690212897904 306.94787431775353 183.88643426650657 306.9161146290279 183.07897343889195 307.05102146240665 183.0750941695914 307.041948132597 182.84439249534236 307.0374114047187 182.729041907949 307.03415477446714 182.64623977138032 307.37381843420445 182.63680988074617 336.25060910679434 203.14470434047692 318.4925588103284 214.5308499054843 328.12757502657047 231.74088197827817 345.5805723501115 236.06296966836467 344.2661634563543 237.30689777135 356.0506351783552 249.5337006695118 348.1100626648949 276.8830090968124 324.14392177123244 278.0688416449798 299.8445671918327 291.3997766702383 279.43414059785704 291.1292079983183 279.8550261585068 307.15153337093324 281.8217827633049 307.6571751366168 Z" stroke="#eee" stroke-width="inherit" opacity="1" class="highcharts-point" data-state="PB" data-key="PB_3"></path>
            <path fill="none" d="M 593.8033711658181 282.73996776508613 L 588.4731345366745 325.9751973964172 609.6915116542833 334.46107423541343 621.5290122326171 346.2878251461484 633.4900310104266 361.5945882208788 633.553390382477 375.83990307844886 619.3123954559669 368.5227453535786 605.0643572248943 376.5718435685302 621.6158221167105 393.60734274667885 624.0500151877499 394.5739230762475 624.0147269187264 394.60584665241515 624.0166826889206 394.6801630871639 623.9326660564643 394.75617009186107 623.7685468360179 395.05681850167656 623.6845319936109 395.1328266278551 623.6044317543481 395.35746887375774 622.8581256762691 396.4131451470987 623.1823160995889 398.9240839800816 610.8683168412584 414.93242722225256 591.0344915086355 404.6867862562444 590.483850553061 404.74640287453855 567.0771218506873 381.1119031808432 551.7554264290967 375.95715596712694 543.5351436328351 358.6041511095643 525.9404724685667 351.36981891750617 524.8148826336858 329.66861565167284 503.62991934765637 324.8289024699123 487.30762012370917 328.98451090113934 449.8097879818599 323.70997148744266 444.42891812654256 306.78199709800316 428.9912729293102 288.5639004179804 415.51049389034085 285.0721976433326 446.63677111433765 269.6680518608033 467.87631679979626 248.16242263510762 480.3246561318578 256.5152206009431 490.3715850241202 255.50713017272983 492.2662959826077 255.46273116806572 492.4412704079469 254.68776417000342 492.63800205940106 254.59750928944413 492.6352838281301 254.5119210461041 492.6633357320978 254.46030048396068 492.85689173459014 254.57896495070372 498.0391009233492 263.1687581895316 524.8509434356968 259.14899557403083 536.6714864868754 240.6719680194544 550.8946886453839 259.4336570095717 593.8033711658181 282.73996776508613 Z" stroke="#eee" stroke-width="inherit" opacity="1" class="highcharts-point" data-state="PB" data-key="PB_6"></path>
            <path fill="none" d="M 427.93490554401006 440.19852774781435 L 403.02333605681076 442.7720349587241 389.7339669406097 470.7518570524938 413.71530791748177 472.538297959488 427.0619472897471 485.6087924179232 481.5883902383915 509.63746030380776 461.987268661904 529.4245867714957 455.8204674795415 552.3794490285071 480.4249328402349 573.0015039335212 470.23662794069327 585.8367957464677 433.4279582263713 585.0438715260647 424.37627747804373 571.9707932849055 404.9107094177476 572.7375986556206 412.7826048684525 567.3494784919625 404.10575858627647 546.9590004896494 377.8459519377838 505.2533140138778 356.03747127836994 502.0694204170076 348.5423392026077 492.46597812767493 329.0956379190637 490.80358367816643 318.6918577619872 465.18067289533394 318.85353771432233 464.5010358169092 305.7967817310051 436.879920506098 317.58547904277856 422.4814296549485 336.8154189315635 415.42620691469097 336.8863654672249 412.7806105689219 336.8884477749334 412.7805518296722 337.08366481995097 412.77504557804167 337.1812731559789 412.77229288255944 337.4740989471629 412.7640364743522 338.54779449862247 412.73378477043883 339.41992688128215 412.54015551826177 343.8499705864269 410.80956454047686 348.81922318090875 407.79654051794097 370.69352866302074 415.3945828632904 414.1885394904008 402.8920889468404 440.03415657904674 426.28378930719134 427.93490554401006 440.19852774781435 Z" stroke="#eee" stroke-width="inherit" opacity="1" class="highcharts-point" data-state="PB" data-key="PB_12"></path>
            <path fill="none" d="M 348.81922318090875 407.79654051794097 L 343.8499705864269 410.80956454047686 339.41992688128215 412.54015551826177 338.54779449862247 412.73378477043883 337.4740989471629 412.7640364743522 337.1812731559789 412.77229288255944 337.08366481995097 412.77504557804167 336.8884477749334 412.7805518296722 336.8863654672249 412.7806105689219 336.89157043524574 412.5865460721173 331.3654418079132 404.31596307847116 334.5574496245435 365.7056230637546 326.01298334383364 328.4598053761149 375.84684038804323 332.5424818577413 409.71427219777786 323.06015064588297 419.3746654252959 327.2825393752263 422.5342965447294 326.2741168858168 422.5362458938828 326.3307257545972 422.54009933819043 326.4426301797098 422.67771136860455 326.66312010454027 422.80098264486145 330.24414303843463 427.02679419548303 335.9609968382279 437.4987938081112 338.16061241270137 449.7179790005845 349.9541771385419 443.47610207105424 384.5871970499672 421.6391056531716 395.6415363627982 386.963383509209 370.3301925052636 373.57407104604584 370.8588648630738 365.31866049438145 385.9565620408338 346.7563388572198 397.03408513963376 348.81922318090875 407.79654051794097 Z" stroke="#eee" stroke-width="inherit" opacity="1" class="highcharts-point" data-state="PB" data-key="PB_7"></path>
            <path fill="none" d="M 326.01298334383364 328.4598053761149 L 334.5574496245435 365.7056230637546 331.3654418079132 404.31596307847116 336.89157043524574 412.5865460721173 336.8154189315635 415.42620691469097 317.58547904277856 422.4814296549485 305.7967817310051 436.879920506098 318.85353771432233 464.5010358169092 318.8475317254559 464.52628170662086 302.9719724307379 477.1187669540884 283.76802321189405 476.956286689483 287.832736677684 456.2272297131172 270.24523904165403 446.37911945210095 261.212767996005 455.02737680848674 238.4007718047661 456.91849431229656 215.66869738932127 451.7584311948982 195.12009245634295 479.76305887588944 191.38418115155636 499.93410667973967 173.3573621979588 493.9028043722637 173.34528200621716 493.6282230981249 152.16689937709575 469.59194474362727 166.09956953539825 458.6777741530357 170.02277273530217 436.2840580026607 192.54095067410316 417.7291090459178 173.9379792511066 401.6471926915973 148.27701724976833 394.4296023935536 142.77407504740324 379.3553406730484 174.89198144821276 361.1287200072334 199.7818186044193 363.4515202034603 223.56176864693506 379.49888222819686 233.7914528827504 376.73095310060154 241.13828024876278 351.6114459064956 257.3401343148313 347.4959187952102 272.5277956972179 329.8706256209269 281.8217827633049 307.6571751366168 281.92460683856183 307.68356070000635 313.53830532169894 319.11462767485153 326.01298334383364 328.4598053761149 Z" stroke="#eee" stroke-width="inherit" opacity="1" class="highcharts-point" data-state="PB" data-key="PB_9"></path>
         </g>
      </g>
      <g data-z-index="0.1" class="highcharts-markers highcharts-series-1 highcharts-mapline-series  highcharts-tracker  " transform="translate(10,10) scale(1 1)" style="cursor:pointer;" clip-path="none" opacity="0.8664047469737006"></g>
   </g>
   <text x="348" text-anchor="middle" class="highcharts-title" data-z-index="4" style="color:#333333;font-size:18px;fill:#333333;" y="24"></text>
   <text x="348" text-anchor="middle" class="highcharts-subtitle" data-z-index="4" style="color:#666666;fill:#666666;" y="24"></text>
   <g class="highcharts-button highcharts-map-navigation highcharts-zoom-in" style="[object Object]" data-z-index="5" transform="translate(658,10)">
      <path fill="#f7f7f7" class="highcharts-button-box" d="M 1.5 -0.5 L 25.5 -0.5 C 26.5 -0.5 27.5 0.5 27.5 1.5 L 27.5 27.5 C 27.5 27.5 27.5 27.5 27.5 27.5 L -0.5 27.5 C -0.5 27.5 -0.5 27.5 -0.5 27.5 L -0.5 1.5 C -0.5 0.5 0.5 -0.5 1.5 -0.5 Z" stroke="#cccccc" stroke-width="1"></path>
      <title>Zoom in</title>
      <text x="7.59375" data-z-index="1" style="font-size:15px;font-weight:bold;color:#333333;cursor:pointer;fill:#333333;" y="19">+</text>
   </g>
   <g class="highcharts-button highcharts-map-navigation highcharts-zoom-out" style="[object Object]" data-z-index="5" transform="translate(658,38)">
      <path fill="#f7f7f7" class="highcharts-button-box" d="M -0.5 -0.5 L 27.5 -0.5 C 27.5 -0.5 27.5 -0.5 27.5 -0.5 L 27.5 25.5 C 27.5 26.5 26.5 27.5 25.5 27.5 L 1.5 27.5 C 0.5 27.5 -0.5 26.5 -0.5 25.5 L -0.5 -0.5 C -0.5 -0.5 -0.5 -0.5 -0.5 -0.5 Z" stroke="#cccccc" stroke-width="1"></path>
      <title>Zoom out</title>
      <text x="10.5" data-z-index="1" style="font-size:15px;font-weight:bold;color:#333333;cursor:pointer;fill:#333333;" y="19">-</text>
   </g>
   <g data-z-index="6" class="highcharts-data-labels highcharts-series-0 highcharts-map-series  highcharts-tracker  " transform="translate(10,10) scale(1 1)" clip-path="url(#highcharts-51t6goo-1-)" style="cursor:pointer;"></g>
   <g data-z-index="6" class="highcharts-data-labels highcharts-series-1 highcharts-mapline-series  highcharts-tracker  " transform="translate(10,10) scale(1 1)" clip-path="url(#highcharts-51t6goo-1-)" style="cursor:pointer;" opacity="0.8664047469737006"></g>
   <g class="highcharts-label highcharts-tooltip highcharts-color-undefined" style="pointer-events:auto;white-space:nowrap;" data-z-index="8" transform="translate(124,-9999)" opacity="0" visibility="visible">
      <path fill="rgba(247,247,247,0.85)" class="highcharts-label-box highcharts-tooltip-box" d="M 0 0 L 280 0 C 280 0 280 0 280 0 L 280 227 C 280 227 280 227 280 227 L 146 227 140 233 134 227 0 227 C 0 227 0 227 0 227 L 0 0 C 0 0 0 0 0 0"></path>
   </g>
</svg>