<svg version="1.1" class="highcharts-root" style="font-family:&quot;Lucida Grande&quot;, &quot;Lucida Sans Unicode&quot;, Arial, Helvetica, sans-serif;font-size:12px;" xmlns="http://www.w3.org/2000/svg" width="696" height="640" viewBox="0 0 696 640">
   <desc>Created with Highcharts 7.1.0</desc>
   <defs>
      <clipPath id="highcharts-qtpsys8-1-">
         <rect x="0" y="0" width="676" height="615" fill="none"></rect>
      </clipPath>
   </defs>
   <rect fill="#fff" class="highcharts-background" x="0" y="0" width="696" height="640" rx="0" ry="0"></rect>
   <rect fill="none" class="highcharts-plot-background" x="10" y="10" width="676" height="615"></rect>
   <rect fill="none" class="highcharts-plot-border" data-z-index="1" x="10" y="10" width="676" height="615"></rect>
   <g class="highcharts-series-group" data-z-index="3" style="pointer-events: auto;">
      <g data-z-index="0.1" class="highcharts-series highcharts-series-0 highcharts-map-series  highcharts-tracker  highcharts-series-hover" transform="translate(10,10) scale(1 1)" stroke-width="0.3" style="cursor:pointer;" clip-path="url(#highcharts-qtpsys8-1-)">
         <g transform="translate(0,0) scale(1 1)">
            <path fill="rgb(138,138,138)" d="M 520.0160080014155 574.1561982186474 L 421.9970892834968 545.8572530770118 324.25350506619833 615 246.29448243186118 586.2423330606771 153.13012014966216 596.6170255019848 65.58672130602378 532.2343313630142 93.43994924567714 463.2435755214401 84.27214628836319 362.6444241035171 147.78877630203186 255.22934222568264 179.23170759091806 143.95003057937 137.36415937056182 130.01146260086693 145.77785101248327 74.93669378765324 209.93456452593222 84.05599782087947 298.6643361035452 66.06400486185832 412.65786360092693 0 520.516870029511 7.494922696725824 575.3980310053244 57.89668479219342 599.3614946091493 116.5553856651612 578.5949822817252 255.21925532399703 529.8058720816671 318.8976868780923 539.6948430597827 385.9129679557403 584.39572709814 428.0173727514724 610.4132786939763 496.5110335681478 550.3450925093448 513.282677412073 520.0160080014155 574.1561982186474 Z" stroke="#000" stroke-width="inherit" opacity="1" class="highcharts-point  highcharts-point-hover" data-constituency="SK_1" data-const-name="Sikkim" data-const-id="SK_1" data-won-alliance="OTH" data-z-index="1"></path>
         </g>
      </g>
      <g data-z-index="0.1" class="highcharts-markers highcharts-series-0 highcharts-map-series  highcharts-tracker  highcharts-series-hover" transform="translate(10,10) scale(1 1)" style="cursor:pointer;" clip-path="none"></g>
      <g data-z-index="0.1" class="highcharts-series highcharts-series-1 highcharts-mapline-series  highcharts-tracker  highcharts-series-inactive" transform="translate(10,10) scale(1 1)" stroke-width="1" style="cursor:pointer;" clip-path="url(#highcharts-qtpsys8-1-)" opacity="0.2">
         <g transform="translate(0,0) scale(1 1)">
            <path fill="none" d="M 520.0160080014155 574.1561982186474 L 421.9970892834968 545.8572530770118 324.25350506619833 615 246.29448243186118 586.2423330606771 153.13012014966216 596.6170255019848 65.58672130602378 532.2343313630142 93.43994924567714 463.2435755214401 84.27214628836319 362.6444241035171 147.78877630203186 255.22934222568264 179.23170759091806 143.95003057937 137.36415937056182 130.01146260086693 145.77785101248327 74.93669378765324 209.93456452593222 84.05599782087947 298.6643361035452 66.06400486185832 412.65786360092693 0 520.516870029511 7.494922696725824 575.3980310053244 57.89668479219342 599.3614946091493 116.5553856651612 578.5949822817252 255.21925532399703 529.8058720816671 318.8976868780923 539.6948430597827 385.9129679557403 584.39572709814 428.0173727514724 610.4132786939763 496.5110335681478 550.3450925093448 513.282677412073 520.0160080014155 574.1561982186474 Z" stroke="#eee" stroke-width="inherit" opacity="1" class="highcharts-point" data-state="SK" data-key="SK_1"></path>
         </g>
      </g>
      <g data-z-index="0.1" class="highcharts-markers highcharts-series-1 highcharts-mapline-series  highcharts-tracker  highcharts-series-inactive" transform="translate(10,10) scale(1 1)" style="cursor:pointer;" clip-path="none" opacity="0.2"></g>
   </g>
   <text x="348" text-anchor="middle" class="highcharts-title" data-z-index="4" style="color:#333333;font-size:18px;fill:#333333;" y="24"></text>
   <text x="348" text-anchor="middle" class="highcharts-subtitle" data-z-index="4" style="color:#666666;fill:#666666;" y="24"></text>
   <g class="highcharts-button highcharts-map-navigation highcharts-zoom-in" style="[object Object]" data-z-index="5" transform="translate(658,10)">
      <path fill="#f7f7f7" class="highcharts-button-box" d="M 1.5 -0.5 L 25.5 -0.5 C 26.5 -0.5 27.5 0.5 27.5 1.5 L 27.5 27.5 C 27.5 27.5 27.5 27.5 27.5 27.5 L -0.5 27.5 C -0.5 27.5 -0.5 27.5 -0.5 27.5 L -0.5 1.5 C -0.5 0.5 0.5 -0.5 1.5 -0.5 Z" stroke="#cccccc" stroke-width="1"></path>
      <title>Zoom in</title>
      <text x="7.59375" data-z-index="1" style="font-size:15px;font-weight:bold;color:#333333;cursor:pointer;fill:#333333;" y="19">+</text>
   </g>
   <g class="highcharts-button highcharts-map-navigation highcharts-zoom-out" style="[object Object]" data-z-index="5" transform="translate(658,38)">
      <path fill="#f7f7f7" class="highcharts-button-box" d="M -0.5 -0.5 L 27.5 -0.5 C 27.5 -0.5 27.5 -0.5 27.5 -0.5 L 27.5 25.5 C 27.5 26.5 26.5 27.5 25.5 27.5 L 1.5 27.5 C 0.5 27.5 -0.5 26.5 -0.5 25.5 L -0.5 -0.5 C -0.5 -0.5 -0.5 -0.5 -0.5 -0.5 Z" stroke="#cccccc" stroke-width="1"></path>
      <title>Zoom out</title>
      <text x="10.5" data-z-index="1" style="font-size:15px;font-weight:bold;color:#333333;cursor:pointer;fill:#333333;" y="19">-</text>
   </g>
   <g data-z-index="6" class="highcharts-data-labels highcharts-series-0 highcharts-map-series  highcharts-tracker  highcharts-series-hover" transform="translate(10,10) scale(1 1)" clip-path="url(#highcharts-qtpsys8-1-)" style="cursor:pointer;"></g>
   <g data-z-index="6" class="highcharts-data-labels highcharts-series-1 highcharts-mapline-series  highcharts-tracker  highcharts-series-inactive" transform="translate(10,10) scale(1 1)" clip-path="url(#highcharts-qtpsys8-1-)" style="cursor:pointer;" opacity="0.2"></g>
   <g class="highcharts-label highcharts-tooltip highcharts-color-undefined" style="pointer-events:auto;white-space:nowrap;" data-z-index="8" transform="translate(208,76)" opacity="1" visibility="visible">
      <path fill="rgba(247,247,247,0.85)" class="highcharts-label-box highcharts-tooltip-box" d="M 0 0 L 280 0 C 280 0 280 0 280 0 L 280 226 C 280 226 280 226 280 226 L 146 226 140 232 134 226 0 226 C 0 226 0 226 0 226 L 0 0 C 0 0 0 0 0 0"></path>
   </g>
</svg>