<svg version="1.1" class="highcharts-root" style="font-family:&quot;Lucida Grande&quot;, &quot;Lucida Sans Unicode&quot;, Arial, Helvetica, sans-serif;font-size:12px;" xmlns="http://www.w3.org/2000/svg" width="696" height="640" viewBox="0 0 696 640">
   <desc>Created with Highcharts 7.1.0</desc>
   <defs>
      <clipPath id="highcharts-ngfl6xt-1-">
         <rect x="0" y="0" width="676" height="615" fill="none"></rect>
      </clipPath>
   </defs>
   <rect fill="#fff" class="highcharts-background" x="0" y="0" width="696" height="640" rx="0" ry="0"></rect>
   <rect fill="none" class="highcharts-plot-background" x="10" y="10" width="676" height="615"></rect>
   <rect fill="none" class="highcharts-plot-border" data-z-index="1" x="10" y="10" width="676" height="615"></rect>
   <g class="highcharts-series-group" data-z-index="3" style="pointer-events: auto;">
      <g data-z-index="0.1" class="highcharts-series highcharts-series-0 highcharts-map-series  highcharts-tracker   highcharts-series-hover" transform="translate(10,10) scale(1 1)" stroke-width="0.3" style="cursor:pointer;" clip-path="url(#highcharts-ngfl6xt-1-)">
         <g transform="translate(0,0) scale(1 1)">
            <path fill="rgb(255,150,80)" d="M 233.39659422866703 159.8957587251428 L 239.78967450642688 199.09650776579616 263.9047875778802 236.48882827819358 266.14629231605096 304.91330734495256 310.00010221463094 476.1105758808463 250.12697980234475 478.82493488978884 222.1359565624868 489.6391665368818 195.0099996996106 515.9899295986637 172.21308468633706 498.94144370757806 141.86673167424044 399.7982364125546 107.73883975325765 355.7466831152286 108.07422467027898 298.7555461418872 133.1180489469022 298.97317367160815 135.34888939613217 243.60202553840745 155.5848636801871 206.3642032634164 186.662239009934 204.3363346355205 202.78430995459757 177.232544465845 233.39659422866703 159.8957587251428 M 342.01299332782366 222.84959016992485 L 353.80810655160053 300.231096609502 335.9146165336807 310.1285096976779 295.49387626226655 273.17869163242943 311.1355619647735 237.38099163172464 342.01299332782366 222.84959016992485 Z" stroke="#000" stroke-width="inherit" opacity="1" class="highcharts-point " data-constituency="TR_1" data-const-name="Tripura West" data-const-id="TR_1" data-won-alliance="NDA" data-z-index="0"></path>
            <path fill="rgb(255,201,131)" d="M 529.9002893702329 0.599348782779906 L 545.5617666359143 45.988189723712544 521.7744339989156 100.82576568148784 554.7713112641093 99.92508155487671 565.7872488778221 118.06082274511424 568.2611602467423 234.00243781628322 539.9553664301941 272.1256866796433 543.7331914177444 307.2290591288345 495.47920428027516 305.6485858094959 469.8601689724206 337.03297762116557 413.74438582974244 324.2820122381115 429.4244893360696 402.76970008577683 395.4391533262798 421.9645578853128 354.39498461085475 472.07314483416195 367.3154537518024 553.8068100496564 325.7307679162352 597.8735884887225 288.5352117254795 615 260.2713351071563 579.8917318125584 222.1359565624868 489.6391665368818 250.12697980234475 478.82493488978884 310.00010221463094 476.1105758808463 266.14629231605096 304.91330734495256 263.9047875778802 236.48882827819358 239.78967450642688 199.09650776579616 233.39659422866703 159.8957587251428 282.22181210358207 166.69738254095503 304.734587729968 125.31964857805531 345.5994540709688 142.6807658725036 339.11425609313983 101.9307386435006 404.437484542101 140.2387518216908 428.20133403248616 49.798793804219834 486.80438701082227 47.75255869376274 505.59389585227706 32.21640710024795 498.6758477443485 0 529.9002893702329 0.599348782779906 M 342.01299332782366 222.84959016992485 L 311.1355619647735 237.38099163172464 295.49387626226655 273.17869163242943 335.9146165336807 310.1285096976779 353.80810655160053 300.231096609502 342.01299332782366 222.84959016992485 Z" stroke="#000" stroke-width="inherit" opacity="1" class="highcharts-point   highcharts-point-hover" data-constituency="TR_2" data-const-name="Tripura East" data-const-id="TR_2" data-won-alliance="NDA" data-z-index="1"></path>
         </g>
      </g>
      <g data-z-index="0.1" class="highcharts-markers highcharts-series-0 highcharts-map-series  highcharts-tracker   highcharts-series-hover" transform="translate(10,10) scale(1 1)" style="cursor:pointer;" clip-path="none"></g>
      <g data-z-index="0.1" class="highcharts-series highcharts-series-1 highcharts-mapline-series  highcharts-tracker   highcharts-series-inactive" transform="translate(10,10) scale(1 1)" stroke-width="1" style="cursor:pointer;" clip-path="url(#highcharts-ngfl6xt-1-)" opacity="0.2">
         <g transform="translate(0,0) scale(1 1)">
            <path fill="none" d="M 529.9002893702329 0.599348782779906 L 545.5617666359143 45.988189723712544 521.7744339989156 100.82576568148784 554.7713112641093 99.92508155487671 565.7872488778221 118.06082274511424 568.2611602467423 234.00243781628322 539.9553664301941 272.1256866796433 543.7331914177444 307.2290591288345 495.47920428027516 305.6485858094959 469.8601689724206 337.03297762116557 413.74438582974244 324.2820122381115 429.4244893360696 402.76970008577683 395.4391533262798 421.9645578853128 354.39498461085475 472.07314483416195 367.3154537518024 553.8068100496564 325.7307679162352 597.8735884887225 288.5352117254795 615 260.2713351071563 579.8917318125584 222.1359565624868 489.6391665368818 250.12697980234475 478.82493488978884 310.00010221463094 476.1105758808463 266.14629231605096 304.91330734495256 263.9047875778802 236.48882827819358 239.78967450642688 199.09650776579616 233.39659422866703 159.8957587251428 282.22181210358207 166.69738254095503 304.734587729968 125.31964857805531 345.5994540709688 142.6807658725036 339.11425609313983 101.9307386435006 404.437484542101 140.2387518216908 428.20133403248616 49.798793804219834 486.80438701082227 47.75255869376274 505.59389585227706 32.21640710024795 498.6758477443485 0 529.9002893702329 0.599348782779906 M 342.01299332782366 222.84959016992485 L 311.1355619647735 237.38099163172464 295.49387626226655 273.17869163242943 335.9146165336807 310.1285096976779 353.80810655160053 300.231096609502 342.01299332782366 222.84959016992485 Z" stroke="#eee" stroke-width="inherit" opacity="1" class="highcharts-point" data-state="TR" data-key="TR_2"></path>
            <path fill="none" d="M 233.39659422866703 159.8957587251428 L 239.78967450642688 199.09650776579616 263.9047875778802 236.48882827819358 266.14629231605096 304.91330734495256 310.00010221463094 476.1105758808463 250.12697980234475 478.82493488978884 222.1359565624868 489.6391665368818 195.0099996996106 515.9899295986637 172.21308468633706 498.94144370757806 141.86673167424044 399.7982364125546 107.73883975325765 355.7466831152286 108.07422467027898 298.7555461418872 133.1180489469022 298.97317367160815 135.34888939613217 243.60202553840745 155.5848636801871 206.3642032634164 186.662239009934 204.3363346355205 202.78430995459757 177.232544465845 233.39659422866703 159.8957587251428 M 342.01299332782366 222.84959016992485 L 353.80810655160053 300.231096609502 335.9146165336807 310.1285096976779 295.49387626226655 273.17869163242943 311.1355619647735 237.38099163172464 342.01299332782366 222.84959016992485 Z" stroke="#eee" stroke-width="inherit" opacity="1" class="highcharts-point" data-state="TR" data-key="TR_1"></path>
         </g>
      </g>
      <g data-z-index="0.1" class="highcharts-markers highcharts-series-1 highcharts-mapline-series  highcharts-tracker   highcharts-series-inactive" transform="translate(10,10) scale(1 1)" style="cursor:pointer;" clip-path="none" opacity="0.2"></g>
   </g>
   <text x="348" text-anchor="middle" class="highcharts-title" data-z-index="4" style="color:#333333;font-size:18px;fill:#333333;" y="24"></text>
   <text x="348" text-anchor="middle" class="highcharts-subtitle" data-z-index="4" style="color:#666666;fill:#666666;" y="24"></text>
   <g class="highcharts-button highcharts-map-navigation highcharts-zoom-in" style="[object Object]" data-z-index="5" transform="translate(658,10)">
      <path fill="#f7f7f7" class="highcharts-button-box" d="M 1.5 -0.5 L 25.5 -0.5 C 26.5 -0.5 27.5 0.5 27.5 1.5 L 27.5 27.5 C 27.5 27.5 27.5 27.5 27.5 27.5 L -0.5 27.5 C -0.5 27.5 -0.5 27.5 -0.5 27.5 L -0.5 1.5 C -0.5 0.5 0.5 -0.5 1.5 -0.5 Z" stroke="#cccccc" stroke-width="1"></path>
      <title>Zoom in</title>
      <text x="7.59375" data-z-index="1" style="font-size:15px;font-weight:bold;color:#333333;cursor:pointer;fill:#333333;" y="19">+</text>
   </g>
   <g class="highcharts-button highcharts-map-navigation highcharts-zoom-out" style="[object Object]" data-z-index="5" transform="translate(658,38)">
      <path fill="#f7f7f7" class="highcharts-button-box" d="M -0.5 -0.5 L 27.5 -0.5 C 27.5 -0.5 27.5 -0.5 27.5 -0.5 L 27.5 25.5 C 27.5 26.5 26.5 27.5 25.5 27.5 L 1.5 27.5 C 0.5 27.5 -0.5 26.5 -0.5 25.5 L -0.5 -0.5 C -0.5 -0.5 -0.5 -0.5 -0.5 -0.5 Z" stroke="#cccccc" stroke-width="1"></path>
      <title>Zoom out</title>
      <text x="10.5" data-z-index="1" style="font-size:15px;font-weight:bold;color:#333333;cursor:pointer;fill:#333333;" y="19">-</text>
   </g>
   <g data-z-index="6" class="highcharts-data-labels highcharts-series-0 highcharts-map-series  highcharts-tracker   highcharts-series-hover" transform="translate(10,10) scale(1 1)" clip-path="url(#highcharts-ngfl6xt-1-)" style="cursor:pointer;"></g>
   <g data-z-index="6" class="highcharts-data-labels highcharts-series-1 highcharts-mapline-series  highcharts-tracker   highcharts-series-inactive" transform="translate(10,10) scale(1 1)" clip-path="url(#highcharts-ngfl6xt-1-)" style="cursor:pointer;" opacity="0.2"></g>
   <g class="highcharts-label highcharts-tooltip highcharts-color-undefined" style="pointer-events:auto;white-space:nowrap;" data-z-index="8" transform="translate(265,76)" opacity="1" visibility="visible">
      <path fill="rgba(247,247,247,0.85)" class="highcharts-label-box highcharts-tooltip-box" d="M 0 0 L 280 0 C 280 0 280 0 280 0 L 280 226 C 280 226 280 226 280 226 L 146 226 140 232 134 226 0 226 C 0 226 0 226 0 226 L 0 0 C 0 0 0 0 0 0"></path>
   </g>
</svg>